<?xml version="1.0" encoding="UTF-8"?>
<!DOCTYPE svg PUBLIC "-//W3C//DTD SVG 1.1//EN" "http://www.w3.org/Graphics/SVG/1.1/DTD/svg11.dtd">
<!-- Creator: CorelDRAW -->
<svg xmlns="http://www.w3.org/2000/svg" xml:space="preserve" width="210px" height="315px" style="shape-rendering:geometricPrecision; text-rendering:geometricPrecision; image-rendering:optimizeQuality; fill-rule:evenodd; clip-rule:evenodd"
viewBox="0 0 210 315"
 xmlns:xlink="http://www.w3.org/1999/xlink">
 <defs>
  <style type="text/css">
   <![CDATA[
    .fil2 {fill:black}
    .fil19 {fill:#0D0D0D}
    .fil17 {fill:#131313}
    .fil13 {fill:#151515}
    .fil18 {fill:#2C2C2C}
    .fil22 {fill:#444444}
    .fil20 {fill:#555555}
    .fil16 {fill:#626262}
    .fil11 {fill:#6CACE8}
    .fil12 {fill:#7CC0FF}
    .fil21 {fill:#A2A2A2}
    .fil14 {fill:#BA2229}
    .fil1 {fill:#E6F0FF}
    .fil3 {fill:#FE9E23}
    .fil4 {fill:#FED41E}
    .fil10 {fill:white}
    .fil0 {fill:#C4C4C4;fill-opacity:0.400000}
    .fil7 {fill:url(#id3)}
    .fil5 {fill:url(#id4)}
    .fil6 {fill:url(#id5)}
    .fil8 {fill:url(#id6)}
    .fil9 {fill:url(#id7)}
    .fil15 {fill:url(#id8)}
   ]]>
  </style>
   <pattern id="id0" patternUnits="userSpaceOnUse" patternTransform="matrix(1 0 0 1 142.527 223.584)" x="0" y="0" width="3.1252" height="3.1252" viewBox="-51.2504 1.24961 3.1252 3.1252">
    <polygon id="1" class="fil10" points="-351.25,-298.75 251.875,-298.75 251.875,304.375 -351.25,304.375 "/>
    <g id="_0">
     <image id="1" transform="matrix(1 0 0 1 -66.522 156.25)" x="0" y="0" width="3.1252" height="3.1252" xlink:href="Logo 100x100_Images\Logo 100x100_ImgID1.png"/>
    </g>
   </pattern>
   <mask id="id1">
  <linearGradient id="id2" gradientUnits="userSpaceOnUse" x1="109.065" y1="158.504" x2="100.92" y2="182.943">
   <stop offset="0" style="stop-opacity:1; stop-color:white"/>
   <stop offset="1" style="stop-opacity:0; stop-color:white"/>
  </linearGradient>
    <rect style="fill:url(#id2)" x="92.9528" y="160.56" width="24.0803" height="20.3268"/>
   </mask>
  <linearGradient id="id3" gradientUnits="userSpaceOnUse" x1="91.1138" y1="202.144" x2="91.1138" y2="220">
   <stop offset="0" style="stop-color:black"/>
   <stop offset="1" style="stop-color:black"/>
  </linearGradient>
  <linearGradient id="id4" gradientUnits="userSpaceOnUse" xlink:href="#id3" x1="93.4028" y1="226.696" x2="93.4028" y2="250.651">
  </linearGradient>
  <linearGradient id="id5" gradientUnits="userSpaceOnUse" xlink:href="#id3" x1="100.267" y1="251.25" x2="100.267" y2="269.907">
  </linearGradient>
  <linearGradient id="id6" gradientUnits="userSpaceOnUse" xlink:href="#id3" x1="54.6768" y1="174.94" x2="34.0642" y2="205.859">
  </linearGradient>
  <linearGradient id="id7" gradientUnits="userSpaceOnUse" xlink:href="#id3" x1="149.652" y1="180.376" x2="163.993" y2="209.055">
  </linearGradient>
  <linearGradient id="id8" gradientUnits="userSpaceOnUse" xlink:href="#id3" x1="108.25" y1="160.949" x2="101.735" y2="180.498">
  </linearGradient>
 </defs>
 <g id="Слой_x0020_1">
  <metadata id="CorelCorpID_0Corel-Layer"/>
  <path class="fil0" d="M166.632 304.822c0,4.9311 -28.6878,8.92795 -64.0772,8.92795 -35.3894,0 -64.0772,-3.99685 -64.0772,-8.92795 0,-4.9311 28.6878,-8.92795 64.0772,-8.92795 35.3894,0 64.0772,3.99685 64.0772,8.92795z"/>
  <path class="fil1" d="M111.867 233.643c-7.95,11.8335 -35.7945,7.97362 -62.1933,-8.62087 -26.3988,-16.5945 -41.3539,-39.639 -33.4039,-51.4713 7.95118,-11.8335 35.7957,-7.97362 62.1945,8.62087 26.3988,16.5933 41.3539,39.639 33.4028,51.4713z"/>
  <path class="fil2" d="M88.6748 233.336c10.6807,1.4811 15.7488,-0.95315 17.3634,-3.35669 1.61575,-2.40472 1.85669,-7.87205 -3.87992,-16.7114 -5.39528,-8.31496 -14.9339,-17.5701 -27.4819,-25.4575 -12.5492,-7.88858 -25.1669,-12.5598 -35.2134,-13.9524 -10.6807,-1.4811 -15.7488,0.95315 -17.3634,3.35669 -1.61575,2.40354 -1.85669,7.87205 3.87992,16.7114 5.39528,8.31496 14.9339,17.5701 27.4819,25.4575 12.5492,7.88858 25.1669,12.5598 35.2134,13.9524zm-39.0012 -8.31378c26.3988,16.5945 54.2433,20.4543 62.1933,8.62087 7.95118,-11.8323 -7.00394,-34.878 -33.4028,-51.4713 -26.3988,-16.5945 -54.2433,-20.4543 -62.1945,-8.62087 -7.95,11.8323 7.00512,34.8768 33.4039,51.4713z"/>
  <path class="fil1" d="M121.88 258.885c-2.26181,9.41457 -21.1217,13.2201 -42.1252,8.49921 -21.0035,-4.72087 -36.1972,-16.1799 -33.9343,-25.5957 2.26181,-9.41339 21.1217,-13.2189 42.1252,-8.49803 21.0035,4.72087 36.1961,16.1799 33.9343,25.5945z"/>
  <path class="fil2" d="M106.427 261.853c7.05472,-1.42323 8.5311,-3.86339 8.68228,-4.48937 0.15,-0.627165 -0.0625984,-3.44646 -5.74606,-7.73268 -5.17913,-3.90591 -13.2449,-7.59921 -22.9913,-9.79016 -9.74646,-2.19094 -18.6685,-2.31614 -25.0972,-1.01929 -7.05591,1.42323 -8.53228,3.86339 -8.68228,4.48937 -0.151181,0.627165 0.0625984,3.44646 5.74606,7.73268 5.17913,3.90591 13.2437,7.59921 22.9902,9.79016 9.74646,2.19094 18.6685,2.31614 25.0984,1.01929zm-26.6717 5.5311c21.0035,4.72087 39.8634,0.915354 42.1252,-8.49921 2.26181,-9.41457 -12.9307,-20.8736 -33.9343,-25.5945 -21.0035,-4.72087 -39.8634,-0.915354 -42.1252,8.49803 -2.26299,9.41575 12.9307,20.8748 33.9343,25.5957z"/>
  <path class="fil1" d="M99.6945 234.986c5.39055,11.8323 24.2728,7.97244 42.1748,-8.62087 17.9008,-16.5945 28.0429,-39.639 22.6512,-51.4713 -5.39055,-11.8335 -24.274,-7.97362 -42.1748,8.62087 -17.902,16.5933 -28.0429,39.639 -22.6512,51.4713z"/>
  <path class="fil2" d="M116.004 233.712c-6.77008,1.38307 -10.1197,-0.805512 -11.2913,-3.37795 -1.17165,-2.57244 -1.21417,-7.82717 2.42126,-16.0902 3.49488,-7.93937 9.72992,-16.8957 18.0154,-24.5752 8.28425,-7.68071 16.5543,-12.1701 23.0598,-13.5 6.77126,-1.38425 10.1197,0.805512 11.2925,3.37795 1.17165,2.57244 1.21417,7.82717 -2.42244,16.089 -3.4937,7.94055 -9.72874,16.8957 -18.0142,24.5764 -8.28543,7.68071 -16.5543,12.1701 -23.061,13.5zm25.865 -7.34646c-17.902,16.5933 -36.7843,20.4531 -42.1748,8.62087 -5.39173,-11.8323 4.74921,-34.878 22.6512,-51.4713 17.9008,-16.5945 36.7843,-20.4543 42.1748,-8.62087 5.39173,11.8323 -4.75039,34.8768 -22.6512,51.4713z"/>
  <path class="fil1" d="M92.8913 260.233c1.53307,9.41457 14.3232,13.2201 28.565,8.49921 14.2429,-4.72087 24.5457,-16.1799 23.0126,-25.5945 -1.53425,-9.41457 -14.3232,-13.2201 -28.5661,-8.49921 -14.2429,4.72087 -24.5457,16.1799 -23.0114,25.5945z"/>
  <path class="fil2" d="M105.104 263.033c-3.88583,-1.1563 -5.35394,-3.24094 -5.63622,-4.97835 -0.283465,-1.7374 0.388583,-4.53189 3.51969,-8.01378 3.07913,-3.42402 7.9689,-6.76063 13.9972,-8.75906 6.02835,-1.99843 11.4484,-2.07874 15.2705,-0.94252 3.88701,1.1563 5.35394,3.24094 5.63622,4.97835 0.283465,1.7374 -0.388583,4.53189 -3.51969,8.01378 -3.07795,3.42402 -7.9689,6.76063 -13.9972,8.75906 -6.02835,1.99843 -11.4484,2.07874 -15.2705,0.94252zm16.3524 5.7c-14.2417,4.72087 -27.0319,0.915354 -28.565,-8.49921 -1.53425,-9.41457 8.7685,-20.8736 23.0114,-25.5945 14.2429,-4.72087 27.0319,-0.915354 28.5661,8.49921 1.53307,9.41457 -8.76969,20.8736 -23.0126,25.5945z"/>
  <path class="fil3" d="M143.748 142.413c-11.1567,5.62559 -21.4571,31.6996 -24.6626,65.1165 -3.02598,31.5354 1.16929,60.2173 9.66732,72.8079 -3.87047,1.41378 -7.91575,2.16378 -12.078,2.16378 -28.0205,0 -50.7343,-33.9791 -50.7343,-75.8929 0,-41.915 22.7138,-75.8929 50.7343,-75.8929 9.95433,0 19.239,4.28858 27.0732,11.6976z"/>
  <path class="fil2" d="M143.748 142.413c-1.21063,-1.14567 -2.45669,-2.21693 -3.73465,-3.20906 -6.98622,-5.42362 -14.9232,-8.48858 -23.3386,-8.48858 -28.0205,0 -50.7343,33.978 -50.7343,75.8929 0,41.9138 22.7138,75.8929 50.7343,75.8929 2.48031,0 4.91929,-0.266929 7.30394,-0.780709 1.61693,-0.349606 3.21024,-0.812598 4.77402,-1.38307 -0.814961,-1.20709 -1.58976,-2.56299 -2.32323,-4.05472 -6.91299,-14.0622 -10.0795,-40.2413 -7.34409,-68.7531 2.82874,-29.4992 11.1874,-53.2748 20.7839,-62.315 1.27441,-1.20118 2.57126,-2.14252 3.87874,-2.80157zm-7.51772 -0.222047c-6.08976,-4.52835 -12.7323,-6.90945 -19.5555,-6.90945 -11.7614,0 -23.1201,7.14213 -31.7823,20.0988 -8.62205,12.8976 -14.113,30.9969 -14.113,51.228 0,20.2299 5.49094,38.3303 14.113,51.228 8.6622,12.9567 20.0209,20.0988 31.7823,20.0988 1.69488,0 3.37205,-0.146457 5.02677,-0.433465 -3.22795,-6.84921 -5.52874,-15.8173 -6.90354,-25.8803 -1.78228,-13.0512 -2.07283,-28.4409 -0.532677,-44.5039 1.6311,-17.0079 5.07756,-32.2783 9.6189,-44.1224 2.27008,-5.9185 4.85315,-11.087 7.69606,-15.2197 1.42441,-2.07047 2.97165,-3.96732 4.65,-5.58425z"/>
  <path class="fil4" d="M107.134 190.117c0,28.2425 -11.7343,65.5961 -20.3421,65.5961 -8.60906,0 -14.4791,-9.37913 -16.2744,-38.302 0,-28.2425 1.55551,-34.5697 10.1646,-34.5697 8.60787,0 26.452,-20.9657 26.452,7.27559z"/>
  <path class="fil5" d="M70.5177 228.928c19.8461,2.84173 29.0303,0.563386 45.7701,-2.23228l0 16.3335c-15.0591,6.46772 -26.5866,7.62165 -41.1933,6.57992l-4.57677 -20.6811z"/>
  <path class="fil6" d="M79.6701 255.971c22.5791,2.42244 23.8075,1.20709 38.2335,-4.72087l2.95984 14.3858c-16.7728,3.82205 -25.1598,4.27087 -32.1154,2.40236l-9.07795 -12.0673z"/>
  <path class="fil7" d="M65.9409 202.144c21.502,4.0878 32.3445,6.53386 50.3457,4.0878l0 13.7693c-20.4531,0 -33.039,0 -50.3457,-2.15197l0 -15.7051z"/>
  <path class="fil2" d="M91.852 266.928c1.35827,-0.26811 2.7,0.504331 2.99882,1.72441l6.52323 26.7272c0.164173,0.668504 -0.0188976,1.36772 -0.497244,1.90157 -0.477165,0.533858 -1.19882,0.844488 -1.96063,0.844488l-13.2744 0c-1.38898,0 -2.51693,-1.01339 -2.51693,-2.26181 0,-1.24961 1.12795,-2.26181 2.51693,-2.26181l10.1445 0 -5.85354 -23.9811c-0.297638,-1.22008 0.561024,-2.4248 1.91929,-2.69291z"/>
  <path class="fil2" d="M114.376 266.902c-1.35827,-0.26811 -2.82756,1.52598 -3.1252,2.74606l1.62047 25.7563c-0.164173,0.669685 0.0188976,1.3689 0.497244,1.90157 0.478346,0.533858 1.19882,0.844488 1.96181,0.844488l13.2732 0c1.39016,0 2.51693,-1.0122 2.51693,-2.26181 0,-1.24843 -1.12677,-2.26063 -2.51693,-2.26063l-10.1445 0 -2.52165 -25.1657c0.298819,-1.22008 -0.204331,-1.29331 -1.56142,-1.56024z"/>
  <path class="fil2" d="M73.063 211.696c-0.356693,0.794882 -1.3122,1.15866 -2.13307,0.81378l-27.0118 -11.3492c-0.822047,-0.346063 -1.19882,-1.26969 -0.842126,-2.06457 0.357874,-0.794882 1.31339,-1.15866 2.13425,-0.81378l27.0118 11.3492c0.822047,0.346063 1.19882,1.26969 0.840945,2.06457z"/>
  <path class="fil8" d="M54.0697 185.22c5.32205,3.2622 0.346063,6.3815 -1.8685,8.26772l-3.40039 4.0689c-0.377953,0.452362 -1.67835,3.02953 -3.25039,3.88937 -4.92402,2.69409 -9.6248,-2.84528 -12.4665,-8.31024 -3.73583,-7.18465 2.57598,-9.96142 7.99606,-13.5815 4.33583,-2.89606 6.22205,5.73898 6.62362,10.4173 -0.0956693,-2.94331 1.04528,-8.01378 6.36614,-4.75157z"/>
  <path class="fil3" d="M184.941 115.09c0,43.1469 -36.8846,78.124 -82.3854,78.124 -45.4996,0 -82.3843,-34.9772 -82.3843,-78.124 0,-43.148 36.8846,-78.1252 82.3843,-78.1252 45.5008,0 82.3854,34.9772 82.3854,78.1252z"/>
  <path class="fil2" d="M102.555 186.947c41.85,0 75.776,-32.172 75.776,-71.8571 0,-39.6862 -33.926,-71.8571 -75.776,-71.8571 -41.8488,0 -75.7748,32.1709 -75.7748,71.8571 0,39.685 33.926,71.8571 75.7748,71.8571zm0 6.26693c45.5008,0 82.3854,-34.9772 82.3854,-78.124 0,-43.148 -36.8846,-78.1252 -82.3854,-78.1252 -45.4996,0 -82.3843,34.9772 -82.3843,78.1252 0,43.1469 36.8846,78.124 82.3843,78.124z"/>
  <path class="fil4" d="M166.632 106.551c0,38.002 -31.702,68.8075 -70.8071,68.8075 -39.1051,0 -61.9252,-22.6547 -61.9252,-60.6555 0,-38.002 31.7008,-68.8087 70.8071,-68.8087 39.1051,0 61.9252,22.6547 61.9252,60.6567z"/>
  <path class="fil4" d="M166.632 106.551c0,38.002 -31.702,68.8075 -70.8071,68.8075 -39.1051,0 -61.9252,-22.6547 -61.9252,-60.6555 0,-38.002 31.7008,-68.8087 70.8071,-68.8087 39.1051,0 61.9252,22.6547 61.9252,60.6567z"/>
  <path class="fil2" d="M113.459 216.276c0.344882,0.799606 1.29449,1.17756 2.12126,0.843307l39.0283 -15.7453c0.826772,-0.333071 1.21654,-1.25197 0.872835,-2.05157 -0.346063,-0.800787 -1.29567,-1.17756 -2.12244,-0.844488l-39.0272 15.7453c-0.826772,0.334252 -1.21772,1.25315 -0.872835,2.05276z"/>
  <path class="fil9" d="M145.388 195.054c-1.23189,-1.8189 1.9252,-3.03071 6.16417,-4.29094 1.99134,-4.35236 5.48386,-9.63071 8.38465,-6.28346 4.23189,4.88386 9.55276,9.18189 3.97795,15.1488 -4.24134,4.5378 -10.2945,8.66929 -14.302,4.80709 -1.27913,-1.23307 -1.8248,-4.05118 -2.06457,-4.58504l-2.16024 -4.79646z"/>
  <path class="fil2" d="M190.483 165.356c-7.19646,-0.190157 -13.8012,0.00826772 -14.6764,0.441732 -2.93031,1.44921 -37.5012,52.6902 -37.2921,55.2756 0.219685,2.73189 2.99055,4.0689 16.5531,7.98661 13.8177,3.99213 17.628,4.25906 20.5925,1.43976 0.908268,-0.862205 6.50669,-10.8071 12.4417,-22.0996 5.93504,-11.2925 12.848,-24.3661 15.3614,-29.0539 6.87992,-12.8232 6.27047,-13.4811 -12.9803,-13.9902z"/>
  <polygon id="1" style="fill:url(#id0)" points="201.006,168.363 174.63,168.977 142.527,219.365 170.2,226.709 "/>
  <polygon class="fil11" points="201.006,168.363 174.63,168.977 142.527,219.365 170.2,226.709 "/>
  <polygon class="fil12" points="194.096,168.665 175.786,168.663 143.748,220 "/>
  <path class="fil2" d="M165.785 185.545c-3.13583,-3.36024 -9.89528,0.790157 -12.8823,3.28583l6.16181 4.38307c3.54685,-1.1563 9.85748,-4.30984 6.72047,-7.6689z"/>
  <path class="fil2" d="M153.685 188.787l5.53583 3.98858c1.61575,-0.563386 3.7311,-1.53425 5.15551,-2.73307 1.51181,-1.27205 2.23228,-2.7874 0.794882,-4.34764 -0.722835,-0.784252 -1.60157,-1.07598 -2.47441,-1.11142 -0.912992,-0.0366142 -1.98425,0.197244 -3.1311,0.637795 -2.22874,0.855118 -4.46575,2.38346 -5.88071,3.56575zm9.07441 -4.49764c1.25197,0.0507874 2.28543,0.470079 3.04724,1.29685 1.53189,1.66181 0.75,3.26929 -0.822047,4.59094 -1.5685,1.32047 -3.93898,2.37047 -5.65039,2.93622l-0.304724 0.100394 -6.12638 -4.41496 0.0862205 -0.0732283c1.4185,-1.20118 3.74882,-2.81457 6.12165,-3.7252 1.17756,-0.451181 2.43898,-0.759449 3.64843,-0.711024z"/>
  <path class="fil10" d="M194.094 101.696c0,20.9575 -16.3937,37.9465 -36.6154,37.9465 -20.2217,0 -36.6154,-16.989 -36.6154,-37.9465 0,-20.9575 16.3937,-37.9465 36.6154,-37.9465 20.2217,0 36.6154,16.989 36.6154,37.9465z"/>
  <path class="fil2" d="M157.479 133.318c16.852,0 30.5126,-14.1567 30.5126,-31.6217 0,-17.4638 -13.6606,-31.6217 -30.5126,-31.6217 -16.852,0 -30.5126,14.1579 -30.5126,31.6217 0,17.465 13.6606,31.6217 30.5126,31.6217zm0 6.3248c20.2217,0 36.6154,-16.989 36.6154,-37.9465 0,-20.9575 -16.3937,-37.9465 -36.6154,-37.9465 -20.2217,0 -36.6154,16.989 -36.6154,37.9465 0,20.9575 16.3937,37.9465 36.6154,37.9465z"/>
  <path class="fil10" d="M143.747 101.696c0,23.4224 -19.4669,42.4098 -43.4811,42.4098 -24.0142,0 -43.4811,-18.9874 -43.4811,-42.4098 0,-23.4236 19.4669,-42.411 43.4811,-42.411 24.0142,0 43.4811,18.9874 43.4811,42.411z"/>
  <path class="fil2" d="M100.266 137.653c20.3598,0 36.8646,-16.0984 36.8646,-35.9563 0,-19.8591 -16.5047,-35.9575 -36.8646,-35.9575 -20.3598,0 -36.8646,16.0984 -36.8646,35.9575 0,19.8579 16.5047,35.9563 36.8646,35.9563zm0 6.45354c24.0142,0 43.4811,-18.9874 43.4811,-42.4098 0,-23.4236 -19.4669,-42.411 -43.4811,-42.411 -24.0142,0 -43.4811,18.9874 -43.4811,42.411 0,23.4224 19.4669,42.4098 43.4811,42.4098z"/>
  <path class="fil13" d="M153.423 48.9969c31.4114,-33.9874 49.1787,2.91496 36.6343,3.44173 -8.19921,0.344882 -17.8748,-20.1815 -36.6343,-3.44173z"/>
  <path class="fil13" d="M102.757 32.863c-31.4126,-33.9886 -49.1799,2.91496 -36.6354,3.44173 8.20039,0.344882 17.876,-20.1827 36.6354,-3.44173z"/>
  <path class="fil2" d="M171.211 103.929c0,4.9311 -4.09843,8.92795 -9.15354,8.92795 -5.0563,0 -9.15472,-3.99685 -9.15472,-8.92795 0,-4.9311 4.09843,-8.92913 9.15472,-8.92913 5.05512,0 9.15354,3.99803 9.15354,8.92913z"/>
  <path class="fil10" d="M157.479 90.5339c0,4.93228 -3.07323,8.92913 -6.86457,8.92913 -3.79252,0 -6.86575,-3.99685 -6.86575,-8.92913 0,-4.92992 3.07323,-8.92795 6.86575,-8.92795 3.79134,0 6.86457,3.99803 6.86457,8.92795z"/>
  <path class="fil2" d="M107.133 101.696c0,6.16299 -5.12362,11.1602 -11.4425,11.1602 -6.32008,0 -11.4425,-4.99724 -11.4425,-11.1602 0,-6.16417 5.12244,-11.1614 11.4425,-11.1614 6.3189,0 11.4425,4.99724 11.4425,11.1614z"/>
  <path class="fil10" d="M97.9783 88.3028c0,3.69803 -4.09843,6.69567 -9.15354,6.69567 -5.0563,0 -9.15472,-2.99764 -9.15472,-6.69567 0,-3.69921 4.09843,-6.69685 9.15472,-6.69685 5.05512,0 9.15354,2.99764 9.15354,6.69685z"/>
  <path class="fil13" d="M125.096 165.737c-14.1094,15.6602 -37.7846,10.9429 -40.6547,-5.09528 -1.42677,-4.0748 5.50039,-3.0189 5.50039,-3.0189 0,0 22.4799,5.39646 29.1756,4.34055 6.69685,-1.05709 6.77598,2.0752 5.97874,3.77362z"/>
  <path class="fil2" d="M90.1571 157.624c0,0 0.0011811,0 -0.0437008,0.180709 0.0685039,-0.175984 0.0685039,-0.175984 0.0685039,-0.175984l0.0625984 0.0153543c0.0425197,0.00944882 0.105118,0.0248031 0.187795,0.0437008 0.164173,0.0377953 0.405118,0.0944882 0.714567,0.165354 0.620079,0.142913 1.51299,0.344882 2.60551,0.583465 2.18504,0.479528 5.16614,1.10669 8.35394,1.70197 3.18898,0.595276 6.57874,1.15748 9.58346,1.50591 3.01535,0.350787 5.60787,0.48189 7.21772,0.229134 3.33898,-0.520866 5.14252,-0.0259843 5.97402,0.912992 0.814961,0.920079 0.608268,2.17677 0.204331,3.02835l-0.0106299 0.023622 -0.0177165 0.0188976c-7.01811,7.71732 -16.4433,10.4386 -24.4996,9.22087 -8.05039,-1.21654 -14.6787,-6.36024 -16.1138,-14.2795 -0.360236,-1.02638 -0.201969,-1.77047 0.296457,-2.2937 0.494882,-0.516142 1.28504,-0.774803 2.07874,-0.9 0.797244,-0.124016 1.63228,-0.11811 2.26299,-0.0826772 0.316535,0.0165354 0.583465,0.0425197 0.772441,0.0637795 0.0944882,0.00944882 0.168898,0.0188976 0.220866,0.0259843 0.0259843,0.00354331 0.046063,0.00708661 0.0602362,0.00826772l0.0153543 0.0023622 0.00472441 0.0011811 0.0011811 0zm-0.0437008 0.180709l0.0685039 -0.175984 -0.011811 -0.0023622 -0.0129921 -0.0023622 -0.0437008 0.180709zm-0.0566929 0.180709l-0.00590551 -0.0011811c-0.011811,-0.0011811 -0.0307087,-0.00472441 -0.0543307,-0.00708661 -0.0472441,-0.00708661 -0.11811,-0.0153543 -0.207874,-0.0259843 -0.180709,-0.0200787 -0.437008,-0.0437008 -0.740551,-0.0614173 -0.609449,-0.0330709 -1.39724,-0.0377953 -2.13661,0.0779528 -0.741732,0.116929 -1.39843,0.347244 -1.79173,0.759449 -0.38622,0.403937 -0.556299,1.02283 -0.216142,1.98543l0.00354331 0.011811 0.0023622 0.011811c1.40551,7.7811 7.89567,12.7949 15.7382,13.9795 7.83661,1.18465 17.0776,-1.44803 24.0059,-9.05197 0.376772,-0.809055 0.514961,-1.90394 -0.16063,-2.66693 -0.666142,-0.752362 -2.21102,-1.27323 -5.49213,-0.76063 -1.69961,0.265748 -4.36654,0.124016 -7.38071,-0.225591 -3.02362,-0.350787 -6.42874,-0.915354 -9.62362,-1.51299 -3.19606,-0.596457 -6.18307,-1.2248 -8.37165,-1.70433 -1.09488,-0.239764 -1.98898,-0.442913 -2.61024,-0.585827 -0.31063,-0.0708661 -0.553937,-0.127559 -0.71811,-0.165354 -0.0826772,-0.0200787 -0.145276,-0.034252 -0.187795,-0.0448819l-0.0519685 -0.011811z"/>
  <path class="fil14" d="M115.825 168.326c-7.65,11.1579 -20.7756,8.24646 -22.3323,-3.18071 -0.772441,-2.90315 3.72047,-3.18071 3.72047,-3.18071 0,0 12.7913,3.43937 16.422,2.68701 3.63071,-0.752362 2.62205,2.46496 2.18976,3.67441z"/>
  <path class="fil15" style="mask:url(#id1)" d="M115.825 168.326c-7.65,11.1579 -20.7756,8.24646 -22.3323,-3.18071 -0.772441,-2.90315 3.72047,-3.18071 3.72047,-3.18071 0,0 12.7913,3.43937 16.422,2.68701 3.63071,-0.752362 2.62205,2.46496 2.18976,3.67441z"/>
  <path class="fil16" d="M57.6343 94.5898c-1.57205,17.1437 -13.8543,30.0969 -27.4335,28.9323 -13.5791,-1.16457 -23.3114,-16.0075 -21.7394,-33.1512 1.57205,-17.1449 13.8543,-30.098 27.4335,-28.9335 13.5791,1.16457 23.3114,16.0075 21.7394,33.1524z"/>
  <path class="fil17" d="M50.5406 92.5972c-1.46811,15.998 -12.5433,28.1185 -24.7394,27.072 -12.1961,-1.04646 -20.8937,-14.863 -19.4268,-30.861 1.46811,-15.998 12.5433,-28.1197 24.7394,-27.0732 12.1961,1.04646 20.8937,14.8642 19.4268,30.8622z"/>
  <path class="fil18" d="M48.8929 92.4555c-1.46811,15.998 -12.1748,28.1504 -23.9161,27.1429 -11.7402,-1.0063 -20.0693,-14.7921 -18.6024,-30.7902 1.46811,-15.998 12.1748,-28.1516 23.9161,-27.1441 11.7402,1.00748 20.0693,14.7933 18.6024,30.7913z"/>
  <path class="fil19" d="M38.1602 91.5331c-0.726378,7.91575 -6.02362,13.9287 -11.8335,13.4303 -5.80984,-0.498425 -9.93071,-7.31929 -9.20433,-15.235 0.726378,-7.91575 6.02362,-13.9287 11.8335,-13.4303 5.80866,0.498425 9.92953,7.31929 9.20433,15.235z"/>
  <path class="fil20" d="M38.5311 91.285c-0.714567,7.78819 -5.56417,13.735 -10.8319,13.2827 -5.26772,-0.452362 -8.95984,-7.1315 -8.24528,-14.9185 0.714567,-7.78819 5.56299,-13.735 10.8319,-13.2827 5.26772,0.452362 8.95866,7.1315 8.24528,14.9185z"/>
  <path class="fil21" d="M27.3921 38.6693c-0.784252,13.1776 -5.05984,35.6492 -7.10079,45.2374 -0.488976,1.85669 0.244488,6.58819 7.10079,10.6713 6.85394,4.08307 13.6287,-22.5024 14.6894,-35.726 2.10709,-11.0976 4.38189,-28.9701 21.3,-39.2055 23.6244,-14.2937 59.7366,0.232677 68.7945,4.64055 7.24724,3.52559 11.8335,14.9244 13.2213,20.1827 2.9374,3.9437 8.52047,10.2531 7.34409,3.9437 -1.17402,-6.31063 -6.36496,-15.0024 -8.81339,-18.5598 -16.1587,-13.6866 -19.5862,-19.0217 -58.0228,-27.1417 -38.4378,-8.1189 -57.535,19.487 -58.513,35.9575z"/>
  <path class="fil22" d="M27.3921 38.6634c-0.784252,13.174 -5.05984,35.6421 -7.10079,45.2291 -0.488976,1.85551 0.244488,6.58701 7.10079,10.6689 6.85394,4.08189 10.6902,-21.339 11.7508,-34.5602 2.10827,-11.0953 7.56496,-32.6752 24.4831,-42.9094 23.6244,-14.2902 59.4921,2.78386 68.55,7.19055 7.24724,3.52559 11.8335,14.922 13.2213,20.1791 2.9374,3.94252 8.52047,10.252 7.34409,3.94252 -1.17402,-6.30827 -6.36496,-14.9988 -8.81339,-18.5551 -16.1587,-13.6843 -19.5862,-19.0193 -58.0228,-27.137 -38.4378,-8.11772 -57.535,19.4835 -58.513,35.9516z"/>
  <path class="fil17" d="M27.3591 38.6634c-0.779528,13.174 -5.0374,35.6421 -7.06772,45.2291 -0.487795,1.85551 0.243307,6.58701 7.06772,10.6689 6.82441,4.08189 10.6429,-21.339 11.6988,-34.5602 0,-12.6791 5.26417,-39.8008 26.322,-46.852 26.322,-8.81457 57.2752,6.72638 66.2929,11.1331 7.21417,3.52559 11.7803,14.922 13.161,20.1791 0.993307,10.2118 10.8295,15.9201 7.3122,3.94252 -1.81299,-6.1689 -6.3378,-14.9988 -8.77441,-18.5551 -16.0866,-13.6843 -19.4976,-19.0193 -57.763,-27.137 -38.2642,-8.11772 -57.2752,19.4835 -58.2496,35.9516z"/>
  <path class="fil20" d="M33.6508 79.9677c-0.316535,3.45 -2.46496,6.08504 -4.8,5.88425 -2.33386,-0.199606 -3.96969,-3.15945 -3.65315,-6.61063 0.316535,-3.45 2.46496,-6.08504 4.79882,-5.88543 2.33504,0.200787 3.97087,3.16063 3.65433,6.61181z"/>
  <path class="fil18" d="M31.9287 79.8213c-0.187795,2.04213 -1.45866,3.60118 -2.84055,3.48189 -1.38071,-0.11811 -2.34921,-1.86969 -2.16142,-3.91181 0.186614,-2.04094 1.45866,-3.60118 2.83937,-3.48189 1.38189,0.11811 2.34921,1.86969 2.1626,3.91181z"/>
 </g>
</svg>
