<svg xmlns="http://www.w3.org/2000/svg" width="87" height="21" viewBox="0 0 87 21"><g><g><path fill="#deac79" d="M18.415 19.164c.299.417.793 1.447-.165 1.258a135.302 135.302 0 0 1-11.385-3.68c-.605-.225-1.209-.45-1.813-.677-.861.219-1.724.439-2.536.71-.862.221-3.206-2.654-2.241-2.97.355-.14.76-.224 1.116-.362-.499-.627-.844-1.4-.483-2.043.31-.596 1.226-1.167 1.737-1.552.714-.58 1.377-1.11 2.092-1.69a75.527 75.527 0 0 1 4.687-3.26c3.361-2.098 6.918-3.679 10.674-4.95.659-.228 2.154 1.753 1.747 1.94a68.756 68.756 0 0 0-9.72 5.644C10.648 8.54 9.22 9.596 7.893 10.76c-.409.388-.817.677-1.226 1.065 19.271-5.224 40.203-5.222 59.822-.969a124.774 124.774 0 0 1 18.392 5.52c.805.336 1.555 1.023 2.001 1.799.2.311.54 1.489-.265 1.153-21.095-7.954-43.971-10.308-65.903-6.755-3.799.612-7.65 1.474-11.402 2.341 2.266.746 4.483 1.439 6.802 2.035.958.29 1.805 1.386 2.301 2.215z"/></g></g></svg>