<svg xmlns="http://www.w3.org/2000/svg" width="77" height="48" viewBox="0 0 77 48"><g><g><path fill="#e41d3a" d="M15.044 17.08c.083.506.07 1.648-.706 1.055a135.26 135.26 0 0 1-8.577-8.343l-1.325-1.41c-.869-.186-1.74-.37-2.588-.487-.871-.182-1.698-3.8-.693-3.657.38.033.78.138 1.16.171-.169-.783-.137-1.628.473-2.045.542-.396 1.616-.504 2.244-.623.897-.203 1.726-.385 2.624-.588a76.392 76.392 0 0 1 5.647-.847c3.942-.39 7.831-.233 11.762.291.691.089 1.154 2.526.707 2.513-3.712-.06-7.473.2-11.215.756-1.77.247-3.518.563-5.224 1.017-.538.168-1.033.246-1.571.414 19.591 3.853 38.357 13.126 54.062 25.63a124.757 124.757 0 0 1 14.043 13.097c.573.657.942 1.605.998 2.499.04.368-.176 1.574-.75.916-15.387-16.475-34.854-28.72-56.09-35.25-3.677-1.133-7.513-2.067-11.26-2.952 1.701 1.674 3.382 3.277 5.197 4.837.73.685 1.004 2.043 1.082 3.005z"/></g></g></svg>