<svg xmlns="http://www.w3.org/2000/svg" width="63" height="65" viewBox="0 0 63 65"><g><g><path fill="#deac79" d="M17.798 11.626c.511-.041 1.617-.334.852-.943A135.33 135.33 0 0 0 8.47 4.377l-1.69-.945c-.392-.8-.783-1.603-1.102-2.4-.39-.801-4.099-.724-3.716.219.125.361.323.726.448 1.088-.8.026-1.612.264-1.869.959C.29 3.92.447 4.992.484 5.633c.021.922.047 1.773.068 2.696a76.26 76.26 0 0 0 .554 5.7c.58 3.93 1.68 7.675 3.144 11.37.254.652 2.732.506 2.61.075A69.151 69.151 0 0 1 4.863 14.38c-.191-1.782-.31-3.56-.284-5.33.031-.565-.014-1.065.018-1.63 8.506 18.117 22.069 34.107 38.02 46.332a124.74 124.74 0 0 0 16.12 10.463c.778.397 1.787.524 2.668.36.366-.05 1.483-.555.707-.952C42.386 52.676 25.77 36.73 14.267 17.666c-1.995-3.3-3.834-6.803-5.604-10.232 2.037 1.247 4.001 2.49 5.958 3.874.84.543 2.224.48 3.177.318z"/></g></g></svg>