<svg xmlns="http://www.w3.org/2000/svg" width="88" height="21" viewBox="0 0 88 21"><g><g><path fill="#deac79" d="M68.602 1.594c-.344-.38-.95-1.35.026-1.271 3.93.62 7.823 1.395 11.737 2.372.626.155 1.253.312 1.879.469.834-.318 1.667-.634 2.445-.996.834-.317 3.484 2.278 2.56 2.702-.339.178-.733.31-1.072.487.566.567.995 1.296.706 1.978-.242.628-1.091 1.3-1.556 1.742-.647.658-1.249 1.26-1.896 1.92a76.598 76.598 0 0 1-4.305 3.774c-3.113 2.468-6.478 4.446-10.076 6.137-.631.301-2.338-1.501-1.954-1.733a69.153 69.153 0 0 0 9.05-6.719c1.36-1.168 2.664-2.383 3.857-3.692.364-.433.738-.766 1.102-1.199-18.603 7.384-39.435 9.756-59.431 7.75a124.655 124.655 0 0 1-18.915-3.41c-.838-.242-1.661-.84-2.191-1.562-.232-.288-.701-1.421.137-1.178 21.873 5.523 44.902 5.27 66.337-.75 3.713-1.04 7.452-2.335 11.09-3.623-2.34-.486-4.622-.924-6.996-1.255-.985-.18-1.949-1.174-2.534-1.943z"/></g></g></svg>