<svg xmlns="http://www.w3.org/2000/svg" width="83" height="37" viewBox="0 0 83 37"><g><g><path fill="#deac79" d="M66.582 18.125c-.176.484-.373 1.616.503 1.172a135.806 135.806 0 0 0 10.014-6.661l1.57-1.15c.893-.022 1.788-.045 2.647-.003.895-.02 2.38-3.441 1.36-3.485-.382-.036-.797-.01-1.179-.045.312-.743.436-1.584-.09-2.108-.462-.492-1.504-.795-2.102-1.03-.85-.365-1.636-.699-2.485-1.065a76.509 76.509 0 0 0-5.424-1.876C67.572.76 63.7.199 59.718-.01c-.7-.04-1.606 2.285-1.162 2.354A69.06 69.06 0 0 1 69.5 5.159c1.704.57 3.373 1.205 4.974 1.969.502.265.976.432 1.477.696-20.072.196-40.326 5.898-58.153 15.356A125.461 125.461 0 0 0 1.505 33.53c-.688.544-1.227 1.413-1.447 2.287-.108.355-.117 1.586.57 1.043C18.876 23.42 40.37 14.91 62.563 12.374c3.842-.443 7.805-.658 11.671-.84-1.99 1.338-3.947 2.613-6.028 3.822-.847.541-1.37 1.832-1.623 2.769z"/></g></g></svg>