<svg xmlns="http://www.w3.org/2000/svg" width="25" height="25" viewBox="0 0 25 25"><g><g><path d="M12.06 21.996c0 1.653-1.306 2.999-2.912 2.999-1.606 0-2.912-1.346-2.912-3 0-1.65 1.306-2.997 2.912-2.997 1.606 0 2.911 1.347 2.911 2.998zM9.17 20.814c-.633 0-1.148.53-1.148 1.182 0 .654.515 1.182 1.148 1.182.633 0 1.148-.528 1.148-1.182 0-.652-.515-1.182-1.148-1.182zm12.451 1.182c0 1.653-1.308 2.999-2.913 2.999-1.604 0-2.912-1.346-2.912-3 0-1.65 1.308-2.997 2.912-2.997 1.605 0 2.913 1.347 2.913 2.998zm-2.891-1.182c-.633 0-1.146.53-1.146 1.182 0 .654.513 1.182 1.146 1.182.633 0 1.149-.528 1.149-1.182 0-.652-.516-1.182-1.149-1.182zm6.248-15.933l-1.81 6.642c-.455 1.673-1.952 2.84-3.64 2.843H8.32l.106.643c.117.714.714 1.233 1.419 1.233h10.895c.486 0 .883.409.883.908a.897.897 0 0 1-.883.908H9.829c-1.564 0-2.89-1.153-3.154-2.742L4.645 3.037c-.117-.714-.713-1.235-1.416-1.235H.886a.896.896 0 0 1-.882-.91c0-.5.395-.906.882-.906h2.343c1.572 0 2.9 1.153 3.163 2.742l1.624 9.819h11.513c.901 0 1.7-.625 1.942-1.518l1.496-5.485H12.44c-.487 0-.882-.409-.882-.91 0-.499.395-.908.882-.908H24.13c.276 0 .54.136.702.362a.93.93 0 0 1 .146.793z"/></g></g></svg>