<svg xmlns="http://www.w3.org/2000/svg" width="33" height="31" viewBox="0 0 33 31"><g><g><path fill="#e41d3a" d="M29.84 5.45l2.733 8.526a.72.72 0 0 1-.193.748l-15.743 15.31a.8.8 0 0 1-1.1.008l-4.504-4.277-1.786.996a.791.791 0 0 1-1.06-.27L.1 12.977a.738.738 0 0 1 .286-1.024L20.706.635a.806.806 0 0 1 .79.003L29.85 5.41zM8.943 25.753l19.939-11.106L28.789 6l-7.716-4.403L1.134 12.703zM29.887 9.055l.062 5.735a.751.751 0 0 1-.394.659l-17.59 9.797 4.096 3.887L31.51 14.125zm-3.839.973c-1.083.604-2.464.252-3.084-.784-.62-1.036-.244-2.365.84-2.968 1.082-.603 2.463-.253 3.083.784.618 1.035.243 2.363-.839 2.968zM24.332 7.16c-.573.32-.772 1.023-.444 1.57.328.55 1.059.735 1.632.415.573-.318.771-1.021.443-1.57-.33-.547-1.058-.731-1.631-.415zm-13.074 7.829c-.787.439-1.79.183-2.242-.57-.45-.753-.177-1.718.61-2.156.787-.44 1.79-.185 2.241.568.451.754.178 1.72-.61 2.158zm-1.103-1.844a.546.546 0 0 0-.215.76.59.59 0 0 0 .79.2.546.546 0 0 0 .214-.76.588.588 0 0 0-.79-.2zm6.928 2.824c-.451-.752-.178-1.72.61-2.157.786-.44 1.79-.184 2.24.57.451.752.178 1.718-.609 2.157-.787.438-1.79.183-2.241-.57zm.923-.514a.587.587 0 0 0 .79.2.545.545 0 0 0 .214-.76.589.589 0 0 0-.79-.2.546.546 0 0 0-.214.76zm-4.826 5.12l-1.027-.262 3.392-11.996 1.022.26z"/></g></g></svg>