<svg xmlns="http://www.w3.org/2000/svg" width="47" height="33" viewBox="0 0 47 33"><g><g><path fill="#e5002b" d="M42.952 8.247c0 4.553-3.915 8.257-8.728 8.257-4.812 0-8.728-3.704-8.728-8.257 0-4.552 3.916-8.256 8.728-8.256 4.813 0 8.728 3.704 8.728 8.256zm-16.113 0c0 3.866 3.299 6.987 7.385 6.987 4.087 0 7.386-3.121 7.386-6.987 0-3.865-3.299-6.986-7.386-6.986-4.086 0-7.385 3.121-7.385 6.986zm-10.49 6.39s16.918 6.277 16.995 6.302c.473.152.932.365 1.321.686 0 0 8.734-3.078 8.812-3.096.24-.056.51-.125.818-.12 1.475.025 2.686 1.146 2.686 2.541 0 .903-.502 1.694-1.259 2.143l-.021.02-17.855 9.805a.718.718 0 0 1-.566.06l-14.666-5.042h-1.888v1.906c0 .333-.32.635-.672.635h-9.4c-.35 0-.67-.302-.67-.635V15.869c-.006-.296.237-.58.545-.635a.77.77 0 0 1 .126 0h9.4c.35 0 .67.302.67.635v.913l5.099-2.144a.783.783 0 0 1 .126-.04.721.721 0 0 1 .399.04zm-5.623 3.554v8.475h2.014a.7.7 0 0 1 .23.04l14.477 4.981s17.622-9.71 17.641-9.724c.332-.23.55-.588.55-1.013 0-.71-.594-1.3-1.343-1.27a1.53 1.53 0 0 0-.671.159c-.238.12-7.94 2.785-8.204 2.878.087.245.147.493.147.773 0 1.397-1.21 2.541-2.685 2.541h-6.714a.703.703 0 0 1-.252-.06l-6.714-2.54c-.358-.1-.572-.52-.432-.849.141-.327.605-.487.936-.322l6.608 2.501h6.568c.755 0 1.342-.556 1.342-1.27 0-.415-.144-.649-.398-.874-.21-.184-.516-.354-.884-.48-.08-.027-16.824-6.228-16.824-6.228zm-9.4 11.016h8.057V16.504H1.326z"/></g></g></svg>