<svg xmlns="http://www.w3.org/2000/svg" width="16" height="16" viewBox="0 0 16 16"><g><g><path fill="#fff" d="M2.74 4.4l4.9-1.405L10.395.216a.722.722 0 0 1 .512-.214c2.806 0 5.081 2.282 5.081 5.097a.728.728 0 0 1-.228.513l-2.77 2.782-1.401 4.916a.726.726 0 0 1-.544.513L.88 16.008a.73.73 0 0 1-.864-.866L2.195 4.945A.727.727 0 0 1 2.74 4.4zm6.29-.758l3.329 3.35 2.177-2.184a3.637 3.637 0 0 0-3.339-3.35zM3.538 5.678l-1.568 7.36 3.855-3.876a1.091 1.091 0 0 1 1.089-1.15c.601 0 1.089.49 1.089 1.092a1.09 1.09 0 0 1-1.09 1.092h-.057l-3.862 3.871 7.336-1.577 1.212-4.267-3.75-3.772z"/></g></g></svg>