<svg xmlns="http://www.w3.org/2000/svg" width="80" height="73" viewBox="0 0 80 73"><g><g><path fill="#fff" d="M72.194 49.546V7.568h-64.3v41.978h15.717c.495 0 .896.395.896.882a.89.89 0 0 1-.896.883H6.998a.89.89 0 0 1-.895-.883V6.686c0-.487.401-.881.895-.881H73.09c.494 0 .895.394.895.881v43.742a.89.89 0 0 1-.895.883H56.477a.89.89 0 0 1-.896-.883c0-.487.401-.882.896-.882zM79.983.866V56.25a.89.89 0 0 1-.896.882h-26.39a.89.89 0 0 1-.895-.882.89.89 0 0 1 .896-.883h25.495V1.746h-76.3v53.62h25.494a.89.89 0 0 1 .896.883.89.89 0 0 1-.896.882H.997a.89.89 0 0 1-.895-.882V.866c0-.487.4-.882.896-.882h78.091c.494 0 .896.395.894.882zM46.479 50.428c0 3.493-2.887 6.337-6.435 6.337-3.548 0-6.435-2.844-6.435-6.337 0-3.495 2.886-6.338 6.435-6.338 3.549 0 6.435 2.843 6.435 6.338zm-1.79 0c0-2.521-2.084-4.573-4.645-4.573-2.561 0-4.645 2.052-4.645 4.573 0 2.522 2.084 4.574 4.645 4.574 2.56 0 4.644-2.052 4.644-4.574zm8.605 0c0 1.248-.846 2.197-1.594 3.034-.42.47-.816.914-.986 1.32-.185.437-.229 1.05-.275 1.7-.074 1.036-.159 2.206-.905 3.044v12.595c0 .019-.004.034-.005.05a1.029 1.029 0 0 1-.03.183l-.01.046-.016.035a1.125 1.125 0 0 1-.075.15l-.03.045a1.136 1.136 0 0 1-.082.097l-.018.021a.937.937 0 0 1-.121.099l-.04.023a.943.943 0 0 1-.255.107c-.018.004-.035.01-.051.012a.907.907 0 0 1-.163.017.932.932 0 0 1-.163-.017l-.057-.014c-.02-.005-.042-.009-.062-.015l-8.315-2.73-8.314 2.73-.063.015-.057.014a.92.92 0 0 1-.163.017.9.9 0 0 1-.162-.017l-.05-.012a.787.787 0 0 1-.158-.054 1.447 1.447 0 0 1-.1-.053c-.012-.008-.025-.013-.036-.022a1.067 1.067 0 0 1-.123-.1c-.005-.006-.01-.014-.015-.018a1.035 1.035 0 0 1-.085-.101l-.03-.045a.956.956 0 0 1-.074-.15c-.005-.011-.012-.023-.015-.035-.005-.015-.006-.03-.01-.047a.684.684 0 0 1-.03-.182c-.002-.017-.005-.031-.005-.049V59.526c-.746-.838-.832-2.009-.906-3.046-.047-.65-.09-1.261-.275-1.7-.17-.405-.567-.849-.986-1.319-.748-.836-1.595-1.786-1.595-3.033 0-1.247.847-2.197 1.595-3.035.42-.47.816-.914.986-1.318.185-.438.228-1.051.275-1.7.078-1.092.167-2.33 1.026-3.177.86-.846 2.117-.934 3.226-1.01.659-.046 1.281-.09 1.725-.27.412-.168.862-.559 1.34-.972.85-.735 1.813-1.57 3.081-1.57s2.232.835 3.082 1.57c.477.413.928.804 1.339.972.445.18 1.067.224 1.726.27 1.11.076 2.366.164 3.226 1.01.86.846.948 2.085 1.026 3.177.047.649.09 1.262.275 1.7.17.404.566.848.986 1.318.747.837 1.59 1.788 1.59 3.035zm-5.548 20.47l.001-10.411c-.514.108-1.049.146-1.554.182-.66.045-1.281.088-1.726.27-.411.168-.862.559-1.339.97-.851.737-1.815 1.572-3.082 1.572-1.268 0-2.231-.835-3.082-1.571-.478-.413-.929-.804-1.34-.972-.445-.182-1.066-.225-1.725-.27-.505-.035-1.041-.073-1.555-.183V70.9l7.418-2.435a.083.083 0 0 1 .02-.005c.032-.01.064-.016.096-.022.026-.005.053-.011.079-.013.029-.003.057-.002.087-.002.03 0 .06-.001.089.002.026.002.05.008.077.013a.951.951 0 0 1 .097.021c.007.002.014.002.02.005zm3.761-20.47c0-.584-.559-1.209-1.149-1.87-.497-.558-1.01-1.134-1.295-1.808-.297-.704-.353-1.491-.407-2.252-.062-.86-.12-1.672-.506-2.051-.386-.381-1.21-.438-2.085-.499-.773-.054-1.571-.11-2.286-.402-.684-.279-1.27-.784-1.835-1.274-.672-.582-1.306-1.133-1.9-1.133-.592 0-1.226.55-1.898 1.133-.566.49-1.151.995-1.835 1.274-.716.294-1.513.348-2.287.402-.873.06-1.698.118-2.085.499-.385.379-.443 1.191-.505 2.051-.055.762-.11 1.548-.407 2.252-.284.674-.798 1.25-1.295 1.807-.591.662-1.15 1.287-1.15 1.87 0 .585.559 1.208 1.15 1.87.497.557 1.01 1.133 1.295 1.808.296.703.352 1.49.407 2.252.062.86.12 1.672.505 2.052.387.38 1.212.437 2.085.498.774.054 1.572.11 2.287.401.684.28 1.269.786 1.835 1.276.672.582 1.306 1.133 1.898 1.133.594 0 1.228-.55 1.9-1.133.566-.49 1.15-.996 1.835-1.275.715-.293 1.514-.347 2.286-.402.874-.06 1.699-.117 2.085-.498.386-.379.444-1.192.506-2.051.054-.763.111-1.549.407-2.252.283-.674.798-1.25 1.295-1.808.59-.661 1.15-1.286 1.15-1.87zm7.88-33.92H20.7a.889.889 0 0 1-.896-.882.89.89 0 0 1 .896-.882h38.688a.89.89 0 0 1 .896.882.889.889 0 0 1-.896.882zm-33.525 6.14a.89.89 0 0 1 .896-.881H53.33a.89.89 0 0 1 .896.882.89.89 0 0 1-.896.882H26.758a.89.89 0 0 1-.896-.882zm22.389 6.143a.89.89 0 0 1 .896.88.89.89 0 0 1-.896.884H31.838a.89.89 0 0 1-.896-.883c0-.487.401-.881.896-.881z"/></g></g></svg>