<svg xmlns="http://www.w3.org/2000/svg" width="35" height="36" viewBox="0 0 35 36"><g><g><path fill="#e5002b" d="M0 31.774V4.786c0-.014.008-.025.008-.039a.563.563 0 0 1 .033-.153c.007-.02.012-.039.02-.057a.599.599 0 0 1 .123-.175L4.561.163a.636.636 0 0 1 .183-.118l.059-.02a.696.696 0 0 1 .16-.03c.014 0 .026-.008.04-.008h21.883c.346 0 .626.27.626.6v18.326a2.527 2.527 0 0 1 3.126.496 2.527 2.527 0 0 1 1.876-.83c1.379 0 2.5 1.076 2.5 2.4v14.393c0 .331-.28.6-.624.6l-17.507.012a.647.647 0 0 1-.443-.175.593.593 0 0 1-.183-.426v-3.01H.627a.613.613 0 0 1-.626-.6zm27.512-10.795v4.797H26.26V20.98c0-.663-.56-1.2-1.25-1.2s-1.25.537-1.25 1.2v4.797H22.51V13.781c0-.661-.561-1.199-1.25-1.199-.69 0-1.251.538-1.251 1.2v16.192h-1.25v-1.8l-1.251.9v5.71l16.256-.011V20.979c0-.663-.56-1.2-1.25-1.2s-1.251.537-1.251 1.2v4.797h-1.25V20.98c0-.663-.561-1.2-1.251-1.2-.69 0-1.25.537-1.25 1.2zM26.26 1.187H5.628v3.599c0 .33-.28.599-.625.599H1.25v25.79h15.006v-2.4c0-.189.093-.366.25-.48l2.251-1.62V13.78c0-1.322 1.122-2.398 2.501-2.398 1.38 0 2.501 1.076 2.501 2.398v5.132c.37-.206.793-.333 1.25-.333.458 0 .881.127 1.251.333zM2.136 4.185h2.242v-2.15zm5.993 2.999c.346 0 .625.269.625.6v4.798c0 .33-.28.6-.625.6H3.127a.613.613 0 0 1-.625-.6V7.785c0-.332.28-.601.625-.601zm-.625 1.2H3.752v3.598h3.752zm1.25 7.197v4.797c0 .332-.28.6-.625.6H3.127a.613.613 0 0 1-.625-.6v-4.797c0-.33.28-.6.625-.6H8.13c.346 0 .625.27.625.6zm-1.25.6H3.752v3.598h3.752zm1.25 7.196v4.799c0 .33-.28.6-.625.6H3.127a.613.613 0 0 1-.625-.6v-4.799c0-.33.28-.6.625-.6H8.13c.346 0 .625.27.625.6zm-1.25.6H3.752v3.6h3.752zm2.5-14.394h7.504v1.2h-7.503zm0 7.798h7.504v1.199h-7.503zm0 7.796h2.502v1.199h-2.501zm3.752 0h1.25v1.199h-1.25zm2.501 0h1.25v1.199h-1.25z"/></g></g></svg>