<svg xmlns="http://www.w3.org/2000/svg" width="31" height="35" viewBox="0 0 31 35"><g><g><path fill="#e5002b" d="M31.005 7.5v26.804c0 .379-.283.686-.632.686H.627c-.349 0-.632-.307-.632-.686V7.501c0-.038.005-.074.01-.11.001-.007 0-.014.002-.02a.694.694 0 0 1 .071-.204.708.708 0 0 1 .088-.132c.003-.004.004-.008.008-.011L6.266.218A.61.61 0 0 1 6.72.01h17.425a.61.61 0 0 1 .448.203l6.228 6.806a.71.71 0 0 1 .117.183.72.72 0 0 1 .056.17v.005a.63.63 0 0 1 .01.125zm-14.873-.685h12.723l-4.973-5.434h-7.75zm-14.01 0h12.746V1.381H6.987zm27.619 1.372H1.259v25.43h28.482zm-19.614 13.82a.727.727 0 0 1 0-.97.595.595 0 0 1 .893 0l3.848 4.176V14.934c0-.378.283-.685.632-.685.35 0 .632.307.632.685v10.279l3.848-4.176a.596.596 0 0 1 .894 0 .727.727 0 0 1 0 .97l-4.927 5.347a.607.607 0 0 1-.446.2.608.608 0 0 1-.447-.2z"/></g></g></svg>