<svg xmlns="http://www.w3.org/2000/svg" width="46" height="59" viewBox="0 0 46 59"><g><g><path fill="#fff" d="M46.01 6.207v49.87c0 1.635-1.317 2.915-3 2.915H30.057c-.103 0-.177-.045-.218-.067H3.006c-1.682 0-3-1.28-3-2.915V6.207c0-1.635 1.318-2.915 3-2.915h12.046V1.88c0-1.047.841-1.865 1.919-1.865h12.142c1.077 0 1.921.818 1.921 1.865v1.41H43.01c1.684 0 3.001 1.281 3.001 2.916zM1.89 56.077c0 .595.5 1.084 1.116 1.084h26.839a.42.42 0 0 1 .213-.067h12.887c.613 0 1.112-.488 1.112-1.084V6.272c0-.598-.499-1.084-1.112-1.084h-11.91v3.707a2.267 2.267 0 0 1-2.259 2.125c-1.111 0-2.03-.77-2.186-1.833l-.003-.162c-.187-1.616-1.624-2.853-3.342-2.853S20.09 7.409 19.903 9.05v.106c-.158 1.093-1.08 1.864-2.191 1.864h-.471c-1.208 0-2.19-.952-2.19-2.125V5.188H3.007c-.616 0-1.117.486-1.117 1.084zM29.082 1.88l-12.112.032.032 6.982c0 .143.107.297.304.297h.474c.173 0 .276-.15.313-.289l-.007-.076c.208-2.524 2.473-4.487 5.158-4.487 2.695 0 4.941 1.919 5.225 4.463v.156c0 .13.165.233.306.233.15 0 .307-.105.307-.297zM10.397 47.428c0-.525.436-.946.974-.946h23.206c.54 0 .975.421.975.946a.958.958 0 0 1-.975.946H11.371c-.528 0-.974-.43-.974-.946zm0-3.738c0-.515.446-.946.974-.946h23.206c.54 0 .975.422.975.946a.963.963 0 0 1-.975.951H11.371a.964.964 0 0 1-.974-.951zm0-15.792c0-.523.436-.946.974-.946h23.206a.96.96 0 0 1 .975.946.96.96 0 0 1-.975.948H11.371a.962.962 0 0 1-.974-.948zm0-3.736c0-.522.436-.947.974-.947h23.206a.96.96 0 0 1 .975.947.96.96 0 0 1-.975.95H11.371a.962.962 0 0 1-.974-.95zm16.943 8.313c.183.176.293.45.279.711a.799.799 0 0 1-.316.59l-4.458 4.54-2.53-2.46a.912.912 0 0 1 0-1.303c.343-.338.997-.338 1.34 0l1.18 1.144 3.14-3.235c.39-.38 1.042-.38 1.365.013zM20.233 17.26a.914.914 0 0 1 0-1.303c.343-.333 1-.343 1.343 0l1.18 1.145 3.138-3.238c.396-.38 1.041-.378 1.366.013.183.176.293.45.277.713a.79.79 0 0 1-.314.589l-4.458 4.538z"/></g></g></svg>