<svg xmlns="http://www.w3.org/2000/svg" width="16" height="16" viewBox="0 0 16 16"><g><g><path fill="#e41d3a" d="M10.824 9.33h.368c1.367.157 2.89 1.94 3.626 2.988.631.892-.367 1.836-1.103 2.203-1.104.576-2.47.576-3.68.262-3.994-.892-7.935-4.825-8.829-8.81-.315-1.205-.315-2.57.263-3.67.368-.736 1.314-1.73 2.207-1.102 1.052.734 2.839 2.255 2.996 3.618v.368L4.99 6.917c.526.84 3.259 3.565 4.1 4.09zm-7.62-7.447c-.369-.21-1.84 1.049-1.21 3.88.894 3.724 4.52 7.342 8.252 8.234 2.838.63 4.1-.84 3.89-1.206-.263-.315-1.84-2.518-2.996-2.623l-1.577 1.574s-.315.315-.736.105c-.946-.473-4.205-3.724-4.678-4.668-.21-.42.105-.734.105-.734l1.577-1.573C5.726 3.717 3.52 2.145 3.203 1.883z"/><path fill="none" stroke="#e41d3a" stroke-miterlimit="20" stroke-width=".4" d="M10.824 9.33h.368c1.367.157 2.89 1.94 3.626 2.988.631.892-.367 1.836-1.103 2.203-1.104.576-2.47.576-3.68.262-3.994-.892-7.935-4.825-8.829-8.81-.315-1.205-.315-2.57.263-3.67.368-.736 1.314-1.73 2.207-1.102 1.052.734 2.839 2.255 2.996 3.618v.368L4.99 6.917c.526.84 3.259 3.565 4.1 4.09zm-7.62-7.447c-.369-.21-1.84 1.049-1.21 3.88.894 3.724 4.52 7.342 8.252 8.234 2.838.63 4.1-.84 3.89-1.206-.263-.315-1.84-2.518-2.996-2.623l-1.577 1.574s-.315.315-.736.105c-.946-.473-4.205-3.724-4.678-4.668-.21-.42.105-.734.105-.734l1.577-1.573C5.726 3.717 3.52 2.145 3.203 1.883z"/></g></g></svg>