<svg xmlns="http://www.w3.org/2000/svg" width="49" height="53" viewBox="0 0 49 53"><g><g><path fill="#fff" d="M45.408 34.453V52.23a.815.815 0 0 1-.367.683.827.827 0 0 1-.458.138H.83a.824.824 0 0 1-.825-.82V.76c0-.452.37-.82.825-.82h35.142a.737.737 0 0 1 .168.018l.06.02c0-.007.024 0 .079.023l.08.04a.906.906 0 0 1 .198.14l8.636 8.583c.033.03.055.06.076.096l-.152.16.185-.107.055.124c.008.02.021.054.025.089.021.09.026.129.026.17v11.138c0 .451-.37.819-.825.819a.823.823 0 0 1-.825-.82V10.132h-7.786a.823.823 0 0 1-.825-.82V1.578H1.655v49.834h42.103V34.453c0-.452.37-.82.825-.82.454 0 .825.368.825.82zm-2.82-25.96l-5.791-5.756v5.756zm-37.33.02c0-.45.37-.82.824-.82h15.976c.455 0 .825.37.825.82 0 .452-.37.82-.825.82H6.082a.823.823 0 0 1-.824-.82zm30.238 5.433c0 .452-.37.82-.825.82H6.082a.823.823 0 0 1-.824-.82c0-.45.37-.817.824-.817h28.59c.454 0 .824.366.824.817zm0 5.435c0 .45-.37.818-.825.818H6.082a.823.823 0 0 1-.824-.818c0-.45.37-.819.824-.819h28.59c.454 0 .824.368.824.82zm-.825 6.253H6.082a.823.823 0 0 1-.824-.819c0-.451.37-.819.824-.819h28.59c.454 0 .824.368.824.82 0 .451-.37.818-.825.818zm14.297 1.808c0 3.678-3.253 6.618-7.012 6.175l-4.928 4.896 4.335 4.307a2.7 2.7 0 0 1 .804 1.926c0 .725-.286 1.409-.804 1.928l-1.81 1.794a2.72 2.72 0 0 1-1.94.798 2.735 2.735 0 0 1-1.94-.798L21.54 34.432a2.72 2.72 0 0 1-.804-1.928c0-.727.286-1.413.804-1.926l1.81-1.8a2.752 2.752 0 0 1 1.94-.797c.728 0 1.418.284 1.94.798l4.335 4.306 4.927-4.896a6.457 6.457 0 0 1-.046-.747c0-3.43 2.808-6.218 6.263-6.218 3.45 0 6.258 2.788 6.258 6.218zm-6.258-4.58c-2.542 0-4.613 2.053-4.613 4.58 0 2.525 2.07 4.581 4.613 4.581 2.542 0 4.608-2.056 4.608-4.581 0-2.527-2.066-4.58-4.608-4.58zm-7.437 15.069l4.857-4.816a6.321 6.321 0 0 1-3.127-3.111l-4.929 4.883c-.306.244-.799.222-1.094-.058l-4.915-4.892a1.088 1.088 0 0 0-.775-.318 1.09 1.09 0 0 0-.774.318l-1.81 1.798a1.09 1.09 0 0 0-.32.77c0 .291.114.564.32.769l14.133 14.04c.412.409 1.136.409 1.549 0l1.81-1.798c.206-.205.319-.478.319-.77 0-.292-.113-.563-.32-.768l-4.92-4.889a.823.823 0 0 1-.004-1.158zM10.74 40.51a.822.822 0 0 1-.07-1.158.849.849 0 0 1 1.167-.067l2.032 1.798a.82.82 0 0 1-.547 1.434.815.815 0 0 1-.551-.21zm10.47 1.321a.797.797 0 0 1-.274-.564.788.788 0 0 1 .206-.59c.286-.33.833-.356 1.165-.067l2.033 1.799a.813.813 0 0 1 .064 1.157.818.818 0 0 1-.615.273.818.818 0 0 1-.547-.205zm-.072 5.096c.02-.024.042-.04.058-.058a.391.391 0 0 1 .068-.078l1.8-2.012c.287-.326.834-.36 1.167-.067a.815.815 0 0 1 .063 1.158l-1.81 2.02c-.02.025-.042.042-.059.058a2.069 2.069 0 0 1-1.62.766 2.089 2.089 0 0 1-1.389-.523l-.547-.485a.816.816 0 0 1-.067-1.159c.286-.33.833-.355 1.166-.066l.547.485a.452.452 0 0 0 .623-.039zm-6.334-2.82a.802.802 0 0 1-.274-.566.784.784 0 0 1 .206-.59c.287-.33.834-.359 1.166-.066l2.033 1.797a.817.817 0 0 1-.551 1.432.837.837 0 0 1-.543-.202zm5.471-5.294a.818.818 0 0 1-.552 1.43.822.822 0 0 1-.547-.21l-2.032-1.797a.82.82 0 0 1-.068-1.158.85.85 0 0 1 1.166-.067zm-5.164-2.38l-1.494-1.32a.512.512 0 0 0-.227-.109.817.817 0 0 1 .13-1.627c.046 0 .093.004.135.008.387.063.753.235 1.06.499l1.494 1.328a.816.816 0 0 1-.547 1.431.818.818 0 0 1-.551-.21zm-4.406 1.264a.459.459 0 0 0-.108.229.826.826 0 0 1-.932.69.822.822 0 0 1-.699-.928c.057-.406.234-.782.51-1.083l1.321-1.472c.284-.33.833-.355 1.164-.066a.814.814 0 0 1 .065 1.158z"/></g></g></svg>