<svg xmlns="http://www.w3.org/2000/svg" width="12" height="15" viewBox="0 0 12 15"><g><g><path fill="#e41d3a" d="M3.392 5.8c0-1.399 1.16-2.556 2.6-2.556 1.441 0 2.6 1.174 2.6 2.573 0 1.4-1.159 2.557-2.6 2.557-1.44 0-2.6-1.174-2.6-2.574zm1.406 0c0 .64.544 1.176 1.195 1.176.65 0 1.194-.536 1.194-1.176 0-.64-.527-1.175-1.194-1.175-.668 0-1.195.536-1.195 1.175zM1.055 9.083c-1.634-2.315-1.335-5.51.686-7.428.07-.07.158-.138.228-.207 2.302-1.97 5.763-1.97 8.065 0 .087.069.158.138.228.207 2.02 1.917 2.32 5.113.685 7.428l-3.725 5.285a1.54 1.54 0 0 1-1.23.622c-.491 0-.948-.224-1.23-.622zm1.16-.778l3.707 5.286c.018.018.018.035.07.035.053 0 .07-.035.07-.035l3.726-5.286c1.247-1.779 1.019-4.197-.51-5.648-.053-.052-.123-.104-.176-.156a4.799 4.799 0 0 0-3.11-1.14c-1.106 0-2.23.38-3.11 1.14-.052.052-.122.104-.175.156-1.529 1.45-1.74 3.887-.492 5.648z"/></g></g></svg>