<svg xmlns="http://www.w3.org/2000/svg" width="35" height="35" viewBox="0 0 35 35"><g><g><path fill="#e5002b" d="M30.717-.012c.429.003.774.355.771.784v2.723h2.721a.778.778 0 0 1 .583 1.289l-3.11 3.502a.777.777 0 0 1-.583.268h-3.571l-2.442 2.444a14.36 14.36 0 0 1 3.681 9.618c0 7.94-6.449 14.396-14.383 14.396C6.45 35.012.001 28.557.001 20.616.001 12.675 6.45 6.22 14.384 6.22c3.685 0 7.05 1.398 9.597 3.685l2.454-2.456V3.885a.778.778 0 0 1 .255-.583L30.188.188a.763.763 0 0 1 .529-.2zM27.99 4.226v2.771h2.757l1.725-1.945h-1.761a.777.777 0 0 1-.778-.778V2.499zM1.556 20.616c0 7.1 5.734 12.84 12.828 12.84 7.094 0 12.828-5.74 12.828-12.84 0-3.272-1.224-6.246-3.231-8.511l-2.758 2.76a8.91 8.91 0 0 1 2.102 5.751c0 4.933-4.012 8.948-8.941 8.948-4.929 0-8.94-4.015-8.94-8.948 0-4.934 4.011-8.95 8.94-8.95 2.184 0 4.191.784 5.746 2.092l2.757-2.76a12.768 12.768 0 0 0-8.503-3.222c-7.094 0-12.828 5.74-12.828 12.84zm5.442 0a7.377 7.377 0 0 0 7.386 7.392c4.088 0 7.386-3.3 7.386-7.392a7.364 7.364 0 0 0-1.652-4.645l-2.503 2.505c.408.614.656 1.351.656 2.14 0 2.14-1.75 3.89-3.887 3.89a3.901 3.901 0 0 1-3.887-3.89c0-2.14 1.75-3.892 3.887-3.892.786 0 1.524.24 2.138.645l2.502-2.505a7.356 7.356 0 0 0-4.64-1.64 7.377 7.377 0 0 0-7.386 7.392zm5.054 0a2.322 2.322 0 0 0 2.332 2.334 2.322 2.322 0 0 0 2.332-2.334c0-.364-.085-.704-.23-1.01l-1.555 1.557a.777.777 0 1 1-1.093-1.107l1.542-1.544a2.322 2.322 0 0 0-3.329 2.105z"/></g></g></svg>