<svg xmlns="http://www.w3.org/2000/svg" width="29" height="32" viewBox="0 0 29 32"><g><g><path fill="#e41d3a" d="M27.908 20.778c.948 1.055 1.497 3.054.71 4.842-.666 1.512-1.334 2.424-2.7 4.148-1.48 1.869-3.774 2.23-5.596 2.23-.711 0-1.35-.054-1.84-.097l-.377-.031c-5.73-.412-7.764-4.017-7.764-6.978v-8.563c0-1.51 1.251-2.742 2.789-2.742.505 0 .973.144 1.383.376.432-1.068 1.411-1.821 2.55-1.821.486 0 .936.15 1.335.39.401-1.132 1.41-1.941 2.598-1.941.409 0 .794.102 1.145.272v-7.7c0-1.657 1.25-3.006 2.788-3.006 1.538 0 2.789 1.35 2.789 3.007v17.403zm-4.124-4.55c.044.044.093.077.136.124l2.153 2.39V3.165c0-.709-.513-1.285-1.144-1.285-.631 0-1.145.576-1.145 1.285zm-3.933-2.63v2.656c.025-.029.043-.06.07-.087a2.652 2.652 0 0 1 2.22-.744v-1.825c0-.708-.515-1.285-1.146-1.285-.63 0-1.144.578-1.144 1.285zm0 6.746zm0 0v.719c0 .708.514 1.284 1.145 1.284.183 0 .36-.056.522-.15l-1.655-1.84c-.004-.002-.007-.007-.012-.013zm-3.933 1.022c0 .728.514 1.32 1.145 1.32.63 0 1.144-.592 1.144-1.32v-6.181c0-.728-.513-1.32-1.144-1.32-.632 0-1.145.59-1.145 1.32zm-3.933.3c0 .56.514 1.02 1.144 1.02.631 0 1.145-.46 1.145-1.02v-5.337c0-.562-.513-1.019-1.145-1.019-.63 0-1.144.457-1.144 1.019zm14.727.295l-3.987-4.429c-.464-.517-1.217-.567-1.675-.114-.46.455-.455 1.245.01 1.76L23.96 22.4a.891.891 0 0 1-.034 1.218.793.793 0 0 1-1.162-.037l-.117-.13a.815.815 0 0 1-.171.16c-.444.3-.956.46-1.482.46-.697 0-1.328-.287-1.817-.746-.512.656-1.265 1.082-2.115 1.082-.747 0-1.423-.326-1.925-.85a2.801 2.801 0 0 1-3.153.603v.732c0 1.128.45 4.843 6.232 5.26l.4.032c1.467.128 4.524.392 6.037-1.515 1.392-1.757 1.915-2.506 2.473-3.771.458-1.043.148-2.311-.415-2.937zM14.806 1.234c-.114-.558.226-1.106.758-1.226.533-.118 1.057.237 1.171.794l1.082 5.296c.114.557-.226 1.106-.759 1.227a1.03 1.03 0 0 1-.207.022c-.455 0-.864-.332-.963-.82zm-4.144 9.665a.958.958 0 0 1-1.395-.038L5.564 6.783a1.07 1.07 0 0 1 .035-1.461.955.955 0 0 1 1.395.037l3.703 4.079a1.07 1.07 0 0 1-.035 1.461zM.055 15.026c.17-.543.728-.838 1.244-.66l5.117 1.756c.517.178.8.76.63 1.304a.992.992 0 0 1-.937.712.924.924 0 0 1-.307-.053L.685 16.33c-.517-.176-.8-.76-.63-1.303zm7.136 9.55c.125.558-.204 1.114-.735 1.244l-5.238 1.286a.983.983 0 0 1-.226.026.997.997 0 0 1-.96-.797c-.124-.555.205-1.112.736-1.241l5.238-1.287c.532-.13 1.061.215 1.185.77z"/></g></g></svg>