<svg xmlns="http://www.w3.org/2000/svg" width="44" height="44" viewBox="0 0 44 44"><g><g><path fill="#e41d3a" d="M22.316 33.645a.73.73 0 0 1-.659 0c-2.615-1.316-7.003-3.772-7.003-5.441v-8.412c0-.29.171-.553.436-.67l6.599-2.933a.736.736 0 0 1 .595 0l6.599 2.933c.265.117.436.38.436.67v8.412c0 1.67-4.388 4.125-7.003 5.44zm-.33-1.478c3.028-1.554 5.665-3.343 5.866-3.988v-7.91l-5.866-2.609-5.865 2.608v7.936c.167.6 2.818 2.399 5.865 3.963zm3.848-10.658l1.104.966-5.133 5.866a.737.737 0 0 1-.943.136l-2.933-1.854.783-1.238 2.403 1.517zM43.984.728v36.661a.734.734 0 0 1-.734.734h-9.398l1.26 2.614a.734.734 0 0 1-.777 1.042l-4.105-.662-1.934 2.578a.732.732 0 0 1-1.265-.162l-2.614-6.386c-.787.157-1.598.242-2.43.242-.833 0-1.645-.085-2.431-.242l-2.614 6.386a.732.732 0 0 1-1.265.162l-1.934-2.578-4.105.662a.735.735 0 0 1-.777-1.042l1.26-2.614H.723a.734.734 0 0 1-.733-.734V.728c0-.405.328-.734.733-.734H43.25c.405 0 .733.33.733.734zM18.125 36.771a12.438 12.438 0 0 1-2.327-1.04c-.05-.03-.1-.063-.151-.092a12.844 12.844 0 0 1-.899-.585c-.074-.054-.145-.109-.219-.164a12.47 12.47 0 0 1-.77-.625l-.11-.088-2.858 5.93 3.155-.509a.727.727 0 0 1 .703.284l1.424 1.9zm3.86-.848c.935 0 1.839-.13 2.706-.35a10.993 10.993 0 0 0 2.086-.765l.151-.073c.192-.097.382-.2.568-.308.072-.042.143-.086.214-.13a10.94 10.94 0 0 0 1.58-1.173c.08-.073.162-.144.241-.219.14-.13.276-.267.408-.406.055-.055.106-.116.159-.174.186-.203.366-.412.536-.628.049-.063.095-.128.144-.192.158-.21.31-.425.453-.645.052-.08.1-.165.15-.247.128-.21.252-.422.365-.64.053-.102.1-.206.15-.31.099-.206.196-.412.282-.624.05-.122.092-.25.138-.377.072-.198.145-.397.206-.599.045-.15.08-.304.118-.458.047-.183.097-.369.134-.556.039-.195.063-.395.09-.593.022-.152.05-.301.065-.454.035-.354.055-.714.055-1.077 0-6.066-4.934-10.999-10.999-10.999-6.064 0-10.998 4.933-10.998 10.999 0 .363.02.723.054 1.078.015.153.044.302.065.454.028.198.053.398.09.593.038.188.088.372.135.556.039.154.073.306.118.457.06.203.133.402.206.6.045.127.088.254.138.377.086.212.183.418.282.624.05.104.097.209.15.31.113.217.237.43.365.64.05.081.098.165.15.247.142.22.295.434.453.645.048.064.095.13.144.193.17.214.35.424.536.627.053.058.104.118.158.174.133.14.27.274.409.406.078.074.16.145.24.218.494.44 1.022.832 1.581 1.173.071.044.142.09.213.131.187.109.376.211.569.308l.15.073c.666.322 1.363.58 2.087.763.867.22 1.77.351 2.705.351zm11.195 4.185l-2.859-5.931c-.035.03-.074.057-.11.088-.247.219-.505.426-.77.625-.073.055-.145.11-.219.164-.29.208-.59.402-.898.585-.051.029-.1.062-.152.092a12.43 12.43 0 0 1-2.326 1.04l2.052 5.01 1.423-1.9a.738.738 0 0 1 .704-.283zM42.517 1.46H1.456v35.195h9.371l1.734-3.594-.037-.047c-.176-.205-.34-.42-.503-.636-.072-.094-.145-.187-.213-.284-.141-.199-.272-.404-.401-.612-.078-.125-.156-.248-.228-.376a13.364 13.364 0 0 1-.535-1.043 12.45 12.45 0 0 1-.617-1.658 11.851 11.851 0 0 1-.154-.598c-.042-.176-.086-.35-.12-.527-.047-.238-.079-.48-.111-.72-.02-.148-.046-.293-.06-.441-.038-.396-.06-.794-.06-1.195 0-6.873 5.591-12.465 12.464-12.465 6.874 0 12.465 5.592 12.465 12.465 0 .4-.023.799-.06 1.195-.013.15-.04.294-.058.44-.033.242-.065.483-.111.722-.035.178-.079.352-.12.527-.048.2-.097.4-.155.597-.054.19-.117.375-.18.561-.06.175-.123.348-.191.52a13.135 13.135 0 0 1-.463 1.03c-.102.2-.206.398-.317.592-.073.127-.15.25-.228.375-.13.207-.26.412-.402.612-.068.096-.142.19-.213.283-.163.217-.327.43-.503.637l-.037.046 1.732 3.594h9.372zm-27.13 7.332h13.198v1.467H15.387zM8.055 5.127h27.863v1.467H8.055z"/></g></g></svg>