<svg width="67" height="67" viewBox="0 0 67 67" fill="none" xmlns="http://www.w3.org/2000/svg">
<path d="M66.6789 59.5983C66.2047 59.0529 65.3782 58.9953 64.8328 59.4696C63.4374 60.6828 62.1461 61.9406 60.3153 62.4466C58.28 63.0091 56.3458 62.5652 54.5038 61.6442L61.3188 38.7145C61.4884 38.1441 61.2516 37.5311 60.7426 37.2226L54.4375 33.4022V22.246C54.4375 21.5234 53.8516 20.9375 53.1289 20.9375H50.5117V17.0117C50.5117 16.2891 49.9258 15.7031 49.2031 15.7031H45.081V11.7773C45.081 11.0547 44.4952 10.4687 43.7724 10.4687H37.4258V1.30859C37.4258 0.585987 36.8399 0 36.1172 0H30.8828C30.1601 0 29.5742 0.585987 29.5742 1.30859V10.4687H23.2276C22.5048 10.4687 21.919 11.0547 21.919 11.7773V15.7031H17.7969C17.0742 15.7031 16.4883 16.2891 16.4883 17.0117V20.9375H13.8711C13.1484 20.9375 12.5625 21.5234 12.5625 22.246V33.4022L6.25749 37.2225C5.74845 37.5309 5.51172 38.144 5.68132 38.7144C5.68132 38.7144 12.4796 61.5873 12.4825 61.5972C12.3664 61.2067 10.2724 60.9496 9.90218 60.9017C6.09195 60.4086 3.1946 62.3173 0.449963 64.7038C-0.0954581 65.178 -0.153036 66.0044 0.321066 66.5498C0.773708 67.0704 1.61605 67.1578 2.1671 66.6787C4.9947 64.2207 8.18256 62.3469 11.9238 64.2178C15.3084 65.91 18.8117 66.6356 22.3369 64.7805C25.1795 63.2843 27.9225 61.9923 31.0953 63.5029L34.3573 65.0562C37.148 66.3852 40.3341 66.3546 43.0985 64.9722C44.802 64.1204 46.5334 62.9869 48.4793 62.8532C50.3867 62.7222 52.2297 63.4324 53.9057 64.2711C56.1197 65.3781 58.7116 65.5993 61.089 64.9216C63.279 64.2972 64.8727 62.9025 66.5499 61.4442C67.0955 60.9701 67.153 60.1438 66.6789 59.5983ZM51.8203 23.5546V31.8164L38.185 23.5546H51.8203ZM32.1914 2.61718H34.8086V10.4687H32.1914V2.61718ZM24.5362 13.0859H42.4639V15.7031H24.5362V13.0859ZM15.1797 23.5546H28.815L15.1797 31.8164V23.5546ZM32.1914 61.1263C32.1917 60.8937 30.326 60.4648 30.082 60.4119C27.8045 59.919 25.3595 60.232 23.2948 61.3188C21.7967 62.1072 20.3514 63.027 18.6381 63.2476C18.6349 63.248 18.6318 63.2484 18.6286 63.2488C17.6276 63.3705 16.603 63.2968 15.6341 63.0143L8.47778 38.9374L32.1914 24.5691C32.1914 24.5691 32.1914 61.1248 32.1914 61.1263ZM19.1055 20.9375V18.3203H47.8945V20.9375H19.1055ZM52.0849 60.5955C52.0994 60.1906 48.4157 60.1943 48.1689 60.2203C45.8975 60.4606 43.9325 61.6293 41.928 62.6315C39.56 63.8155 37.1234 63.4752 34.8086 62.3724V24.5691L58.5222 38.9374L52.0849 60.5955Z" fill="#2B3547"/>
</svg>
