<svg width="87" height="79" viewBox="0 0 87 79" fill="none" xmlns="http://www.w3.org/2000/svg">
<path d="M68.4 51.951L85 35.4318H66.8191V2H21.7619V12.5M21.7619 35.4318H2L43.7715 77L58.7905 62.054M49.8238 24.8123C49.8238 20.5936 46.6275 18.7349 43.5 18.9216M35.9905 38.9716C35.9998 43.4511 39.7499 45.5891 43.5 45.5382M43.5 45.5382C47.2503 45.4874 51.0005 43.2476 51.0095 38.9716C51.0195 34.2518 49.0333 32.2853 44.6857 32.2853C39.9429 32.2853 37.5714 30.712 37.5714 24.8123C37.5714 21.1561 40.5042 19.1005 43.5 18.9216M43.5 45.5382V50.3777M43.5 18.9216V13.4061M21.7619 23.9659V23" stroke="#2B3547" stroke-width="3.70536" stroke-linecap="round" stroke-linejoin="round"/>
</svg>
