<svg width="67" height="67" viewBox="0 0 67 67" fill="none" xmlns="http://www.w3.org/2000/svg">
<path d="M63.9477 49.0686L63.9304 49.0513C63.4211 48.54 62.5939 48.5386 62.0826 49.0479C61.5714 49.5572 61.5698 50.3844 62.0792 50.8956L62.0965 50.9129C62.3518 51.1691 62.687 51.2972 63.0221 51.2972C63.3556 51.2972 63.6892 51.1703 63.9442 50.9163C64.4555 50.407 64.4571 49.5798 63.9477 49.0686Z" fill="#2B3547"/>
<path d="M66.5524 53.4258C66.3442 52.7348 65.6151 52.3436 64.9244 52.5518C64.2335 52.76 63.8424 53.489 64.0505 54.1798C64.8865 56.9537 64.1351 59.9475 62.0895 61.9931C59.0327 65.0499 54.0591 65.0499 51.0024 61.9931C49.5216 60.5124 48.7061 58.5436 48.7061 56.4495C48.7061 54.3555 49.5215 52.3866 51.0024 50.9059C53.1128 48.7954 56.1858 48.069 59.022 49.0105C59.7072 49.2379 60.4463 48.867 60.6737 48.1822C60.9009 47.4973 60.53 46.7579 59.8453 46.5306C56.151 45.3044 52.1553 46.2027 49.349 48.8706H11.1277V47.9341C11.1277 47.4057 10.8093 46.9292 10.3212 46.7269C9.83293 46.5246 9.27089 46.6365 8.89729 47.0101L0.382665 55.5246C-0.127555 56.0348 -0.127555 56.8621 0.382665 57.3724L8.89716 65.8869C9.1471 66.1369 9.48131 66.2695 9.82128 66.2695C9.98957 66.2695 10.1594 66.2368 10.321 66.17C10.8091 65.9677 11.1275 65.4913 11.1275 64.9628V64.0262H49.3497C51.3618 65.9383 53.9529 66.8974 56.5459 66.8974C59.2226 66.8974 61.8995 65.8785 63.9372 63.8407C66.6649 61.1136 67.667 57.1227 66.5524 53.4258ZM47.3426 61.4134H9.82115C9.35909 61.4134 8.95316 61.6531 8.72089 62.0149L3.1544 56.4484L8.72089 50.8819C8.95316 51.2439 9.35909 51.4835 9.82115 51.4835H47.3437C46.5274 52.9913 46.0931 54.6868 46.0931 56.4495C46.0931 58.2112 46.5271 59.9061 47.3426 61.4134Z" fill="#2B3547"/>
<path d="M63.9268 26.0728L63.9096 26.0556C63.4001 25.5444 62.573 25.5429 62.0618 26.0522C61.5506 26.5615 61.549 27.3886 62.0584 27.8999L62.0757 27.9172C62.331 28.1734 62.6661 28.3015 63.0013 28.3015C63.3348 28.3015 63.6684 28.1746 63.9234 27.9206C64.4347 27.4113 64.4363 26.5841 63.9268 26.0728Z" fill="#2B3547"/>
<path d="M63.9268 3.07755L63.9096 3.06027C63.4003 2.54914 62.5731 2.54757 62.0618 3.05687C61.5506 3.56617 61.549 4.39334 62.0584 4.9046L62.0757 4.92188C62.331 5.1781 62.6661 5.30621 63.0013 5.30621C63.3348 5.30621 63.6684 5.17928 63.9234 4.92528C64.4347 4.41597 64.4363 3.58881 63.9268 3.07755Z" fill="#2B3547"/>
<path d="M57.7025 5.0462C57.1802 4.86168 56.5983 5.02683 56.2506 5.45801L53.5587 8.79623C53.1056 9.35788 53.1938 10.1805 53.7556 10.6335C54.3175 11.0864 55.1398 10.9983 55.5929 10.4366L55.9611 9.97985V14.64C55.9611 15.3616 56.5461 15.9465 57.2676 15.9465C57.989 15.9465 58.5741 15.3616 58.5741 14.64V6.27811C58.5741 5.72431 58.2247 5.23058 57.7025 5.0462Z" fill="#2B3547"/>
<path d="M59.4357 35.4606H57.3402C58.6722 34.1266 59.9492 32.4326 59.9492 30.8414C59.9492 28.6028 58.4451 27.0987 56.2065 27.0987C54.1428 27.0987 52.4637 28.7776 52.4637 30.8414C52.4637 31.563 53.0488 32.1479 53.7702 32.1479C54.4917 32.1479 55.0767 31.563 55.0767 30.8414C55.0767 30.2185 55.5834 29.7117 56.2065 29.7117C57.2019 29.7117 57.3362 30.2828 57.3362 30.8414C57.3362 32.0079 54.8259 34.4136 53.0145 35.7014C52.5506 36.0305 52.3529 36.6218 52.5255 37.1639C52.6982 37.7058 53.2017 38.0737 53.7704 38.0737H59.4358C60.1572 38.0737 60.7423 37.4888 60.7423 36.7672C60.7423 36.0457 60.1571 35.4606 59.4357 35.4606Z" fill="#2B3547"/>
<path d="M59.761 54.358C59.761 52.4849 58.2371 50.9609 56.364 50.9609H54.7516C54.0301 50.9609 53.4451 51.5459 53.4451 52.2674C53.4451 52.989 54.0301 53.5739 54.7516 53.5739H56.364C56.7964 53.5739 57.148 53.9256 57.148 54.3579C57.148 54.7903 56.7964 55.1419 56.364 55.1419H54.7516C54.0301 55.1419 53.4451 55.7268 53.4451 56.4484C53.4451 57.1699 54.0301 57.7549 54.7516 57.7549H56.364C56.7964 57.7549 57.148 58.1065 57.148 58.5389C57.148 58.9712 56.7964 59.3228 56.364 59.3228H54.7516C54.0301 59.3228 53.4451 59.9078 53.4451 60.6293C53.4451 61.3509 54.0301 61.9358 54.7516 61.9358H56.364C58.2373 61.9358 59.761 60.4119 59.761 58.5389C59.761 57.7508 59.4905 57.0253 59.0388 56.4484C59.4905 55.8716 59.761 55.1459 59.761 54.358Z" fill="#2B3547"/>
<path d="M66.5315 30.4301C66.3232 29.739 65.594 29.348 64.9035 29.5561C64.2126 29.7643 63.8214 30.4933 64.0296 31.1841C64.8655 33.9579 64.1142 36.9517 62.0686 38.9974C60.5879 40.4781 58.6191 41.2938 56.525 41.2938C54.4308 41.2938 52.4621 40.4782 50.9814 38.9974C49.5006 37.5168 48.6851 35.548 48.6851 33.4538C48.6851 31.3598 49.5004 29.3909 50.9814 27.9103C53.0919 25.7998 56.1648 25.0735 59.0011 26.0149C59.6859 26.2422 60.4254 25.8713 60.6528 25.1865C60.88 24.5016 60.5091 23.7623 59.8243 23.535C56.1337 22.3101 52.1429 23.2049 49.337 25.8662H22.2877V24.9297C22.2877 24.4013 21.9694 23.9248 21.4813 23.7225C20.9929 23.5202 20.431 23.6322 20.0574 24.0057L11.5429 32.5202C11.0327 33.0304 11.0327 33.8577 11.5429 34.368L20.0574 42.8824C20.3073 43.1323 20.6415 43.265 20.9815 43.265C21.1498 43.265 21.3196 43.2323 21.4813 43.1654C21.9694 42.9631 22.2877 42.4868 22.2877 41.9583V41.0217H49.3196C51.2715 42.8824 53.8189 43.9066 56.5252 43.9066C59.3174 43.9066 61.9423 42.8193 63.9166 40.845C66.6438 38.1177 67.6459 34.127 66.5315 30.4301ZM47.3167 38.4088H20.9812C20.5192 38.4088 20.1132 38.6486 19.881 39.0104L14.3145 33.4439L19.881 27.8774C20.1132 28.2394 20.5192 28.479 20.9812 28.479H47.3279C46.5086 29.989 46.0723 31.6876 46.0723 33.4537C46.0722 35.2121 46.5043 36.9038 47.3167 38.4088Z" fill="#2B3547"/>
<path d="M66.5315 7.43482C66.3232 6.74376 65.594 6.35275 64.9035 6.56081C64.2125 6.76901 63.8214 7.49803 64.0296 8.18884C64.8655 10.9627 64.1141 13.9565 62.0685 16.0022C60.5879 17.4829 58.6191 18.2985 56.5249 18.2985C54.4308 18.2985 52.462 17.483 50.9813 16.0022C49.5005 14.5215 48.685 12.5527 48.685 10.4586C48.685 8.36458 49.5004 6.39567 50.9813 4.915C53.0918 2.80437 56.1648 2.0781 59.0011 3.01963C59.6858 3.24706 60.4253 2.87621 60.6528 2.19129C60.8799 1.50637 60.5091 0.76702 59.8243 0.539717C56.129 -0.686827 52.1325 0.212045 49.3261 2.88131H36.61V1.94475C36.61 1.41634 36.2916 0.939885 35.8035 0.737576C35.3153 0.535137 34.7532 0.647283 34.3796 1.02076L25.8649 9.53525C25.6199 9.78022 25.4822 10.1126 25.4822 10.4591C25.4822 10.8056 25.6199 11.138 25.8649 11.383L34.3795 19.8976C34.6294 20.1475 34.9636 20.2802 35.3036 20.2802C35.4719 20.2802 35.6418 20.2475 35.8034 20.1807C36.2915 19.9783 36.6099 19.502 36.6099 18.9735V18.0369H49.3299C51.2805 19.8909 53.8234 20.9114 56.5247 20.9114C59.3168 20.9114 61.9417 19.8241 63.916 17.8498C66.6438 15.1225 67.6459 11.1317 66.5315 7.43482ZM35.3038 15.424C34.8417 15.424 34.4358 15.6638 34.2035 16.0257L28.6369 10.4591L34.2034 4.89249C34.4356 5.25445 34.8417 5.49418 35.3038 5.49418H47.322C46.5064 7.00155 46.0723 8.69657 46.0723 10.4586C46.0723 12.2211 46.5066 13.9164 47.3227 15.424H35.3038Z" fill="#2B3547"/>
</svg>
