<svg width="77" height="75" viewBox="0 0 77 75" fill="none" xmlns="http://www.w3.org/2000/svg">
<path d="M70.9558 50.065C69.9102 45.0212 65.4328 41.2186 60.0834 41.2186C53.961 41.2186 48.9802 46.1994 48.9802 52.3218C48.9802 55.6086 50.417 58.565 52.694 60.5998C53.7503 65.7535 58.258 69.4532 63.5652 69.4532C69.688 69.4532 74.6693 64.4719 74.6693 58.3491C74.6693 55.1691 73.3204 52.1736 70.9558 50.065ZM51.2156 52.3218C51.2156 47.432 55.1937 43.454 60.0834 43.454C64.9734 43.454 68.9514 47.432 68.9514 52.3218C68.9514 57.2115 64.9734 61.1896 60.0834 61.1896C55.1937 61.1896 51.2156 57.2115 51.2156 52.3218ZM63.5652 67.2178C60.205 67.2178 57.2467 65.3607 55.744 62.5412C57.0778 63.1098 58.5444 63.425 60.0834 63.425C65.7476 63.425 70.4315 59.1607 71.1014 53.6745C71.9635 55.0614 72.4339 56.673 72.4339 58.3491C72.4339 63.2393 68.4554 67.2178 63.5652 67.2178Z" fill="#2B3547"/>
<path d="M65.3608 11.4086C64.9281 10.9682 64.2205 10.9621 63.7803 11.3947C63.34 11.8273 63.3338 12.5351 63.7664 12.9753C69.5712 18.8831 73.0971 26.4561 73.8939 34.5956C71.7819 32.5812 68.9515 31.415 65.9272 31.415C62.7828 31.415 59.8486 32.676 57.7127 34.8388C57.3297 26.0227 55.4229 17.8216 52.2444 11.4646C50.434 7.84366 48.309 5.02181 45.9791 3.0825C51.2795 4.25208 56.2324 6.61909 60.5776 10.0959C61.0594 10.4815 61.7629 10.4034 62.1487 9.92156C62.5344 9.4396 62.4561 8.73619 61.9742 8.3505C58.6628 5.70093 54.9684 3.63704 50.9933 2.2162C46.8795 0.745589 42.5588 0 38.1513 0C27.9608 0 18.3803 3.96847 11.1743 11.1744C3.96848 18.3803 0 27.9608 0 38.1513C0 38.6661 0.351707 39.1144 0.851846 39.2369C1.35228 39.3593 1.87105 39.1244 2.10905 38.6678C3.72124 35.5731 6.88928 33.6506 10.3768 33.6506C13.8635 33.6506 17.031 35.5731 18.6433 38.6676C18.8358 39.0371 19.2178 39.269 19.6345 39.269C20.0512 39.269 20.4331 39.0372 20.6257 38.6676C22.2379 35.5731 25.4059 33.6506 28.8936 33.6506C31.08 33.6506 33.1408 34.4068 34.7713 35.7337V66.3131C34.7713 67.3757 33.9075 68.2401 32.8458 68.2401C32.3304 68.2401 31.8454 68.0395 31.4812 67.6763C31.1839 67.379 30.9903 66.9906 30.9359 66.5824C30.6891 64.7351 28.9866 63.4326 27.139 63.6792C25.2916 63.926 23.9891 65.6298 24.2359 67.4775C24.4858 69.3487 25.3618 71.1175 26.7038 72.4594C28.3471 74.0978 30.5286 75 32.846 75C37.6352 75 41.5312 71.1031 41.5312 66.3131V35.7339C43.162 34.4068 45.2232 33.6506 47.4104 33.6506C50.897 33.6506 54.0645 35.5731 55.6768 38.6676C55.8694 39.0371 56.2513 39.269 56.668 39.269C57.0847 39.269 57.4667 39.0372 57.6592 38.6676C59.2714 35.5731 62.4394 33.6506 65.9272 33.6506C69.4138 33.6506 72.5813 35.5731 74.1936 38.6676C74.3893 39.0433 74.7753 39.269 75.1846 39.269C75.2727 39.269 75.362 39.2585 75.4507 39.2368C75.9506 39.1143 76.3025 38.666 76.3025 38.1511C76.3025 28.0869 72.4167 18.5895 65.3608 11.4086ZM10.3768 31.4152C7.35157 31.4152 4.52033 32.5818 2.408 34.5965C3.21335 26.346 6.81641 18.6938 12.755 12.7552C17.6521 7.85811 23.7146 4.55013 30.3167 3.08846C27.9895 5.02762 25.8668 7.84738 24.0582 11.4647C20.8798 17.8217 18.9729 26.023 18.5899 34.839C16.4542 32.6761 13.5206 31.4152 10.3768 31.4152ZM20.8334 34.686C21.2264 26.2767 23.0463 18.4873 26.0576 12.4644C29.0815 6.41656 32.9435 2.86239 37.0334 2.31277V34.7649C34.9042 32.647 32.0013 31.4152 28.8935 31.4152C25.8242 31.4152 22.9553 32.6169 20.8334 34.686ZM32.8458 72.7646C31.1241 72.7646 29.5033 72.0939 28.283 70.8774C27.2872 69.8818 26.6369 68.5691 26.4515 67.1817C26.3679 66.5558 26.8092 65.9786 27.4351 65.895C28.0592 65.8112 28.6367 66.2526 28.7201 66.8778C28.8388 67.7694 29.258 68.6144 29.9016 69.2579C30.6888 70.0432 31.7344 70.4755 32.846 70.4755C35.1404 70.4755 37.0069 68.6082 37.0069 66.3131V38.3855C37.0593 38.4785 37.1106 38.5726 37.1601 38.6678C37.3526 39.0372 37.7346 39.2691 38.1513 39.2691C38.5679 39.2691 38.9499 39.0374 39.1424 38.6678C39.1921 38.5726 39.2432 38.4785 39.2956 38.3855V66.3131C39.2958 69.8704 36.4024 72.7646 32.8458 72.7646ZM47.4104 31.4152C44.3018 31.4152 41.3984 32.647 39.269 34.7649V2.31277C43.3589 2.86239 47.221 6.41671 50.2448 12.4644C53.2562 18.4871 55.076 26.2765 55.4689 34.6859C53.3475 32.6169 50.4792 31.4152 47.4104 31.4152Z" fill="#2B3547"/>
<path d="M15.8044 45.005C9.68159 45.005 4.70032 49.9863 4.70032 56.1091C4.70032 58.4912 5.44427 60.7624 6.85184 62.6771C7.21741 63.1745 7.91694 63.2812 8.4144 62.9157C8.91171 62.5501 9.01856 61.8506 8.653 61.3531C7.52962 59.8248 6.93589 58.0115 6.93589 56.1091C6.93589 51.2189 10.9144 47.2404 15.8046 47.2404C20.694 47.2404 24.6718 51.2189 24.6718 56.1091C24.6718 60.9984 20.694 64.9763 15.8046 64.9763C14.3578 64.9763 12.9252 64.6216 11.6613 63.9504C11.1161 63.661 10.4395 63.8681 10.1498 64.4133C9.86042 64.9584 10.0676 65.6351 10.6127 65.9247C12.1982 66.7667 13.9936 67.2117 15.8044 67.2117C21.9264 67.2117 26.907 62.231 26.907 56.1091C26.907 49.9863 21.9264 45.005 15.8044 45.005Z" fill="#2B3547"/>
<path d="M61.4996 51.3476C61.3303 51.2876 61.1577 51.2255 60.9851 51.1614V48.0725C61.2464 48.1713 61.428 48.2949 61.5136 48.3613C61.9364 48.6895 62.5447 48.6127 62.8727 48.1904C63.2009 47.7679 63.1243 47.1593 62.7018 46.8311C62.4678 46.6494 61.8621 46.2395 60.9851 46.0667V45.5287C60.9851 44.9937 60.5514 44.5601 60.0164 44.5601C59.4814 44.5601 59.0477 44.9937 59.0477 45.5287V46.1344C58.9875 46.15 58.9267 46.167 58.8653 46.1855C57.7157 46.5319 56.8572 47.5132 56.6247 48.7467C56.4114 49.8786 56.7789 50.9739 57.5838 51.6051C57.964 51.9033 58.4275 52.1768 59.0477 52.4609V56.563C58.6077 56.5014 58.2792 56.3525 57.7537 56.0087C57.3061 55.7159 56.7056 55.8414 56.4128 56.289C56.1199 56.7367 56.2454 57.337 56.6931 57.63C57.6141 58.2325 58.2637 58.444 59.0477 58.5115V59.1151C59.0477 59.6501 59.4814 60.0837 60.0164 60.0837C60.5514 60.0837 60.9851 59.6501 60.9851 59.1151V58.4187C62.5978 58.0103 63.6313 56.633 63.8594 55.2752C64.153 53.5286 63.2046 51.9502 61.4996 51.3476ZM58.7795 50.0805C58.5494 49.9002 58.451 49.5173 58.5285 49.1053C58.5849 48.806 58.7498 48.4615 59.0476 48.2341V50.2692C58.9512 50.2073 58.861 50.1446 58.7795 50.0805ZM61.9489 54.9539C61.8602 55.4812 61.5331 56.0357 60.9851 56.3483V53.2275C62.0364 53.6703 62.0127 54.5742 61.9489 54.9539Z" fill="#2B3547"/>
<path d="M17.2198 55.1347C17.0505 55.0748 16.8779 55.0126 16.7053 54.9486V51.8596C16.9666 51.9585 17.1482 52.0821 17.2338 52.1485C17.6566 52.4766 18.2649 52.3999 18.5929 51.9775C18.9211 51.555 18.8445 50.9464 18.422 50.6182C18.188 50.4366 17.5824 50.0266 16.7053 49.8537V49.3157C16.7053 48.7807 16.2717 48.347 15.7366 48.347C15.2016 48.347 14.768 48.7807 14.768 49.3157V49.9214C14.7078 49.937 14.647 49.9539 14.5857 49.9723C13.436 50.3187 12.5774 51.3 12.3451 52.5337C12.1317 53.6656 12.4992 54.7608 13.3041 55.3921C13.6842 55.6903 14.1477 55.9636 14.768 56.2478V60.3495C14.3285 60.2879 13.999 60.1389 13.474 59.7955C13.0261 59.5027 12.4258 59.628 12.133 60.0759C11.8402 60.5236 11.9656 61.1238 12.4133 61.4168C13.3343 62.0193 13.9839 62.2308 14.768 62.2983V62.9019C14.768 63.4369 15.2016 63.8706 15.7366 63.8706C16.2717 63.8706 16.7053 63.4369 16.7053 62.9019V62.2055C18.318 61.7972 19.3515 60.4198 19.5796 59.062C19.8734 57.3157 18.9248 55.7374 17.2198 55.1347ZM14.4997 53.8677C14.2696 53.6873 14.1713 53.3045 14.2488 52.8926C14.3051 52.5933 14.4699 52.2488 14.7678 52.0213V54.0563C14.6714 53.9945 14.5814 53.9316 14.4997 53.8677ZM17.6691 58.741C17.5806 59.2683 17.2533 59.8228 16.7053 60.1355V57.0147C17.7566 57.4574 17.7329 58.3613 17.6691 58.741Z" fill="#2B3547"/>
</svg>
