<svg width="166" height="146" viewBox="0 0 166 146" fill="none" xmlns="http://www.w3.org/2000/svg">
<g filter="url(#filter0_d)">
<path d="M6.36652 18.5329C4.10812 12.0349 8.93302 5.25 15.8123 5.25L109.653 5.25C113.204 5.25 116.489 7.13345 118.283 10.1983L148.822 62.3709C150.633 65.4643 150.65 69.2903 148.866 72.3993L118.269 125.727C116.486 128.834 113.177 130.75 109.595 130.75H15.7211C8.86774 130.75 4.04528 124.012 6.25529 117.525L22.2313 70.6298C22.9503 68.519 22.9433 66.2284 22.2112 64.1221L6.36652 18.5329Z" fill="#FCD025"/>
<path d="M98.0317 61.6974V45.3891L97.1571 44.4876M98.0317 95.233V105.34H39.0001V29.9995H82.9822M98.0317 95.233L108.827 105.34C111.448 107.775 117.25 102.894 114.57 100.057L100.418 86.4083M98.0317 95.233L95.008 92.2092M90.3357 76.5984C90.9499 73.0011 88.581 70.1058 83.9309 70.5445M95.008 92.2092C96.0229 91.4562 97.0328 90.5837 98.0317 89.5835C115.341 69.8426 88.4 44.7529 71.1213 63.7887C65.4266 70.0626 64.9467 77.7875 67.5689 84.1083M95.008 92.2092C83.676 100.618 71.7254 94.127 67.5689 84.1083M67.5689 84.1083H45.7192M64.7584 94.798H68.0867M82.9822 29.9995H83.1015L97.1571 44.4876M82.9822 29.9995V44.4876H97.1571M93.231 85.723C83.1001 95.0907 65.2023 80.1012 76.2978 68.4388C88.3178 55.8047 106.041 73.8785 93.231 85.723Z" stroke="#2B3547" stroke-width="3.51263"/>
<path d="M45.8356 41.0781H77.0692M77.0692 51.5978H52.1257M48.2791 51.5978H44.5132M63.2802 62.3637H45.8199M45.6999 73.4229H62.0834M44.6352 94.8365L61.3278 94.7469" stroke="white" stroke-width="3.51263"/>
</g>
<defs>
<filter id="filter0_d" x="0.713165" y="0.25" width="164.479" height="145.5" filterUnits="userSpaceOnUse" color-interpolation-filters="sRGB">
<feFlood flood-opacity="0" result="BackgroundImageFix"/>
<feColorMatrix in="SourceAlpha" type="matrix" values="0 0 0 0 0 0 0 0 0 0 0 0 0 0 0 0 0 0 127 0"/>
<feOffset dx="5" dy="5"/>
<feGaussianBlur stdDeviation="5"/>
<feColorMatrix type="matrix" values="0 0 0 0 0 0 0 0 0 0 0 0 0 0 0 0 0 0 0.25 0"/>
<feBlend mode="normal" in2="BackgroundImageFix" result="effect1_dropShadow"/>
<feBlend mode="normal" in="SourceGraphic" in2="effect1_dropShadow" result="shape"/>
</filter>
</defs>
</svg>
