<svg width="166" height="146" viewBox="0 0 166 146" fill="none" xmlns="http://www.w3.org/2000/svg">
<g filter="url(#filter0_d)">
<path d="M6.61607 18.2827C4.35786 11.7847 9.18275 5 16.0619 5L109.902 5C113.454 5 116.739 6.88359 118.533 9.94859L149.073 62.1263C150.883 65.2195 150.9 69.0452 149.116 72.154L118.519 125.487C116.736 128.594 113.427 130.51 109.845 130.51H15.9707C9.11748 130.51 4.29503 123.773 6.50484 117.286L22.4814 70.3846C23.2004 68.2739 23.1933 65.9836 22.4614 63.8774L6.61607 18.2827Z" fill="#FCD025"/>
<path d="M98.0675 84.8902L111.398 104.131C112.638 105.943 112.188 108.424 110.373 109.681L104.911 113.464C103.113 114.723 100.631 114.273 99.3739 112.458L86.0437 93.2172C85.4421 92.3487 85.2147 91.2781 85.4045 90.2327L85.8879 87.5702C79.3033 91.0315 71.5628 92.3932 63.6733 90.9606C44.9034 87.5524 32.4555 69.585 35.8631 50.8184C39.2708 32.0517 57.2424 19.6079 76.0106 23.0158C94.7788 26.4237 107.227 44.391 103.819 63.1577C102.387 71.0472 98.3911 77.8117 92.8358 82.7592L95.4983 83.2426C96.5437 83.4324 97.4659 84.0217 98.0675 84.8902Z" stroke="#2B3547" stroke-width="3"/>
<path fill-rule="evenodd" clip-rule="evenodd" d="M67.3186 53.621L74.791 55.8622C77.8788 56.7886 80.0354 59.7503 80.0354 63.0656C80.0354 67.138 76.8728 70.4434 72.9499 70.548V73.2241C72.9499 73.9579 72.3555 74.5522 71.6217 74.5522H68.9655C68.2317 74.5522 67.6374 73.9579 67.6374 73.2241V70.5197C65.7631 70.4234 63.9402 69.7693 62.4295 68.6354C61.782 68.149 61.7488 67.1795 62.3349 66.62L64.2855 64.759C64.7454 64.3207 65.4294 64.3008 65.9673 64.6378C66.6081 65.0412 67.3386 65.2554 68.0956 65.2554H72.7606C73.8397 65.2554 74.7196 64.2726 74.7196 63.0656C74.7196 62.0778 74.1203 61.2096 73.2636 60.9522L65.7913 58.711C62.7051 57.7847 60.5486 54.823 60.5486 51.5076C60.5486 47.4369 63.7111 44.1299 67.6341 44.0253V41.3491C67.6341 40.6153 68.2284 40.021 68.9622 40.021H71.6184C72.3522 40.021 72.9465 40.6153 72.9465 41.3491V44.0535C74.8208 44.1498 76.6437 44.8039 78.1544 45.9378C78.8019 46.4242 78.8351 47.3937 78.2491 47.9532L76.2984 49.8143C75.8385 50.2525 75.1545 50.2725 74.6166 49.9354C73.9758 49.532 73.2454 49.3179 72.4883 49.3179H67.8217C66.7426 49.3179 65.8627 50.3007 65.8627 51.5076C65.8627 52.4954 66.462 53.3637 67.3186 53.621Z" fill="white"/>
</g>
<defs>
<filter id="filter0_d" x="0.962799" y="0" width="164.48" height="145.51" filterUnits="userSpaceOnUse" color-interpolation-filters="sRGB">
<feFlood flood-opacity="0" result="BackgroundImageFix"/>
<feColorMatrix in="SourceAlpha" type="matrix" values="0 0 0 0 0 0 0 0 0 0 0 0 0 0 0 0 0 0 127 0"/>
<feOffset dx="5" dy="5"/>
<feGaussianBlur stdDeviation="5"/>
<feColorMatrix type="matrix" values="0 0 0 0 0 0 0 0 0 0 0 0 0 0 0 0 0 0 0.25 0"/>
<feBlend mode="normal" in2="BackgroundImageFix" result="effect1_dropShadow"/>
<feBlend mode="normal" in="SourceGraphic" in2="effect1_dropShadow" result="shape"/>
</filter>
</defs>
</svg>
