<svg width="80" height="80" viewBox="0 0 80 80" fill="none" xmlns="http://www.w3.org/2000/svg">
<circle cx="40" cy="40" r="40" fill="url(#paint0_linear)"/>
<path d="M55.1654 20H25.8346C22.5231 20 20 22.5231 20 25.8346V55.1654C20 58.4769 22.5231 61 25.8346 61H55.1654C58.4769 61 61 58.4769 61 55.1654V25.8346C61 22.5231 58.4769 20 55.1654 20ZM40.5 52.8C47.2808 52.8 52.8 47.4385 52.8 40.9731C52.8 39.8692 52.6423 38.6077 52.3269 37.6615H55.7962V54.3769C55.7962 55.1654 55.1654 55.9538 54.2192 55.9538H26.7808C25.9923 55.9538 25.2039 55.3231 25.2039 54.3769V37.5038H28.8308C28.5154 38.6077 28.3577 39.7115 28.3577 40.8154C28.2 47.4385 33.7192 52.8 40.5 52.8ZM40.5 48.0692C36.0846 48.0692 32.6154 44.6 32.6154 40.3423C32.6154 36.0846 36.0846 32.6154 40.5 32.6154C44.9154 32.6154 48.3846 36.0846 48.3846 40.3423C48.3846 44.7577 44.9154 48.0692 40.5 48.0692ZM55.6385 31.1962C55.6385 32.1423 54.85 32.9308 53.9038 32.9308H49.4885C48.5423 32.9308 47.7539 32.1423 47.7539 31.1962V26.9385C47.7539 25.9923 48.5423 25.2038 49.4885 25.2038H53.9038C54.85 25.2038 55.6385 25.9923 55.6385 26.9385V31.1962Z" fill="white"/>
<defs>
<linearGradient id="paint0_linear" x1="17" y1="71" x2="70" y2="16" gradientUnits="userSpaceOnUse">
<stop stop-color="#EEA054"/>
<stop offset="0.502762" stop-color="#D64763"/>
<stop offset="1" stop-color="#B62A99"/>
</linearGradient>
</defs>
</svg>
