<svg width="62" height="55" viewBox="0 0 62 55" fill="none" xmlns="http://www.w3.org/2000/svg">
<path d="M48.4 35.9667L60 24.7336H47.2952V2H15.8095V9.14M15.8095 24.7336H2L31.1897 53L41.6849 42.8367M35.4191 17.5123C35.4191 14.6437 33.1855 13.3797 31 13.5067M25.7524 27.1407C25.7589 30.1868 28.3795 31.6406 31 31.606M31 31.606C33.6207 31.5714 36.2413 30.0484 36.2476 27.1407C36.2546 23.9312 34.8667 22.594 31.8286 22.594C28.5143 22.594 26.8571 21.5242 26.8571 17.5123C26.8571 15.0262 28.9065 13.6283 31 13.5067M31 31.606V34.8969M31 13.5067V9.75617M15.8095 16.9368V16.28" stroke="#FCD025" stroke-width="3.70536" stroke-linecap="round" stroke-linejoin="round"/>
</svg>
