<svg width="57" height="51" viewBox="0 0 57 51" fill="none" xmlns="http://www.w3.org/2000/svg">
<path d="M35.7573 25.209L30.5172 26.3003L31.6291 21.0739L32.4002 23.4906L32.6373 24.2336L33.3817 24.4663L35.7573 25.209Z" stroke="#FCD025" stroke-width="3"/>
<path d="M18.19 38.5136C19.0252 39.3391 19.9381 40.0839 20.9162 40.7379C22.9048 42.0693 25.1389 43.0001 27.491 43.4774C29.94 43.9677 32.4634 43.9677 34.9124 43.4774C36.0955 43.2368 37.2516 42.8813 38.3641 42.4159C40.5483 41.4965 42.534 40.1709 44.2134 38.511C45.0468 37.6889 45.8013 36.781 46.4585 35.8158C47.8067 33.8472 48.7483 31.6342 49.2293 29.3042C49.7252 26.8799 49.7252 24.3818 49.2293 21.9575C48.2435 17.2271 45.3998 13.0777 41.3235 10.4214C37.2472 7.76511 32.2718 6.81938 27.491 7.79209C25.1385 8.2744 22.9035 9.20577 20.9109 10.5341C18.9523 11.8466 17.265 13.5172 15.9397 15.4562C13.8851 18.4612 12.7906 22.0078 12.7982 25.636L12.8008 25.7011H18.0559L10.1693 36.0422L2.28259 25.7011H7.543L7.54037 25.636C7.53596 22.5046 8.16896 19.4043 9.40163 16.5202C10.5934 13.7414 12.3141 11.2154 14.4701 9.07985C17.7391 5.83572 21.9011 3.61619 26.4368 2.69828C29.582 2.06477 32.824 2.06477 35.9692 2.69828C40.5006 3.62209 44.6592 5.8398 47.9307 9.07725C50.0919 11.2105 51.8133 13.7393 52.9992 16.5228C54.2339 19.4054 54.867 22.5052 54.8604 25.636C54.8662 30.3025 53.4578 34.8634 50.8172 38.7296C48.2515 42.4947 44.6357 45.4411 40.4094 47.2106C37.4938 48.4233 34.3631 49.0486 31.2004 49.0498C28.0934 49.0517 25.0166 48.4469 22.1462 47.2701C19.2758 46.0934 16.6682 44.3678 14.4728 42.1922" stroke="#FCD025" stroke-width="3" stroke-linecap="round" stroke-linejoin="round"/>
</svg>
