<svg width="54" height="53" viewBox="0 0 54 53" fill="none" xmlns="http://www.w3.org/2000/svg">
<path d="M49.7437 35.0452C49.0198 31.5531 45.9198 28.9204 42.2162 28.9204C37.9774 28.9204 34.5289 32.3689 34.5289 36.6077C34.5289 38.8833 35.5237 40.9302 37.1002 42.339C37.8315 45.9072 40.9524 48.4686 44.6268 48.4686C48.8659 48.4686 52.3147 45.0198 52.3147 40.7807C52.3147 38.579 51.3808 36.5051 49.7437 35.0452ZM36.0766 36.6077C36.0766 33.2223 38.8308 30.4681 42.2162 30.4681C45.6017 30.4681 48.3559 33.2223 48.3559 36.6077C48.3559 39.9931 45.6017 42.7473 42.2162 42.7473C38.8308 42.7473 36.0766 39.9931 36.0766 36.6077ZM44.6268 46.9209C42.3004 46.9209 40.2522 45.6352 39.2118 43.6831C40.1353 44.0768 41.1507 44.295 42.2162 44.295C46.1378 44.295 49.3807 41.3426 49.8445 37.5443C50.4414 38.5044 50.767 39.6202 50.767 40.7807C50.767 44.1664 48.0125 46.9209 44.6268 46.9209Z" fill="#FCD025"/>
<path d="M45.87 8.28151C45.5703 7.97662 45.0804 7.97239 44.7756 8.27192C44.4708 8.57145 44.4665 9.06145 44.766 9.36624C48.785 13.4565 51.2261 18.6997 51.7778 24.335C50.3156 22.9403 48.356 22.1329 46.262 22.1329C44.0851 22.1329 42.0536 23.006 40.5748 24.5034C40.3096 18.3996 38.9894 12.7215 36.7888 8.32031C35.5354 5.81336 34.0642 3.85965 32.4511 2.51698C36.1207 3.32673 39.5499 4.96553 42.5583 7.37271C42.8919 7.63963 43.3789 7.58557 43.646 7.25199C43.9131 6.91831 43.8589 6.4313 43.5252 6.16427C41.2326 4.32984 38.6747 2.90091 35.9226 1.91719C33.0745 0.899019 30.083 0.382812 27.0314 0.382812C19.9761 0.382812 13.343 3.13038 8.354 8.11942C3.36506 13.1084 0.617493 19.7415 0.617493 26.7968C0.617493 27.1533 0.860996 27.4636 1.20727 27.5484C1.55374 27.6331 1.91291 27.4705 2.07769 27.1544C3.19389 25.0118 5.38727 23.6807 7.80188 23.6807C10.2159 23.6807 12.4088 25.0118 13.5251 27.1543C13.6585 27.4101 13.9229 27.5706 14.2114 27.5706C14.4999 27.5706 14.7643 27.4102 14.8976 27.1543C16.0138 25.0118 18.2072 23.6807 20.6219 23.6807C22.1357 23.6807 23.5624 24.2043 24.6913 25.123V46.2946C24.6913 47.0303 24.0933 47.6287 23.3583 47.6287C23.0014 47.6287 22.6656 47.4898 22.4134 47.2384C22.2076 47.0325 22.0736 46.7637 22.0359 46.481C21.865 45.202 20.6863 44.3002 19.4071 44.471C18.1281 44.6419 17.2263 45.8215 17.3972 47.1007C17.5702 48.3963 18.1767 49.6209 19.1058 50.5499C20.2436 51.6843 21.7539 52.3089 23.3584 52.3089C26.6741 52.3089 29.3716 49.6109 29.3716 46.2946V25.1231C30.5007 24.2043 31.9277 23.6807 33.442 23.6807C35.856 23.6807 38.049 25.0118 39.1653 27.1543C39.2986 27.4101 39.563 27.5706 39.8515 27.5706C40.14 27.5706 40.4044 27.4102 40.5377 27.1543C41.6539 25.0118 43.8473 23.6807 46.262 23.6807C48.676 23.6807 50.869 25.0118 51.9853 27.1543C52.1208 27.4144 52.388 27.5706 52.6715 27.5706C52.7324 27.5706 52.7942 27.5634 52.8556 27.5483C53.2018 27.4635 53.4454 27.1531 53.4454 26.7967C53.4454 19.8287 50.7551 13.2532 45.87 8.28151ZM7.80188 22.1331C5.70734 22.1331 3.74713 22.9407 2.28467 24.3356C2.84225 18.6234 5.33682 13.3254 9.44842 9.21384C12.8389 5.82336 17.0362 3.53309 21.6072 2.5211C19.9959 3.86368 18.5264 5.81594 17.2742 8.32041C15.0736 12.7216 13.7534 18.3998 13.4882 24.5035C12.0095 23.0061 9.97845 22.1331 7.80188 22.1331ZM15.0415 24.3976C15.3136 18.5754 16.5736 13.1824 18.6584 9.01254C20.752 4.82531 23.4258 2.36458 26.2575 1.98406V24.4522C24.7834 22.9859 22.7735 22.1331 20.6218 22.1331C18.4969 22.1331 16.5105 22.9651 15.0415 24.3976ZM23.3583 50.7612C22.1662 50.7612 21.044 50.2969 20.1992 49.4547C19.5098 48.7653 19.0595 47.8565 18.9311 46.8959C18.8732 46.4626 19.1788 46.063 19.6121 46.0051C20.0442 45.9471 20.4441 46.2527 20.5018 46.6855C20.584 47.3029 20.8742 47.8879 21.3198 48.3334C21.8648 48.8771 22.5887 49.1764 23.3584 49.1764C24.9469 49.1764 26.2391 47.8836 26.2391 46.2946V26.959C26.2754 27.0233 26.3109 27.0885 26.3452 27.1544C26.4785 27.4102 26.743 27.5707 27.0314 27.5707C27.3199 27.5707 27.5844 27.4103 27.7177 27.1544C27.7521 27.0885 27.7874 27.0233 27.8238 26.959V46.2946C27.8239 48.7575 25.8206 50.7612 23.3583 50.7612ZM33.442 22.1331C31.2898 22.1331 29.2796 22.9859 27.8053 24.4522V1.98406C30.637 2.36458 33.3108 4.82541 35.4044 9.01254C37.4893 13.1823 38.7492 18.5753 39.0213 24.3975C37.5526 22.9651 35.5667 22.1331 33.442 22.1331Z" fill="#FCD025"/>
<path d="M11.5596 31.5415C7.32048 31.5415 3.8717 34.9903 3.8717 39.2294C3.8717 40.8786 4.38678 42.4511 5.36131 43.7767C5.61441 44.1211 6.09873 44.195 6.44314 43.9419C6.78745 43.6888 6.86143 43.2045 6.60833 42.8601C5.83057 41.802 5.4195 40.5465 5.4195 39.2294C5.4195 35.8437 8.17398 33.0892 11.5597 33.0892C14.9449 33.0892 17.6989 35.8437 17.6989 39.2294C17.6989 42.6145 14.9449 45.3686 11.5597 45.3686C10.558 45.3686 9.56618 45.123 8.69112 44.6583C8.31368 44.4579 7.84525 44.6013 7.64467 44.9788C7.44429 45.3562 7.58771 45.8247 7.96514 46.0252C9.06287 46.6082 10.3059 46.9163 11.5596 46.9163C15.7981 46.9163 19.2465 43.4679 19.2465 39.2294C19.2465 34.9903 15.7981 31.5415 11.5596 31.5415Z" fill="#FCD025"/>
<path d="M43.1967 35.9332C43.0795 35.8917 42.96 35.8487 42.8405 35.8043V33.6657C43.0214 33.7341 43.1472 33.8197 43.2064 33.8657C43.4991 34.0929 43.9203 34.0398 44.1474 33.7473C44.3746 33.4548 44.3215 33.0334 44.029 32.8062C43.867 32.6805 43.4477 32.3966 42.8405 32.277V31.9046C42.8405 31.5341 42.5403 31.2339 42.1698 31.2339C41.7994 31.2339 41.4992 31.5341 41.4992 31.9046V32.3239C41.4575 32.3347 41.4154 32.3465 41.3729 32.3593C40.577 32.5991 39.9825 33.2785 39.8216 34.1325C39.6739 34.9162 39.9284 35.6745 40.4856 36.1115C40.7489 36.318 41.0697 36.5073 41.4992 36.7041V39.5441C41.1945 39.5015 40.9671 39.3984 40.6033 39.1603C40.2933 38.9576 39.8776 39.0445 39.6749 39.3544C39.4721 39.6644 39.559 40.08 39.8689 40.2828C40.5066 40.7 40.9563 40.8464 41.4992 40.8931V41.311C41.4992 41.6814 41.7994 41.9817 42.1698 41.9817C42.5403 41.9817 42.8405 41.6814 42.8405 41.311V40.8289C43.957 40.5461 44.6726 39.5926 44.8305 38.6525C45.0338 37.4432 44.3772 36.3505 43.1967 35.9332ZM41.3135 35.056C41.1541 34.9311 41.086 34.666 41.1397 34.3808C41.1787 34.1736 41.2929 33.935 41.4991 33.7776V35.1866C41.4323 35.1438 41.3699 35.1003 41.3135 35.056ZM43.5078 38.43C43.4464 38.7951 43.2199 39.179 42.8405 39.3955V37.2348C43.5683 37.5414 43.5519 38.1671 43.5078 38.43Z" fill="#FCD025"/>
<path d="M12.5396 38.5554C12.4224 38.5139 12.3029 38.4709 12.1835 38.4265V36.2879C12.3643 36.3563 12.4901 36.4419 12.5493 36.4879C12.8421 36.7151 13.2632 36.6619 13.4903 36.3695C13.7175 36.077 13.6645 35.6556 13.372 35.4284C13.21 35.3026 12.7907 35.0188 12.1835 34.8991V34.5266C12.1835 34.1562 11.8832 33.856 11.5128 33.856C11.1424 33.856 10.8421 34.1562 10.8421 34.5266V34.9459C10.8004 34.9568 10.7583 34.9684 10.7159 34.9812C9.91991 35.221 9.3255 35.9005 9.16464 36.7546C9.01689 37.5382 9.27133 38.2965 9.8286 38.7336C10.0918 38.94 10.4127 39.1293 10.8421 39.326V42.1658C10.5379 42.1232 10.3097 42.02 9.94622 41.7823C9.63617 41.5796 9.22056 41.6663 9.01781 41.9764C8.81507 42.2863 8.90194 42.7019 9.21189 42.9048C9.84954 43.322 10.2993 43.4684 10.8421 43.5151V43.933C10.8421 44.3034 11.1424 44.6037 11.5128 44.6037C11.8832 44.6037 12.1835 44.3034 12.1835 43.933V43.4508C13.3 43.1681 14.0155 42.2145 14.1735 41.2745C14.3769 40.0654 13.7201 38.9726 12.5396 38.5554ZM10.6564 37.6781C10.4971 37.5533 10.429 37.2882 10.4827 37.003C10.5217 36.7959 10.6358 36.5573 10.842 36.3998V37.8088C10.7753 37.7659 10.713 37.7224 10.6564 37.6781ZM12.8507 41.0522C12.7894 41.4173 12.5629 41.8012 12.1835 42.0177V39.857C12.9113 40.1635 12.8949 40.7893 12.8507 41.0522Z" fill="#FCD025"/>
</svg>
