<svg width="42" height="42" viewBox="0 0 42 42" fill="none" xmlns="http://www.w3.org/2000/svg">
<path d="M40.0866 30.7596L40.0758 30.7488C39.7565 30.4283 39.238 30.4274 38.9175 30.7467C38.597 31.0659 38.596 31.5844 38.9154 31.9049L38.9262 31.9158C39.0863 32.0764 39.2963 32.1567 39.5064 32.1567C39.7155 32.1567 39.9246 32.0771 40.0845 31.9179C40.405 31.5986 40.406 31.0801 40.0866 30.7596Z" fill="#FCD025"/>
<path d="M41.7194 33.4907C41.5889 33.0575 41.1319 32.8123 40.6989 32.9429C40.2658 33.0734 40.0206 33.5304 40.1511 33.9634C40.6751 35.7022 40.2041 37.5789 38.9218 38.8612C37.0056 40.7775 33.8878 40.7775 31.9717 38.8612C31.0434 37.9331 30.5322 36.6989 30.5322 35.3862C30.5322 34.0735 31.0433 32.8393 31.9717 31.9111C33.2946 30.5881 35.2209 30.1327 36.9989 30.7229C37.4284 30.8655 37.8917 30.6329 38.0343 30.2037C38.1767 29.7743 37.9442 29.3108 37.5149 29.1684C35.1991 28.3997 32.6944 28.9628 30.9352 30.6352H6.97554V30.0481C6.97554 29.7169 6.77596 29.4182 6.46999 29.2914C6.16393 29.1646 5.8116 29.2347 5.5774 29.4689L0.23988 34.8064C-0.0799599 35.1262 -0.0799599 35.6448 0.23988 35.9647L5.57732 41.3022C5.734 41.4588 5.94351 41.542 6.15663 41.542C6.26212 41.542 6.36859 41.5215 6.4699 41.4796C6.77588 41.3528 6.97546 41.0542 6.97546 40.7229V40.1358H30.9356C32.1969 41.3344 33.8212 41.9356 35.4467 41.9356C37.1246 41.9356 38.8027 41.2969 40.0801 40.0194C41.7899 38.3099 42.4181 35.8082 41.7194 33.4907ZM29.6774 38.4978H6.15654C5.86689 38.4978 5.61243 38.6481 5.46683 38.8749L1.97738 35.3855L5.46683 31.8961C5.61243 32.123 5.86689 32.2732 6.15654 32.2732H29.6782C29.1665 33.2183 28.8942 34.2812 28.8942 35.3862C28.8942 36.4905 29.1662 37.553 29.6774 38.4978Z" fill="#FCD025"/>
<path d="M40.0734 16.3441L40.0626 16.3332C39.7433 16.0128 39.2248 16.0118 38.9043 16.3311C38.5838 16.6504 38.5829 17.1689 38.9022 17.4894L38.913 17.5002C39.0731 17.6608 39.2832 17.7411 39.4932 17.7411C39.7023 17.7411 39.9114 17.6616 40.0713 17.5023C40.3918 17.1831 40.3928 16.6646 40.0734 16.3441Z" fill="#FCD025"/>
<path d="M40.0734 1.92902L40.0626 1.91819C39.7434 1.59778 39.2248 1.5968 38.9043 1.91606C38.5838 2.23533 38.5829 2.75385 38.9022 3.07434L38.913 3.08517C39.0731 3.24579 39.2832 3.3261 39.4932 3.3261C39.7023 3.3261 39.9114 3.24652 40.0713 3.0873C40.3918 2.76804 40.3928 2.24952 40.0734 1.92902Z" fill="#FCD025"/>
<path d="M36.1716 3.16349C35.8443 3.04782 35.4795 3.15135 35.2615 3.42164L33.574 5.51426C33.29 5.86633 33.3453 6.38198 33.6975 6.66597C34.0497 6.94988 34.5652 6.89468 34.8492 6.54252L35.0801 6.25623V9.17752C35.0801 9.62984 35.4467 9.99652 35.8991 9.99652C36.3513 9.99652 36.718 9.62984 36.718 9.17752V3.93573C36.718 3.58857 36.499 3.27907 36.1716 3.16349Z" fill="#FCD025"/>
<path d="M37.2583 22.2291H35.9447C36.7797 21.3929 37.5802 20.331 37.5802 19.3335C37.5802 17.9302 36.6373 16.9873 35.234 16.9873C33.9404 16.9873 32.8878 18.0398 32.8878 19.3335C32.8878 19.7858 33.2546 20.1525 33.7068 20.1525C34.1591 20.1525 34.5258 19.7858 34.5258 19.3335C34.5258 18.943 34.8434 18.6253 35.234 18.6253C35.858 18.6253 35.9422 18.9833 35.9422 19.3335C35.9422 20.0647 34.3686 21.5728 33.2331 22.38C32.9423 22.5863 32.8183 22.957 32.9265 23.2968C33.0348 23.6365 33.3504 23.8672 33.7069 23.8672H37.2584C37.7106 23.8672 38.0774 23.5005 38.0774 23.0482C38.0774 22.5959 37.7105 22.2291 37.2583 22.2291Z" fill="#FCD025"/>
<path d="M37.4621 34.0753C37.4621 32.9011 36.5069 31.9458 35.3327 31.9458H34.3219C33.8696 31.9458 33.5029 32.3125 33.5029 32.7648C33.5029 33.2171 33.8696 33.5838 34.3219 33.5838H35.3327C35.6037 33.5838 35.8241 33.8042 35.8241 34.0752C35.8241 34.3463 35.6037 34.5667 35.3327 34.5667H34.3219C33.8696 34.5667 33.5029 34.9334 33.5029 35.3857C33.5029 35.838 33.8696 36.2047 34.3219 36.2047H35.3327C35.6037 36.2047 35.8241 36.4251 35.8241 36.6961C35.8241 36.9672 35.6037 37.1876 35.3327 37.1876H34.3219C33.8696 37.1876 33.5029 37.5543 33.5029 38.0066C33.5029 38.4589 33.8696 38.8256 34.3219 38.8256H35.3327C36.5069 38.8256 37.4621 37.8703 37.4621 36.6961C37.4621 36.2022 37.2925 35.7474 37.0094 35.3857C37.2925 35.0241 37.4621 34.5692 37.4621 34.0753Z" fill="#FCD025"/>
<path d="M41.7063 19.0756C41.5757 18.6424 41.1186 18.3973 40.6857 18.5278C40.2526 18.6583 40.0074 19.1153 40.1379 19.5483C40.6619 21.2871 40.1909 23.1638 38.9086 24.4462C37.9804 25.3744 36.7463 25.8857 35.4335 25.8857C34.1208 25.8857 32.8866 25.3745 31.9584 24.4462C31.0302 23.518 30.5189 22.2839 30.5189 20.9711C30.5189 19.6585 31.0301 18.4242 31.9584 17.4961C33.2814 16.1731 35.2078 15.7178 36.9857 16.3079C37.415 16.4504 37.8785 16.2179 38.0211 15.7887C38.1635 15.3593 37.931 14.8958 37.5018 14.7533C35.1882 13.9855 32.6865 14.5465 30.9276 16.2147H13.9714V15.6276C13.9714 15.2964 13.7718 14.9977 13.4658 14.8709C13.1597 14.7441 12.8074 14.8143 12.5732 15.0484L7.23579 20.3858C6.91595 20.7057 6.91595 21.2243 7.23579 21.5442L12.5732 26.8816C12.7299 27.0383 12.9394 27.1214 13.1525 27.1214C13.258 27.1214 13.3645 27.1009 13.4658 27.059C13.7718 26.9322 13.9714 26.6336 13.9714 26.3023V25.7152H30.9167C32.1403 26.8816 33.7372 27.5236 35.4337 27.5236C37.184 27.5236 38.8294 26.842 40.0671 25.6044C41.7767 23.8947 42.4049 21.3931 41.7063 19.0756ZM29.6611 24.0773H13.1524C12.8627 24.0773 12.6083 24.2275 12.4627 24.4544L8.97321 20.9649L12.4627 17.4755C12.6083 17.7024 12.8627 17.8526 13.1524 17.8526H29.6682C29.1546 18.7991 28.8811 19.864 28.8811 20.9711C28.881 22.0733 29.1519 23.1338 29.6611 24.0773Z" fill="#FCD025"/>
<path d="M41.7062 4.66064C41.5756 4.22743 41.1186 3.98232 40.6857 4.11275C40.2526 4.24326 40.0074 4.70026 40.1379 5.1333C40.6619 6.87211 40.1909 8.74882 38.9086 10.0312C37.9804 10.9594 36.7462 11.4707 35.4335 11.4707C34.1207 11.4707 32.8866 10.9595 31.9584 10.0312C31.0301 9.10303 30.5189 7.86888 30.5189 6.55613C30.5189 5.24347 31.03 4.00923 31.9584 3.08104C33.2814 1.75796 35.2077 1.30269 36.9857 1.8929C37.4149 2.03547 37.8785 1.803 38.0211 1.37365C38.1635 0.944294 37.931 0.480818 37.5017 0.33833C35.1853 -0.430548 32.68 0.132924 30.9208 1.8062H22.9495V1.2191C22.9495 0.887857 22.7499 0.589181 22.4439 0.462361C22.1379 0.335459 21.7855 0.40576 21.5513 0.639877L16.2137 5.97732C16.0602 6.13088 15.9739 6.33924 15.9739 6.55646C15.9739 6.77368 16.0602 6.98204 16.2137 7.1356L21.5513 12.4731C21.7079 12.6298 21.9174 12.713 22.1306 12.713C22.2361 12.713 22.3425 12.6925 22.4438 12.6506C22.7498 12.5237 22.9494 12.2251 22.9494 11.8938V11.3067H30.9232C32.1459 12.4689 33.7399 13.1086 35.4333 13.1086C37.1836 13.1086 38.8291 12.427 40.0667 11.1894C41.7766 9.4798 42.4048 6.9781 41.7062 4.66064ZM22.1306 9.6688C21.841 9.6688 21.5865 9.81909 21.4409 10.046L17.9514 6.55646L21.4408 3.06693C21.5865 3.29383 21.841 3.44411 22.1306 3.44411H29.6645C29.1532 4.38903 28.8811 5.45158 28.8811 6.55613C28.8811 7.66101 29.1533 8.72372 29.6649 9.6688H22.1306Z" fill="#FCD025"/>
</svg>
