<svg width="47" height="47" viewBox="0 0 47 47" fill="none" xmlns="http://www.w3.org/2000/svg">
<path d="M46.2442 41.4152C45.9158 41.0375 45.3436 40.9977 44.966 41.326C43.9999 42.166 43.1059 43.0368 41.8383 43.3872C40.4292 43.7766 39.09 43.4692 37.8147 42.8316L42.5331 26.9563C42.6505 26.5614 42.4865 26.1369 42.1342 25.9234L37.7688 23.2783V15.5544C37.7688 15.0541 37.3632 14.6484 36.8628 14.6484H35.0508V11.9304C35.0508 11.4301 34.6452 11.0244 34.1448 11.0244H31.2909V8.30635C31.2909 7.80606 30.8853 7.40035 30.3849 7.40035H25.9908V1.05834C25.9908 0.558051 25.5852 0.152344 25.0848 0.152344H21.4608C20.9604 0.152344 20.5548 0.558051 20.5548 1.05834V7.40035H16.1607C15.6603 7.40035 15.2547 7.80606 15.2547 8.30635V11.0244H12.4008C11.9004 11.0244 11.4948 11.4301 11.4948 11.9304V14.6484H9.68276C9.18237 14.6484 8.77676 15.0541 8.77676 15.5544V23.2783L4.41146 25.9233C4.05903 26.1368 3.89513 26.5613 4.01255 26.9562C4.01255 26.9562 8.71932 42.7922 8.72131 42.7991C8.64095 42.5287 7.19117 42.3507 6.93486 42.3175C4.29686 41.9762 2.29088 43.2976 0.390633 44.9499C0.0130113 45.2783 -0.0268527 45.8504 0.301391 46.228C0.614777 46.5884 1.19797 46.6489 1.57949 46.3173C3.53717 44.6154 5.74428 43.3181 8.33454 44.6134C10.6778 45.785 13.1034 46.2874 15.544 45.003C17.5121 43.9671 19.4112 43.0726 21.6079 44.1185L23.8663 45.1939C25.7984 46.114 28.0044 46.0928 29.9183 45.1357C31.0977 44.546 32.2965 43.7612 33.6437 43.6687C34.9643 43.578 36.2403 44.0696 37.4006 44.6503C38.9335 45.4168 40.728 45.5699 42.374 45.1007C43.8902 44.6684 44.9936 43.7028 46.1548 42.6932C46.5325 42.3649 46.5724 41.7928 46.2442 41.4152ZM35.9568 16.4604V22.1804L26.5164 16.4604H35.9568ZM22.3668 1.96435H24.1788V7.40035H22.3668V1.96435ZM17.0667 9.21235H29.4789V11.0244H17.0667V9.21235ZM10.5888 16.4604H20.0291L10.5888 22.1804V16.4604ZM22.3668 42.473C22.367 42.312 21.0753 42.015 20.9063 41.9784C19.3295 41.6371 17.6367 41.8538 16.2072 42.6063C15.17 43.1521 14.1694 43.789 12.9831 43.9417C12.981 43.942 12.9788 43.9423 12.9766 43.9425C12.2835 44.0268 11.5741 43.9758 10.9033 43.7802L5.94868 27.1106L22.3668 17.1627C22.3668 17.1627 22.3668 42.472 22.3668 42.473ZM13.3068 14.6484V12.8364H33.2388V14.6484H13.3068ZM36.14 42.1055C36.15 41.8252 33.5996 41.8278 33.4288 41.8458C31.8561 42.0121 30.4957 42.8213 29.1079 43.5152C27.4684 44.3349 25.7814 44.0993 24.1788 43.3358V17.1627L40.5969 27.1106L36.14 42.1055Z" fill="#FCD025"/>
</svg>
