<?xml version="1.0" encoding="UTF-8" standalone="no"?>
<svg xmlns:dc="http://purl.org/dc/elements/1.1/" xmlns:cc="http://web.resource.org/cc/" xmlns:rdf="http://www.w3.org/1999/02/22-rdf-syntax-ns#" xmlns:svg="http://www.w3.org/2000/svg" xmlns="http://www.w3.org/2000/svg" xmlns:sodipodi="http://sodipodi.sourceforge.net/DTD/sodipodi-0.dtd" xmlns:inkscape="http://www.inkscape.org/namespaces/inkscape" viewBox="0 0 793 416">

   <path style="fill:#ffffff;fill-opacity:1;fill-rule:evenodd;stroke:#d4ddd4;stroke-width:2;stroke-linecap:round;stroke-linejoin:round;stroke-miterlimit:4;stroke-dasharray:none;stroke-opacity:1" d="M 74.506949,273.83985 L 52.130274,305.56063 L 92.21157,384.24784 C 92.21157,384.24784 113.52751,380.31759 113.68903,379.34736 C 113.86106,378.31402 126.5853,367.29523 128.34103,367.05249 C 129.42872,366.90211 141.37083,363.59943 145.07954,364.08424 C 148.271,364.50143 159.85528,373.89825 159.58749,374.16604 C 158.78592,377.52664 161.69674,380.88724 164.50544,384.24784 C 165.95408,387.8293 166.95215,389.60853 167.94801,391.37887 C 172.07863,392.24564 174.18054,391.69668 177.58434,389.82426 L 177.78391,292.77396 L 223.27495,277.77421 L 268.40588,314.12485 C 268.40588,314.12485 282.53625,332.85526 284.01164,332.85526 C 285.48702,332.85526 303.16181,329.10969 303.16181,329.10969 C 303.20422,329.05314 327.06325,330.35359 326.69595,331.08923 C 325.68321,333.11752 334.808,326.20111 334.808,326.20111 C 338.68667,330.31384 342.19409,334.55033 346.70059,338.45379 L 351.38756,349.57629 L 356.53649,345.43822 L 354.58422,372.19886 L 363.92833,372.19886 C 363.92833,372.19886 364.92535,382.0195 364.91192,384.00194 C 364.89444,386.5828 366.8791,394.82143 366.8791,394.82143 C 366.8791,394.82143 376.42374,396.21043 379.17398,394.82143 C 382.0236,393.38224 389.96016,394.50574 389.25577,394.32964 L 392.94424,398.50989 C 391.95235,400.12105 390.44961,401.44029 390.97706,403.91964 C 391.15201,404.96932 398.99462,412.43087 400.56706,408.83759 C 401.53299,406.63028 399.69469,402.93605 399.58347,402.93605 C 398.89783,400.79089 403.0473,399.24654 402.78014,398.75579 C 402.42052,398.09521 404.1471,393.368 407.69809,393.34605 C 409.61858,393.33418 407.69809,387.44451 409.41937,387.44451 C 411.14065,387.44451 413.84553,384.73963 413.84553,384.73963 L 419.74707,380.55937 C 422.02343,380.21983 424.20746,379.82259 424.66502,378.3463 C 424.66502,378.3463 428.00658,377.24168 428.84527,375.39553 C 432.80407,366.68137 433.69238,370.96424 436.714,371.21527 C 434.62694,369.67744 440.3002,365.08307 442.61554,365.80552 C 443.55448,366.0985 439.91066,363.83834 439.91066,363.83834 C 440.16939,364.22644 443.82637,361.33245 443.10733,359.65809 C 442.1617,357.45609 444.35371,355.46437 445.56631,355.96962 L 447.04169,352.52706 L 450.23836,351.29757 L 453.43503,351.54347 C 453.93054,350.33222 458.84688,352.2317 461.54965,351.78936 C 462.94495,351.56101 472.74485,353.29295 472.12324,354.74014 C 472.61989,353.80201 474.83413,355.13859 475.31991,357.9368 C 475.48815,358.9059 480.02309,357.2708 482.25558,357.8277 C 484.48807,358.38459 484.41811,361.13347 484.41811,361.13347 L 486.87709,361.37937 C 487.63506,361.15126 485.84458,357.58523 485.91704,355.86489 C 485.98951,354.14455 486.88167,352.53114 487.70172,349.94875 C 488.69354,346.82543 487.82035,344.80494 488.17859,344.80494 L 492.73388,342.92214 C 499.34798,339.67997 504.13592,339.97597 507.04069,343.92064 C 511.81248,347.83781 514.42498,347.86826 518.10607,349.82218 L 525.483,350.55988 L 528.11329,346.82667 L 540.97454,348.3468 L 548.84326,346.37962 L 552.28583,348.1009 C 552.28583,347.00542 565.3184,348.40666 566.79378,349.57629 C 568.01248,350.54243 575.89199,348.9528 575.89199,348.9528 L 584.31217,352.23897 L 587.69507,351.54347 C 587.6332,353.40285 587.64179,355.17163 589.17046,354.98603 C 589.17046,354.98603 590.64584,357.44501 591.62943,357.9368 C 592.61302,358.4286 591.73119,360.33966 592.61302,359.90398 C 594.55712,358.94347 602.33018,360.02273 601.95713,360.39578 C 601.40227,360.95064 606.02529,369.36018 606.87508,367.7727 C 607.35356,366.87885 604.662,355.96962 604.662,354.74014 C 604.662,353.51065 606.67137,350.28414 606.67137,350.28414 C 609.82429,350.43576 610.90942,349.03653 612.28482,347.855 C 612.28482,347.855 607.45125,346.39453 608.43484,345.41094 C 609.41843,344.42735 614.00611,341.95346 614.00611,341.95346 L 616.46508,343.42885 C 616.00465,334.16671 611.14926,324.73069 608.39266,315.46855 L 608.59636,307.28191 C 608.59636,307.28191 608.61235,305.30098 608.59636,303.10166 C 608.58256,301.20377 611.67933,301.33036 610.91129,299.80314 C 609.73689,297.46789 605.22326,297.41874 605.22326,297.41874 C 605.22326,297.41874 602.69482,299.41319 601.71123,298.4296 C 600.72764,297.44601 599.28465,295.26277 599.28465,295.26277 C 601.39921,293.57727 602.47934,291.27111 607.85867,291.54447 C 609.83416,289.79175 613.49396,288.59739 619.20767,287.92835 C 623.29575,287.44966 627.08491,285.51443 630.48124,283.92165 C 632.5418,281.03686 636.53285,290.20285 636.87458,289.0855 C 637.44806,287.21042 643.87111,286.11771 646.21868,289.57729 C 646.21868,289.57729 650.64484,284.90524 648.92356,282.20037 C 647.20227,279.49549 643.26791,281.21678 642.77612,278.7578 C 642.28432,276.29883 645.23509,272.61036 645.48099,271.13498 C 645.72689,269.65959 647.93997,258.8401 647.93997,258.8401 C 647.93997,258.8401 651.38253,250.47959 652.12022,248.26651 C 652.85792,246.05343 654.8251,241.13548 654.8251,241.13548 C 655.57085,238.38223 653.77034,232.63338 658.02176,234.00445 L 672.52972,240.88958 C 674.81915,239.52934 679.54915,239.94406 684.3328,240.39779 C 684.3328,240.39779 686.2153,247.25717 687.28357,245.06984 C 689.00485,241.54546 697.85716,237.56584 697.85716,238.18471 C 698.80924,238.59274 706.00897,230.22813 703.02101,230.07009 C 701.27554,229.97777 699.01803,220.5125 699.33255,218.02111 C 699.57894,216.06942 702.83952,205.20144 702.52921,203.75906 C 702.13205,201.91298 707.11562,200.83266 711.56776,201.41429 C 714.15967,201.7529 717.20764,198.18119 719.25025,197.36572 C 722.20387,196.18655 722.13823,189.7732 721.46332,188.51341 C 719.13326,184.16409 727.81819,181.54426 731.79102,184.82495 C 734.44551,187.01698 729.57794,179.6611 729.57794,179.6611 C 729.57794,179.6611 726.61895,177.67386 725.39768,178.18572 C 723.99778,178.77245 721.81933,173.29345 721.95512,173.02187 C 721.32943,171.84431 720.06229,171.3082 718.51255,171.05469 C 718.73736,170.4294 718.46925,169.55765 719.98794,169.5793 C 721.35303,169.08751 721.73495,168.59571 721.95512,168.10392 C 722.17722,166.4884 721.39612,165.87608 720.23384,165.64494 C 719.41418,165.13442 718.59452,165.0863 717.77486,166.87443 C 717.38781,168.92557 716.39002,170.28962 714.15331,170.25989 C 712.84341,168.80444 712.52949,175.26364 711.87332,174.74315 C 710.87529,173.95149 703.24232,171.63992 702.77511,171.54648 C 700.18954,169.64583 697.21236,170.4864 694.1687,171.79238 C 694.62267,167.54987 691.92481,164.20849 689.68288,161.56654 C 690.02537,160.74212 691.88967,159.74941 690.48024,158.26802 C 686.89055,156.98354 684.99709,154.28554 678.92305,155.07135 C 678.83098,155.39361 674.99272,150.83811 675.72639,146.71083 C 676.40892,142.87123 673.46723,142.67789 672.29729,142.1095 C 670.67547,141.32156 672.52972,138.59621 672.52972,138.59621 C 668.84126,136.77289 665.15279,134.454 661.46433,133.92416 C 658.8634,133.23523 658.40729,134.21449 657.83043,135.09983 C 656.9373,135.90812 657.43541,137.32507 653.10381,136.62903 C 647.62987,134.87444 648.97432,139.55944 647.20227,141.30109 C 647.20227,140.21292 636.91458,140.17143 640.07124,142.03878 C 642.06302,143.21703 633.87938,139.46241 630.97304,139.8257 C 630.88878,140.96389 629.1767,140.77023 626.54688,139.8257 C 628.81143,132.84174 624.41177,134.57251 620.89124,135.15365 C 620.6048,132.76322 624.23485,126.99037 619.41585,128.51442 L 615.91874,126.29878 C 614.28577,124.4955 613.23888,126.79473 612.03893,128.02262 C 610.47117,128.2331 607.92903,127.68573 610.31764,130.97339 L 609.57995,135.15365 C 606.47241,136.42591 602.37686,137.45117 603.67841,139.8257 C 603.67841,139.8257 580.31815,99.006714 578.84276,96.055944 C 577.36738,93.105174 568.26917,79.58081 568.26917,79.58081 L 561.38404,69.744909 L 539.74506,54.991058 C 540.87834,54.991058 537.85339,50.622008 538.62978,49.884315 C 539.8256,48.74811 542.90755,51.73365 544.17121,50.564903 C 545.37922,49.447626 546.7402,45.701962 546.13839,45.401055 C 546.37621,43.665337 545.83334,42.515139 545.1548,41.466695 C 543.65782,42.912733 542.56689,44.602398 539.99095,45.401055 L 535.073,45.401055 L 535.073,47.86003 C 530.1761,48.570647 527.94458,50.46588 524.99121,52.040288 L 522.28633,51.056698 C 520.49176,51.20944 519.31537,51.733097 519.82736,53.269775 C 520.45026,53.955559 521.82712,54.578514 519.82736,55.482853 C 518.84879,54.95593 514.17633,60.327629 514.17171,60.154906 C 514.10974,57.835941 508.02428,58.925418 508.02428,58.925418 C 507.61036,60.185131 508.15043,61.564094 506.0571,62.613881 C 504.43166,61.927018 503.40947,62.02437 504.08992,64.335164 C 503.2836,63.857343 504.1917,66.714402 504.08992,68.269524 C 503.93107,70.696565 499.2018,65.144878 499.2018,65.144878 C 497.96236,63.839567 496.72293,64.352328 495.4835,64.335164 C 492.33864,62.937498 491.23153,64.59644 489.33606,65.072856 C 489.33606,64.697267 486.13105,69.908856 485.8935,68.761319 C 485.44402,66.589993 483.1009,66.428713 482.69683,65.810549 C 481.50431,63.986167 482.79679,64.48048 483.37486,62.613881 C 483.66417,61.679678 484.90275,55.91837 488.35247,57.941828 L 490.07376,58.433623 C 490.11822,55.880465 491.09387,54.44472 492.28684,53.269775 C 490.99851,53.6502 488.44203,49.863854 488.59837,54.991058 C 485.58246,55.680445 482.7446,54.900222 479.29901,54.730244 L 478.51657,52.040288 C 476.96342,50.585228 474.29284,50.992547 472.12324,50.564903 L 470.15606,52.286185 C 473.88667,53.238439 473.70829,54.562978 472.61503,55.974648 C 470.39709,55.097104 470.93977,56.059974 470.64785,56.466443 C 469.39939,56.454438 467.08975,57.02126 468.18888,55.728751 C 467.50725,54.287005 467.98851,53.542991 468.43478,52.77798 C 470.06068,52.991835 468.49934,51.156746 466.95939,49.335415 L 467.69708,47.614133 C 465.37127,46.390798 464.51495,44.873566 463.27093,43.433875 L 462.04144,44.171567 C 462.50811,45.810884 461.30099,47.450201 464.25452,49.089518 C 464.20452,50.023103 464.14821,50.95039 462.28734,50.073108 C 455.25118,45.33429 456.61184,48.712406 456.1399,50.319005 C 455.83131,51.95951 453.84571,51.713384 451.71374,51.302595 C 450.36618,47.965214 448.32753,48.601549 446.0581,50.564903 C 444.94305,51.087592 444.29647,48.074604 442.76214,46.081642 C 442.76214,46.081642 447.53464,46.321031 446.5499,44.90926 C 444.34729,41.751492 447.82341,35.397483 448.02528,36.548744 C 448.35031,38.402371 441.92515,32.705625 442.86143,25.975151 C 443.10872,24.197536 438.12533,20.820453 439.91066,20.565405 C 439.19195,19.170255 437.86613,19.141109 436.2222,19.827713 C 434.57169,18.304168 430.92579,22.747832 429.29232,23.471427 C 425.38186,25.203677 421.02539,18.760678 421.39121,19.492318 C 419.39122,18.913354 416.96527,16.73704 415.81271,19.335918 C 413.97341,15.686895 412.79059,17.289718 411.63245,19.09002 C 410.37923,15.982337 408.12318,16.635282 405.97681,16.876942 C 406.76207,18.176931 407.53411,19.472509 406.9604,20.319508 C 405.49343,18.358548 403.96701,16.932615 402.04245,19.09002 L 401.05886,22.532585 C 398.29168,22.82765 393.69702,20.6307 393.19013,24.007971 C 393.19013,24.007971 397.37039,23.762073 395.89501,25.975151 C 394.41962,28.188228 391.96065,29.417716 391.96065,29.417716 C 391.77069,28.990306 385.6897,26.663775 385.56731,30.893101 C 385.54447,31.682558 381.08551,28.843007 378.15301,31.620893 C 376.41534,33.266943 369.71766,33.828704 369.09218,34.335666 C 364.39002,35.491544 360.14998,35.261043 354.83012,38.270027 C 353.6905,33.139181 351.16443,36.604288 348.92858,38.270027 C 345.91462,37.067276 343.38074,37.944827 341.05986,39.745412 C 339.83182,41.712592 340.48175,43.679772 341.30576,45.646952 L 338.35499,46.138747 C 336.7309,43.260563 334.75768,42.477136 332.20755,45.155157 C 328.48524,45.427072 324.50183,45.646767 321.87985,46.138747 C 320.7899,46.585604 317.48042,45.429462 320.15857,48.597723 L 315.97831,49.581313 C 315.75441,46.190868 311.64889,48.068318 308.35549,48.84362 C 306.25911,49.29409 304.43857,49.985913 304.17523,52.040288 L 298.02779,51.548493 C 296.28476,50.253672 290.67441,54.31301 294.33933,57.941828 C 295.99701,59.583176 290.08961,54.238449 290.08961,54.238449 C 287.80472,54.501965 284.92879,51.613232 283.27394,55.236956 L 279.33958,54.991058 C 276.82229,52.848916 275.60441,54.605025 273.92984,54.991058 C 272.735,54.377581 272.2455,53.623035 272.20855,52.77798 L 269.25778,54.991058 C 267.88818,55.602598 263.68828,55.20332 268.27419,57.941828 L 270.48727,58.679521 C 270.0418,58.170418 268.6358,61.340988 267.5365,62.613881 C 266.09,64.288803 263.84804,62.122086 263.84804,62.122086 C 264.87621,63.461995 265.40655,65.797577 267.72785,64.551229 C 267.82709,63.988916 268.37251,67.517894 269.99548,66.302344 C 271.867,64.900639 277.22403,64.968962 276.88061,66.056447 C 276.55127,66.64941 276.26619,68.020026 275.15932,68.761319 C 272.97254,70.162638 271.93264,68.696783 270.61639,67.921772 C 269.65699,68.653468 268.65688,69.359725 269.50368,71.220294 C 269.50368,71.220294 268.31685,74.445666 271.47086,73.925167 C 272.92708,73.68485 275.28162,74.423467 277.29316,75.718221 C 279.08613,76.872282 281.06087,76.63004 281.06087,76.63004 C 282.78215,76.897751 284.50343,77.195269 286.22471,78.59722 C 285.95046,79.771549 286.29746,81.2565 284.74933,81.793888 L 277.8642,81.302093 C 277.46206,80.598353 271.85088,79.692585 271.96266,82.039785 C 272.02114,83.267883 268.67905,79.983108 268.67905,79.983108 C 266.22008,82.442083 262.90874,86.321655 261.30212,87.360034 C 260.59282,87.963332 259.99315,88.621449 260.65137,89.908506 C 261.73648,90.968792 263.75204,90.478328 263.60214,93.596969 C 266.19712,94.922387 266.67216,97.307774 268.0283,99.252612 C 263.32995,99.860223 261.47113,101.72984 258.68419,103.18697 C 255.77283,103.872 252.74461,104.4499 252.53675,107.61313 C 250.52604,107.13563 248.09658,106.11972 247.6188,107.61313 L 249.34009,111.05569 C 256.14367,111.07561 259.09992,112.20697 255.48752,115.23595 L 257.9465,116.95723 L 265.32342,116.95723 C 265.11567,118.56839 264.156,120.2374 266.79881,121.62929 L 273.19214,121.13749 C 274.54583,122.58308 275.1953,123.5005 277.3724,125.56365 L 278.35599,127.28493 L 276.38881,128.76031 L 272.94625,138.59621 C 272.07828,137.80715 259.68921,144.03208 260.65137,144.25186 C 261.991,144.55786 251.65817,140.31794 250.81547,141.30109 C 250.84697,138.30289 250.93655,135.18172 247.12701,140.3175 C 246.87979,141.87485 246.76942,143.4322 245.40572,144.98955 L 241.71726,146.95673 C 241.71726,146.95673 236.89941,147.96922 238.2747,147.20263 C 244.95972,143.47638 234.99813,142.81392 233.60264,143.26827 L 227.7011,141.30109 C 226.11983,141.30109 221.15491,135.21077 224.01264,134.66185 C 227.41155,134.00898 222.59768,130.85346 220.07828,130.72749 C 220.31718,129.47315 216.87702,128.76065 217.08625,130.7042 C 217.16172,131.40527 217.57495,132.54223 216.88161,132.44878 C 215.33636,132.24051 207.42971,129.65799 207.7834,131.95698 C 209.11347,136.49536 208.1915,137.37417 205.81622,135.89134 C 204.10178,139.24745 201.2621,134.35185 198.93109,133.18647 C 192.0311,130.8111 188.17179,130.81898 189.83289,135.15365 C 189.83289,135.15365 187.07645,128.31598 186.14442,131.71108 C 185.05497,135.67961 183.00957,137.24445 182.70186,136.62903 L 180.73468,136.62903 L 179.75109,141.79288 C 177.14989,142.93619 174.34086,143.92363 172.62006,145.72724 C 173.19365,143.91698 163.19557,141.59187 165.24313,143.26827 C 166.2019,144.05324 157.09633,132.54147 155.89903,132.94057 C 154.36434,133.26758 152.25152,133.06448 151.75116,134.52898 L 154.91544,137.12083 C 153.55658,140.01205 154.23602,142.29179 155.16134,144.49776 C 154.98195,144.89242 149.83789,149.12749 150.24338,144.00596 C 150.38333,142.2383 149.01021,141.41387 149.99749,140.3175 C 152.52309,137.51285 150.62551,136.88088 148.2762,136.62903 C 146.95955,136.48788 145.07954,132.94057 145.07954,132.94057 L 142.62056,129.9898 C 142.88391,127.35629 139.94273,128.81607 137.70261,127.28493 C 134.10511,124.82601 135.65109,123.15195 135.6958,123.10723 C 134.66409,120.53373 131.80944,121.03883 130.98451,121.15344 C 128.57498,120.70083 126.00869,120.13065 125.39282,121.02328 C 124.90133,121.30259 121.35793,121.72936 120.48223,120.47983 C 119.6663,119.31558 119.24164,125.68765 116.25242,121.59945 C 115.97737,121.22328 113.97846,114.43596 113.60465,114.49826 C 113.48601,110.14353 109.7103,114.72831 107.70311,114.99005 C 106.27752,114.22974 100.9019,118.42819 104.26055,120.6457 C 105.75447,121.63204 98.359008,120.89159 96.883623,120.89159 C 95.408238,120.89159 91.110552,119.92364 93.19516,119.66211 C 99.160664,118.91369 95.440206,115.33118 92.21157,114.74416 L 88.27721,115.48185 C 83.884553,110.28628 85.318556,113.83071 86.31003,116.71134 C 85.645875,117.39158 86.619526,118.61775 84.096952,118.67852 C 83.113362,113.52253 82.129772,117.49157 81.146182,121.62929 C 78.650049,121.58844 77.623154,123.5678 76.965924,126.05544 C 76.448728,125.45063 70.117717,127.95702 68.851306,130.72749 C 67.977772,132.63848 64.214203,129.04838 64.214203,129.99704 C 59.490759,131.03851 60.020168,134.38639 61.419834,137.65482 C 57.383362,138.81009 53.900251,140.24205 52.622069,142.77647 C 48.147112,144.12403 47.866725,143.02209 47.950016,144.82547 C 46.972803,144.58117 50.776038,157.46794 52.376172,158.84163 C 54.150212,160.36461 43.639525,165.24839 41.991371,164.42781 C 40.098536,163.4854 39.069909,157.74376 37.130526,157.03853 C 37.130526,157.03853 33.68796,150.1534 31.72078,148.92391 C 29.7536,147.69442 29.261805,147.44853 29.261805,147.44853 C 27.720468,149.03169 27.944068,152.55628 24.343854,151.87468 C 22.621432,154.42297 23.602857,157.21706 24.343854,159.9893 L 17.458724,164.90725 L 15.737441,177.44802 C 21.391316,180.72695 21.762047,184.8864 13.524364,190.48059 L 9.0982082,202.28367 L 20.409494,205.48034 C 20.766461,209.98846 19.881319,214.49658 21.884879,219.0047 L 24.589752,221.21778 C 26.317019,220.90504 25.533957,219.15784 25.81924,218.02111 L 29.261805,218.51291 C 30.111274,220.37427 34.939157,219.05291 37.868218,219.2506 L 44.999246,228.8406 C 47.375608,231.71005 48.943159,235.38832 50.900787,238.67651 L 54.094896,246.50048 C 54.11856,247.69862 53.164463,247.77931 51.566884,247.1246 L 48.933606,247.77471 C 47.415572,246.25001 45.693423,243.70474 45.736939,249.98779 C 46.923734,251.86209 47.91906,252.01317 48.876501,251.82328 L 59.5072,257.11882 L 70.572588,267.20062 L 74.506949,273.83985 z " id="path4121" sodipodi:nodetypes="cccssscccccccscsccccccscscccscssscccscscsccccscssccsscccccccccsccccsscssccsccccsscsccscscssscsccccscssssssscscccccccscccccsscccccscccccccccscccsscccccccccscccscccsssccccccccccccccccccccccsssccsccccccccscsscccccccccccccsccccccccsccsccccssccccsccccccccccccccccccsccccsccscssccccsccccsccccsssccscccssccsssccccccsccccsscsccccccccccccccccccccccc" />


   <path style="fill:none;fill-rule:evenodd;stroke:#d9e1d9;stroke-width:1px;stroke-linecap:butt;stroke-linejoin:round;stroke-opacity:1" d="M 355.53079,361.31472 L 357.69977,361.01347 C 366.54384,353.63619 375.47606,346.32062 385.89641,340.04674 C 386.25138,340.04674 387.33796,337.93801 386.01691,337.09452 C 385.262,336.61251 385.17342,335.88954 384.99267,335.28705 C 384.81193,334.68455 385.47467,332.99757 385.47467,332.51558 C 385.47467,332.03359 387.74329,330.85535 387.04115,330.28636 C 385.92592,329.38262 387.12594,325.76766 387.16165,325.76766 L 389.45112,327.39439 C 389.45112,327.39439 389.63186,321.30922 389.75236,320.94772 C 389.87286,320.58623 391.31884,319.01975 391.31884,319.01975 L 389.87286,317.45327 L 387.04115,315.46504 C 385.91848,315.0614 385.99485,313.45872 385.77591,312.15134 C 384.159,311.65373 382.58101,311.25341 380.65473,309.98236 L 380.83548,306.36741 L 380.95597,292.57033 L 381.37772,288.41313 L 378.60625,288.11189 L 375.53354,285.58142 L 375.1118,283.41245 L 375.95529,281.54472 C 377.45081,278.91384 376.83894,276.28295 377.28077,273.65207 L 378.36526,272.20609 L 377.64227,270.33836 C 375.82603,270.1237 375.97243,268.50716 375.17205,267.56689 C 375.17205,267.56689 375.1118,263.4097 374.8708,263.1687 C 374.6298,262.9277 374.26831,262.14446 374.26831,262.14446 C 371.999,261.68938 370.22597,262.06142 368.42413,262.38546 L 347.75864,261.78297 C 344.64739,259.10948 341.19225,256.95182 338.661,253.40832 L 336.43178,253.70957 L 325.16517,247.74489 L 315.58554,244.31069 C 310.84408,242.42195 310.84593,242.90487 308.47613,242.20196 C 308.09782,242.20196 302.87024,237.14103 302.99345,237.38202 C 303.16907,237.72551 296.24554,239.00875 296.24554,239.00875 C 295.21362,237.58935 297.93251,236.92011 298.776,235.87579 C 297.56111,235.51952 296.54236,235.45747 295.04055,234.67081 L 294.07656,230.81485 L 289.85912,225.39242 L 287.87089,225.27192 C 286.28112,222.69062 285.32024,220.05216 282.08696,217.62027 C 278.47176,217.74026 274.93764,218.02244 271.4831,218.46376 L 265.63892,234.06831 C 264.31199,235.03335 261.36055,234.70963 261.18048,234.42981 C 260.91761,234.02133 255.03505,232.98383 255.03505,232.98383 C 254.82695,235.80273 254.61691,238.62357 254.25181,241.59947 L 249.79337,242.14171 C 242.57624,250.01748 236.28482,258.12467 230.9956,266.48241 C 228.00349,267.16523 226.07513,267.84806 225.33217,268.53088 C 224.01367,271.5122 223.27769,274.68769 222.9222,277.99001" id="path14825" sodipodi:nodetypes="cccssssccsccccccccccccccccsccccccccscccccccccscccccc" />

   <path style="fill:none;fill-rule:evenodd;stroke:#d9e1d9;stroke-width:1px;stroke-linecap:butt;stroke-linejoin:round;stroke-opacity:1" d="M 441.10783,364.05305 C 440.76701,363.88264 438.72208,359.9632 438.72208,359.9632 C 438.43433,360.16873 436.18423,359.29588 436.84757,358.59991 C 437.61917,357.79036 435.01485,356.51319 434.97305,356.55499 C 434.35934,356.60157 433.93949,357.15517 431.90566,353.48759 C 431.90566,354.14464 427.86755,351.98538 428.49745,351.69828 C 429.75464,351.12527 429.6501,346.73988 429.09388,346.75638 C 429.09388,346.75638 426.54398,343.21401 426.70814,342.66652 C 426.93354,341.91478 425.82413,340.12634 425.17444,340.45118 C 423.89672,340.01778 422.30028,339.82343 421.42541,339.0879 C 417.95114,339.2668 416.93583,337.19164 416.14268,334.91284 C 415.86487,334.288 415.63217,333.66316 415.80186,333.03832 C 417.21035,330.93419 418.1705,328.89411 418.78404,326.90354 C 419.61787,324.60031 420.62507,322.41266 420.14733,319.23506 L 422.27746,315.31562 L 422.27746,312.24823 C 420.17357,305.3182 419.22928,298.38817 418.1024,291.45814 C 418.16933,291.44597 415.78226,283.50527 414.8646,282.93761 C 414.24186,282.55239 413.1839,275.53352 412.47885,275.26913 L 412.47885,272.45736 C 410.35768,270.41243 409.1198,268.3675 408.4742,266.32257 L 375.07373,266.32257" id="path18705" sodipodi:nodetypes="ccsccscscccccccccscccc" />

   <path style="fill:none;fill-rule:evenodd;stroke:#d9e1d9;stroke-width:1px;stroke-linecap:butt;stroke-linejoin:round;stroke-opacity:1" d="M 527.07998,348.03446 C 524.85115,347.71173 523.1712,344.91908 521.37122,342.66652 C 519.92832,343.46813 518.05854,338.25851 518.72986,336.95777 C 519.20526,336.03664 520.68958,333.71997 520.68958,333.71997 C 520.53151,333.29281 520.50898,332.25122 519.4115,331.16381 L 514.38439,329.63011 C 513.0545,329.00527 513.7139,328.38043 513.87316,327.75559 C 515.60114,326.47525 518.00597,325.53333 518.04822,323.41012 L 519.49671,315.40083 L 510.20933,308.41399 L 508.0792,308.92522 C 507.03565,308.7036 506.00299,308.40577 505.18222,306.62468 C 504.36176,304.92217 504.73632,303.81717 504.75619,302.53483 L 505.43783,300.66031 C 504.14958,298.75317 503.19979,298.87679 502.11483,298.18936 C 501.09128,296.85557 499.46415,296.12534 497.76936,295.46279 L 496.23566,294.44032 C 497.52941,292.55552 497.3377,290.29936 496.8321,287.96472 C 496.8321,287.96472 494.78717,281.2335 494.78717,280.89268 C 494.78717,280.55186 494.02032,274.16146 494.02032,274.16146 C 494.3278,271.34721 494.83653,268.63359 496.49128,266.49298 L 408.30379,266.23737" id="path19676" sodipodi:nodetypes="ccscccccccccccccccsccc" />

   <path style="fill:none;fill-rule:evenodd;stroke:#d9e1d9;stroke-width:1px;stroke-linecap:butt;stroke-linejoin:round;stroke-opacity:1" d="M 642.61272,278.72308 L 640.40898,278.47122 C 639.8044,277.65707 640.00013,275.64244 640.03119,273.87483 C 635.73864,267.91202 632.23011,262.10602 628.7606,256.30782 C 629.92626,255.08018 630.16367,253.66689 630.5236,252.27811 C 628.5768,252.64 627.28009,253.65198 625.80128,254.48186 C 623.74982,252.28072 619.35,250.47096 613.2714,248.94101 L 606.15645,245.98169 C 605.92317,244.9113 605.23402,243.8409 603.82677,242.77051 L 602.1897,242.51866 C 599.40219,243.33036 597.08599,244.33058 595.13771,245.47797 L 591.23393,245.41501 L 586.44865,237.35559 C 584.96444,238.75911 581.44928,238.38557 578.76702,238.7408 C 578.79502,236.39991 577.64087,235.95044 575.99659,236.2852 C 573.97415,234.96117 571.67206,232.7982 569.95203,232.38142 L 566.99271,235.21481 C 565.85367,234.17897 564.88313,233.98563 563.90746,233.76663 C 563.69188,234.48022 563.07361,235.19382 562.01854,235.90741 C 560.42345,235.32413 558.82835,234.55938 557.23326,234.77406 L 557.61104,249.25583 C 555.65763,250.66659 553.99774,251.19678 552.19612,252.15218 L 546.97009,251.96329 C 544.28612,251.5753 541.14526,251.1524 537.96621,249.50768 L 535.95135,249.38176 C 533.85255,247.76541 530.80928,248.23075 528.71047,247.80765 C 526.27004,247.2526 523.46689,247.42298 520.52512,247.87061 C 516.05207,248.52881 511.29584,252.30191 506.673,254.60779 C 502.96698,258.6199 497.79559,262.53431 496.34687,266.69691" id="path20647" sodipodi:nodetypes="ccccccccccccccccccccccccccccc" />

   <g id="g17789" transform="matrix(1.1638378,6.3967721e-2,-6.3967721e-2,1.1638378,-15.602041,-62.670854)"></g>

</svg>
