<?xml version="1.0" encoding="utf-8"?>
<!-- Generator: Adobe Illustrator 21.1.0, SVG Export Plug-In . SVG Version: 6.00 Build 0)  -->
<svg version="1.1" id="Layer_1" xmlns="http://www.w3.org/2000/svg" xmlns:xlink="http://www.w3.org/1999/xlink" x="0px" y="0px"
	 viewBox="0 0 1000 500" style="enable-background:new 0 0 1000 500;" xml:space="preserve">
<style type="text/css">
	.st0{fill:url(#SVGID_1_);}
	.st1{fill:url(#SVGID_2_);}
	.st2{fill:url(#SVGID_3_);}
	.st3{fill:url(#SVGID_4_);}
	.st4{fill:url(#SVGID_5_);}
	.st5{fill:url(#SVGID_6_);}
	.st6{fill:url(#SVGID_7_);}
	.st7{fill:url(#SVGID_8_);}
	.st8{fill:url(#SVGID_9_);}
	.st9{fill:url(#SVGID_10_);}
	.st10{fill:url(#SVGID_11_);}
	.st11{fill:url(#SVGID_12_);}
	.st12{fill:url(#SVGID_13_);}
	.st13{fill:url(#SVGID_14_);}
	.st14{fill:url(#SVGID_15_);}
	.st15{fill:url(#SVGID_16_);}
	.st16{fill:url(#SVGID_17_);}
	.st17{fill:url(#SVGID_18_);}
	.st18{fill:url(#SVGID_19_);}
	.st19{fill:url(#SVGID_20_);}
	.st20{fill:url(#SVGID_21_);}
	.st21{fill:url(#SVGID_22_);}
	.st22{fill:url(#SVGID_23_);}
	.st23{fill:url(#SVGID_24_);}
	.st24{fill:url(#SVGID_25_);}
	.st25{fill:url(#SVGID_26_);}
	.st26{fill:url(#SVGID_27_);}
	.st27{fill:url(#SVGID_28_);}
	.st28{fill:url(#SVGID_29_);}
	.st29{fill:url(#SVGID_30_);}
	.st30{fill:url(#SVGID_31_);}
	.st31{fill:url(#SVGID_32_);}
	.st32{fill:url(#SVGID_33_);}
	.st33{fill:url(#SVGID_34_);}
	.st34{fill:url(#SVGID_35_);}
	.st35{fill:url(#SVGID_36_);}
	.st36{fill:url(#SVGID_37_);}
	.st37{fill:url(#SVGID_38_);}
	.st38{fill:url(#SVGID_39_);}
	.st39{fill:url(#SVGID_40_);}
</style>
<g>
	<g>
		<linearGradient id="SVGID_1_" gradientUnits="userSpaceOnUse" x1="422.2091" y1="244.7018" x2="878.5927" y2="244.7018">
			<stop  offset="0" style="stop-color:#B9655E"/>
			<stop  offset="1" style="stop-color:#CD886C"/>
		</linearGradient>
		<path class="st0" d="M405.4,292.5l61.3-85.8l8.7-7L444,201l-10.2,19.2l-12.4-1.6l4.5-28h73.9l2.1,6.1l-60.4,85.4l-8,7l34.5-1.6
			l14-23.1l12.4,3.5l-7.1,30.9h-79.5L405.4,292.5z"/>
		<linearGradient id="SVGID_2_" gradientUnits="userSpaceOnUse" x1="422.2091" y1="258.4216" x2="878.5927" y2="258.4216">
			<stop  offset="0" style="stop-color:#B9655E"/>
			<stop  offset="1" style="stop-color:#CD886C"/>
		</linearGradient>
		<path class="st1" d="M499.9,267.9c-0.1-4.8,0.2-9.4,1.1-13.8c0.9-4.4,2.2-8.6,4-12.4c1.8-3.8,4-7.3,6.7-10.5
			c2.7-3.1,5.7-5.9,9.1-8.1c3.4-2.3,7.2-4,11.4-5.2c4.1-1.2,8.6-1.8,13.4-1.8c10.4,0,18.4,2.7,23.8,8.2c5.5,5.5,8.4,13.6,8.7,24.3
			c0.1,4.8-0.2,9.4-1.1,13.9c-0.9,4.5-2.2,8.6-4,12.5c-1.8,3.9-4,7.4-6.7,10.6c-2.7,3.2-5.7,5.9-9.2,8.2c-3.4,2.3-7.2,4-11.4,5.3
			c-4.2,1.3-8.6,1.9-13.4,1.9c-10.4,0-18.3-2.8-23.7-8.5C503.2,286.6,500.3,278.5,499.9,267.9z M535.6,291.6c2.2,0,4.1-0.6,5.8-1.9
			c1.7-1.3,3.2-3,4.4-5.1c1.3-2.2,2.3-4.7,3.2-7.5c0.9-2.9,1.5-5.9,2-9.1c0.5-3.2,0.8-6.5,1-9.9c0.2-3.4,0.2-6.6,0.1-9.8
			c-0.1-4.2-0.4-7.7-0.8-10.6c-0.5-2.8-1.1-5.1-1.8-6.8c-0.8-1.7-1.7-2.9-2.8-3.7c-1.1-0.7-2.4-1.1-3.8-1.1c-2.2,0-4.1,0.6-5.9,1.8
			c-1.8,1.2-3.3,2.9-4.6,5c-1.3,2.1-2.5,4.5-3.4,7.3c-0.9,2.8-1.7,5.7-2.2,8.9c-0.6,3.1-1,6.3-1.2,9.6c-0.2,3.3-0.3,6.4-0.2,9.5
			c0.1,4.3,0.4,7.9,0.9,10.8s1,5.4,1.8,7.3c0.8,1.9,1.8,3.2,3.1,4.1C532.5,291.2,533.9,291.6,535.6,291.6z"/>
		<linearGradient id="SVGID_3_" gradientUnits="userSpaceOnUse" x1="422.2091" y1="240.8628" x2="878.5927" y2="240.8628">
			<stop  offset="0" style="stop-color:#B9655E"/>
			<stop  offset="1" style="stop-color:#CD886C"/>
		</linearGradient>
		<path class="st2" d="M610.3,300.2c-4.5,0-8.2-0.8-11.3-2.4c-3.1-1.6-5.6-3.7-7.6-6.5c-1.9-2.7-3.4-5.9-4.2-9.6
			c-0.9-3.6-1.3-7.5-1.3-11.6c0-4.6,0.4-9.1,1.3-13.6c0.9-4.5,2.1-8.7,3.9-12.7c1.7-4,3.9-7.7,6.5-11.1c2.6-3.4,5.7-6.3,9.3-8.8
			c3.6-2.5,7.6-4.4,12.1-5.8c4.5-1.4,9.5-2.1,15-2.1c1.1,0,2.3,0.1,3.6,0.2c1.2,0.1,2.5,0.3,3.7,0.5l3.4-23.3l-11.1-3.1l1.4-5.9
			l30.7-3l4,1.9l-14.4,99.1c-0.2,1.7-0.2,3.1,0.2,4.1c0.4,1,1.1,1.5,2.3,1.5c0.7,0,1.5-0.2,2.5-0.6c1-0.4,2.3-1.3,4.1-2.6l2,5.2
			c-0.4,0.5-1.2,1.3-2.2,2.4c-1,1.1-2.3,2.3-4,3.4c-1.6,1.2-3.6,2.2-5.9,3.1c-2.3,0.9-4.9,1.3-7.8,1.3c-4.2,0-7.3-1-9.2-3
			c-1.9-2-3-5-3.3-8.9c-1,1.4-2.2,2.8-3.7,4.2c-1.5,1.4-3.2,2.7-5.1,3.8c-1.9,1.1-4.1,2.1-6.6,2.8
			C616,299.9,613.3,300.2,610.3,300.2z M620.3,287.9c1.2,0,2.3-0.2,3.4-0.6c1.1-0.4,2.2-0.9,3.1-1.6c1-0.7,1.9-1.4,2.7-2.3
			c0.8-0.9,1.6-1.8,2.2-2.8l7.8-53.3c-2.1-0.8-4.6-1.1-7.4-1.1c-2.9,0-5.4,0.6-7.6,1.9c-2.2,1.3-4.1,3-5.8,5.1
			c-1.7,2.2-3,4.7-4.2,7.5c-1.1,2.9-2,5.9-2.7,9.1c-0.7,3.2-1.2,6.5-1.5,9.9c-0.3,3.4-0.4,6.6-0.4,9.8c0,5.9,0.9,10.4,2.7,13.6
			C614.5,286.3,617,287.9,620.3,287.9z"/>
		<linearGradient id="SVGID_4_" gradientUnits="userSpaceOnUse" x1="422.2091" y1="239.0494" x2="878.5927" y2="239.0494">
			<stop  offset="0" style="stop-color:#B9655E"/>
			<stop  offset="1" style="stop-color:#CD886C"/>
		</linearGradient>
		<path class="st3" d="M678.6,289.6c0.9-5.7,1.9-13.5,3.3-23.4c1.3-9.9,2.9-21.8,4.7-35.5l-8.2-4.6l1.1-6.3l28.4-3.7l3.9,1.7
			l-9.1,64.8c-0.5,3.6,0.3,5.4,2.5,5.4c0.8,0,1.7-0.2,2.6-0.7s2.3-1.3,3.9-2.6l2,5.2c-0.4,0.5-1.2,1.4-2.3,2.5
			c-1.1,1.1-2.5,2.3-4.2,3.4c-1.7,1.1-3.8,2.1-6.2,3c-2.4,0.9-5.2,1.3-8.3,1.3c-5.1,0-8.8-1-11.2-2.9
			C679.1,295.3,678.1,292.8,678.6,289.6z M702.1,203.7c-1.6,0-3.1-0.3-4.5-1c-1.4-0.7-2.7-1.6-3.7-2.7c-1-1.1-1.9-2.4-2.5-3.8
			c-0.6-1.4-0.9-2.9-0.9-4.3c0-1.9,0.4-3.8,1.1-5.4c0.7-1.7,1.6-3.1,2.8-4.4c1.2-1.3,2.6-2.3,4.4-3c1.7-0.7,3.7-1.1,5.9-1.1
			c1.9,0,3.6,0.3,5.1,1c1.5,0.7,2.8,1.5,3.8,2.6c1.1,1.1,1.9,2.3,2.4,3.7c0.5,1.4,0.8,2.8,0.7,4.2c0,2-0.4,3.8-1,5.6
			c-0.6,1.7-1.5,3.2-2.7,4.5c-1.2,1.3-2.7,2.3-4.5,3.1C706.7,203.3,704.6,203.7,702.1,203.7z"/>
		<linearGradient id="SVGID_5_" gradientUnits="userSpaceOnUse" x1="422.2091" y1="258.1719" x2="878.5927" y2="258.1719">
			<stop  offset="0" style="stop-color:#B9655E"/>
			<stop  offset="1" style="stop-color:#CD886C"/>
		</linearGradient>
		<path class="st4" d="M722.7,270.2c0-4.6,0.5-9.1,1.4-13.6c0.9-4.5,2.3-8.7,4.1-12.7c1.8-4,4.1-7.7,6.8-11.1
			c2.7-3.4,5.9-6.3,9.5-8.8c3.6-2.5,7.7-4.4,12.2-5.8c4.5-1.4,9.4-2.1,14.8-2.1c1.4,0,2.9,0.1,4.4,0.3c1.5,0.2,3.1,0.4,4.5,0.7
			c1.5,0.3,2.9,0.6,4.3,1s2.6,0.7,3.7,1.1l10.8-3.1l-9.2,66.5c-0.2,1.9-0.1,3.3,0.4,4.2c0.5,0.8,1.3,1.2,2.4,1.2
			c0.7,0,1.5-0.2,2.5-0.6c1-0.4,2.4-1.3,4.1-2.6l2,5.2c-0.4,0.7-1.2,1.6-2.3,2.7c-1.1,1.1-2.5,2.3-4.2,3.4c-1.7,1.1-3.6,2.1-5.9,2.9
			c-2.3,0.8-4.8,1.2-7.6,1.2c-3.5,0-6.4-0.8-8.6-2.3s-3.4-3.7-3.5-6.7c-1.1,1.1-2.4,2.3-3.9,3.3c-1.5,1.1-3.1,2.1-4.9,2.9
			c-1.8,0.8-3.8,1.5-5.9,2s-4.4,0.7-6.9,0.7c-4.5,0-8.3-0.8-11.4-2.4c-3.2-1.6-5.8-3.7-7.8-6.5c-2-2.7-3.5-5.9-4.4-9.6
			C723.2,278.2,722.7,274.3,722.7,270.2z M757.9,287.9c1.7,0,3.2-0.4,4.8-1.1c1.5-0.7,2.9-1.7,4.2-2.8l7.8-57.4
			c-1.6-0.3-3.2-0.4-4.8-0.4c-2.9,0-5.5,0.6-7.7,1.9c-2.2,1.3-4.2,3-5.8,5.1c-1.7,2.2-3.1,4.7-4.2,7.5c-1.1,2.9-2.1,5.9-2.8,9.1
			c-0.7,3.2-1.2,6.5-1.5,9.9c-0.3,3.4-0.5,6.6-0.5,9.8c0,5.9,0.9,10.4,2.8,13.6C752,286.3,754.6,287.9,757.9,287.9z"/>
		<linearGradient id="SVGID_6_" gradientUnits="userSpaceOnUse" x1="422.2091" y1="240.8274" x2="878.5927" y2="240.8274">
			<stop  offset="0" style="stop-color:#B9655E"/>
			<stop  offset="1" style="stop-color:#CD886C"/>
		</linearGradient>
		<path class="st5" d="M823.2,193.4l-9.1-3.1l1.2-5.9l29.1-3l3.9,1.9L833,298.8h-23.7L823.2,193.4z M838.8,255.4
			c1.8-0.9,3.5-1.8,5.1-2.8c1.7-0.9,3.3-2.1,5-3.4c1.7-1.3,3.5-2.9,5.3-4.8c1.8-1.8,3.8-4.2,5.9-7c1.3-1.8,2.3-3.6,2.9-5.5
			c0.6-1.9,0.9-4,0.9-6.3c0-1.9,0.4-3.5,1.1-4.8c0.8-1.2,1.7-2.2,2.9-2.9c1.2-0.7,2.4-1.2,3.8-1.5c1.4-0.3,2.7-0.4,3.9-0.4
			c1.5,0,2.8,0.2,4,0.7c1.1,0.5,2.1,1.2,2.9,2c0.8,0.8,1.4,1.8,1.8,2.9c0.4,1.1,0.6,2.3,0.6,3.5c0,2.7-0.4,4.9-1.3,6.7
			c-0.9,1.8-1.8,3.4-2.8,4.8c-1.3,1.7-2.8,3.2-4.5,4.7c-1.7,1.5-3.5,2.9-5.3,4.2c-1.9,1.3-3.8,2.5-5.8,3.6c-2,1.1-4,2.1-6,3l13.1,27
			c1.1,2.2,2.4,3.8,3.8,4.9c1.4,1.1,2.7,1.6,3.8,1.6c0.4,0,1-0.1,1.6-0.2c0.7-0.1,1.4-0.4,2.1-0.6c0.7-0.3,1.5-0.6,2.3-1
			c0.8-0.4,1.5-0.9,2.2-1.4l2.4,5c-0.7,0.9-1.8,2-3.3,3.4c-1.5,1.4-3.3,2.8-5.4,4.2s-4.5,2.5-7.2,3.5c-2.7,1-5.5,1.5-8.5,1.5
			c-2.1,0-3.9-0.2-5.4-0.6c-1.5-0.4-2.9-1-4-1.7c-1.1-0.7-2-1.6-2.8-2.7c-0.7-1-1.3-2.2-1.8-3.5L838.8,255.4h0.4H838.8z"/>
	</g>
</g>
<g>
	<g>
		<linearGradient id="SVGID_7_" gradientUnits="userSpaceOnUse" x1="145.3434" y1="241.3525" x2="321.2216" y2="241.3525">
			<stop  offset="0" style="stop-color:#B9655E"/>
			<stop  offset="1" style="stop-color:#CD886C"/>
		</linearGradient>
		<path class="st6" d="M321.2,233.2l0-0.2c0-0.1-0.1-0.2-0.2-0.3l-27.9-23.1l-3.4-36.2l-0.1-0.1c-0.1-0.1-0.2-0.1-0.3-0.1l-36.1,3.4
			l-0.2-0.2l-27.9-23l-0.2,0c-0.1,0-0.2,0.1-0.3,0.2l-23.1,27.9l-36.2,3.4l-0.1,0.1c-0.1,0.1-0.1,0.2-0.1,0.3l3.4,36.1l-23.2,28.1
			l0,0.2c0,0.1,0.1,0.2,0.2,0.3l27.9,23.1l3.4,36.2l0.1,0.1c0.1,0.1,0.2,0.1,0.3,0.1l36.1-3.4l0.2,0.2l27.9,23l0.2,0
			c0.1,0,0.2,0,0.3-0.1l23.1-27.9l36.2-3.4l0.1-0.1c0.1-0.1,0.1-0.2,0.1-0.3l-3.4-36.1L321.2,233.2z M300.6,296.9l-35.8,3.4
			c-0.1,0-0.2,0.1-0.3,0.2l-22.9,27.7l-27.7-22.9c-0.1-0.1-0.2-0.1-0.3-0.1l-35.8,3.4l-3.4-35.8c0-0.1-0.1-0.2-0.2-0.3l-27.7-22.9
			l22.9-27.7c0.1-0.1,0.1-0.2,0.1-0.3l-3.4-35.8l35.8-3.4c0.1,0,0.2-0.1,0.3-0.2l22.9-27.7l27.7,22.9c0.1,0.1,0.2,0.1,0.3,0.1
			l35.8-3.4l3.4,35.8c0,0.1,0.1,0.2,0.2,0.3l27.7,22.9l-22.9,27.7c-0.1,0.1-0.1,0.2-0.1,0.3L300.6,296.9z"/>
		<linearGradient id="SVGID_8_" gradientUnits="userSpaceOnUse" x1="116.4852" y1="241.4412" x2="351.5406" y2="241.4412">
			<stop  offset="0" style="stop-color:#B9655E"/>
			<stop  offset="1" style="stop-color:#CD886C"/>
		</linearGradient>
		<path class="st7" d="M351.5,227l-13.8-38.2l-29.8-37l0-0.2c0-0.2-0.1-0.3-0.2-0.4c0,0-0.1-0.1-0.2-0.1l-0.2,0l-0.2-0.2l-37-20.4
			c-0.1-0.1-0.1-0.1-0.2-0.1l0,0l-47.8-5.4l-39.3,8.3l-39.2,33.5l-0.2,0c-0.1,0-0.3,0.1-0.3,0.2c-0.1,0.1-0.1,0.2-0.1,0.3l0.1,0.7
			L143,168l-17.5,34.8l-3.1,1.5c-0.1,0.1-0.2,0.1-0.2,0.3c0,0.1,0,0.2,0,0.3l1.5,2.9l0,0.2l-7.2,44.9l12.3,41l29.7,35.9l0.1,1.4
			c0,0.2,0.2,0.4,0.5,0.4l0.8-0.1l0.3,0.3l36.3,20.5l46,5.6l1.3-0.4l0.2,0.1c0.3,0.2,0.4,0.1,0.6-0.1l0.3-0.3l40.9-11.4l35.1-29.6
			l2.2-0.2c0.1,0,0.2-0.1,0.3-0.2c0.1-0.1,0.1-0.2,0.1-0.3l-0.3-3l21.1-34.5L351.5,227z M320.2,289.4l-16.1,8.1l0,0l-3.5,1.8
			c-0.1,0.1-0.2,0.1-0.2,0.2l-6.1,18.4l-19.3,1.8c-0.1,0-0.2,0.1-0.3,0.2l-14,16.9l-20.8-6.9c-0.1,0-0.2,0-0.3,0l-17.3,8.7
			l-14.9-12.3c-0.1-0.1-0.2-0.1-0.3-0.1l-21.9,2.1l-8.1-16.1l0,0l-1.8-3.6c-0.1-0.1-0.1-0.2-0.2-0.2l-18.4-6.1l-1.8-19.3
			c0-0.1-0.1-0.2-0.2-0.3l-16.9-14l6.9-20.8c0-0.1,0-0.2,0-0.3l-8.7-17.3l12.3-14.9c0.1-0.1,0.1-0.2,0.1-0.3l-2.1-21.8l16.1-8.1l0,0
			l3.5-1.8c0.1-0.1,0.2-0.1,0.2-0.2l6.1-18.4l19.3-1.8h0c0.1,0,0.2-0.1,0.3-0.2l14-16.9l20.8,6.9c0.1,0,0.2,0,0.3,0l17.3-8.7
			l14.9,12.3c0.1,0.1,0.2,0.1,0.3,0.1l21.8-2.1l9.8,19.6c0.1,0.1,0.1,0.2,0.3,0.2l18.4,6.1l1.8,19.3c0,0.1,0.1,0.2,0.2,0.3l16.9,14
			L323,231v0l-1.2,3.7c0,0.1,0,0.2,0,0.3l8.7,17.3l-12.3,14.9c-0.1,0.1-0.1,0.2-0.1,0.3L320.2,289.4z M137.1,268.2l-19.2-15.9
			l17.5-21.2l8.4,16.8L137.1,268.2z M172.6,163.9l8.6-26.1l23.7,7.8l-13.6,16.5L172.6,163.9z M322.7,234.8l6.7-20.3l19.2,15.9
			l-17.5,21.2L322.7,234.8z M329,213l-16.5-13.6l-1.8-18.7l26.1,8.6L329,213z M336.1,188.2l-25.5-8.4l-2.5-26.4L336.1,188.2z
			 M309.7,179.4l-17.8-5.9l-9.6-19.1l24.8-2.4L309.7,179.4z M306.1,151.2l-24.2,2.3L271,131.9L306.1,151.2z M280.9,153.6l-21.3,2
			l-14.5-12l24.6-12.4L280.9,153.6z M268.4,131l-24,12.1L223.7,126L268.4,131z M222.3,126l21.2,17.5l-16.8,8.4l-20.3-6.7L222.3,126z
			 M183.2,134l38-8l-15.6,18.9l-24.8-8.2l-9,27.3l-26.5,2.5L183.2,134z M144.2,167.6l0.4-0.1l26.8-2.5l-5.9,17.8l-19.1,9.6L144,168
			L144.2,167.6z M143.3,169.5l2.2,23.3l-18.6,9.4L143.3,169.5z M125,205.9l1.2-2.4l19.4-9.7l2,21.3l-12,14.5l-11-21.8L125,205.9z
			 M124.4,209.2l10.6,21.1l-17.4,21L124.4,209.2z M117.4,253.1l19.4,16l-7.7,23.1L117.4,253.1z M137.6,269.7l16.5,13.6l1.8,18.7
			l-26.1-8.6L137.6,269.7z M130.5,294.6l25.5,8.4l2.4,25.2L130.5,294.6z M159.3,329.4l-2.5-26.1l17.8,5.9l9.6,19.1l-24,2.3
			L159.3,329.4z M161.2,331.4l23.5-2.2l10.9,21.7L161.2,331.4z M185.7,329.1l21.3-2l14.5,12l-24.6,12.4L185.7,329.1z M198.2,351.7
			l24-12.1l21.2,17.5L198.2,351.7z M244.3,356.7L223,339.2l16.8-8.4l20.3,6.7L244.3,356.7z M245.9,356.1l15.1-18.3l23.1,7.6
			L245.9,356.1z M285.3,344.9l-23.7-7.8l13.6-16.5l18.7-1.8L285.3,344.9z M286.5,344.1l8.4-25.4l24.5-2.3L286.5,344.1z M320.5,315.4
			l-25.3,2.4l5.9-17.8l19.1-9.6l2.1,22L320.5,315.4z M323.1,311.1l-2-21.2l21.6-10.9L323.1,311.1z M321,289l-2-21.3l12-14.5
			l12.4,24.6L321,289z M331.6,252.5l18.3-22.2l-20.2-16.7l7.7-23.2l13.2,36.7l-0.5,3.4v0l-6.5,46L331.6,252.5z"/>
	</g>
	<linearGradient id="SVGID_9_" gradientUnits="userSpaceOnUse" x1="109.4934" y1="251.0953" x2="122.1816" y2="251.0953">
		<stop  offset="0" style="stop-color:#B9655E"/>
		<stop  offset="1" style="stop-color:#CD886C"/>
	</linearGradient>
	<circle class="st8" cx="115.8" cy="251.1" r="6.3"/>
	<linearGradient id="SVGID_10_" gradientUnits="userSpaceOnUse" x1="215.7707" y1="125.3721" x2="228.4587" y2="125.3721">
		<stop  offset="0" style="stop-color:#B9655E"/>
		<stop  offset="1" style="stop-color:#CD886C"/>
	</linearGradient>
	<circle class="st9" cx="222.1" cy="125.4" r="6.3"/>
	<linearGradient id="SVGID_11_" gradientUnits="userSpaceOnUse" x1="263.4143" y1="130.75" x2="276.1025" y2="130.75">
		<stop  offset="0" style="stop-color:#B9655E"/>
		<stop  offset="1" style="stop-color:#CD886C"/>
	</linearGradient>
	<circle class="st10" cx="269.8" cy="130.7" r="6.3"/>
	<linearGradient id="SVGID_12_" gradientUnits="userSpaceOnUse" x1="219.164" y1="153.8727" x2="231.8521" y2="153.8727">
		<stop  offset="0" style="stop-color:#B9655E"/>
		<stop  offset="1" style="stop-color:#CD886C"/>
	</linearGradient>
	<circle class="st11" cx="225.5" cy="153.9" r="6.3"/>
	<linearGradient id="SVGID_13_" gradientUnits="userSpaceOnUse" x1="174.8573" y1="137.094" x2="187.5454" y2="137.094">
		<stop  offset="0" style="stop-color:#B9655E"/>
		<stop  offset="1" style="stop-color:#CD886C"/>
	</linearGradient>
	<circle class="st12" cx="181.2" cy="137.1" r="6.3"/>
	<linearGradient id="SVGID_14_" gradientUnits="userSpaceOnUse" x1="137.7355" y1="166.8851" x2="150.4235" y2="166.8851">
		<stop  offset="0" style="stop-color:#B9655E"/>
		<stop  offset="1" style="stop-color:#CD886C"/>
	</linearGradient>
	<circle class="st13" cx="144.1" cy="166.9" r="6.3"/>
	<linearGradient id="SVGID_15_" gradientUnits="userSpaceOnUse" x1="160.4875" y1="184.4481" x2="173.1756" y2="184.4481">
		<stop  offset="0" style="stop-color:#B9655E"/>
		<stop  offset="1" style="stop-color:#CD886C"/>
	</linearGradient>
	<circle class="st14" cx="166.8" cy="184.4" r="6.3"/>
	<linearGradient id="SVGID_16_" gradientUnits="userSpaceOnUse" x1="118.1766" y1="205.8031" x2="130.8648" y2="205.8031">
		<stop  offset="0" style="stop-color:#B9655E"/>
		<stop  offset="1" style="stop-color:#CD886C"/>
	</linearGradient>
	<circle class="st15" cx="124.5" cy="205.8" r="6.3"/>
	<linearGradient id="SVGID_17_" gradientUnits="userSpaceOnUse" x1="137.7355" y1="249.9102" x2="150.4235" y2="249.9102">
		<stop  offset="0" style="stop-color:#B9655E"/>
		<stop  offset="1" style="stop-color:#CD886C"/>
	</linearGradient>
	<circle class="st16" cx="144.1" cy="249.9" r="6.3"/>
	<linearGradient id="SVGID_18_" gradientUnits="userSpaceOnUse" x1="123.2761" y1="292.4207" x2="135.9642" y2="292.4207">
		<stop  offset="0" style="stop-color:#B9655E"/>
		<stop  offset="1" style="stop-color:#CD886C"/>
	</linearGradient>
	<circle class="st17" cx="129.6" cy="292.4" r="6.3"/>
	<linearGradient id="SVGID_19_" gradientUnits="userSpaceOnUse" x1="154.1435" y1="331.5063" x2="166.8316" y2="331.5063">
		<stop  offset="0" style="stop-color:#B9655E"/>
		<stop  offset="1" style="stop-color:#CD886C"/>
	</linearGradient>
	<circle class="st18" cx="160.5" cy="331.5" r="6.3"/>
	<linearGradient id="SVGID_20_" gradientUnits="userSpaceOnUse" x1="191.0658" y1="351.0061" x2="203.7538" y2="351.0061">
		<stop  offset="0" style="stop-color:#B9655E"/>
		<stop  offset="1" style="stop-color:#CD886C"/>
	</linearGradient>
	<circle class="st19" cx="197.4" cy="351" r="6.3"/>
	<linearGradient id="SVGID_21_" gradientUnits="userSpaceOnUse" x1="236.1707" y1="328.8497" x2="248.8589" y2="328.8497">
		<stop  offset="0" style="stop-color:#B9655E"/>
		<stop  offset="1" style="stop-color:#CD886C"/>
	</linearGradient>
	<circle class="st20" cx="242.5" cy="328.8" r="6.3"/>
	<linearGradient id="SVGID_22_" gradientUnits="userSpaceOnUse" x1="237.3682" y1="357.5079" x2="250.0564" y2="357.5079">
		<stop  offset="0" style="stop-color:#B9655E"/>
		<stop  offset="1" style="stop-color:#CD886C"/>
	</linearGradient>
	<circle class="st21" cx="243.7" cy="357.5" r="6.3"/>
	<linearGradient id="SVGID_23_" gradientUnits="userSpaceOnUse" x1="278.4817" y1="344.6621" x2="291.1697" y2="344.6621">
		<stop  offset="0" style="stop-color:#B9655E"/>
		<stop  offset="1" style="stop-color:#CD886C"/>
	</linearGradient>
	<circle class="st22" cx="284.8" cy="344.7" r="6.3"/>
	<linearGradient id="SVGID_24_" gradientUnits="userSpaceOnUse" x1="316.4092" y1="314.1484" x2="329.0973" y2="314.1484">
		<stop  offset="0" style="stop-color:#B9655E"/>
		<stop  offset="1" style="stop-color:#CD886C"/>
	</linearGradient>
	<circle class="st23" cx="322.8" cy="314.1" r="6.3"/>
	<linearGradient id="SVGID_25_" gradientUnits="userSpaceOnUse" x1="294.256" y1="297.1164" x2="306.944" y2="297.1164">
		<stop  offset="0" style="stop-color:#B9655E"/>
		<stop  offset="1" style="stop-color:#CD886C"/>
	</linearGradient>
	<circle class="st24" cx="300.6" cy="297.1" r="6.3"/>
	<linearGradient id="SVGID_26_" gradientUnits="userSpaceOnUse" x1="336.5832" y1="278.0843" x2="349.2714" y2="278.0843">
		<stop  offset="0" style="stop-color:#B9655E"/>
		<stop  offset="1" style="stop-color:#CD886C"/>
	</linearGradient>
	<circle class="st25" cx="342.9" cy="278.1" r="6.3"/>
	<linearGradient id="SVGID_27_" gradientUnits="userSpaceOnUse" x1="314.4267" y1="233.3784" x2="327.1149" y2="233.3784">
		<stop  offset="0" style="stop-color:#B9655E"/>
		<stop  offset="1" style="stop-color:#CD886C"/>
	</linearGradient>
	<circle class="st26" cx="320.8" cy="233.4" r="6.3"/>
	<linearGradient id="SVGID_28_" gradientUnits="userSpaceOnUse" x1="342.9273" y1="230.1851" x2="355.6153" y2="230.1851">
		<stop  offset="0" style="stop-color:#B9655E"/>
		<stop  offset="1" style="stop-color:#CD886C"/>
	</linearGradient>
	<circle class="st27" cx="349.3" cy="230.2" r="6.3"/>
	<linearGradient id="SVGID_29_" gradientUnits="userSpaceOnUse" x1="330.2392" y1="189.1622" x2="342.9273" y2="189.1622">
		<stop  offset="0" style="stop-color:#B9655E"/>
		<stop  offset="1" style="stop-color:#CD886C"/>
	</linearGradient>
	<circle class="st28" cx="336.6" cy="189.2" r="6.3"/>
	<linearGradient id="SVGID_30_" gradientUnits="userSpaceOnUse" x1="283.5375" y1="174.3933" x2="296.2256" y2="174.3933">
		<stop  offset="0" style="stop-color:#B9655E"/>
		<stop  offset="1" style="stop-color:#CD886C"/>
	</linearGradient>
	<circle class="st29" cx="289.9" cy="174.4" r="6.3"/>
	<linearGradient id="SVGID_31_" gradientUnits="userSpaceOnUse" x1="300.5999" y1="151.216" x2="313.2881" y2="151.216">
		<stop  offset="0" style="stop-color:#B9655E"/>
		<stop  offset="1" style="stop-color:#CD886C"/>
	</linearGradient>
	<circle class="st30" cx="306.9" cy="151.2" r="6.3"/>
	<linearGradient id="SVGID_32_" gradientUnits="userSpaceOnUse" x1="170.3095" y1="309.208" x2="182.9976" y2="309.208">
		<stop  offset="0" style="stop-color:#B9655E"/>
		<stop  offset="1" style="stop-color:#CD886C"/>
	</linearGradient>
	<circle class="st31" cx="176.7" cy="309.2" r="6.3"/>
	<g>
		<linearGradient id="SVGID_33_" gradientUnits="userSpaceOnUse" x1="199.7846" y1="253.8829" x2="214.2764" y2="253.8829">
			<stop  offset="0" style="stop-color:#B9655E"/>
			<stop  offset="1" style="stop-color:#CD886C"/>
		</linearGradient>
		<polygon class="st32" points="199.8,260.2 214.3,260.2 207,247.6 		"/>
		<linearGradient id="SVGID_34_" gradientUnits="userSpaceOnUse" x1="210.5745" y1="241.4399" x2="254.5343" y2="241.4399">
			<stop  offset="0" style="stop-color:#B9655E"/>
			<stop  offset="1" style="stop-color:#CD886C"/>
		</linearGradient>
		<polygon class="st33" points="221.4,260.2 243.7,260.2 254.5,241.4 243.7,222.7 221.4,222.7 210.6,241.4 		"/>
		<linearGradient id="SVGID_35_" gradientUnits="userSpaceOnUse" x1="199.7845" y1="228.997" x2="214.2765" y2="228.997">
			<stop  offset="0" style="stop-color:#B9655E"/>
			<stop  offset="1" style="stop-color:#CD886C"/>
		</linearGradient>
		<polygon class="st34" points="199.8,222.7 207,235.3 214.3,222.7 		"/>
		<linearGradient id="SVGID_36_" gradientUnits="userSpaceOnUse" x1="224.9021" y1="209.9221" x2="240.2068" y2="209.9221">
			<stop  offset="0" style="stop-color:#B9655E"/>
			<stop  offset="1" style="stop-color:#CD886C"/>
		</linearGradient>
		<polygon class="st35" points="232.6,203.3 224.9,216.6 240.2,216.6 		"/>
		<linearGradient id="SVGID_37_" gradientUnits="userSpaceOnUse" x1="250.8324" y1="228.9969" x2="265.3242" y2="228.9969">
			<stop  offset="0" style="stop-color:#B9655E"/>
			<stop  offset="1" style="stop-color:#CD886C"/>
		</linearGradient>
		<polygon class="st36" points="250.8,222.7 258.1,235.3 265.3,222.7 		"/>
		<linearGradient id="SVGID_38_" gradientUnits="userSpaceOnUse" x1="149.4811" y1="241.3612" x2="317.0834" y2="241.3612">
			<stop  offset="0" style="stop-color:#B9655E"/>
			<stop  offset="1" style="stop-color:#CD886C"/>
		</linearGradient>
		<path class="st37" d="M300.7,236.4l11.5-34.7l-34.7-11.5L261,157.6L228.4,174l-34.7-11.5l-11.5,34.7l-32.7,16.4l16.4,32.7
			L154.4,281l34.7,11.5l16.4,32.7l32.7-16.4l34.7,11.5l11.5-34.7l32.7-16.4L300.7,236.4z M275.9,266.3h-28.7l-14.7,25.6l-14.7-25.6
			h-28.7l14.3-24.9l-14.3-24.9h28.7l14.7-25.6l14.7,25.6h28.7l-14.3,24.9L275.9,266.3z"/>
		<linearGradient id="SVGID_39_" gradientUnits="userSpaceOnUse" x1="250.8323" y1="253.8828" x2="265.3243" y2="253.8828">
			<stop  offset="0" style="stop-color:#B9655E"/>
			<stop  offset="1" style="stop-color:#CD886C"/>
		</linearGradient>
		<polygon class="st38" points="265.3,260.2 258.1,247.6 250.8,260.2 		"/>
		<linearGradient id="SVGID_40_" gradientUnits="userSpaceOnUse" x1="224.902" y1="272.9577" x2="240.2067" y2="272.9577">
			<stop  offset="0" style="stop-color:#B9655E"/>
			<stop  offset="1" style="stop-color:#CD886C"/>
		</linearGradient>
		<polygon class="st39" points="232.6,279.6 240.2,266.3 224.9,266.3 		"/>
	</g>
</g>
</svg>
