<svg xmlns="http://www.w3.org/2000/svg" display="none">
    <symbol id="basket" viewBox="0 0 25 25">
        <g><path d="M12.06 21.996c0 1.653-1.306 2.999-2.912 2.999-1.606 0-2.912-1.346-2.912-3 0-1.65 1.306-2.997 2.912-2.997 1.606 0 2.911 1.347 2.911 2.998zM9.17 20.814c-.633 0-1.148.53-1.148 1.182 0 .654.515 1.182 1.148 1.182.633 0 1.148-.528 1.148-1.182 0-.652-.515-1.182-1.148-1.182zm12.451 1.182c0 1.653-1.308 2.999-2.913 2.999-1.604 0-2.912-1.346-2.912-3 0-1.65 1.308-2.997 2.912-2.997 1.605 0 2.913 1.347 2.913 2.998zm-2.891-1.182c-.633 0-1.146.53-1.146 1.182 0 .654.513 1.182 1.146 1.182.633 0 1.149-.528 1.149-1.182 0-.652-.516-1.182-1.149-1.182zm6.248-15.933l-1.81 6.642c-.455 1.673-1.952 2.84-3.64 2.843H8.32l.106.643c.117.714.714 1.233 1.419 1.233h10.895c.486 0 .883.409.883.908a.897.897 0 0 1-.883.908H9.829c-1.564 0-2.89-1.153-3.154-2.742L4.645 3.037c-.117-.714-.713-1.235-1.416-1.235H.886a.896.896 0 0 1-.882-.91c0-.5.395-.906.882-.906h2.343c1.572 0 2.9 1.153 3.163 2.742l1.624 9.819h11.513c.901 0 1.7-.625 1.942-1.518l1.496-5.485H12.44c-.487 0-.882-.409-.882-.91 0-.499.395-.908.882-.908H24.13c.276 0 .54.136.702.362a.93.93 0 0 1 .146.793z"/></g>
    </symbol>

   <symbol id="arrow-btn" viewBox="0 0 16 12">
    <g><path d="M.01 5.434h14.05L9.375.794l.811-.796 5.657 5.604a.555.555 0 0 1 .001.795l-5.652 5.6-.811-.796 4.678-4.64H.01z"/></g>
   </symbol>

   <symbol id="arrow-pencil" viewBox="0 0 16 16">
    <g><path d="M2.74 4.4l4.9-1.405L10.395.216a.722.722 0 0 1 .512-.214c2.806 0 5.081 2.282 5.081 5.097a.728.728 0 0 1-.228.513l-2.77 2.782-1.401 4.916a.726.726 0 0 1-.544.513L.88 16.008a.73.73 0 0 1-.864-.866L2.195 4.945A.727.727 0 0 1 2.74 4.4zm6.29-.758l3.329 3.35 2.177-2.184a3.637 3.637 0 0 0-3.339-3.35zM3.538 5.678l-1.568 7.36 3.855-3.876a1.091 1.091 0 0 1 1.089-1.15c.601 0 1.089.49 1.089 1.092a1.09 1.09 0 0 1-1.09 1.092h-.057l-3.862 3.871 7.336-1.577 1.212-4.267-3.75-3.772z"/></g>
   </symbol>

   <symbol id="icon-work-1" viewBox="0 0 35 36">
    <g><path fill="#e5002b" d="M0 31.774V4.786c0-.014.008-.025.008-.039a.563.563 0 0 1 .033-.153c.007-.02.012-.039.02-.057a.599.599 0 0 1 .123-.175L4.561.163a.636.636 0 0 1 .183-.118l.059-.02a.696.696 0 0 1 .16-.03c.014 0 .026-.008.04-.008h21.883c.346 0 .626.27.626.6v18.326a2.527 2.527 0 0 1 3.126.496 2.527 2.527 0 0 1 1.876-.83c1.379 0 2.5 1.076 2.5 2.4v14.393c0 .331-.28.6-.624.6l-17.507.012a.647.647 0 0 1-.443-.175.593.593 0 0 1-.183-.426v-3.01H.627a.613.613 0 0 1-.626-.6zm27.512-10.795v4.797H26.26V20.98c0-.663-.56-1.2-1.25-1.2s-1.25.537-1.25 1.2v4.797H22.51V13.781c0-.661-.561-1.199-1.25-1.199-.69 0-1.251.538-1.251 1.2v16.192h-1.25v-1.8l-1.251.9v5.71l16.256-.011V20.979c0-.663-.56-1.2-1.25-1.2s-1.251.537-1.251 1.2v4.797h-1.25V20.98c0-.663-.561-1.2-1.251-1.2-.69 0-1.25.537-1.25 1.2zM26.26 1.187H5.628v3.599c0 .33-.28.599-.625.599H1.25v25.79h15.006v-2.4c0-.189.093-.366.25-.48l2.251-1.62V13.78c0-1.322 1.122-2.398 2.501-2.398 1.38 0 2.501 1.076 2.501 2.398v5.132c.37-.206.793-.333 1.25-.333.458 0 .881.127 1.251.333zM2.136 4.185h2.242v-2.15zm5.993 2.999c.346 0 .625.269.625.6v4.798c0 .33-.28.6-.625.6H3.127a.613.613 0 0 1-.625-.6V7.785c0-.332.28-.601.625-.601zm-.625 1.2H3.752v3.598h3.752zm1.25 7.197v4.797c0 .332-.28.6-.625.6H3.127a.613.613 0 0 1-.625-.6v-4.797c0-.33.28-.6.625-.6H8.13c.346 0 .625.27.625.6zm-1.25.6H3.752v3.598h3.752zm1.25 7.196v4.799c0 .33-.28.6-.625.6H3.127a.613.613 0 0 1-.625-.6v-4.799c0-.33.28-.6.625-.6H8.13c.346 0 .625.27.625.6zm-1.25.6H3.752v3.6h3.752zm2.5-14.394h7.504v1.2h-7.503zm0 7.798h7.504v1.199h-7.503zm0 7.796h2.502v1.199h-2.501zm3.752 0h1.25v1.199h-1.25zm2.501 0h1.25v1.199h-1.25z"/></g>
   </symbol>

   <symbol id="icon-work-2" viewBox="0 0 31 35">
    <g><path fill="#e5002b" d="M31.005 7.5v26.804c0 .379-.283.686-.632.686H.627c-.349 0-.632-.307-.632-.686V7.501c0-.038.005-.074.01-.11.001-.007 0-.014.002-.02a.694.694 0 0 1 .071-.204.708.708 0 0 1 .088-.132c.003-.004.004-.008.008-.011L6.266.218A.61.61 0 0 1 6.72.01h17.425a.61.61 0 0 1 .448.203l6.228 6.806a.71.71 0 0 1 .117.183.72.72 0 0 1 .056.17v.005a.63.63 0 0 1 .01.125zm-14.873-.685h12.723l-4.973-5.434h-7.75zm-14.01 0h12.746V1.381H6.987zm27.619 1.372H1.259v25.43h28.482zm-19.614 13.82a.727.727 0 0 1 0-.97.595.595 0 0 1 .893 0l3.848 4.176V14.934c0-.378.283-.685.632-.685.35 0 .632.307.632.685v10.279l3.848-4.176a.596.596 0 0 1 .894 0 .727.727 0 0 1 0 .97l-4.927 5.347a.607.607 0 0 1-.446.2.608.608 0 0 1-.447-.2z"/></g>
   </symbol>

   <symbol id="icon-work-3" viewBox="0 0 47 33">
    <g><path fill="#e5002b" d="M42.952 8.247c0 4.553-3.915 8.257-8.728 8.257-4.812 0-8.728-3.704-8.728-8.257 0-4.552 3.916-8.256 8.728-8.256 4.813 0 8.728 3.704 8.728 8.256zm-16.113 0c0 3.866 3.299 6.987 7.385 6.987 4.087 0 7.386-3.121 7.386-6.987 0-3.865-3.299-6.986-7.386-6.986-4.086 0-7.385 3.121-7.385 6.986zm-10.49 6.39s16.918 6.277 16.995 6.302c.473.152.932.365 1.321.686 0 0 8.734-3.078 8.812-3.096.24-.056.51-.125.818-.12 1.475.025 2.686 1.146 2.686 2.541 0 .903-.502 1.694-1.259 2.143l-.021.02-17.855 9.805a.718.718 0 0 1-.566.06l-14.666-5.042h-1.888v1.906c0 .333-.32.635-.672.635h-9.4c-.35 0-.67-.302-.67-.635V15.869c-.006-.296.237-.58.545-.635a.77.77 0 0 1 .126 0h9.4c.35 0 .67.302.67.635v.913l5.099-2.144a.783.783 0 0 1 .126-.04.721.721 0 0 1 .399.04zm-5.623 3.554v8.475h2.014a.7.7 0 0 1 .23.04l14.477 4.981s17.622-9.71 17.641-9.724c.332-.23.55-.588.55-1.013 0-.71-.594-1.3-1.343-1.27a1.53 1.53 0 0 0-.671.159c-.238.12-7.94 2.785-8.204 2.878.087.245.147.493.147.773 0 1.397-1.21 2.541-2.685 2.541h-6.714a.703.703 0 0 1-.252-.06l-6.714-2.54c-.358-.1-.572-.52-.432-.849.141-.327.605-.487.936-.322l6.608 2.501h6.568c.755 0 1.342-.556 1.342-1.27 0-.415-.144-.649-.398-.874-.21-.184-.516-.354-.884-.48-.08-.027-16.824-6.228-16.824-6.228zm-9.4 11.016h8.057V16.504H1.326z"/></g>
   </symbol>

   <symbol id="icon-work-4" viewBox="0 0 35 35">
    <g><path fill="#e5002b" d="M30.717-.012c.429.003.774.355.771.784v2.723h2.721a.778.778 0 0 1 .583 1.289l-3.11 3.502a.777.777 0 0 1-.583.268h-3.571l-2.442 2.444a14.36 14.36 0 0 1 3.681 9.618c0 7.94-6.449 14.396-14.383 14.396C6.45 35.012.001 28.557.001 20.616.001 12.675 6.45 6.22 14.384 6.22c3.685 0 7.05 1.398 9.597 3.685l2.454-2.456V3.885a.778.778 0 0 1 .255-.583L30.188.188a.763.763 0 0 1 .529-.2zM27.99 4.226v2.771h2.757l1.725-1.945h-1.761a.777.777 0 0 1-.778-.778V2.499zM1.556 20.616c0 7.1 5.734 12.84 12.828 12.84 7.094 0 12.828-5.74 12.828-12.84 0-3.272-1.224-6.246-3.231-8.511l-2.758 2.76a8.91 8.91 0 0 1 2.102 5.751c0 4.933-4.012 8.948-8.941 8.948-4.929 0-8.94-4.015-8.94-8.948 0-4.934 4.011-8.95 8.94-8.95 2.184 0 4.191.784 5.746 2.092l2.757-2.76a12.768 12.768 0 0 0-8.503-3.222c-7.094 0-12.828 5.74-12.828 12.84zm5.442 0a7.377 7.377 0 0 0 7.386 7.392c4.088 0 7.386-3.3 7.386-7.392a7.364 7.364 0 0 0-1.652-4.645l-2.503 2.505c.408.614.656 1.351.656 2.14 0 2.14-1.75 3.89-3.887 3.89a3.901 3.901 0 0 1-3.887-3.89c0-2.14 1.75-3.892 3.887-3.892.786 0 1.524.24 2.138.645l2.502-2.505a7.356 7.356 0 0 0-4.64-1.64 7.377 7.377 0 0 0-7.386 7.392zm5.054 0a2.322 2.322 0 0 0 2.332 2.334 2.322 2.322 0 0 0 2.332-2.334c0-.364-.085-.704-.23-1.01l-1.555 1.557a.777.777 0 1 1-1.093-1.107l1.542-1.544a2.322 2.322 0 0 0-3.329 2.105z"/></g>
   </symbol>

   <symbol id="icon-warranty-1" viewBox="0 0 44 44">
        <g><path fill="#e41d3a" d="M22.316 33.645a.73.73 0 0 1-.659 0c-2.615-1.316-7.003-3.772-7.003-5.441v-8.412c0-.29.171-.553.436-.67l6.599-2.933a.736.736 0 0 1 .595 0l6.599 2.933c.265.117.436.38.436.67v8.412c0 1.67-4.388 4.125-7.003 5.44zm-.33-1.478c3.028-1.554 5.665-3.343 5.866-3.988v-7.91l-5.866-2.609-5.865 2.608v7.936c.167.6 2.818 2.399 5.865 3.963zm3.848-10.658l1.104.966-5.133 5.866a.737.737 0 0 1-.943.136l-2.933-1.854.783-1.238 2.403 1.517zM43.984.728v36.661a.734.734 0 0 1-.734.734h-9.398l1.26 2.614a.734.734 0 0 1-.777 1.042l-4.105-.662-1.934 2.578a.732.732 0 0 1-1.265-.162l-2.614-6.386c-.787.157-1.598.242-2.43.242-.833 0-1.645-.085-2.431-.242l-2.614 6.386a.732.732 0 0 1-1.265.162l-1.934-2.578-4.105.662a.735.735 0 0 1-.777-1.042l1.26-2.614H.723a.734.734 0 0 1-.733-.734V.728c0-.405.328-.734.733-.734H43.25c.405 0 .733.33.733.734zM18.125 36.771a12.438 12.438 0 0 1-2.327-1.04c-.05-.03-.1-.063-.151-.092a12.844 12.844 0 0 1-.899-.585c-.074-.054-.145-.109-.219-.164a12.47 12.47 0 0 1-.77-.625l-.11-.088-2.858 5.93 3.155-.509a.727.727 0 0 1 .703.284l1.424 1.9zm3.86-.848c.935 0 1.839-.13 2.706-.35a10.993 10.993 0 0 0 2.086-.765l.151-.073c.192-.097.382-.2.568-.308.072-.042.143-.086.214-.13a10.94 10.94 0 0 0 1.58-1.173c.08-.073.162-.144.241-.219.14-.13.276-.267.408-.406.055-.055.106-.116.159-.174.186-.203.366-.412.536-.628.049-.063.095-.128.144-.192.158-.21.31-.425.453-.645.052-.08.1-.165.15-.247.128-.21.252-.422.365-.64.053-.102.1-.206.15-.31.099-.206.196-.412.282-.624.05-.122.092-.25.138-.377.072-.198.145-.397.206-.599.045-.15.08-.304.118-.458.047-.183.097-.369.134-.556.039-.195.063-.395.09-.593.022-.152.05-.301.065-.454.035-.354.055-.714.055-1.077 0-6.066-4.934-10.999-10.999-10.999-6.064 0-10.998 4.933-10.998 10.999 0 .363.02.723.054 1.078.015.153.044.302.065.454.028.198.053.398.09.593.038.188.088.372.135.556.039.154.073.306.118.457.06.203.133.402.206.6.045.127.088.254.138.377.086.212.183.418.282.624.05.104.097.209.15.31.113.217.237.43.365.64.05.081.098.165.15.247.142.22.295.434.453.645.048.064.095.13.144.193.17.214.35.424.536.627.053.058.104.118.158.174.133.14.27.274.409.406.078.074.16.145.24.218.494.44 1.022.832 1.581 1.173.071.044.142.09.213.131.187.109.376.211.569.308l.15.073c.666.322 1.363.58 2.087.763.867.22 1.77.351 2.705.351zm11.195 4.185l-2.859-5.931c-.035.03-.074.057-.11.088-.247.219-.505.426-.77.625-.073.055-.145.11-.219.164-.29.208-.59.402-.898.585-.051.029-.1.062-.152.092a12.43 12.43 0 0 1-2.326 1.04l2.052 5.01 1.423-1.9a.738.738 0 0 1 .704-.283zM42.517 1.46H1.456v35.195h9.371l1.734-3.594-.037-.047c-.176-.205-.34-.42-.503-.636-.072-.094-.145-.187-.213-.284-.141-.199-.272-.404-.401-.612-.078-.125-.156-.248-.228-.376a13.364 13.364 0 0 1-.535-1.043 12.45 12.45 0 0 1-.617-1.658 11.851 11.851 0 0 1-.154-.598c-.042-.176-.086-.35-.12-.527-.047-.238-.079-.48-.111-.72-.02-.148-.046-.293-.06-.441-.038-.396-.06-.794-.06-1.195 0-6.873 5.591-12.465 12.464-12.465 6.874 0 12.465 5.592 12.465 12.465 0 .4-.023.799-.06 1.195-.013.15-.04.294-.058.44-.033.242-.065.483-.111.722-.035.178-.079.352-.12.527-.048.2-.097.4-.155.597-.054.19-.117.375-.18.561-.06.175-.123.348-.191.52a13.135 13.135 0 0 1-.463 1.03c-.102.2-.206.398-.317.592-.073.127-.15.25-.228.375-.13.207-.26.412-.402.612-.068.096-.142.19-.213.283-.163.217-.327.43-.503.637l-.037.046 1.732 3.594h9.372zm-27.13 7.332h13.198v1.467H15.387zM8.055 5.127h27.863v1.467H8.055z"/></g>
   </symbol>

   <symbol id="icon-warranty-2" viewBox="0 0 43 51">
        <g><path fill="#e41d3a" d="M42.994 27.406H31.626l6.114 6.388-16.538 17.203v-6.732H.015V23.66h11.761l-6.005-6.418L22.412-.006v6.807h20.582zm-6.98 6.375L22.412 19.607v5.302h-9.377l-.03.03-.03-.03H1.225v18.108h21.187v4.945zm5.77-25.731H21.201V3.055L7.472 17.241l6.011 6.418h7.719v-7.087l9.225 9.586h11.356z"/></g>
   </symbol>   

    <symbol id="icon-pt" viewBox="0 0 25 20">
        <g><path fill="none" stroke="#deac79" stroke-miterlimit="20" stroke-width="4" d="M1 12.566v0l5.75 5.427v0L24 .993v0" clip-path="url(&quot;#8oida&quot;)"/></g>
    </symbol>

    <symbol id="closes" viewBox="0 0 409.806 409.806">
        <g>
            <path d="M228.929,205.01L404.596,29.343c6.78-6.548,6.968-17.352,0.42-24.132c-6.548-6.78-17.352-6.968-24.132-0.42
                c-0.142,0.137-0.282,0.277-0.42,0.42L204.796,180.878L29.129,5.21c-6.78-6.548-17.584-6.36-24.132,0.42
                c-6.388,6.614-6.388,17.099,0,23.713L180.664,205.01L4.997,380.677c-6.663,6.664-6.663,17.468,0,24.132
                c6.664,6.662,17.468,6.662,24.132,0l175.667-175.667l175.667,175.667c6.78,6.548,17.584,6.36,24.132-0.42
                c6.387-6.614,6.387-17.099,0-23.712L228.929,205.01z"/>
        </g>
    </symbol>

    <symbol id="phone-icon" viewBox="0 0 16 16">
        <g><path fill="#e41d3a" d="M10.824 9.33h.368c1.367.157 2.89 1.94 3.626 2.988.631.892-.367 1.836-1.103 2.203-1.104.576-2.47.576-3.68.262-3.994-.892-7.935-4.825-8.829-8.81-.315-1.205-.315-2.57.263-3.67.368-.736 1.314-1.73 2.207-1.102 1.052.734 2.839 2.255 2.996 3.618v.368L4.99 6.917c.526.84 3.259 3.565 4.1 4.09zm-7.62-7.447c-.369-.21-1.84 1.049-1.21 3.88.894 3.724 4.52 7.342 8.252 8.234 2.838.63 4.1-.84 3.89-1.206-.263-.315-1.84-2.518-2.996-2.623l-1.577 1.574s-.315.315-.736.105c-.946-.473-4.205-3.724-4.678-4.668-.21-.42.105-.734.105-.734l1.577-1.573C5.726 3.717 3.52 2.145 3.203 1.883z"/><path fill="none" stroke="#e41d3a" stroke-miterlimit="20" stroke-width=".4" d="M10.824 9.33h.368c1.367.157 2.89 1.94 3.626 2.988.631.892-.367 1.836-1.103 2.203-1.104.576-2.47.576-3.68.262-3.994-.892-7.935-4.825-8.829-8.81-.315-1.205-.315-2.57.263-3.67.368-.736 1.314-1.73 2.207-1.102 1.052.734 2.839 2.255 2.996 3.618v.368L4.99 6.917c.526.84 3.259 3.565 4.1 4.09zm-7.62-7.447c-.369-.21-1.84 1.049-1.21 3.88.894 3.724 4.52 7.342 8.252 8.234 2.838.63 4.1-.84 3.89-1.206-.263-.315-1.84-2.518-2.996-2.623l-1.577 1.574s-.315.315-.736.105c-.946-.473-4.205-3.724-4.678-4.668-.21-.42.105-.734.105-.734l1.577-1.573C5.726 3.717 3.52 2.145 3.203 1.883z"/></g>
    </symbol>

    <symbol id="icon-timer" viewBox="0 0 14 14">
        <g><path fill="#e41d3a" d="M14.013 6.995c0 3.858-3.149 7.007-7.008 7.007-3.858 0-7.007-3.149-7.007-7.007 0-3.859 3.149-7.008 7.007-7.008 3.859 0 7.008 3.15 7.008 7.008zm-1.384 0A5.635 5.635 0 0 0 7.005 1.37a5.635 5.635 0 0 0-5.623 5.624 5.634 5.634 0 0 0 5.623 5.623 5.634 5.634 0 0 0 5.624-5.623zm-2.578-.277V8.1l-4.118.017V3.24h1.384v3.478z"/></g>
    </symbol>

    <symbol id="icon-adress" viewBox="0 0 14 14">
        <g><path fill="#e41d3a" d="M3.392 5.8c0-1.399 1.16-2.556 2.6-2.556 1.441 0 2.6 1.174 2.6 2.573 0 1.4-1.159 2.557-2.6 2.557-1.44 0-2.6-1.174-2.6-2.574zm1.406 0c0 .64.544 1.176 1.195 1.176.65 0 1.194-.536 1.194-1.176 0-.64-.527-1.175-1.194-1.175-.668 0-1.195.536-1.195 1.175zM1.055 9.083c-1.634-2.315-1.335-5.51.686-7.428.07-.07.158-.138.228-.207 2.302-1.97 5.763-1.97 8.065 0 .087.069.158.138.228.207 2.02 1.917 2.32 5.113.685 7.428l-3.725 5.285a1.54 1.54 0 0 1-1.23.622c-.491 0-.948-.224-1.23-.622zm1.16-.778l3.707 5.286c.018.018.018.035.07.035.053 0 .07-.035.07-.035l3.726-5.286c1.247-1.779 1.019-4.197-.51-5.648-.053-.052-.123-.104-.176-.156a4.799 4.799 0 0 0-3.11-1.14c-1.106 0-2.23.38-3.11 1.14-.052.052-.122.104-.175.156-1.529 1.45-1.74 3.887-.492 5.648z"/></g>
    </symbol>

    <symbol id="pal-top" viewBox="0 0 29 32">
       <g><path fill="#e41d3a" d="M27.908 20.778c.948 1.055 1.497 3.054.71 4.842-.666 1.512-1.334 2.424-2.7 4.148-1.48 1.869-3.774 2.23-5.596 2.23-.711 0-1.35-.054-1.84-.097l-.377-.031c-5.73-.412-7.764-4.017-7.764-6.978v-8.563c0-1.51 1.251-2.742 2.789-2.742.505 0 .973.144 1.383.376.432-1.068 1.411-1.821 2.55-1.821.486 0 .936.15 1.335.39.401-1.132 1.41-1.941 2.598-1.941.409 0 .794.102 1.145.272v-7.7c0-1.657 1.25-3.006 2.788-3.006 1.538 0 2.789 1.35 2.789 3.007v17.403zm-4.124-4.55c.044.044.093.077.136.124l2.153 2.39V3.165c0-.709-.513-1.285-1.144-1.285-.631 0-1.145.576-1.145 1.285zm-3.933-2.63v2.656c.025-.029.043-.06.07-.087a2.652 2.652 0 0 1 2.22-.744v-1.825c0-.708-.515-1.285-1.146-1.285-.63 0-1.144.578-1.144 1.285zm0 6.746zm0 0v.719c0 .708.514 1.284 1.145 1.284.183 0 .36-.056.522-.15l-1.655-1.84c-.004-.002-.007-.007-.012-.013zm-3.933 1.022c0 .728.514 1.32 1.145 1.32.63 0 1.144-.592 1.144-1.32v-6.181c0-.728-.513-1.32-1.144-1.32-.632 0-1.145.59-1.145 1.32zm-3.933.3c0 .56.514 1.02 1.144 1.02.631 0 1.145-.46 1.145-1.02v-5.337c0-.562-.513-1.019-1.145-1.019-.63 0-1.144.457-1.144 1.019zm14.727.295l-3.987-4.429c-.464-.517-1.217-.567-1.675-.114-.46.455-.455 1.245.01 1.76L23.96 22.4a.891.891 0 0 1-.034 1.218.793.793 0 0 1-1.162-.037l-.117-.13a.815.815 0 0 1-.171.16c-.444.3-.956.46-1.482.46-.697 0-1.328-.287-1.817-.746-.512.656-1.265 1.082-2.115 1.082-.747 0-1.423-.326-1.925-.85a2.801 2.801 0 0 1-3.153.603v.732c0 1.128.45 4.843 6.232 5.26l.4.032c1.467.128 4.524.392 6.037-1.515 1.392-1.757 1.915-2.506 2.473-3.771.458-1.043.148-2.311-.415-2.937zM14.806 1.234c-.114-.558.226-1.106.758-1.226.533-.118 1.057.237 1.171.794l1.082 5.296c.114.557-.226 1.106-.759 1.227a1.03 1.03 0 0 1-.207.022c-.455 0-.864-.332-.963-.82zm-4.144 9.665a.958.958 0 0 1-1.395-.038L5.564 6.783a1.07 1.07 0 0 1 .035-1.461.955.955 0 0 1 1.395.037l3.703 4.079a1.07 1.07 0 0 1-.035 1.461zM.055 15.026c.17-.543.728-.838 1.244-.66l5.117 1.756c.517.178.8.76.63 1.304a.992.992 0 0 1-.937.712.924.924 0 0 1-.307-.053L.685 16.33c-.517-.176-.8-.76-.63-1.303zm7.136 9.55c.125.558-.204 1.114-.735 1.244l-5.238 1.286a.983.983 0 0 1-.226.026.997.997 0 0 1-.96-.797c-.124-.555.205-1.112.736-1.241l5.238-1.287c.532-.13 1.061.215 1.185.77z"/></g>
    </symbol>

    <symbol id="arrow-an" viewBox="0 0 18 11">
        <g><path fill="none" stroke="#deac79" stroke-miterlimit="20" stroke-width="4" d="M1 1.998v0l8 7v0l8-8.002v0" clip-path="url(&quot;#inhua&quot;)"/></g>
    </symbol>

    <symbol id="arrow-menu" viewBox="0 0 12 10">
        <g><path d="M6 9.995l6-4.771-1.403-1.525L7.08 6.486V.01H4.92v6.477L1.402 3.7-.002 5.224z"/></g>
    </symbol>

</svg>