<svg width="14" height="16" viewBox="0 0 14 16" fill="none" xmlns="http://www.w3.org/2000/svg">
<path d="M6.13559 0.0444136C2.9568 0.40049 0.409238 2.94158 0.0466871 6.12037C-0.429159 10.2767 2.80142 13.8148 6.85098 13.8602V15.7247C6.85098 15.8283 6.98046 15.8833 7.06786 15.8186L10.907 12.9991C10.9717 12.9505 10.9717 12.8567 10.907 12.8081L7.06786 9.98865C6.98046 9.9239 6.85098 9.98217 6.85098 10.0825V11.9438C4.00561 11.8985 1.72672 9.47719 1.92094 6.58326C2.08603 4.09397 4.11567 2.07405 6.60496 1.91543C9.24316 1.7471 11.4864 3.63107 11.8878 6.1236C11.9623 6.5865 12.3669 6.92315 12.8331 6.92315C13.4125 6.92315 13.8657 6.40846 13.775 5.8355C13.2118 2.28446 9.93265 -0.379641 6.13559 0.0444136Z" fill="#FF7700"/>
</svg>
