<svg width="11" height="9" viewBox="0 0 11 9" fill="none" xmlns="http://www.w3.org/2000/svg">
<path d="M0.118477 4.45371C0.0394924 4.37273 0 4.25127 0 4.17029C0 4.08932 0.0394924 3.96785 0.118477 3.88688L0.671371 3.32004C0.82934 3.15809 1.06629 3.15809 1.22426 3.32004L1.26376 3.36053L3.43584 5.74934C3.51482 5.83031 3.6333 5.83031 3.71229 5.74934L9.00427 0.121465H9.04376C9.20173 -0.0404883 9.43868 -0.0404883 9.59665 0.121465L10.1495 0.688301C10.3075 0.850254 10.3075 1.09318 10.1495 1.25514L3.83076 7.97619C3.75178 8.05717 3.67279 8.09766 3.55432 8.09766C3.43584 8.09766 3.35685 8.05717 3.27787 7.97619L0.197462 4.57518L0.118477 4.45371Z" fill="#999999"/>
</svg>
