<svg width="16" height="16" viewBox="0 0 16 16" fill="none" xmlns="http://www.w3.org/2000/svg">
<path d="M9.3758 8L15.5924 1.7C16 1.3 16 0.7 15.5924 0.3C15.1847 -0.1 14.5732 -0.1 14.1656 0.3L7.94904 6.6L1.73248 0.3C1.32484 -0.1 0.713376 -0.1 0.305732 0.3C-0.101911 0.7 -0.101911 1.3 0.305732 1.7L6.52229 8L0.305732 14.3C-0.101911 14.7 -0.101911 15.3 0.305732 15.7C0.611465 15.9 0.815287 16 1.12102 16C1.32484 16 1.63057 15.9 1.8344 15.7L8.05096 9.4L14.2675 15.7C14.4713 15.9 14.6752 16 14.9809 16C15.1847 16 15.4904 15.9 15.6943 15.7C16.1019 15.3 16.1019 14.7 15.6943 14.3L9.3758 8Z" fill="#FF7700"/>
</svg>
