<svg width="52" height="45" viewBox="0 0 52 45" fill="none" xmlns="http://www.w3.org/2000/svg">
<path d="M49.2598 0H33.2507C31.8099 0 30.6892 1.11477 30.6892 2.54805V18.4734C30.6892 19.9066 31.8099 21.0214 33.2507 21.0214H40.9351C40.775 25.162 39.8144 28.5063 38.0534 31.0543C36.6126 32.9654 34.3713 34.7172 31.4897 35.9912C30.209 36.6282 29.5686 38.2207 30.209 39.4947L32.1301 43.4761C32.7704 44.7501 34.2112 45.3871 35.492 44.7501C39.014 43.3168 41.8956 41.4058 44.297 39.017C47.1786 36.1504 49.0997 32.9654 50.2204 29.4618C51.341 25.9582 51.8213 21.1807 51.8213 14.9698V2.54805C51.8213 1.11477 50.7006 0 49.2598 0Z" fill="#F2F2F2"/>
<path d="M6.19517 44.7501C9.55708 43.3168 12.5988 41.4058 15.0002 39.017C17.8818 36.1504 19.963 33.1246 21.0837 29.6211C22.2043 26.1175 22.6846 21.3399 22.6846 15.129V2.70731C22.6846 1.27403 21.5639 0.159256 20.1231 0.159256H4.11398C2.67316 0.159256 1.55252 1.27403 1.55252 2.70731V18.6326C1.55252 20.0659 2.67316 21.1807 4.11398 21.1807H11.7984C11.6383 25.3212 10.6777 28.6655 8.91672 31.2136C7.4759 33.1246 5.23462 34.8764 2.35298 36.1504C1.07224 36.7874 0.431877 38.38 1.07224 39.654L2.99334 43.6353C3.31352 44.7501 4.91443 45.2279 6.19517 44.7501Z" fill="#F2F2F2"/>
</svg>
