<svg width="33" height="22" viewBox="0 0 33 22" fill="none" xmlns="http://www.w3.org/2000/svg">
<path d="M30.0043 8.62162L26.9346 2.47748C26.7365 2.18018 26.5385 2.08108 26.2414 2.08108H21.6864V0.792793C21.6864 0.396396 21.3893 0 20.8942 0H3.76327C3.26816 0 2.87207 0.297297 2.87207 0.792793C2.87207 1.18919 3.16914 1.48649 3.66425 1.48649H20.003V8.91892C20.003 9.31532 20.3001 9.61261 20.7952 9.61261H28.915L30.4994 11.6937V17.3423H28.0238V17.2432C27.6277 15.5586 26.0434 14.2703 24.261 14.2703C22.4785 14.2703 20.8942 15.4595 20.4981 17.2432V17.3423H14.0616V17.2432C13.6655 15.5586 12.0812 14.2703 10.2988 14.2703C8.51636 14.2703 6.932 15.5586 6.53591 17.2432V17.3423H3.76327C3.36718 17.3423 2.97109 17.6396 2.97109 18.1351C2.97109 18.6306 3.26816 18.9279 3.76327 18.9279H6.63493V19.027C7.13004 20.8108 8.61538 22 10.3978 22C12.1802 22 13.7646 20.7117 14.1606 19.027V18.9279H20.6961V19.027C21.1913 20.8108 22.6766 22 24.459 22C26.2414 22 27.8258 20.7117 28.2219 19.027V18.9279H31.3906C31.7867 18.9279 32.1828 18.6306 32.1828 18.1351V11.6937C32.1828 11.4955 32.0837 11.2973 31.9847 11.1982L30.0043 8.62162ZM21.6864 8.32432V3.66667H25.8453L28.2219 8.32432H21.6864ZM10.3978 20.7117C9.1105 20.7117 8.12027 19.6216 8.12027 18.3333C8.12027 17.045 9.20952 15.955 10.3978 15.955C11.6851 15.955 12.7743 17.045 12.7743 18.3333C12.7743 19.6216 11.5861 20.7117 10.3978 20.7117ZM24.459 20.7117C23.1717 20.7117 22.0825 19.6216 22.0825 18.3333C22.0825 17.045 23.1717 15.955 24.459 15.955C25.7463 15.955 26.7365 17.045 26.7365 18.3333C26.7365 19.6216 25.6473 20.7117 24.459 20.7117Z" fill="#FF7700"/>
<path d="M8.02104 11.1982C8.02104 10.8019 7.72397 10.4055 7.22886 10.4055H2.47577C2.07968 10.4055 1.68359 10.7028 1.68359 11.1982C1.68359 11.6937 1.98066 11.991 2.47577 11.991H7.22886C7.62495 11.991 8.02104 11.6937 8.02104 11.1982Z" fill="#FF7700"/>
<path d="M10.1003 7.72974C10.2984 7.63064 10.3974 7.33334 10.3974 7.13514C10.3974 6.73875 10.1003 6.44145 9.6052 6.44145H0.693158C0.297068 6.34235 0 6.63965 0 7.03604C0 7.43244 0.297068 7.82884 0.792181 7.82884H9.6052C9.80324 7.82884 10.0013 7.82884 10.1003 7.72974Z" fill="#FF7700"/>
</svg>
