<svg width="25" height="29" viewBox="0 0 25 29" fill="none" xmlns="http://www.w3.org/2000/svg">
<path d="M24.6663 7.86844L24.6654 7.84587C24.6528 7.56732 24.6444 7.27261 24.6393 6.94471C24.6156 5.34573 23.3445 4.02308 21.7453 3.9337C18.411 3.74762 15.8317 2.66039 13.6278 0.512254L13.609 0.494332C12.8901 -0.164777 11.8058 -0.164777 11.0867 0.494332L11.0679 0.512254C8.86401 2.66039 6.28465 3.74762 2.95039 3.93392C1.3514 4.02308 0.0800829 5.34573 0.056409 6.94493C0.0515414 7.27062 0.0429126 7.56533 0.0303012 7.84587L0.0289737 7.89831C-0.0358531 11.2983 -0.116389 15.5297 1.29918 19.3704C2.07755 21.4825 3.25638 23.3185 4.80271 24.8276C6.56387 26.5463 8.87065 27.9108 11.6589 28.883C11.7496 28.9146 11.8438 28.9403 11.9399 28.9595C12.0753 28.9865 12.2116 29 12.3478 29C12.4841 29 12.6206 28.9865 12.7558 28.9595C12.8519 28.9403 12.9468 28.9144 13.0379 28.8825C15.8228 27.9086 18.1272 26.5434 19.8868 24.825C21.4325 23.3154 22.6113 21.479 23.3903 19.3665C24.8112 15.5142 24.7309 11.2748 24.6663 7.86844ZM21.7938 18.7777C20.3007 22.8257 17.253 25.6058 12.4764 27.2762C12.4594 27.282 12.4412 27.2871 12.4224 27.2908C12.3731 27.3006 12.3228 27.3006 12.2728 27.2906C12.2543 27.2868 12.2361 27.282 12.2193 27.2762C7.4376 25.6089 4.38786 22.8304 2.89596 18.7821C1.59123 15.2419 1.66513 11.3576 1.7304 7.93083L1.73084 7.91181C1.74412 7.61732 1.75297 7.30889 1.75784 6.96994C1.76846 6.25994 2.33398 5.67251 3.0453 5.63291C4.93214 5.52759 6.58976 5.16297 8.11286 4.51824C9.63397 3.8744 10.9849 2.96682 12.2425 1.74374C12.3065 1.68976 12.3894 1.68954 12.4532 1.74374C13.711 2.96682 15.0619 3.8744 16.5828 4.51824C18.1059 5.16297 19.7635 5.52759 21.6506 5.63291C22.3619 5.67251 22.9275 6.25994 22.9379 6.97016C22.9429 7.31089 22.9518 7.61931 22.9651 7.91181C23.0301 11.3425 23.1022 15.2299 21.7938 18.7777Z" fill="#FF7700"/>
<path d="M12.3473 7.27332C8.36213 7.27332 5.12012 10.5156 5.12012 14.5005C5.12012 18.4857 8.36213 21.728 12.3473 21.728C16.3323 21.728 19.5746 18.4857 19.5746 14.5005C19.5746 10.5156 16.3323 7.27332 12.3473 7.27332ZM12.3473 20.0261C9.30046 20.0261 6.82177 17.5474 6.82177 14.5005C6.82177 11.4537 9.30046 8.97497 12.3473 8.97497C15.394 8.97497 17.8727 11.4537 17.8727 14.5005C17.8727 17.5474 15.394 20.0261 12.3473 20.0261Z" fill="#FF7700"/>
<path d="M14.4245 12.2569L11.0677 15.6137L10.1566 14.7026C9.82425 14.3703 9.2855 14.3703 8.95318 14.7026C8.62108 15.0349 8.62108 15.5737 8.95318 15.9058L10.4661 17.4187C10.6323 17.5848 10.85 17.6678 11.0677 17.6678C11.2854 17.6678 11.5031 17.5848 11.6693 17.4187L15.6279 13.46C15.96 13.1277 15.96 12.589 15.6279 12.2569C15.2956 11.9243 14.7569 11.9243 14.4245 12.2569Z" fill="#FF7700"/>
</svg>
