<svg width="19" height="18" viewBox="0 0 19 18" fill="none" xmlns="http://www.w3.org/2000/svg">
<path d="M9.5 0L0 8.19884L0.972488 9.3117L1.86189 8.5441V15.7891C1.86189 17.0082 2.85987 18 4.0866 18H8.23936V10.7777H10.8348V18H14.9134C16.1401 18 17.1381 17.0082 17.1381 15.7891V8.54414L18.0275 9.31174L19 8.19887L9.5 0ZM15.655 15.7891C15.655 16.1955 15.3223 16.526 14.9134 16.526H12.318V9.30381H6.75621V16.5261H4.08656C3.67765 16.5261 3.345 16.1955 3.345 15.7891V7.26413L9.5 1.95216L15.655 7.26413V15.7891Z" fill="#999999"/>
</svg>
