<svg width="16" height="16" viewBox="0 0 16 16" fill="none" xmlns="http://www.w3.org/2000/svg">
<path d="M15.4264 11.2714C15.2124 11.0409 14.9906 10.822 14.7726 10.611C14.6636 10.5055 14.5547 10.396 14.4457 10.2866L13.4961 9.3331C13.0913 8.92667 12.6165 8.71174 12.13 8.71174C11.6397 8.71174 11.1687 8.92667 10.764 9.3331C10.6667 9.43079 10.5655 9.52849 10.4682 9.62619C10.2425 9.84894 10.009 10.0795 9.78325 10.3218C9.38239 10.1264 8.97374 9.85676 8.49894 9.4816C7.99689 9.07127 6.25723 7.40649 5.3621 6.49986L6.67755 5.23369C7.07841 4.83118 7.28468 4.35832 7.28079 3.8581C7.2769 3.36962 7.06674 2.90848 6.67366 2.52941L4.75887 0.606718C3.95714 -0.198312 2.86743 -0.20222 2.03846 0.594995C1.875 0.747403 1.72711 0.90372 1.57922 1.05613C1.37295 1.27106 1.17836 1.47428 0.968201 1.65013C0.960417 1.65795 0.952634 1.66576 0.940958 1.67358C0.259884 2.29494 -0.0514646 3.10778 0.00691316 4.09258C0.0886421 5.32748 0.543989 6.42951 0.933174 7.25018V7.25408C1.96452 9.38781 3.42007 11.2558 5.2687 12.8111C6.7982 14.0851 8.2304 14.9488 9.77547 15.5232C10.3437 15.7343 11.1726 16 12.0911 16C12.2118 16 12.3363 15.9961 12.4608 15.9844H12.4647C13.1458 15.9257 13.7374 15.6483 14.2239 15.1598L15.4148 13.964C15.4187 13.9601 15.4225 13.9562 15.4264 13.9523C16.1931 13.1511 16.1892 12.0491 15.4264 11.2714ZM3.68861 6.65617C3.6925 6.6679 3.6925 6.67571 3.69639 6.68744C3.69639 6.69525 3.70028 6.69916 3.70417 6.70698C3.7392 6.80467 3.79369 6.89846 3.87152 6.97662C3.87542 6.98053 3.8832 6.98835 3.89098 6.99225C4.5059 7.67614 6.95387 10.0365 7.61938 10.5797C7.62327 10.5797 7.62327 10.5836 7.62716 10.5836C8.31602 11.1307 8.89591 11.4903 9.51471 11.7443C9.53028 11.7521 9.54585 11.756 9.56141 11.7599C9.7093 11.8107 10.153 11.9592 10.5889 11.5254C10.5966 11.5176 10.6083 11.5059 10.6161 11.4981C10.8808 11.1972 11.161 10.9236 11.4567 10.6305C11.5579 10.5328 11.6591 10.4312 11.7603 10.3296C11.8537 10.2358 11.9977 10.1186 12.1378 10.1186C12.2779 10.1186 12.418 10.2319 12.5153 10.3296L13.4649 11.2831C13.5778 11.3965 13.6946 11.5098 13.8035 11.6192C14.0215 11.8303 14.2239 12.0335 14.4184 12.2406C14.4223 12.2484 14.4301 12.2523 14.434 12.2562C14.5819 12.4047 14.7415 12.6392 14.4262 12.9753L13.2392 14.1672C12.9862 14.4212 12.706 14.5541 12.3519 14.5853C11.7486 14.6361 11.1065 14.5189 10.2697 14.2063C8.87645 13.6904 7.57657 12.9049 6.17161 11.7326C4.47476 10.3062 3.13986 8.5945 2.19803 6.64445C1.86333 5.93712 1.47025 4.99922 1.40409 4.0027C1.36906 3.44777 1.51695 3.04917 1.875 2.71309C2.13576 2.49424 2.36538 2.25586 2.58332 2.0292C2.72343 1.8807 2.85575 1.74392 2.99586 1.61496L2.99975 1.61105C3.27607 1.34531 3.50569 1.34141 3.76255 1.59933L5.68124 3.52593C5.68513 3.52984 5.68902 3.53375 5.69291 3.53766C5.77464 3.61581 5.87194 3.73696 5.87583 3.86983C5.87583 4.01051 5.77075 4.14729 5.68513 4.23717L3.91433 5.93712C3.91044 5.94102 3.90655 5.94102 3.90655 5.94493C3.71196 6.11297 3.63412 6.36699 3.68082 6.60537" fill="#FF7700"/>
</svg>
