<svg width="16" height="13" viewBox="0 0 16 13" fill="none" xmlns="http://www.w3.org/2000/svg">
<path d="M13.8801 0H1.89274C0.867505 0 0 0.946369 0 1.9716V10.0157C0 11.1198 0.867505 12.0662 1.89274 12.0662H13.8012C14.8264 12.0662 15.6939 11.1198 15.6939 10.0946V1.9716C15.7728 0.946369 14.9053 0 13.8801 0ZM13.8801 10.6466H1.89274C1.65615 10.6466 1.34069 10.3312 1.34069 10.0946V2.52365L7.8864 7.49209H7.96527L14.4321 2.44479V9.93687C14.3533 10.4101 14.1955 10.6466 13.8801 10.6466ZM7.8864 5.75708L2.28706 1.41955H13.5646L7.8864 5.75708Z" fill="#FF7700"/>
</svg>
