<svg width="22" height="22" viewBox="0 0 22 22" fill="none" xmlns="http://www.w3.org/2000/svg">
<path d="M11 0.95C5.45854 0.95 0.95 5.45823 0.95 11C0.95 16.5418 5.45854 21.05 11 21.05C16.5415 21.05 21.05 16.5418 21.05 11C21.05 5.45823 16.5415 0.95 11 0.95ZM11 19.7192C6.19223 19.7192 2.28077 15.8078 2.28077 11C2.28077 6.19223 6.19223 2.28077 11 2.28077C15.8078 2.28077 19.7192 6.19223 19.7192 11C19.7192 15.8078 15.8078 19.7192 11 19.7192Z" fill="#FF7700" stroke="#FF7700" stroke-width="0.1"/>
<path d="M11.1581 8.09186C11.7542 8.09186 12.2374 7.60867 12.2374 7.01263C12.2374 6.41659 11.7542 5.9334 11.1581 5.9334C10.5621 5.9334 10.0789 6.41659 10.0789 7.01263C10.0789 7.60867 10.5621 8.09186 11.1581 8.09186Z" fill="#FF7700" stroke="#FF7700" stroke-width="0.1"/>
<path d="M10.8888 9.67064C10.5215 9.67064 10.2234 9.96872 10.2234 10.336V15.5668C10.2234 15.9341 10.5215 16.2322 10.8888 16.2322C11.2561 16.2322 11.5542 15.9341 11.5542 15.5668V10.336C11.5542 9.9684 11.2561 9.67064 10.8888 9.67064Z" fill="#FF7700" stroke="#FF7700" stroke-width="0.1"/>
</svg>
