<svg width="19" height="18" viewBox="0 0 19 18" fill="none" xmlns="http://www.w3.org/2000/svg">
<path d="M9.46236 16.3L8.84144 15.6818C6.35777 13.4409 4.33978 11.6636 3.02033 9.96364C1.70087 8.26364 1.00234 6.87273 1.00234 5.32727C0.924725 2.85455 2.78748 1 5.19354 1C6.513 1 7.83245 1.61818 8.68621 2.7L9.46236 3.62727L10.2385 2.7C11.0923 1.61818 12.4117 1 13.7312 1C16.1372 1 18 2.85455 18 5.32727C18 6.79546 17.3015 8.26364 15.982 9.96364C14.5849 11.6636 12.6446 13.4409 10.1609 15.6818L9.46236 16.3Z" stroke="#767676" stroke-width="1.8"/>
</svg>
