<svg width="210" height="58" viewBox="0 0 210 58" fill="none" xmlns="http://www.w3.org/2000/svg">
<path fill-rule="evenodd" clip-rule="evenodd" d="M107.076 0.140296C117.107 -1.08604 124.434 5.8632 123.446 15.6622C122.446 25.4612 113.508 34.3843 103.477 35.6106C93.4458 36.8369 86.1192 29.8877 87.1071 20.0887C88.1067 10.3014 97.0443 1.36663 107.076 0.140296ZM109.569 17.1221C114.814 15.3118 118.53 13.4665 120.129 11.9365C121.693 14.3658 121.247 17.309 119.271 20.0186C118.283 18.5237 114.755 17.6127 109.569 17.1221ZM104.935 21.899C105.653 26.7576 106.735 30.0629 107.981 31.3243C105.076 33.4499 102.101 33.6718 99.7021 32.3053C101.478 30.9739 103.242 27.2248 104.935 21.899ZM101.995 21.1048C98.7848 25.8233 96.9267 29.4672 96.6798 31.4411C93.5163 31.2192 91.7288 29.3037 91.4348 26.4189C93.387 26.524 97.1267 24.5269 101.995 21.1048ZM102.501 15.2067C98.2909 13.0577 94.8922 12.0182 92.8813 12.2168C93.8221 8.99327 96.2447 6.76251 99.3376 5.8048C98.7731 7.7903 100.02 11.0956 102.501 15.2067ZM100.996 18.1616C95.9859 17.5893 92.5637 16.6199 91.2466 15.4403C89.1416 18.3251 88.9887 21.2216 90.4587 23.5108C91.7641 21.7588 95.5743 19.9485 100.996 18.1616ZM105.782 13.5366C107.511 8.38595 109.31 4.71862 110.839 3.13022C108.299 1.6703 105.288 2.18419 102.56 4.16969C104.112 5.08068 105.147 8.49106 105.782 13.5366ZM108.652 14.4475C113.414 11.2007 117.107 9.29694 119.13 9.00495C118.824 5.93327 116.801 4.23976 113.838 4.02953C114.002 5.93327 112.038 9.62396 108.652 14.4475ZM107.958 20.3807C110.274 24.4217 111.427 27.7037 111.274 29.6658C114.555 28.6614 116.79 26.2437 117.683 23.2188C115.661 23.8144 112.238 22.6815 107.958 20.3807ZM105.465 16.0476C106.499 15.9192 107.252 16.6433 107.158 17.6477C107.052 18.6638 106.135 19.5748 105.1 19.7033C104.065 19.8317 103.312 19.1076 103.407 18.1032C103.501 17.0988 104.43 16.1761 105.465 16.0476Z" fill="#B2B3B3"/>
<path fill-rule="evenodd" clip-rule="evenodd" d="M114.955 34.6295C100.537 41.3802 73.3946 40.586 56.3778 41.6138C44.3355 42.3379 32.7988 44.0431 22.8733 53.8304C30.4586 53.9239 38.0438 54.0173 45.6291 54.1108C51.8737 49.4273 64.2571 46.9046 82.4734 45.6782C90.4468 45.141 98.1496 43.2256 106.311 40.224C118.036 35.8909 126.068 24.4101 209.706 35.6924L210 26.1853C156.809 24.8305 130.161 27.5051 114.955 34.6295Z" fill="#FF7700"/>
<path d="M19.9451 24.8422H10.1725L6.62093 31.99H0L15.8291 1.85717H23.5437L26.5778 31.99H20.439L19.9451 24.8422ZM19.6394 19.5047L19.0984 12.3219L18.9926 9.58893L18.9338 6.38877H18.8279C18.087 8.39763 17.3579 10.1379 16.6405 11.5978L12.7597 19.5047H19.6394Z" fill="#FF7700"/>
<path d="M58.7651 1.97477L54.6138 21.3976C53.8259 25.0416 52.3206 27.7862 50.1097 29.6316C47.887 31.4769 45.0058 32.3996 41.4425 32.3996C38.526 32.3996 36.221 31.6171 34.5511 30.0637C32.8811 28.5103 32.0344 26.4081 32.0344 23.7568C32.0344 22.7758 32.1403 21.8297 32.3402 20.9187L36.3974 1.97477H42.7008L38.6906 20.837C38.4554 21.8531 38.3378 22.7057 38.3378 23.4065C38.3378 25.8474 39.6432 27.0621 42.2422 27.0621C43.9356 27.0621 45.2763 26.5365 46.2759 25.4971C47.2755 24.4576 47.9811 22.8809 48.428 20.802L52.4499 1.97477H58.7651Z" fill="#FF7700"/>
<path d="M70.1843 31.9907H63.8809L69.1259 7.26545H61.8464L62.9872 1.96301H83.8613L82.7324 7.26545H75.4293L70.1843 31.9907Z" fill="#FF7700"/>
<path d="M133.794 52.9428H130.643L133.265 40.586H129.631L130.196 37.9348H140.639L140.074 40.586H136.417L133.794 52.9428Z" fill="#333333"/>
<path d="M141.321 41.4737H144.437L143.026 48.1776C142.92 48.6448 142.861 49.0536 142.861 49.404C142.861 50.2449 143.238 50.6653 143.979 50.6653C144.614 50.6653 145.19 50.2799 145.707 49.4974C146.225 48.7149 146.636 47.6287 146.93 46.2389L147.942 41.4853H151.058L148.612 52.9662H146.237L146.448 50.8405H146.331C145.331 52.3939 144.12 53.1764 142.709 53.1764C141.756 53.1764 141.027 52.8961 140.533 52.3355C140.027 51.7749 139.78 50.9573 139.78 49.8828C139.78 49.2521 139.863 48.5163 140.027 47.6988L141.321 41.4737Z" fill="#333333"/>
<path d="M161.49 52.9428H158.373L159.784 46.2389C159.89 45.7717 159.949 45.3629 159.949 45.0125C159.949 44.1716 159.573 43.7511 158.832 43.7511C158.197 43.7511 157.62 44.1366 157.103 44.9191C156.586 45.7016 156.174 46.7878 155.88 48.1776L154.869 52.9311H151.752L154.198 41.4503H156.574L156.362 43.576H156.456C157.468 42.0109 158.679 41.2401 160.09 41.2401C161.043 41.2401 161.772 41.5204 162.301 42.0927C162.818 42.665 163.077 43.4825 163.077 44.5453C163.077 45.0476 162.995 45.6666 162.842 46.3907L161.49 52.9428Z" fill="#333333"/>
<path d="M167.675 52.9428H164.559L167.005 41.462H170.121L167.675 52.9428ZM167.511 38.7757C167.511 38.1801 167.675 37.7246 168.005 37.4209C168.334 37.1172 168.792 36.9654 169.392 36.9654C169.898 36.9654 170.274 37.0705 170.545 37.2808C170.815 37.491 170.933 37.7947 170.933 38.1918C170.933 38.7407 170.78 39.1845 170.474 39.5232C170.168 39.8619 169.698 40.0371 169.063 40.0371C168.028 40.0371 167.511 39.6166 167.511 38.7757Z" fill="#333333"/>
<path d="M180.564 52.9428H177.448L178.859 46.2389C178.965 45.7717 179.024 45.3629 179.024 45.0125C179.024 44.1716 178.647 43.7511 177.906 43.7511C177.271 43.7511 176.695 44.1366 176.178 44.9191C175.66 45.7016 175.249 46.7878 174.955 48.1776L173.943 52.9311H170.827L173.273 41.4503H175.649L175.437 43.576H175.531C176.542 42.0109 177.754 41.2401 179.165 41.2401C180.117 41.2401 180.847 41.5204 181.376 42.0927C181.893 42.665 182.152 43.4825 182.152 44.5453C182.152 45.0476 182.07 45.6666 181.917 46.3907L180.564 52.9428Z" fill="#333333"/>
<path d="M193.077 41.4737H195.476L192.96 53.2231C192.607 54.8466 191.972 56.0495 191.078 56.8321C190.172 57.6146 188.926 58 187.315 58C186.597 58 185.951 57.9416 185.363 57.8365C184.775 57.7314 184.175 57.5328 183.552 57.2525V54.5663C184.657 55.1502 185.856 55.4539 187.15 55.4539C187.867 55.4539 188.455 55.2904 188.902 54.9634C189.349 54.6363 189.679 54.1341 189.867 53.445C190.055 52.7559 190.255 52.0785 190.466 51.4128H190.384C189.89 52.0552 189.396 52.5107 188.902 52.7676C188.408 53.0246 187.879 53.153 187.315 53.153C186.362 53.153 185.598 52.791 185.045 52.0552C184.492 51.3194 184.21 50.3033 184.21 48.9952C184.21 47.6521 184.457 46.379 184.939 45.1643C185.421 43.9497 186.068 43.0037 186.88 42.3029C187.691 41.6021 188.561 41.2517 189.502 41.2517C190.125 41.2517 190.655 41.3685 191.101 41.6021C191.548 41.8357 191.984 42.2795 192.43 42.9336H192.513L193.077 41.4737ZM188.808 50.6537C189.279 50.6537 189.714 50.4318 190.114 49.9996C190.513 49.5675 190.843 48.9251 191.113 48.0959C191.384 47.2666 191.513 46.4257 191.513 45.5614C191.513 45.0125 191.384 44.5804 191.125 44.2417C190.866 43.903 190.525 43.7511 190.09 43.7511C189.596 43.7511 189.138 43.9964 188.714 44.4986C188.291 45.0008 187.95 45.6315 187.703 46.4257C187.456 47.2199 187.338 48.0258 187.338 48.8434C187.338 49.4507 187.468 49.8945 187.726 50.1982C187.985 50.5018 188.35 50.6537 188.808 50.6537Z" fill="#333333"/>
</svg>
