<svg width="120" height="20" viewBox="0 0 120 20" fill="none" xmlns="http://www.w3.org/2000/svg">
<path d="M10 0L12.4687 6.60213L19.5106 6.90983L13.9944 11.2979L15.8779 18.0902L10 14.2L4.12215 18.0902L6.00556 11.2979L0.489435 6.90983L7.5313 6.60213L10 0Z" fill="#14AD48"/>
<path d="M35 0L37.4687 6.60213L44.5106 6.90983L38.9944 11.2979L40.8779 18.0902L35 14.2L29.1221 18.0902L31.0056 11.2979L25.4894 6.90983L32.5313 6.60213L35 0Z" fill="#14AD48"/>
<path d="M60 0L62.4687 6.60213L69.5106 6.90983L63.9944 11.2979L65.8779 18.0902L60 14.2L54.1221 18.0902L56.0056 11.2979L50.4894 6.90983L57.5313 6.60213L60 0Z" fill="#14AD48"/>
<path d="M85 0L87.4687 6.60213L94.5106 6.90983L88.9944 11.2979L90.8779 18.0902L85 14.2L79.1221 18.0902L81.0056 11.2979L75.4894 6.90983L82.5313 6.60213L85 0Z" fill="#14AD48"/>
<path d="M110 0L112.469 6.60213L119.511 6.90983L113.994 11.2979L115.878 18.0902L110 14.2L104.122 18.0902L106.006 11.2979L100.489 6.90983L107.531 6.60213L110 0Z" fill="#14AD48"/>
</svg>
