<svg width="100" height="96" viewBox="0 0 100 96" fill="none" xmlns="http://www.w3.org/2000/svg">
<path d="M48.75 91.1837C36.875 91.1837 25.9375 86.4996 17.5 78.3805C9.0625 70.2614 4.375 59.3319 4.375 47.7778C4.375 36.2237 9.0625 25.2941 17.5 17.175C25.9375 9.05592 36.875 4.37182 48.75 4.37182C54.375 4.37182 59.6875 5.30864 64.6875 7.49455L66.5625 3.435C60.9375 1.24909 55 0 48.75 0C35.625 0 23.4375 4.99637 14.375 14.0523C5 23.1082 0 34.9746 0 47.7778C0 60.581 5 72.4474 14.375 81.5033C23.4375 90.5592 35.9375 95.5556 48.75 95.5556C61.875 95.5556 74.0625 90.5592 83.125 81.5033C92.1875 72.4474 97.5 60.581 97.5 47.7778V45.5919H93.125V47.7778C93.125 59.3319 88.4375 70.2614 80 78.3805C71.5625 86.8119 60.625 91.1837 48.75 91.1837Z" fill="#14AD48"/>
<path d="M49.0625 59.3319L100 9.68047L96.875 6.55774L48.75 54.0232L37.8125 43.406L34.6875 46.5287L49.0625 59.3319Z" fill="#14AD48"/>
</svg>
