<svg width="18" height="18" viewBox="0 0 18 18" fill="none" xmlns="http://www.w3.org/2000/svg">
<path d="M0 9C0 4 4 0 9 0C14 0 18 4 18 9C18 14 14 18 9 18C4 18 0 14 0 9ZM1.72727 9C1.72727 13 5 16.2727 9 16.2727C13 16.2727 16.2727 13 16.2727 9C16.2727 5 13 1.72727 9 1.72727C5 1.72727 1.72727 5 1.72727 9Z" fill="#898989"/>
<path d="M9.54543 8.7271L13.7273 8.818C14.0909 8.818 14.3636 9.09073 14.3636 9.45437C14.3636 9.818 14.0909 10.0907 13.7273 10.0907H8.90907C8.54543 10.0907 8.27271 9.818 8.27271 9.45437V3.818C8.27271 3.45437 8.54543 3.18164 8.90907 3.18164C9.27271 3.18164 9.54543 3.45437 9.54543 3.818V8.7271Z" fill="#898989"/>
</svg>
