<svg width="26" height="26" viewBox="0 0 26 26" fill="none" xmlns="http://www.w3.org/2000/svg">
<path d="M20.698 13.3569C19.1686 13.3569 17.8431 14.6824 17.8431 16.2118C17.8431 17.7412 19.1686 19.0667 20.698 19.0667H25.2863C25.6941 19.0667 26 18.6588 26 18.251V10.0941C26 8.87059 25.3882 7.64706 24.3686 6.93333L24.2667 6.83137L20.698 1.01961C20.5961 0.815686 20.3922 0.713726 20.1882 0.713726C19.9843 0.713726 19.7804 0.713726 19.5765 0.815686L16.7216 2.54902L15.3961 0.305882C15.498 0.203922 15.2941 0.101961 15.0902 0C14.8863 0 14.6824 0 14.4784 0.101961L4.48627 6.21961H2.8549C2.14118 6.21961 1.63137 5.60784 1.52941 4.99608C1.52941 4.28235 2.14118 3.77255 2.8549 3.77255H4.79216C5.2 3.77255 5.60784 3.46667 5.60784 2.95686C5.60784 2.44706 5.2 2.14118 4.79216 2.14118H2.8549C1.52941 2.14118 0.407843 3.05882 0.101961 4.28235C0 4.48627 0 4.58824 0 4.6902V22.1255C0 24.2667 1.73333 26 3.87451 26H22.1255C23.7569 26 25.2863 24.9804 25.7961 23.349C25.898 23.1451 25.898 22.9412 25.7961 22.7373C25.6941 22.5333 25.5922 22.4314 25.3882 22.3294C25.1843 22.2275 24.9804 22.3294 24.7765 22.3294C24.5725 22.4314 24.4706 22.5333 24.3686 22.7373C24.0627 23.6549 23.1451 24.3686 22.1255 24.3686H3.87451C2.54902 24.3686 1.52941 23.349 1.52941 22.0235V7.44314L1.83529 7.5451C2.14118 7.64706 2.44706 7.74902 2.75294 7.74902H22.0235C23.349 7.74902 24.3686 8.76863 24.3686 10.0941V13.2549H20.698V13.3569ZM24.4706 17.4353H20.698C19.9843 17.4353 19.3726 16.8235 19.3726 16.1098C19.3726 15.3961 19.9843 14.7843 20.698 14.7843H24.4706V17.4353ZM7.44314 6.21961L14.5804 1.83529L15.8039 3.87451C15.8039 3.97647 15.8039 3.97647 15.9059 3.97647C15.9059 3.97647 15.9059 3.97647 16.0078 4.07843L17.2314 6.11765H7.44314V6.21961ZM19.0667 6.21961L17.7412 3.97647L19.8824 2.65098L22.1255 6.32157H19.0667V6.21961Z" fill="#FF7700"/>
</svg>
