<svg width="25" height="25" viewBox="0 0 25 25" fill="none" xmlns="http://www.w3.org/2000/svg">
<path d="M10.1563 4.6875H8.59375V8.59375H4.6875V10.1563H8.59375V14.0625H10.1563V10.1563H14.0625V8.59375H10.1563V4.6875Z" fill="#999999"/>
<path d="M16.5272 15.4225C17.911 13.7884 18.75 11.6791 18.75 9.37501C18.75 4.20531 14.5447 0 9.37501 0C4.20536 0 0 4.20531 0 9.37501C0 14.5447 4.20531 18.75 9.37501 18.75C11.6791 18.75 13.7884 17.911 15.4225 16.5272L23.8953 25L25 23.8953L16.5272 15.4225ZM9.37501 17.1875C5.06745 17.1875 1.56252 13.6826 1.56252 9.37501C1.56252 5.06745 5.06745 1.56252 9.37501 1.56252C13.6826 1.56252 17.1875 5.06745 17.1875 9.37501C17.1875 13.6826 13.6826 17.1875 9.37501 17.1875Z" fill="#999999"/>
</svg>
