<svg id="Слой_1" data-name="Слой 1" xmlns="http://www.w3.org/2000/svg" viewBox="0 0 873.34 1055.11"><defs><style>.cls-1{fill:#315faf;}.cls-2{fill:#fff;}.cls-3{fill:#f7ce29;}</style></defs><title>tlt34567</title><path class="cls-1" d="M940.6,13.53c4.51,367.93,4.07,637.28-.88,668.51-1.61,10.17-3.47,20-3.47,20a501.75,501.75,0,0,1-14.81,62.29c-7.76,25.14-17,49.7-30.07,72.65-6.63,11.65-13.31,23.3-20.55,34.57-6,9.32-12.59,18.29-19.4,27.05-7.33,9.43-14.77,18.86-23,27.53a477.88,477.88,0,0,1-38,36.63,424.3,424.3,0,0,1-39.84,30.42c-10.7,7.08-21.76,13.63-32.91,20A399.42,399.42,0,0,1,672.56,1035a409.74,409.74,0,0,1-40.78,14.33c-9.65,2.84-19.4,5.44-29.23,7.59-9.12,2-18.4,3.18-27.6,4.81-9.49,1.69-19,3.52-28.44,5.21a32.61,32.61,0,0,1-5.59.46c-18.19,0-36.39-.23-54.57.13-8.11.16-16.05-.86-24-1.91-8.54-1.13-17-2.68-25.47-4.38s-17.15-3.68-25.62-5.91c-12.82-3.36-25.66-6.69-38.28-10.7a372.15,372.15,0,0,1-72.78-31.81,478.11,478.11,0,0,1-44.1-28.11,431.73,431.73,0,0,1-42.52-35.31,440.1,440.1,0,0,1-32.35-33.7c-9-10.55-17.37-21.53-25.42-32.76a419.86,419.86,0,0,1-26.65-43,412.85,412.85,0,0,1-25.3-55.9c-11.73-31.92-18.69-65-23.25-98.59,0,0-2.6-15-4.52-28.55-6.73-47.48-7.73-299.3-1.82-643.39,1.72.08,3.45.22,5.18.22h856C937.15,13.75,938.88,13.61,940.6,13.53ZM544.51,885.67c-11.1,12.46-22.74,23.77-34.71,35.4a354.85,354.85,0,0,1-35.7-34.93l18.13-20.64c-1.2-1.45-2.15-2.69-3.2-3.83-9.61-10.58-19.14-21.23-28.89-31.68q-24.37-26.12-49-52c-1-1.11-2.29-2-3.66-3.21-1.79,1.69-3.29,3-4.68,4.45-2.8,2.91-5.44,6-8.35,8.79a36.54,36.54,0,0,1-6.48,5c-4,2.38-5,2.32-8.38-1-6.11-5.93-12-12.08-18-18.17a16.32,16.32,0,0,1-1.58-2.43c2.59-2.79,5.12-5.52,7.67-8.23s5.17-5.43,7.74-8.17,5-5.41,7.51-8.13c-.89-1.19-1.35-1.92-1.92-2.55-7.63-8.47-15.14-17.06-23-25.35-11.5-12.17-23.2-24.15-34.9-36.13-6-6.18-10.13-13.31-11.55-21.85-2.7-16.31,1.64-30.67,12.68-42.83,8-8.75,16.28-17.19,24.64-25.57,22.44-22.48,45.12-44.72,67.46-67.3,23.14-23.4,46-47.09,69-70.66,1.06-1.09,2-2.34,2.94-3.52-.83-1.06-1.32-1.76-1.89-2.4q-21.33-23.62-42.67-47.24C433.13,389.72,422.37,378,412,366a20.81,20.81,0,0,0-15.35-7.61c-2-.13-4-.12-6.06-.12-29,0-58,0-87.06.11-32.33.14-64.67.45-97,.71-1.47,0-2.95.26-5.32.48,2.35,2.59,3.89,4.47,5.61,6.17q27.93,27.51,55.89,55c9.76,9.62,19.46,19.31,29.2,29a20.78,20.78,0,0,0,13.39,6.46c8.77.52,17.57.45,26.35.6.38,0,.76-.36,1.48-.73.1-1.55.2-3.25.31-5,.44-6.34,1-12.66,3.07-18.73,1.62-4.72,3.9-9.05,7.73-12.34,12.36-10.6,25.65-11.57,39.26-4,16.44,9.17,24.1,34.55,7.24,50.16-.64.58-1.21,1.24-1.83,1.84-3.53,3.42-7.1,6.79-10.58,10.24-39,38.76-78.19,77.4-117,116.34-22.33,22.38-44.17,45.25-66.21,67.91-1.07,1.09-2,2.34-3,3.6,1.26,1.42,2.2,2.5,3.17,3.56,4.48,4.9,9,9.76,13.45,14.69,14,15.55,28.07,31.06,41.94,46.74,2.91,3.31,5.48,4.51,10,3a71,71,0,0,1,26.4-3.95c7.05.36,13.71,2.1,19.55,6.2a24.87,24.87,0,0,1,8.28,8.78c-8.69,9.14-17.79,17.51-26.24,26.84,27.7,32.5,56.67,63.05,84.79,94.78l22.66-17.08,23.4,24.32L399.87,895.3c36.43,40.67,71.82,81.56,109.52,120.24,5.05-3.47,105.57-114.87,109.05-120.82l-19.39-20.83a333.7,333.7,0,0,1,24.68-24.53l20.51,17.8c29.17-31.68,58.1-62.84,85.92-95.45-9-9.79-18.64-18.54-26.5-29.27,1.2-1.13,2.17-2.17,3.26-3.06,7.45-6.06,16.1-8.89,25.59-9.27a70.86,70.86,0,0,1,26.76,4.4c3.34,1.2,5.15.45,7.36-2.12,6.19-7.23,12.77-14.14,19.11-21.25q19.31-21.66,38.51-43.4c.94-1,1.71-2.25,2.77-3.67-2.13-2.1-4.07-4-6-5.9q-58.5-58.18-117-116.39Q670,507.9,635.8,474.05c-4-4-7.83-8.08-11.55-12.3-3.2-3.64-5.49-7.85-5.77-12.81-.85-15,5-26.43,18.23-33.76C655,405,677,414.26,682.3,433.63c1.37,5,1.92,10.18,2.76,15.3.42,2.5.66,5,1,7.55a22.52,22.52,0,0,0,3.08.43c8.65-.24,17.32-.37,26-.92a11.29,11.29,0,0,0,6.17-2.66c7.2-6.24,14.28-12.62,21.17-19.18,12.75-12.15,25.45-24.35,38-36.74,11.28-11.17,22.29-22.61,33.39-34a43.45,43.45,0,0,0,2.88-3.73,33.13,33.13,0,0,0-3.52-.57c-7.79-.25-15.58-.65-23.37-.66q-85.54-.12-171.08-.17a8.81,8.81,0,0,0-7.13,3.17c-11.85,13-24,25.8-35.72,38.93-14.42,16.15-28.54,32.57-42.76,48.89-1,1.16-1.85,2.48-2.89,3.9,1.32,1.4,2.38,2.56,3.49,3.67q41.28,41.4,82.59,82.79c23.26,23.29,46.64,46.46,69.8,69.86a136.67,136.67,0,0,1,14.25,16.8c11.38,16,10.26,42.45-5.59,57.73-19.75,19.06-38.2,39.37-56.61,59.71-.74.83-1.37,1.77-2.27,2.94l23.3,24.69L634.71,796l-24.44-21.37c-29.18,29.67-56,60.84-84.42,90.83ZM852.06,331.34a8.88,8.88,0,0,0,1.62-.81c9.1-9.07,18.34-18,27.18-27.32,3.54-3.73,6.15-8.33,9.24-12.49,1.94-2.62,1.45-4.77-.42-7.35-17.33-23.81-34.42-47.8-51.82-71.56Q796.28,155,754.41,98.46c-3-4.07-6.66-4.12-9.79-.17-.89,1.13-1.71,2.32-2.54,3.51-10.68,15.25-21.32,30.54-32.06,45.75q-21,29.72-42.1,59.34c-1,1.35-2.08,2.59-3.57,4.45L628.53,163c-11.43,17.22-20.89,34.85-32.63,51.77-1.49-1.78-2.63-3-3.65-4.36-9.92-13.13-19.9-26.22-29.72-39.43q-24.69-33.18-49.22-66.48c-1.07-1.44-2.31-2.74-3.68-4.35-1.32,1.56-2.29,2.61-3.15,3.75q-22.14,29.41-44.25,58.84Q444,187,425.71,211.17c-.91,1.2-2,2.22-3.35,3.64-1.15-1.73-2-2.89-2.72-4.1q-13.06-21.47-26.12-42.92c-.85-1.4-1.87-2.71-3.1-4.47-12.77,15.93-23.66,32.41-36.45,48-1.38-1.75-2.4-2.94-3.29-4.21-11-15.58-21.83-31.24-32.88-46.76q-22.6-31.75-45.44-63.34c-1-1.34-2.16-2.53-3.73-4.34L125.43,287.14c4.36,7.14,36.33,42,40.39,44,1.59-2,3.28-3.92,4.82-6q19.46-26,38.85-52.07Q237,236,264.3,198.88c1.08-1.46,2.33-2.79,3.83-4.56,1.42,1.78,2.54,3.05,3.51,4.43q27.47,38.92,54.89,77.88c7.07,10,14.09,20.1,21.2,30.1,3.07,4.31,7,4.26,10.11,0,.93-1.28,1.83-2.59,2.73-3.9q12.42-18,24.84-36c.93-1.34,2.12-2.5,3.52-4.13,2.88,3.88,5.45,7.17,7.83,10.58,7.52,10.77,15,21.6,22.47,32.38.94,1.35,2.07,2.57,3.34,4.14,1.61-1.95,2.85-3.34,4-4.83,10.74-14.31,21.51-28.61,32.18-43q23.61-31.83,47.11-63.73c1.08-1.46,2.34-2.79,3.82-4.53,1.31,1.65,2.31,2.84,3.24,4.09q16.17,22,32.34,44,23.67,32.05,47.38,64.08c1,1.31,2.12,2.49,3.41,4,1.29-1.67,2.2-2.77,3-3.94q13.83-19.65,27.65-39.32c.87-1.23,1.92-2.34,3.18-3.87,1.52,2,2.72,3.37,3.78,4.89q14.48,20.53,28.91,41.09c.86,1.22,1.87,2.34,3.1,3.87,1.48-1.86,2.61-3.14,3.61-4.53,12.65-17.57,25.37-35.09,37.9-52.76,13.44-19,26.68-38.07,40-57.1.94-1.34,2-2.59,3.33-4.26,17.78,22.91,34.42,45.77,51.09,68.6S835.21,308.35,852.06,331.34ZM599.19,724.77c5.6-4.31,68.71-69.08,70.81-72.52-3.12-4.9-65.78-68.8-70.88-72.13-24.1,23.35-48,47.06-70.87,72.2C551.68,677.1,575,701.2,599.19,724.77ZM347.81,651c24.67,23.59,46.52,49.21,72.35,71.56l70.32-71.63c-1.27-1.53-2.1-2.7-3.09-3.72Q456.24,615,425,582.8c-4.25-4.36-6.75-4.28-11,0Q389.93,607,365.9,631.4C359.85,637.58,354.15,644.09,347.81,651Zm89.09-91.3,70.85,72.38c25.12-23.44,48.43-47.77,71.57-72.46-.78-1-1.22-1.77-1.8-2.38-4.57-4.81-9.1-9.67-13.77-14.38q-25.46-25.68-51-51.25c-3.06-3.06-4.85-3-8.17-.12-3,2.66-6.09,5.32-8.93,8.19q-28.35,28.6-56.59,57.31C438.46,557.57,438,558.3,436.9,559.68ZM510.4,670l-71.11,72.42c22.61,25.81,47.07,49,71.23,73.36l71-71.61C559.59,717.82,534.33,695.16,510.4,670Z" transform="translate(-70.39 -12.44)"/><path class="cls-2" d="M940.6,13.53c-1.72.08-3.45.22-5.17.22h-856c-1.73,0-3.46-.14-5.18-.22.14-.29.27-.82.43-.83,1.15-.07,2.31,0,3.47,0q429.26,0,858.52.05C938,12.72,939.64,11.72,940.6,13.53Z" transform="translate(-70.39 -12.44)"/><path class="cls-3" d="M544.51,885.67l-18.66-20.19c28.45-30,55.24-61.16,84.42-90.83L634.71,796l24.44-24.62-23.3-24.69c.9-1.17,1.53-2.11,2.27-2.94,18.41-20.34,36.86-40.65,56.61-59.71,15.85-15.28,17-41.7,5.59-57.73a136.67,136.67,0,0,0-14.25-16.8c-23.16-23.4-46.54-46.57-69.8-69.86q-41.32-41.37-82.59-82.79c-1.11-1.11-2.17-2.27-3.49-3.67,1-1.42,1.87-2.74,2.89-3.9,14.22-16.32,28.34-32.74,42.76-48.89,11.73-13.13,23.87-25.9,35.72-38.93a8.81,8.81,0,0,1,7.13-3.17q85.53.15,171.08.17c7.79,0,15.58.41,23.37.66a33.13,33.13,0,0,1,3.52.57,43.45,43.45,0,0,1-2.88,3.73c-11.1,11.35-22.11,22.79-33.39,34-12.52,12.39-25.22,24.59-38,36.74-6.89,6.56-14,12.94-21.17,19.18a11.29,11.29,0,0,1-6.17,2.66c-8.63.55-17.3.68-26,.92a22.52,22.52,0,0,1-3.08-.43c-.33-2.52-.57-5.05-1-7.55-.84-5.12-1.39-10.33-2.76-15.3C677,414.26,655,405,636.71,415.18c-13.19,7.33-19.08,18.79-18.23,33.76.28,5,2.57,9.17,5.77,12.81,3.72,4.22,7.57,8.34,11.55,12.3q34.08,33.92,68.25,67.73,58.51,58.17,117,116.39c1.91,1.91,3.85,3.8,6,5.9-1.06,1.42-1.83,2.62-2.77,3.67q-19.23,21.72-38.51,43.4c-6.34,7.11-12.92,14-19.11,21.25-2.21,2.57-4,3.32-7.36,2.12a70.86,70.86,0,0,0-26.76-4.4c-9.49.38-18.14,3.21-25.59,9.27-1.09.89-2.06,1.93-3.26,3.06,7.86,10.73,17.46,19.48,26.5,29.27-27.82,32.61-56.75,63.77-85.92,95.45l-20.51-17.8a333.7,333.7,0,0,0-24.68,24.53l19.39,20.83c-3.48,5.95-104,117.35-109.05,120.82C471.69,976.86,436.3,936,399.87,895.3l19.62-21.37-23.4-24.32-22.66,17.08c-28.12-31.73-57.09-62.28-84.79-94.78,8.45-9.33,17.55-17.7,26.24-26.84a24.87,24.87,0,0,0-8.28-8.78c-5.84-4.1-12.5-5.84-19.55-6.2a71,71,0,0,0-26.4,3.95c-4.52,1.52-7.09.32-10-3-13.87-15.68-27.93-31.19-41.94-46.74-4.45-4.93-9-9.79-13.45-14.69-1-1.06-1.91-2.14-3.17-3.56,1.06-1.26,2-2.51,3-3.6,22-22.66,43.88-45.53,66.21-67.91,38.84-38.94,78-77.58,117-116.34,3.48-3.45,7.05-6.82,10.58-10.24.62-.6,1.19-1.26,1.83-1.84,16.86-15.61,9.2-41-7.24-50.16-13.61-7.58-26.9-6.61-39.26,4-3.83,3.29-6.11,7.62-7.73,12.34-2.1,6.07-2.63,12.39-3.07,18.73-.11,1.71-.21,3.41-.31,5-.72.37-1.1.73-1.48.73-8.78-.15-17.58-.08-26.35-.6a20.78,20.78,0,0,1-13.39-6.46c-9.74-9.66-19.44-19.35-29.2-29q-27.93-27.51-55.89-55c-1.72-1.7-3.26-3.58-5.61-6.17,2.37-.22,3.85-.46,5.32-.48,32.33-.26,64.67-.57,97-.71,29-.14,58-.09,87.06-.11,2,0,4,0,6.06.12A20.81,20.81,0,0,1,412,366c10.34,12,21.1,23.74,31.73,35.54q21.3,23.64,42.67,47.24c.57.64,1.06,1.34,1.89,2.4-1,1.18-1.88,2.43-2.94,3.52-23,23.57-45.82,47.26-69,70.66-22.34,22.58-45,44.82-67.46,67.3-8.36,8.38-16.68,16.82-24.64,25.57-11,12.16-15.38,26.52-12.68,42.83,1.42,8.54,5.53,15.67,11.55,21.85,11.7,12,23.4,24,34.9,36.13,7.83,8.29,15.34,16.88,23,25.35.57.63,1,1.36,1.92,2.55-2.51,2.72-5,5.44-7.51,8.13s-5.17,5.44-7.74,8.17-5.08,5.44-7.67,8.23a16.32,16.32,0,0,0,1.58,2.43c6,6.09,11.86,12.24,18,18.17,3.38,3.28,4.4,3.34,8.38,1a36.54,36.54,0,0,0,6.48-5c2.91-2.8,5.55-5.88,8.35-8.79,1.39-1.44,2.89-2.76,4.68-4.45,1.37,1.19,2.62,2.1,3.66,3.21q24.52,26,49,52c9.75,10.45,19.28,21.1,28.89,31.68,1.05,1.14,2,2.38,3.2,3.83L474.1,886.14a354.85,354.85,0,0,0,35.7,34.93C521.77,909.44,533.41,898.13,544.51,885.67Z" transform="translate(-70.39 -12.44)"/><path class="cls-3" d="M852.06,331.34q-25.27-34.48-50.44-68.83c-16.67-22.83-33.31-45.69-51.09-68.6-1.31,1.67-2.39,2.92-3.33,4.26-13.34,19-26.58,38.14-40,57.1-12.53,17.67-25.25,35.19-37.9,52.76-1,1.39-2.13,2.67-3.61,4.53-1.23-1.53-2.24-2.65-3.1-3.87q-14.48-20.54-28.91-41.09c-1.06-1.52-2.26-2.94-3.78-4.89-1.26,1.53-2.31,2.64-3.18,3.87q-13.85,19.65-27.65,39.32c-.83,1.17-1.74,2.27-3,3.94-1.29-1.5-2.44-2.68-3.41-4q-23.72-32-47.38-64.08-16.2-22-32.34-44c-.93-1.25-1.93-2.44-3.24-4.09-1.48,1.74-2.74,3.07-3.82,4.53Q482.27,230.11,458.72,262c-10.67,14.38-21.44,28.68-32.18,43-1.12,1.49-2.36,2.88-4,4.83-1.27-1.57-2.4-2.79-3.34-4.14-7.5-10.78-15-21.61-22.47-32.38-2.38-3.41-4.95-6.7-7.83-10.58-1.4,1.63-2.59,2.79-3.52,4.13q-12.46,18-24.84,36c-.9,1.31-1.8,2.62-2.73,3.9-3.09,4.24-7,4.29-10.11,0-7.11-10-14.13-20.07-21.2-30.1q-27.43-38.94-54.89-77.88c-1-1.38-2.09-2.65-3.51-4.43-1.5,1.77-2.75,3.1-3.83,4.56q-27.42,37.08-54.81,74.2-19.34,26.1-38.85,52.07c-1.54,2.06-3.23,4-4.82,6-4.06-2-36-36.85-40.39-44L268.63,92.71c1.57,1.81,2.76,3,3.73,4.34q22.75,31.65,45.44,63.34c11.05,15.52,21.91,31.18,32.88,46.76.89,1.27,1.91,2.46,3.29,4.21,12.79-15.63,23.68-32.11,36.45-48,1.23,1.76,2.25,3.07,3.1,4.47q13.08,21.45,26.12,42.92c.73,1.21,1.57,2.37,2.72,4.1,1.32-1.42,2.44-2.44,3.35-3.64Q444,187,462.23,162.78q22.14-29.42,44.25-58.84c.86-1.14,1.83-2.19,3.15-3.75,1.37,1.61,2.61,2.91,3.68,4.35q24.62,33.22,49.22,66.48c9.82,13.21,19.8,26.3,29.72,39.43,1,1.34,2.16,2.58,3.65,4.36,11.74-16.92,21.2-34.55,32.63-51.77l35.82,48.3c1.49-1.86,2.61-3.1,3.57-4.45Q689,177.24,710,147.55c10.74-15.21,21.38-30.5,32.06-45.75.83-1.19,1.65-2.38,2.54-3.51,3.13-4,6.79-3.9,9.79.17q41.75,56.65,83.45,113.35c17.4,23.76,34.49,47.75,51.82,71.56,1.87,2.58,2.36,4.73.42,7.35-3.09,4.16-5.7,8.76-9.24,12.49-8.84,9.32-18.08,18.25-27.18,27.32A8.88,8.88,0,0,1,852.06,331.34Z" transform="translate(-70.39 -12.44)"/><path class="cls-3" d="M599.19,724.77C575,701.2,551.68,677.1,528.25,652.32c22.88-25.14,46.77-48.85,70.87-72.2,5.1,3.33,67.76,67.23,70.88,72.13C667.9,655.69,604.79,720.46,599.19,724.77Z" transform="translate(-70.39 -12.44)"/><path class="cls-3" d="M347.81,651c6.34-6.89,12-13.4,18.09-19.58q24-24.43,48.15-48.64c4.21-4.24,6.71-4.32,11,0q31.28,32.13,62.38,64.39c1,1,1.82,2.19,3.09,3.72l-70.32,71.63C394.33,700.19,372.48,674.57,347.81,651Z" transform="translate(-70.39 -12.44)"/><path class="cls-3" d="M436.9,559.68c1.09-1.38,1.56-2.11,2.15-2.71q28.27-28.68,56.59-57.31c2.84-2.87,5.89-5.53,8.93-8.19,3.32-2.9,5.11-2.94,8.17.12q25.56,25.57,51,51.25c4.67,4.71,9.2,9.57,13.77,14.38.58.61,1,1.35,1.8,2.38-23.14,24.69-46.45,49-71.57,72.46Z" transform="translate(-70.39 -12.44)"/><path class="cls-3" d="M510.4,670c23.93,25.15,49.19,47.81,71.1,74.17l-71,71.61c-24.16-24.36-48.62-47.55-71.23-73.36Zm-7.17,118.63,8.75.76c1.95.17,3-.68,3.06-2.68,0-1.16.06-2.31.08-3.46q.39-18.82.78-37.63c0-1.53.3-3,.48-4.79,8-1.06,15.85.06,23.93-2,0-2.29,0-4.42,0-6.56-.07-3.63-.3-3.85-4-4.08l-15.11-.88c-3.75-.23-3.86-.3-4.44-3.85-.33-2-.51-4-.78-6-.63-4.65-1.26-9.31-1.88-13.85a14.85,14.85,0,0,0-2.26-.47c-1.58,0-3.17,0-4.76.05-3.59.2-3.79.41-4,4.11-.33,5.32-.6,10.65-.95,16-.23,3.52-.54,3.83-4.15,4.07-5.47.36-10.94.65-16.4,1-1.24.08-2.46.33-4,.56.29,2.66.52,4.93.79,7.19s1.53,3.16,3.77,3.27c5,.26,10.07.71,15.1,1,4.81.32,5,.46,5.08,5.41.11,8.37.07,16.74.23,25.1C502.62,776.67,503,782.41,503.23,788.64Z" transform="translate(-70.39 -12.44)"/><path class="cls-1" d="M503.23,788.64c-.26-6.23-.61-12-.72-17.7-.16-8.36-.12-16.73-.23-25.1-.07-5-.27-5.09-5.08-5.41-5-.33-10.06-.78-15.1-1-2.24-.11-3.51-1-3.77-3.27s-.5-4.53-.79-7.19c1.59-.23,2.81-.48,4-.56,5.46-.37,10.93-.66,16.4-1,3.61-.24,3.92-.55,4.15-4.07.35-5.32.62-10.65.95-16,.23-3.7.43-3.91,4-4.11,1.59-.09,3.18-.08,4.76-.05a14.85,14.85,0,0,1,2.26.47c.62,4.54,1.25,9.2,1.88,13.85.27,2,.45,4,.78,6,.58,3.55.69,3.62,4.44,3.85l15.11.88c3.66.23,3.89.45,4,4.08,0,2.14,0,4.27,0,6.56-8.08,2-15.93.93-23.93,2-.18,1.74-.44,3.26-.48,4.79q-.42,18.81-.78,37.63c0,1.15-.06,2.3-.08,3.46,0,2-1.11,2.85-3.06,2.68Z" transform="translate(-70.39 -12.44)"/></svg>