<svg width="246" height="52" viewBox="0 0 246 52" fill="none" xmlns="http://www.w3.org/2000/svg">
<rect width="246" height="52" fill="#B80D2A"/>
<path d="M83.5439 27.0146C83.5439 28.2686 83.333 29.3643 82.9111 30.3018C82.4893 31.2334 81.8916 31.9453 81.1182 32.4375C80.3447 32.9297 79.4424 33.1758 78.4111 33.1758C77.4033 33.1758 76.5098 32.9297 75.7305 32.4375C74.9512 31.9395 74.3447 31.2334 73.9111 30.3193C73.4834 29.3994 73.2637 28.3359 73.252 27.1289V26.2061C73.252 24.9756 73.4658 23.8887 73.8936 22.9453C74.3213 22.002 74.9248 21.2812 75.7041 20.7832C76.4893 20.2793 77.3857 20.0273 78.3936 20.0273C79.4189 20.0273 80.3213 20.2764 81.1006 20.7744C81.8857 21.2666 82.4893 21.9844 82.9111 22.9277C83.333 23.8652 83.5439 24.958 83.5439 26.2061V27.0146ZM81.8652 26.1885C81.8652 24.6709 81.5605 23.5078 80.9512 22.6992C80.3418 21.8848 79.4893 21.4775 78.3936 21.4775C77.3271 21.4775 76.4863 21.8848 75.8711 22.6992C75.2617 23.5078 74.9482 24.6328 74.9307 26.0742V27.0146C74.9307 28.4854 75.2383 29.6426 75.8535 30.4863C76.4746 31.3242 77.3271 31.7432 78.4111 31.7432C79.501 31.7432 80.3447 31.3477 80.9424 30.5566C81.54 29.7598 81.8477 28.6201 81.8652 27.1377V26.1885ZM94.6709 21.5918H90.5576V33H88.8789V21.5918H84.7744V20.2031H94.6709V21.5918ZM106.343 33H104.646V21.5918H98.3359V33H96.6484V20.2031H106.343V33ZM111.106 27.9902V33H109.419V20.2031H114.139C115.539 20.2031 116.635 20.5605 117.426 21.2754C118.223 21.9902 118.621 22.9365 118.621 24.1143C118.621 25.3564 118.231 26.3145 117.452 26.9883C116.679 27.6562 115.568 27.9902 114.121 27.9902H111.106ZM111.106 26.6104H114.139C115.041 26.6104 115.732 26.3994 116.213 25.9775C116.693 25.5498 116.934 24.9346 116.934 24.1318C116.934 23.3701 116.693 22.7607 116.213 22.3037C115.732 21.8467 115.073 21.6094 114.235 21.5918H111.106V26.6104ZM126.628 29.6602H121.267L120.062 33H118.322L123.209 20.2031H124.686L129.581 33H127.85L126.628 29.6602ZM121.776 28.2715H126.127L123.947 22.2861L121.776 28.2715ZM131.304 33V20.2031H135.487C136.876 20.2031 137.919 20.4902 138.616 21.0645C139.319 21.6387 139.671 22.4883 139.671 23.6133C139.671 24.2109 139.501 24.7412 139.161 25.2041C138.821 25.6611 138.358 26.0156 137.772 26.2676C138.464 26.4609 139.009 26.8301 139.407 27.375C139.812 27.9141 140.014 28.5586 140.014 29.3086C140.014 30.457 139.642 31.3594 138.897 32.0156C138.153 32.6719 137.102 33 135.742 33H131.304ZM132.991 27.0146V31.6201H135.777C136.562 31.6201 137.181 31.418 137.632 31.0137C138.089 30.6035 138.317 30.041 138.317 29.3262C138.317 27.7852 137.479 27.0146 135.804 27.0146H132.991ZM132.991 25.6611H135.54C136.278 25.6611 136.867 25.4766 137.307 25.1074C137.752 24.7383 137.975 24.2373 137.975 23.6045C137.975 22.9014 137.77 22.3916 137.359 22.0752C136.949 21.7529 136.325 21.5918 135.487 21.5918H132.991V25.6611ZM150.587 20.2031H152.274V33H150.587V23.1387L144.285 33H142.589V20.2031H144.285V30.0645L150.587 20.2031ZM163.929 21.5918H159.815V33H158.137V21.5918H154.032V20.2031H163.929V21.5918ZM167.603 25.4238H170.784C172.12 25.4414 173.163 25.7842 173.913 26.4521C174.663 27.1201 175.038 28.0283 175.038 29.1768C175.038 30.3311 174.66 31.251 173.904 31.9365C173.148 32.6221 172.117 32.9766 170.811 33H165.915V20.2031H167.603V25.4238ZM167.603 26.8125V31.6201H170.688C171.525 31.6201 172.176 31.3975 172.639 30.9521C173.107 30.5068 173.342 29.9092 173.342 29.1592C173.342 28.4385 173.116 27.8701 172.665 27.4541C172.22 27.0381 171.584 26.8242 170.758 26.8125H167.603Z" fill="white"/>
</svg>
