<svg width="244" height="52" viewBox="0 0 244 52" fill="none" xmlns="http://www.w3.org/2000/svg">
<rect width="244" height="52" fill="#D3D7DB"/>
<path d="M76.9297 32H74.8027V21.7256L71.665 22.7979V20.9961L76.6572 19.1592H76.9297V32ZM82.8447 29.75C83.2432 29.75 83.5508 29.8643 83.7676 30.0928C83.9844 30.3154 84.0928 30.5967 84.0928 30.9365C84.0928 31.2705 83.9844 31.5488 83.7676 31.7715C83.5508 31.9883 83.2432 32.0967 82.8447 32.0967C82.4639 32.0967 82.1621 31.9883 81.9395 31.7715C81.7168 31.5547 81.6055 31.2764 81.6055 30.9365C81.6055 30.5967 81.7139 30.3154 81.9307 30.0928C82.1475 29.8643 82.4521 29.75 82.8447 29.75ZM101.354 32H99.1396V20.9961H93.5059V32H91.291V19.2031H101.354V32ZM106.268 27.2451V32H104.044V19.2031H108.939C110.369 19.2031 111.503 19.5752 112.341 20.3193C113.185 21.0635 113.606 22.0479 113.606 23.2725C113.606 24.5264 113.193 25.502 112.367 26.1992C111.547 26.8965 110.396 27.2451 108.913 27.2451H106.268ZM106.268 25.4609H108.939C109.73 25.4609 110.334 25.2764 110.75 24.9072C111.166 24.5322 111.374 23.9932 111.374 23.29C111.374 22.5986 111.163 22.0479 110.741 21.6377C110.319 21.2217 109.739 21.0078 109.001 20.9961H106.268V25.4609ZM125.771 25.9355C125.771 27.1895 125.554 28.291 125.12 29.2402C124.687 30.1836 124.065 30.9102 123.257 31.4199C122.454 31.9238 121.528 32.1758 120.479 32.1758C119.442 32.1758 118.517 31.9238 117.702 31.4199C116.894 30.9102 116.267 30.1865 115.821 29.249C115.382 28.3115 115.159 27.2305 115.153 26.0059V25.2852C115.153 24.0371 115.373 22.9355 115.812 21.9805C116.258 21.0254 116.882 20.2959 117.685 19.792C118.493 19.2822 119.419 19.0273 120.462 19.0273C121.505 19.0273 122.428 19.2793 123.23 19.7832C124.039 20.2812 124.663 21.002 125.103 21.9453C125.542 22.8828 125.765 23.9756 125.771 25.2236V25.9355ZM123.547 25.2676C123.547 23.8496 123.277 22.7627 122.738 22.0068C122.205 21.251 121.446 20.873 120.462 20.873C119.501 20.873 118.748 21.251 118.203 22.0068C117.664 22.7568 117.389 23.8203 117.377 25.1973V25.9355C117.377 27.3418 117.649 28.4287 118.194 29.1963C118.745 29.9639 119.507 30.3477 120.479 30.3477C121.464 30.3477 122.22 29.9727 122.747 29.2227C123.28 28.4727 123.547 27.377 123.547 25.9355V25.2676ZM139.455 35.1465H137.346V32H128.917V35.1465H126.772L126.702 30.2246H127.73C128.24 29.7324 128.647 29.0176 128.952 28.0801C129.257 27.1367 129.453 26.0703 129.541 24.8809L129.875 19.2031H137.943V30.2246H139.569L139.455 35.1465ZM130.244 30.2246H135.729V20.9961H131.993L131.782 24.5996C131.624 27.0078 131.111 28.8828 130.244 30.2246ZM145.845 25.8916L148.411 19.2031H150.881L146.425 29.8203L146.021 30.6201C145.435 31.6631 144.485 32.1846 143.173 32.1846L142.259 32.1318L142.276 30.374C142.417 30.3975 142.666 30.4092 143.023 30.4092C143.656 30.4092 144.102 30.1396 144.359 29.6006L144.816 28.5195L140.439 19.2031H142.865L145.845 25.8916ZM156.365 26.5156H154.854V32H152.639V19.2031H154.854V24.582H156.075L159.837 19.2031H162.562L158.167 25.3291L162.948 32H160.276L156.365 26.5156ZM173.425 20.9961H169.435V32H167.229V20.9961H163.273V19.2031H173.425V20.9961Z" fill="black"/>
</svg>
