<svg width="244" height="52" viewBox="0 0 244 52" fill="none" xmlns="http://www.w3.org/2000/svg">
<rect width="244" height="52" fill="white"/>
<path d="M62.7793 25.626H64.0801C64.7363 25.6201 65.2549 25.4502 65.6357 25.1162C66.0225 24.7822 66.2158 24.2988 66.2158 23.666C66.2158 23.0566 66.0547 22.585 65.7324 22.251C65.416 21.9111 64.9297 21.7412 64.2734 21.7412C63.6992 21.7412 63.2275 21.9082 62.8584 22.2422C62.4893 22.5703 62.3047 23.001 62.3047 23.5342H60.1689C60.1689 22.8779 60.3418 22.2803 60.6875 21.7412C61.0391 21.2021 61.5254 20.7832 62.1465 20.4844C62.7734 20.1797 63.4736 20.0273 64.2471 20.0273C65.5244 20.0273 66.5264 20.3496 67.2529 20.9941C67.9854 21.6328 68.3516 22.5234 68.3516 23.666C68.3516 24.2402 68.167 24.7822 67.7979 25.292C67.4346 25.7959 66.9629 26.1768 66.3828 26.4346C67.0859 26.6748 67.6191 27.0527 67.9824 27.5684C68.3516 28.084 68.5361 28.6992 68.5361 29.4141C68.5361 30.5625 68.1406 31.4766 67.3496 32.1562C66.5645 32.8359 65.5303 33.1758 64.2471 33.1758C63.0166 33.1758 62.0088 32.8477 61.2236 32.1914C60.4385 31.5352 60.0459 30.6621 60.0459 29.5723H62.1816C62.1816 30.1348 62.3691 30.5918 62.7441 30.9434C63.125 31.2949 63.6348 31.4707 64.2734 31.4707C64.9355 31.4707 65.457 31.2949 65.8379 30.9434C66.2188 30.5918 66.4092 30.082 66.4092 29.4141C66.4092 28.7402 66.21 28.2217 65.8115 27.8584C65.4131 27.4951 64.8213 27.3135 64.0361 27.3135H62.7793V25.626ZM72.0078 30.75C72.4062 30.75 72.7139 30.8643 72.9307 31.0928C73.1475 31.3154 73.2559 31.5967 73.2559 31.9365C73.2559 32.2705 73.1475 32.5488 72.9307 32.7715C72.7139 32.9883 72.4062 33.0967 72.0078 33.0967C71.627 33.0967 71.3252 32.9883 71.1025 32.7715C70.8799 32.5547 70.7686 32.2764 70.7686 31.9365C70.7686 31.5967 70.877 31.3154 71.0938 31.0928C71.3105 30.8643 71.6152 30.75 72.0078 30.75ZM90.5527 33H88.3379V27.3135H82.6162V33H80.3926V20.2031H82.6162V25.5293H88.3379V20.2031H90.5527V33ZM100.511 30.0205H95.5537L94.5166 33H92.2051L97.0391 20.2031H99.0342L103.877 33H101.557L100.511 30.0205ZM96.1777 28.2275H99.8867L98.0322 22.9189L96.1777 28.2275ZM115.496 33H113.281V27.3135H107.56V33H105.336V20.2031H107.56V25.5293H113.281V20.2031H115.496V33ZM125.612 27.2871H120.356V31.2246H126.5V33H118.133V20.2031H126.438V21.9961H120.356V25.5293H125.612V27.2871ZM138.075 28.834C137.946 30.1992 137.442 31.2656 136.563 32.0332C135.685 32.7949 134.516 33.1758 133.057 33.1758C132.037 33.1758 131.138 32.9355 130.358 32.4551C129.585 31.9688 128.987 31.2803 128.565 30.3896C128.144 29.499 127.924 28.4648 127.906 27.2871V26.0918C127.906 24.8848 128.12 23.8213 128.548 22.9014C128.976 21.9814 129.588 21.2725 130.385 20.7744C131.188 20.2764 132.113 20.0273 133.162 20.0273C134.574 20.0273 135.711 20.4111 136.572 21.1787C137.434 21.9463 137.935 23.0303 138.075 24.4307H135.86C135.755 23.5107 135.485 22.8486 135.052 22.4443C134.624 22.0342 133.994 21.8291 133.162 21.8291C132.195 21.8291 131.451 22.1836 130.93 22.8926C130.414 23.5957 130.15 24.6299 130.139 25.9951V27.1289C130.139 28.5117 130.385 29.5664 130.877 30.293C131.375 31.0195 132.102 31.3828 133.057 31.3828C133.93 31.3828 134.586 31.1865 135.025 30.7939C135.465 30.4014 135.743 29.748 135.86 28.834H138.075ZM147.55 27.2871H142.294V31.2246H148.438V33H140.07V20.2031H148.376V21.9961H142.294V25.5293H147.55V27.2871ZM160.408 33H158.193V27.3135H152.472V33H150.248V20.2031H152.472V25.5293H158.193V20.2031H160.408V33ZM170.885 20.2031H173.108V33H170.885V23.8857L165.269 33H163.045V20.2031H165.269V29.3262L170.885 20.2031ZM183.251 27.2871H177.995V31.2246H184.139V33H175.771V20.2031H184.077V21.9961H177.995V25.5293H183.251V27.2871Z" fill="black"/>
</svg>
