<svg width="244" height="52" viewBox="0 0 244 52" fill="none" xmlns="http://www.w3.org/2000/svg">
<rect x="1" y="1" width="242" height="50" fill="black" stroke="#D2701B" stroke-width="2"/>
<path d="M92.7236 32H91.0273V20.5918H84.7168V32H83.0293V19.2031H92.7236V32ZM103.033 26.085H97.4873V30.6201H103.93V32H95.7998V19.2031H103.842V20.5918H97.4873V24.7051H103.033V26.085ZM107.718 26.9902V32H106.03V19.2031H110.75C112.15 19.2031 113.246 19.5605 114.037 20.2754C114.834 20.9902 115.232 21.9365 115.232 23.1143C115.232 24.3564 114.843 25.3145 114.063 25.9883C113.29 26.6562 112.18 26.9902 110.732 26.9902H107.718ZM107.718 25.6104H110.75C111.652 25.6104 112.344 25.3994 112.824 24.9775C113.305 24.5498 113.545 23.9346 113.545 23.1318C113.545 22.3701 113.305 21.7607 112.824 21.3037C112.344 20.8467 111.685 20.6094 110.847 20.5918H107.718V25.6104ZM124.619 26.085H119.073V30.6201H125.516V32H117.386V19.2031H125.428V20.5918H119.073V24.7051H124.619V26.085ZM135.685 19.2031H137.372V32H135.685V22.1387L129.383 32H127.687V19.2031H129.383V29.0645L135.685 19.2031ZM135.21 16.0215C135.21 16.7305 134.967 17.3018 134.48 17.7354C134 18.1631 133.367 18.377 132.582 18.377C131.797 18.377 131.161 18.1602 130.675 17.7266C130.188 17.293 129.945 16.7246 129.945 16.0215H131.272C131.272 16.4316 131.384 16.7539 131.606 16.9883C131.829 17.2168 132.154 17.3311 132.582 17.3311C132.992 17.3311 133.312 17.2168 133.54 16.9883C133.774 16.7598 133.892 16.4375 133.892 16.0215H135.21ZM149.29 20.5918H145.177V32H143.498V20.5918H139.394V19.2031H149.29V20.5918ZM159.257 19.2031H160.944V32H159.257V22.1387L152.955 32H151.259V19.2031H152.955V29.0645L159.257 19.2031Z" fill="#D2701B"/>
</svg>
