<svg width="244" height="52" viewBox="0 0 244 52" fill="none" xmlns="http://www.w3.org/2000/svg">
<rect width="244" height="52" fill="white"/>
<path d="M46.0625 33H37.458V31.5322L41.7207 26.8828C42.3359 26.1973 42.7725 25.626 43.0303 25.1689C43.2939 24.7061 43.4258 24.2432 43.4258 23.7803C43.4258 23.1709 43.2529 22.6787 42.9072 22.3037C42.5674 21.9287 42.1074 21.7412 41.5273 21.7412C40.8359 21.7412 40.2998 21.9521 39.9189 22.374C39.5381 22.7959 39.3477 23.373 39.3477 24.1055H37.2119C37.2119 23.3262 37.3877 22.626 37.7393 22.0049C38.0967 21.3779 38.6035 20.8916 39.2598 20.5459C39.9219 20.2002 40.6836 20.0273 41.5449 20.0273C42.7871 20.0273 43.7656 20.3408 44.4805 20.9678C45.2012 21.5889 45.5615 22.4502 45.5615 23.5518C45.5615 24.1904 45.3799 24.8613 45.0166 25.5645C44.6592 26.2617 44.0703 27.0557 43.25 27.9463L40.1211 31.2949H46.0625V33ZM49.1562 30.75C49.5547 30.75 49.8623 30.8643 50.0791 31.0928C50.2959 31.3154 50.4043 31.5967 50.4043 31.9365C50.4043 32.2705 50.2959 32.5488 50.0791 32.7715C49.8623 32.9883 49.5547 33.0967 49.1562 33.0967C48.7754 33.0967 48.4736 32.9883 48.251 32.7715C48.0283 32.5547 47.917 32.2764 47.917 31.9365C47.917 31.5967 48.0254 31.3154 48.2422 31.0928C48.459 30.8643 48.7637 30.75 49.1562 30.75ZM67.666 33H65.4512V21.9961H59.8174V33H57.6025V20.2031H67.666V33ZM72.5791 28.2451V33H70.3555V20.2031H75.251C76.6807 20.2031 77.8145 20.5752 78.6523 21.3193C79.4961 22.0635 79.918 23.0479 79.918 24.2725C79.918 25.5264 79.5049 26.502 78.6787 27.1992C77.8584 27.8965 76.707 28.2451 75.2246 28.2451H72.5791ZM72.5791 26.4609H75.251C76.042 26.4609 76.6455 26.2764 77.0615 25.9072C77.4775 25.5322 77.6855 24.9932 77.6855 24.29C77.6855 23.5986 77.4746 23.0479 77.0527 22.6377C76.6309 22.2217 76.0508 22.0078 75.3125 21.9961H72.5791V26.4609ZM89.709 20.2031H91.9326V33H89.709V23.8857L84.0928 33H81.8691V20.2031H84.0928V29.3262L89.709 20.2031ZM102.778 21.9961H96.8721V33H94.6572V20.2031H102.778V21.9961ZM114.248 26.9355C114.248 28.1895 114.031 29.291 113.598 30.2402C113.164 31.1836 112.543 31.9102 111.734 32.4199C110.932 32.9238 110.006 33.1758 108.957 33.1758C107.92 33.1758 106.994 32.9238 106.18 32.4199C105.371 31.9102 104.744 31.1865 104.299 30.249C103.859 29.3115 103.637 28.2305 103.631 27.0059V26.2852C103.631 25.0371 103.851 23.9355 104.29 22.9805C104.735 22.0254 105.359 21.2959 106.162 20.792C106.971 20.2822 107.896 20.0273 108.939 20.0273C109.982 20.0273 110.905 20.2793 111.708 20.7832C112.517 21.2812 113.141 22.002 113.58 22.9453C114.02 23.8828 114.242 24.9756 114.248 26.2236V26.9355ZM112.024 26.2676C112.024 24.8496 111.755 23.7627 111.216 23.0068C110.683 22.251 109.924 21.873 108.939 21.873C107.979 21.873 107.226 22.251 106.681 23.0068C106.142 23.7568 105.866 24.8203 105.854 26.1973V26.9355C105.854 28.3418 106.127 29.4287 106.672 30.1963C107.223 30.9639 107.984 31.3477 108.957 31.3477C109.941 31.3477 110.697 30.9727 111.225 30.2227C111.758 29.4727 112.024 28.377 112.024 26.9355V26.2676ZM124.953 21.9961H120.963V33H118.757V21.9961H114.802V20.2031H124.953V21.9961ZM136.607 26.9355C136.607 28.1895 136.391 29.291 135.957 30.2402C135.523 31.1836 134.902 31.9102 134.094 32.4199C133.291 32.9238 132.365 33.1758 131.316 33.1758C130.279 33.1758 129.354 32.9238 128.539 32.4199C127.73 31.9102 127.104 31.1865 126.658 30.249C126.219 29.3115 125.996 28.2305 125.99 27.0059V26.2852C125.99 25.0371 126.21 23.9355 126.649 22.9805C127.095 22.0254 127.719 21.2959 128.521 20.792C129.33 20.2822 130.256 20.0273 131.299 20.0273C132.342 20.0273 133.265 20.2793 134.067 20.7832C134.876 21.2812 135.5 22.002 135.939 22.9453C136.379 23.8828 136.602 24.9756 136.607 26.2236V26.9355ZM134.384 26.2676C134.384 24.8496 134.114 23.7627 133.575 23.0068C133.042 22.251 132.283 21.873 131.299 21.873C130.338 21.873 129.585 22.251 129.04 23.0068C128.501 23.7568 128.226 24.8203 128.214 26.1973V26.9355C128.214 28.3418 128.486 29.4287 129.031 30.1963C129.582 30.9639 130.344 31.3477 131.316 31.3477C132.301 31.3477 133.057 30.9727 133.584 30.2227C134.117 29.4727 134.384 28.377 134.384 26.9355V26.2676ZM138.822 33V20.2031H143.208C144.655 20.2031 145.757 20.4932 146.513 21.0732C147.269 21.6533 147.646 22.5176 147.646 23.666C147.646 24.252 147.488 24.7793 147.172 25.248C146.855 25.7168 146.393 26.0801 145.783 26.3379C146.475 26.5254 147.008 26.8799 147.383 27.4014C147.764 27.917 147.954 28.5381 147.954 29.2646C147.954 30.4658 147.567 31.3887 146.794 32.0332C146.026 32.6777 144.925 33 143.489 33H138.822ZM141.046 27.2256V31.2246H143.516C144.213 31.2246 144.758 31.0518 145.15 30.7061C145.543 30.3604 145.739 29.8799 145.739 29.2646C145.739 27.9346 145.06 27.2549 143.7 27.2256H141.046ZM141.046 25.5908H143.226C143.917 25.5908 144.456 25.4355 144.843 25.125C145.235 24.8086 145.432 24.3633 145.432 23.7891C145.432 23.1562 145.25 22.6992 144.887 22.418C144.529 22.1367 143.97 21.9961 143.208 21.9961H141.046V25.5908ZM160.241 20.2031V33H158.026V21.9961H154.106L153.878 26.9443C153.79 28.4912 153.6 29.6924 153.307 30.5479C153.02 31.3975 152.601 32.0186 152.05 32.4111C151.499 32.8037 150.761 33 149.835 33H149.272V31.2246L149.624 31.1982C150.134 31.1514 150.526 30.9727 150.802 30.6621C151.083 30.3516 151.294 29.8828 151.435 29.2559C151.581 28.623 151.684 27.6943 151.742 26.4697L151.988 20.2031H160.241ZM170.401 27.2871H165.146V31.2246H171.289V33H162.922V20.2031H171.228V21.9961H165.146V25.5293H170.401V27.2871ZM183.26 33H181.045V27.3135H175.323V33H173.1V20.2031H175.323V25.5293H181.045V20.2031H183.26V33ZM193.736 20.2031H195.96V33H193.736V23.8857L188.12 33H185.896V20.2031H188.12V29.3262L193.736 20.2031ZM206.103 27.2871H200.847V31.2246H206.99V33H198.623V20.2031H206.929V21.9961H200.847V25.5293H206.103V27.2871Z" fill="black"/>
</svg>
