<svg width="246" height="52" viewBox="0 0 246 52" fill="none" xmlns="http://www.w3.org/2000/svg">
<rect width="246" height="52" fill="#D3D7DB"/>
<path d="M83.5967 26.8916C83.5967 28.1514 83.374 29.2559 82.9287 30.2051C82.4834 31.1543 81.8447 31.8867 81.0127 32.4023C80.1865 32.918 79.2373 33.1758 78.165 33.1758C77.1045 33.1758 76.1582 32.9209 75.3262 32.4111C74.4941 31.9014 73.8496 31.1748 73.3926 30.2314C72.9355 29.2822 72.7041 28.1924 72.6982 26.9619V26.3291C72.6982 25.0693 72.9238 23.9619 73.375 23.0068C73.832 22.0459 74.4736 21.3105 75.2998 20.8008C76.1318 20.2852 77.0811 20.0273 78.1475 20.0273C79.2139 20.0273 80.1602 20.2852 80.9863 20.8008C81.8184 21.3105 82.46 22.0459 82.9111 23.0068C83.3682 23.9619 83.5967 25.0664 83.5967 26.3203V26.8916ZM80.9248 26.3115C80.9248 24.9697 80.6846 23.9502 80.2041 23.2529C79.7236 22.5557 79.0381 22.207 78.1475 22.207C77.2627 22.207 76.5801 22.5527 76.0996 23.2441C75.6191 23.9297 75.376 24.9375 75.3701 26.2676V26.8916C75.3701 28.1982 75.6104 29.2119 76.0908 29.9326C76.5713 30.6533 77.2627 31.0137 78.165 31.0137C79.0498 31.0137 79.7295 30.668 80.2041 29.9766C80.6787 29.2793 80.9189 28.2656 80.9248 26.9355V26.3115ZM94.3896 22.3389H90.4697V33H87.833V22.3389H83.9658V20.2031H94.3896V22.3389ZM106.325 33H103.68V22.3389H98.5557V33H95.9189V20.2031H106.325V33ZM111.282 28.4912V33H108.646V20.2031H113.638C114.599 20.2031 115.442 20.3789 116.169 20.7305C116.901 21.082 117.464 21.583 117.856 22.2334C118.249 22.8779 118.445 23.6133 118.445 24.4395C118.445 25.6934 118.015 26.6836 117.153 27.4102C116.298 28.1309 115.111 28.4912 113.594 28.4912H111.282ZM111.282 26.3555H113.638C114.335 26.3555 114.865 26.1914 115.229 25.8633C115.598 25.5352 115.782 25.0664 115.782 24.457C115.782 23.8301 115.598 23.3232 115.229 22.9365C114.859 22.5498 114.35 22.3506 113.699 22.3389H111.282V26.3555ZM125.925 30.3633H121.302L120.423 33H117.619L122.383 20.2031H124.826L129.616 33H126.812L125.925 30.3633ZM122.014 28.2275H125.213L123.604 23.4375L122.014 28.2275ZM130.812 33V20.2031H135.294C136.847 20.2031 138.024 20.502 138.827 21.0996C139.63 21.6914 140.031 22.5615 140.031 23.71C140.031 24.3369 139.87 24.8906 139.548 25.3711C139.226 25.8457 138.777 26.1943 138.203 26.417C138.859 26.5811 139.375 26.9121 139.75 27.4102C140.131 27.9082 140.321 28.5176 140.321 29.2383C140.321 30.4688 139.929 31.4004 139.144 32.0332C138.358 32.666 137.239 32.9883 135.786 33H130.812ZM133.448 27.4277V30.8818H135.707C136.328 30.8818 136.812 30.7354 137.157 30.4424C137.509 30.1436 137.685 29.7334 137.685 29.2119C137.685 28.04 137.078 27.4453 135.865 27.4277H133.448ZM133.448 25.5645H135.399C136.729 25.541 137.395 25.0107 137.395 23.9736C137.395 23.3936 137.225 22.9775 136.885 22.7256C136.551 22.4678 136.021 22.3389 135.294 22.3389H133.448V25.5645ZM149.98 20.2031H152.626V33H149.98V24.501L144.856 33H142.22V20.2031H144.856V28.7197L149.98 20.2031ZM164.28 22.3389H160.36V33H157.724V22.3389H153.856V20.2031H164.28V22.3389ZM168.569 24.8174H170.626C172.132 24.8174 173.324 25.1836 174.203 25.916C175.088 26.6426 175.53 27.624 175.53 28.8604C175.53 30.1025 175.091 31.1016 174.212 31.8574C173.339 32.6074 172.176 32.9883 170.723 33H165.915V20.2031H168.569V24.8174ZM168.569 26.9443V30.8818H170.67C171.344 30.8818 171.88 30.6973 172.278 30.3281C172.683 29.959 172.885 29.4639 172.885 28.8428C172.885 28.2627 172.691 27.8057 172.305 27.4717C171.924 27.1318 171.399 26.9561 170.731 26.9443H168.569Z" fill="white"/>
</svg>
