<svg width="244" height="52" viewBox="0 0 244 52" fill="none" xmlns="http://www.w3.org/2000/svg">
<rect width="244" height="52" fill="#B80D2A"/>
<path d="M51.3177 26.0146C51.3177 27.2686 51.1068 28.3643 50.6849 29.3018C50.263 30.2334 49.6654 30.9453 48.8919 31.4375C48.1185 31.9297 47.2161 32.1758 46.1849 32.1758C45.1771 32.1758 44.2835 31.9297 43.5042 31.4375C42.7249 30.9395 42.1185 30.2334 41.6849 29.3193C41.2572 28.3994 41.0374 27.3359 41.0257 26.1289V25.2061C41.0257 23.9756 41.2396 22.8887 41.6673 21.9453C42.095 21.002 42.6986 20.2812 43.4779 19.7832C44.263 19.2793 45.1595 19.0273 46.1673 19.0273C47.1927 19.0273 48.095 19.2764 48.8743 19.7744C49.6595 20.2666 50.263 20.9844 50.6849 21.9277C51.1068 22.8652 51.3177 23.958 51.3177 25.2061V26.0146ZM49.639 25.1885C49.639 23.6709 49.3343 22.5078 48.7249 21.6992C48.1156 20.8848 47.263 20.4775 46.1673 20.4775C45.1009 20.4775 44.2601 20.8848 43.6449 21.6992C43.0355 22.5078 42.722 23.6328 42.7044 25.0742V26.0146C42.7044 27.4854 43.012 28.6426 43.6273 29.4863C44.2484 30.3242 45.1009 30.7432 46.1849 30.7432C47.2747 30.7432 48.1185 30.3477 48.7161 29.5566C49.3138 28.7598 49.6214 27.6201 49.639 26.1377V25.1885ZM63.262 27.9395C63.1038 29.293 62.6029 30.3389 61.7591 31.0771C60.9212 31.8096 59.805 32.1758 58.4105 32.1758C56.8988 32.1758 55.6859 31.6338 54.7718 30.5498C53.8636 29.4658 53.4095 28.0156 53.4095 26.1992V24.9688C53.4095 23.7793 53.6204 22.7334 54.0423 21.8311C54.47 20.9287 55.0736 20.2373 55.8529 19.7568C56.6322 19.2705 57.5345 19.0273 58.5599 19.0273C59.9193 19.0273 61.0091 19.4082 61.8294 20.1699C62.6497 20.9258 63.1273 21.9746 63.262 23.3164H61.5658C61.4193 22.2969 61.0999 21.5586 60.6077 21.1016C60.1214 20.6445 59.4388 20.416 58.5599 20.416C57.4818 20.416 56.6351 20.8145 56.0199 21.6113C55.4105 22.4082 55.1058 23.542 55.1058 25.0127V26.252C55.1058 27.6406 55.3958 28.7451 55.9759 29.5654C56.556 30.3857 57.3675 30.7959 58.4105 30.7959C59.348 30.7959 60.0658 30.585 60.5638 30.1631C61.0677 29.7354 61.4017 28.9941 61.5658 27.9395H63.262ZM74.1517 20.5918H70.0384V32H68.3597V20.5918H64.2552V19.2031H74.1517V20.5918ZM82.4134 28.6602H77.0521L75.848 32H74.1077L78.9945 19.2031H80.471L85.3665 32H83.6351L82.4134 28.6602ZM77.5618 27.2715H81.9124L79.7327 21.2861L77.5618 27.2715ZM87.0892 32V19.2031H91.2728C92.6615 19.2031 93.7044 19.4902 94.4017 20.0645C95.1048 20.6387 95.4564 21.4883 95.4564 22.6133C95.4564 23.2109 95.2865 23.7412 94.9466 24.2041C94.6068 24.6611 94.1439 25.0156 93.5579 25.2676C94.2493 25.4609 94.7943 25.8301 95.1927 26.375C95.597 26.9141 95.7991 27.5586 95.7991 28.3086C95.7991 29.457 95.4271 30.3594 94.6829 31.0156C93.9388 31.6719 92.887 32 91.5277 32H87.0892ZM88.7767 26.0146V30.6201H91.5628C92.348 30.6201 92.9661 30.418 93.4173 30.0137C93.8743 29.6035 94.1029 29.041 94.1029 28.3262C94.1029 26.7852 93.265 26.0146 91.5892 26.0146H88.7767ZM88.7767 24.6611H91.3255C92.0638 24.6611 92.6527 24.4766 93.0921 24.1074C93.5374 23.7383 93.7601 23.2373 93.7601 22.6045C93.7601 21.9014 93.555 21.3916 93.1449 21.0752C92.7347 20.7529 92.1107 20.5918 91.2728 20.5918H88.7767V24.6611ZM106.372 19.2031H108.06V32H106.372V22.1387L100.071 32H98.3743V19.2031H100.071V29.0645L106.372 19.2031ZM119.714 20.5918H115.601V32H113.922V20.5918H109.818V19.2031H119.714V20.5918ZM123.388 24.4238H126.57C127.906 24.4414 128.949 24.7842 129.699 25.4521C130.449 26.1201 130.824 27.0283 130.824 28.1768C130.824 29.3311 130.446 30.251 129.69 30.9365C128.934 31.6221 127.903 31.9766 126.596 32H121.701V19.2031H123.388V24.4238ZM123.388 25.8125V30.6201H126.473C127.311 30.6201 127.961 30.3975 128.424 29.9521C128.893 29.5068 129.127 28.9092 129.127 28.1592C129.127 27.4385 128.902 26.8701 128.451 26.4541C128.005 26.0381 127.369 25.8242 126.543 25.8125H123.388ZM144.086 22.6396C144.086 21.96 143.837 21.4209 143.339 21.0225C142.847 20.6182 142.153 20.416 141.256 20.416C140.506 20.416 139.876 20.624 139.367 21.04C138.863 21.4502 138.611 21.96 138.611 22.5693H136.923C136.923 21.8896 137.108 21.2803 137.477 20.7412C137.852 20.2021 138.373 19.7832 139.041 19.4844C139.709 19.1797 140.448 19.0273 141.256 19.0273C142.686 19.0273 143.796 19.3496 144.587 19.9941C145.378 20.6328 145.774 21.5234 145.774 22.666C145.774 23.2578 145.592 23.7969 145.229 24.2832C144.866 24.7695 144.359 25.1533 143.708 25.4346C145.214 25.9385 145.967 26.9375 145.967 28.4316C145.967 29.5801 145.539 30.4912 144.684 31.165C143.828 31.8389 142.686 32.1758 141.256 32.1758C140.407 32.1758 139.633 32.0264 138.936 31.7275C138.244 31.4229 137.705 30.9922 137.319 30.4355C136.932 29.8789 136.739 29.2168 136.739 28.4492H138.426C138.426 29.123 138.693 29.6855 139.226 30.1367C139.759 30.582 140.436 30.8047 141.256 30.8047C142.176 30.8047 142.909 30.5908 143.453 30.1631C144.004 29.7354 144.28 29.1699 144.28 28.4668C144.28 26.9668 143.351 26.2021 141.493 26.1729H139.911V24.7842H141.485C142.34 24.7666 142.988 24.5732 143.427 24.2041C143.867 23.835 144.086 23.3135 144.086 22.6396ZM155.275 28.6602H149.913L148.709 32H146.969L151.856 19.2031H153.332L158.228 32H156.496L155.275 28.6602ZM150.423 27.2715H154.774L152.594 21.2861L150.423 27.2715ZM166.648 32V27.0166H163.695L161.049 32H159.247L162.218 26.5508C160.566 25.9004 159.74 24.7373 159.74 23.0615C159.74 21.8428 160.138 20.8965 160.935 20.2227C161.738 19.543 162.851 19.2031 164.275 19.2031H168.344V32H166.648ZM161.427 23.0615C161.427 23.835 161.667 24.4561 162.148 24.9248C162.634 25.3936 163.308 25.6309 164.169 25.6367H166.648V20.5918H164.248C163.334 20.5918 162.634 20.8086 162.148 21.2422C161.667 21.6758 161.427 22.2822 161.427 23.0615ZM171.411 32V19.2031H175.595C176.984 19.2031 178.027 19.4902 178.724 20.0645C179.427 20.6387 179.779 21.4883 179.779 22.6133C179.779 23.2109 179.609 23.7412 179.269 24.2041C178.929 24.6611 178.466 25.0156 177.88 25.2676C178.572 25.4609 179.117 25.8301 179.515 26.375C179.919 26.9141 180.121 27.5586 180.121 28.3086C180.121 29.457 179.749 30.3594 179.005 31.0156C178.261 31.6719 177.209 32 175.85 32H171.411ZM173.099 26.0146V30.6201H175.885C176.67 30.6201 177.288 30.418 177.74 30.0137C178.197 29.6035 178.425 29.041 178.425 28.3262C178.425 26.7852 177.587 26.0146 175.911 26.0146H173.099ZM173.099 24.6611H175.648C176.386 24.6611 176.975 24.4766 177.414 24.1074C177.86 23.7383 178.082 23.2373 178.082 22.6045C178.082 21.9014 177.877 21.3916 177.467 21.0752C177.057 20.7529 176.433 20.5918 175.595 20.5918H173.099V24.6611ZM185.949 26.252H184.393V32H182.705V19.2031H184.393V24.8457H185.711L190.185 19.2031H192.285L187.399 25.4082L192.646 32H190.58L185.949 26.252ZM198.587 26.6299L201.532 19.2031H203.492L198.965 29.8643C198.66 30.5439 198.376 31.0273 198.113 31.3145C197.849 31.5957 197.538 31.8125 197.181 31.9648C196.829 32.1113 196.387 32.1846 195.854 32.1846C195.391 32.1846 195.095 32.1582 194.966 32.1055L195.019 30.7695L195.819 30.8047C196.434 30.8047 196.891 30.5088 197.19 29.917L197.41 29.46L197.743 28.6777L193.384 19.2031H195.274L198.587 26.6299Z" fill="white"/>
</svg>
