<svg width="212" height="52" viewBox="0 0 212 52" fill="none" xmlns="http://www.w3.org/2000/svg">
<rect width="212" height="52" fill="black"/>
<path d="M69.999 26.252H68.4434V32H66.7559V19.2031H68.4434V24.8457H69.7617L74.2354 19.2031H76.3359L71.4492 25.4082L76.6963 32H74.6309L69.999 26.252ZM77.3115 27.1572C77.3115 26.2256 77.4932 25.3877 77.8564 24.6436C78.2256 23.8994 78.7354 23.3252 79.3857 22.9209C80.042 22.5166 80.7891 22.3145 81.627 22.3145C82.9219 22.3145 83.9678 22.7627 84.7646 23.6592C85.5674 24.5557 85.9688 25.748 85.9688 27.2363V27.3506C85.9688 28.2764 85.79 29.1084 85.4326 29.8467C85.0811 30.5791 84.5742 31.1504 83.9121 31.5605C83.2559 31.9707 82.5 32.1758 81.6445 32.1758C80.3555 32.1758 79.3096 31.7275 78.5068 30.8311C77.71 29.9346 77.3115 28.748 77.3115 27.2715V27.1572ZM78.9463 27.3506C78.9463 28.4053 79.1895 29.252 79.6758 29.8906C80.168 30.5293 80.8242 30.8486 81.6445 30.8486C82.4707 30.8486 83.127 30.5264 83.6133 29.8818C84.0996 29.2314 84.3428 28.3232 84.3428 27.1572C84.3428 26.1143 84.0938 25.2705 83.5957 24.626C83.1035 23.9756 82.4473 23.6504 81.627 23.6504C80.8242 23.6504 80.1768 23.9697 79.6846 24.6084C79.1924 25.2471 78.9463 26.1611 78.9463 27.3506ZM95.7773 32H94.1514V27.9395H89.7832V32H88.1484V22.4902H89.7832V26.6123H94.1514V22.4902H95.7773V32ZM105.463 23.8086H102.272V32H100.646V23.8086H97.5176V22.4902H105.463V23.8086ZM112.775 32C112.682 31.8125 112.605 31.4785 112.547 30.998C111.791 31.7832 110.889 32.1758 109.84 32.1758C108.902 32.1758 108.132 31.9121 107.528 31.3848C106.931 30.8516 106.632 30.1777 106.632 29.3633C106.632 28.373 107.007 27.6055 107.757 27.0605C108.513 26.5098 109.573 26.2344 110.938 26.2344H112.521V25.4873C112.521 24.9189 112.351 24.4678 112.011 24.1338C111.671 23.7939 111.17 23.624 110.508 23.624C109.928 23.624 109.441 23.7705 109.049 24.0635C108.656 24.3564 108.46 24.7109 108.46 25.127H106.825C106.825 24.6523 106.992 24.1953 107.326 23.7559C107.666 23.3105 108.123 22.959 108.697 22.7012C109.277 22.4434 109.913 22.3145 110.604 22.3145C111.7 22.3145 112.559 22.5898 113.18 23.1406C113.801 23.6855 114.123 24.4385 114.146 25.3994V29.7764C114.146 30.6494 114.258 31.3438 114.48 31.8594V32H112.775ZM110.077 30.7607C110.587 30.7607 111.07 30.6289 111.527 30.3652C111.984 30.1016 112.315 29.7588 112.521 29.3369V27.3857H111.246C109.254 27.3857 108.258 27.9688 108.258 29.1348C108.258 29.6445 108.428 30.043 108.768 30.3301C109.107 30.6172 109.544 30.7607 110.077 30.7607ZM119.657 27.9482H118.471V32H116.836V22.4902H118.471V26.5156H119.534L122.733 22.4902H124.702L120.94 27.0605L125.019 32H122.953L119.657 27.9482ZM133.482 23.8086H130.292V32H128.666V23.8086H125.537V22.4902H133.482V23.8086ZM136.84 25.7686H139.31C140.388 25.7803 141.24 26.0615 141.867 26.6123C142.494 27.1631 142.808 27.9102 142.808 28.8535C142.808 29.8027 142.485 30.5645 141.841 31.1387C141.196 31.7129 140.329 32 139.239 32H135.214V22.4902H136.84V25.7686ZM146.2 32H144.565V22.4902H146.2V32ZM136.84 27.0957V30.6729H139.257C139.866 30.6729 140.338 30.5176 140.672 30.207C141.006 29.8906 141.173 29.46 141.173 28.915C141.173 28.3877 141.009 27.957 140.681 27.623C140.358 27.2832 139.904 27.1074 139.318 27.0957H136.84Z" fill="white"/>
</svg>
