<svg width="244" height="52" viewBox="0 0 244 52" fill="none" xmlns="http://www.w3.org/2000/svg">
<rect width="244" height="52" fill="black"/>
<path d="M39.4355 28.4385H41.0264V30.1523H39.4355V33H37.2998V30.1523H31.7715L31.71 28.8516L37.2295 20.2031H39.4355V28.4385ZM33.9512 28.4385H37.2998V23.0947L37.1416 23.376L33.9512 28.4385ZM43.9092 30.75C44.3076 30.75 44.6152 30.8643 44.832 31.0928C45.0488 31.3154 45.1572 31.5967 45.1572 31.9365C45.1572 32.2705 45.0488 32.5488 44.832 32.7715C44.6152 32.9883 44.3076 33.0967 43.9092 33.0967C43.5283 33.0967 43.2266 32.9883 43.0039 32.7715C42.7812 32.5547 42.6699 32.2764 42.6699 31.9365C42.6699 31.5967 42.7783 31.3154 42.9951 31.0928C43.2119 30.8643 43.5166 30.75 43.9092 30.75ZM56.6973 24.8262L59.3867 20.2031H61.9531L58.0859 26.5488L62.041 33H59.4482L56.6973 28.3066L53.9375 33H51.3535L55.3174 26.5488L51.4414 20.2031H54.0078L56.6973 24.8262ZM70.8477 30.0205H65.8906L64.8535 33H62.542L67.376 20.2031H69.3711L74.2139 33H71.8936L70.8477 30.0205ZM66.5146 28.2275H70.2236L68.3691 22.9189L66.5146 28.2275ZM77.8965 28.2451V33H75.6729V20.2031H80.5684C81.998 20.2031 83.1318 20.5752 83.9697 21.3193C84.8135 22.0635 85.2354 23.0479 85.2354 24.2725C85.2354 25.5264 84.8223 26.502 83.9961 27.1992C83.1758 27.8965 82.0244 28.2451 80.542 28.2451H77.8965ZM77.8965 26.4609H80.5684C81.3594 26.4609 81.9629 26.2764 82.3789 25.9072C82.7949 25.5322 83.0029 24.9932 83.0029 24.29C83.0029 23.5986 82.792 23.0479 82.3701 22.6377C81.9482 22.2217 81.3682 22.0078 80.6299 21.9961H77.8965V26.4609ZM92.7852 30.0205H87.8281L86.791 33H84.4795L89.3135 20.2031H91.3086L96.1514 33H93.8311L92.7852 30.0205ZM88.4521 28.2275H92.1611L90.3066 22.9189L88.4521 28.2275ZM101.398 27.5156H99.8867V33H97.6719V20.2031H99.8867V25.582H101.108L104.87 20.2031H107.595L103.2 26.3291L107.981 33H105.31L101.398 27.5156ZM118.458 21.9961H114.468V33H112.262V21.9961H108.307V20.2031H118.458V21.9961ZM127.625 27.2871H122.369V31.2246H128.513V33H120.146V20.2031H128.451V21.9961H122.369V25.5293H127.625V27.2871ZM132.547 28.2451V33H130.323V20.2031H135.219C136.648 20.2031 137.782 20.5752 138.62 21.3193C139.464 22.0635 139.886 23.0479 139.886 24.2725C139.886 25.5264 139.473 26.502 138.646 27.1992C137.826 27.8965 136.675 28.2451 135.192 28.2451H132.547ZM132.547 26.4609H135.219C136.01 26.4609 136.613 26.2764 137.029 25.9072C137.445 25.5322 137.653 24.9932 137.653 24.29C137.653 23.5986 137.442 23.0479 137.021 22.6377C136.599 22.2217 136.019 22.0078 135.28 21.9961H132.547V26.4609ZM149.677 20.2031H151.9V33H149.677V23.8857L144.061 33H141.837V20.2031H144.061V29.3262L149.677 20.2031ZM164.328 28.834C164.199 30.1992 163.695 31.2656 162.816 32.0332C161.938 32.7949 160.769 33.1758 159.31 33.1758C158.29 33.1758 157.391 32.9355 156.611 32.4551C155.838 31.9688 155.24 31.2803 154.818 30.3896C154.396 29.499 154.177 28.4648 154.159 27.2871V26.0918C154.159 24.8848 154.373 23.8213 154.801 22.9014C155.229 21.9814 155.841 21.2725 156.638 20.7744C157.44 20.2764 158.366 20.0273 159.415 20.0273C160.827 20.0273 161.964 20.4111 162.825 21.1787C163.687 21.9463 164.188 23.0303 164.328 24.4307H162.113C162.008 23.5107 161.738 22.8486 161.305 22.4443C160.877 22.0342 160.247 21.8291 159.415 21.8291C158.448 21.8291 157.704 22.1836 157.183 22.8926C156.667 23.5957 156.403 24.6299 156.392 25.9951V27.1289C156.392 28.5117 156.638 29.5664 157.13 30.293C157.628 31.0195 158.354 31.3828 159.31 31.3828C160.183 31.3828 160.839 31.1865 161.278 30.7939C161.718 30.4014 161.996 29.748 162.113 28.834H164.328ZM175.306 21.9961H171.315V33H169.109V21.9961H165.154V20.2031H175.306V21.9961ZM184.833 20.2031H187.057V33H184.833V23.8857L179.217 33H176.993V20.2031H179.217V29.3262L184.833 20.2031ZM193.508 27.5156H191.996V33H189.781V20.2031H191.996V25.582H193.218L196.979 20.2031H199.704L195.31 26.3291L200.091 33H197.419L193.508 27.5156ZM209.161 20.2031H211.385V33H209.161V23.8857L203.545 33H201.321V20.2031H203.545V29.3262L209.161 20.2031Z" fill="white"/>
</svg>
