<svg width="258" height="29" viewBox="0 0 258 29" fill="none" xmlns="http://www.w3.org/2000/svg">
<path d="M19.2271 27.111C17.0157 28.6072 14.6814 28.9064 12.5928 28.9064C5.28285 28.9064 0 23.8792 0 16.2187C0 8.1991 5.77428 3.59082 12.47 3.59082C14.62 3.59082 17.1386 4.12945 19.2271 5.50595V12.4483C17.9371 11.0119 16.0328 9.5756 13.3914 9.5756C9.58285 9.5756 7.12571 12.5081 7.12571 16.4581C7.12571 20.1088 9.45999 22.9216 13.3914 22.9216C15.9714 22.9216 17.9371 21.605 19.2271 20.3482V27.111Z" fill="white"/>
<path d="M21.5615 16.2187C21.5615 9.81499 25.8001 3.59082 34.8301 3.59082C43.8601 3.59082 48.0372 9.87484 48.0372 16.2785C48.0372 22.6823 43.7986 28.9663 34.8301 28.9663C25.8615 28.9663 21.5615 22.6224 21.5615 16.2187ZM40.9115 16.2187C40.9115 11.6104 37.9629 9.27636 34.7687 9.27636C31.5744 9.27636 28.6258 11.5506 28.6258 16.2187C28.6258 20.827 31.5744 23.161 34.7687 23.161C37.9629 23.161 40.9115 20.8868 40.9115 16.2187Z" fill="white"/>
<path d="M50.8633 4.24902H58.1118L67.0804 18.3731V4.24902H73.7147V28.248H66.589L57.4976 13.8845V28.248H50.8633V4.24902Z" fill="white"/>
<path d="M91.4672 10.9521C90.3 9.93468 88.7643 8.85742 86.9829 8.85742C84.8943 8.85742 84.4029 10.0544 84.4029 10.8922C84.4029 12.3286 86.0615 12.7475 87.29 12.9869C90.9143 13.8248 94.9686 15.321 94.9686 21.0065C94.9686 25.7943 91.4672 28.9064 85.7543 28.9064C82.56 28.9064 80.1029 27.889 76.54 25.0762L79.7957 19.9891C81.7 21.7845 83.85 23.161 85.9386 23.161C87.2286 23.161 88.3343 22.5626 88.3343 21.1262C88.3343 18.9118 86.2458 18.6725 83.6043 17.8944C81.6386 17.296 77.7072 15.9793 77.7072 10.8324C77.7072 6.9423 80.5943 3.59082 86.3686 3.59082C90.2386 3.59082 92.88 5.26656 93.8629 5.92488L91.4672 10.9521Z" fill="white"/>
<path d="M102.339 9.99441H96.9336V4.24902H114.625V9.99441H109.219V28.1881H102.339V9.99441Z" fill="white"/>
<path d="M117.635 4.24902H127.832C136.063 4.24902 136.309 10.3535 136.309 11.4308C136.309 15.9792 133.483 17.8345 131.149 18.6125L138.029 28.1881H129.675L124.453 20.2882V28.1881H117.573V4.24902H117.635ZM126.173 15.0216C128.63 15.0216 129.429 13.6451 129.429 12.2686C129.429 10.952 128.63 9.51563 126.173 9.51563H124.515V15.0216H126.173Z" fill="white"/>
<path d="M139.688 18.5526V4.24902H146.568V18.3731C146.568 19.8693 146.876 23.1609 150.5 23.1609C154.186 23.1609 154.431 19.8693 154.431 18.3731V4.24902H161.311V18.5526C161.311 21.1261 160.758 28.9063 150.5 28.9063C140.241 28.9063 139.688 21.1261 139.688 18.5526Z" fill="white"/>
<path d="M166.656 4.24902H173.536L177.836 18.8519L182.136 4.24902H189.016L192.578 28.248H185.944L184.101 14.3633L179.924 28.248H175.686L171.508 14.3633L169.666 28.248H163.031L166.656 4.24902Z" fill="white"/>
<path d="M203.451 4.24902H211.806L220.528 28.248H213.157L211.806 24.1185H203.451L202.1 28.248H194.729L203.451 4.24902ZM204.803 18.792H210.454L207.629 9.99441L204.803 18.792Z" fill="white"/>
<path d="M230.48 15.6201L222.372 4.24902H230.603L234.289 10.7126L237.974 4.24902H245.714L238.036 15.261L247.004 28.1881H238.896L234.227 20.2882L229.313 28.1881H221.45L230.48 15.6201Z" fill="white"/>
<path d="M253.639 0C256.034 0 258 1.91513 258 4.24919C258 6.58325 256.034 8.49838 253.639 8.49838C251.243 8.49838 249.277 6.58325 249.277 4.24919C249.277 1.91513 251.243 0 253.639 0ZM253.639 7.78021C255.666 7.78021 257.263 6.16432 257.263 4.24919C257.263 2.33406 255.604 0.718173 253.639 0.718173C251.673 0.718173 250.014 2.33406 250.014 4.24919C250.014 6.16432 251.612 7.78021 253.639 7.78021ZM251.612 1.85528H253.884C254.99 1.85528 255.604 2.51361 255.604 3.35147C255.604 4.30904 254.99 4.54843 254.56 4.66813L255.727 6.6431H254.13L253.147 4.78782H253.086V6.6431H251.612V1.85528ZM253.086 3.83026H253.7C253.762 3.83026 254.069 3.83026 254.069 3.41132C254.069 3.23178 254.007 2.99239 253.577 2.99239H253.086V3.83026Z" fill="white"/>
</svg>
