<svg width="56" height="56" viewBox="0 0 56 56" fill="none" xmlns="http://www.w3.org/2000/svg">
<g clip-path="url(#clip0)">
<path d="M0.972336 1.19922L55.3008 1.19922L55.3008 55.035L0.972336 55.035L0.972336 1.19922Z" fill="white" stroke="black" stroke-width="2"/>
<path d="M23.8121 17.4072H25.947L24.3048 20.199C24.3048 20.199 24.3048 20.199 24.469 20.199C25.2901 20.199 25.947 20.3632 26.4397 20.8559C26.9324 21.3486 27.0966 22.0055 27.0966 22.8266C27.0966 23.6477 26.7681 24.3046 26.2755 24.7973C25.7828 25.2899 24.9617 25.4541 24.1406 25.4541C23.3195 25.4541 22.4984 25.2899 22.0057 24.7973C21.513 24.3046 21.1846 23.6477 21.1846 22.8266C21.1846 22.3339 21.3488 21.677 21.6772 21.1844L23.8121 17.4072ZM24.1406 23.6477C24.7975 23.6477 25.1259 23.3193 25.1259 22.6624C25.1259 22.0055 24.7975 21.677 24.1406 21.677C23.4837 21.677 23.1552 22.0055 23.1552 22.6624C23.1552 23.3193 23.4837 23.6477 24.1406 23.6477Z" fill="black"/>
<path d="M30.873 17.2432C31.6941 17.2432 32.351 17.4074 33.0079 17.9001C33.5006 18.3927 33.829 19.0496 33.829 19.8707V22.6625C33.829 23.4836 33.5006 24.1405 33.0079 24.6332C32.5152 25.1259 31.6941 25.2901 30.873 25.2901C30.0519 25.2901 29.395 25.1259 28.7381 24.6332C28.2454 24.1405 27.917 23.4836 27.917 22.6625V19.8707C27.917 19.0496 28.2454 18.3927 28.7381 17.9001C29.2308 17.5716 30.0519 17.2432 30.873 17.2432ZM30.873 23.6479C31.2014 23.6479 31.3657 23.6479 31.5299 23.4836C31.6941 23.3194 31.8583 23.1552 31.8583 22.8267V20.1992C31.8583 19.8707 31.6941 19.7065 31.5299 19.5423C31.3657 19.3781 31.0372 19.2138 30.873 19.2138C30.5446 19.2138 30.3803 19.3781 30.2161 19.5423C30.0519 19.7065 29.8877 19.8707 29.8877 20.1992V22.8267C29.8877 23.1552 30.0519 23.3194 30.2161 23.4836C30.2161 23.4836 30.5446 23.6479 30.873 23.6479Z" fill="black"/>
<path d="M23.8117 28.4101L25.6181 26.4395H26.1108V30.8735H24.9612V28.9028L23.9759 29.8881H23.8117L22.8263 28.9028V30.8735H21.6768V26.4395H22.1694L23.8117 28.4101Z" fill="black"/>
<path d="M26.7676 26.6035H30.3805V31.0375H29.2309V27.5889H27.9171V31.0375H26.7676V26.6035Z" fill="black"/>
<path d="M33.0079 30.5446C33.0079 30.7088 32.8437 30.873 32.6795 30.873C32.5153 30.873 32.3511 31.0372 32.0226 31.0372C31.6942 31.0372 31.5299 30.873 31.2015 30.7088C31.0373 30.5446 30.873 30.3803 30.873 30.0519C30.873 29.7234 31.0373 29.395 31.2015 29.2308C31.3657 29.0666 31.6942 28.9023 32.0226 28.9023C32.3511 28.9023 32.5153 28.9023 32.6795 29.0666V28.9023C32.6795 28.7381 32.5153 28.5739 32.0226 28.5739C31.6942 28.5739 31.3657 28.5739 31.2015 28.7381V28.0812C31.5299 27.917 31.8584 27.917 32.3511 27.917C32.8437 27.917 33.1722 28.0812 33.5006 28.2454C33.8291 28.4097 33.9933 28.7381 33.9933 29.2308V30.2161C33.9933 30.3803 33.9933 30.3803 33.9933 30.3803C33.9933 30.3803 33.9933 30.3803 33.9933 30.5446H34.1575V31.2015C33.5006 31.2015 33.0079 31.0372 33.0079 30.5446ZM32.8437 29.8877C32.6795 29.7234 32.5153 29.7234 32.3511 29.7234C32.1868 29.7234 32.1868 29.7234 32.0226 29.8877C32.0226 29.8877 32.0226 30.0519 32.0226 30.2161C32.0226 30.3803 32.1868 30.3803 32.3511 30.3803C32.5153 30.3803 32.5153 30.3803 32.6795 30.2161C32.6795 30.0519 32.8437 30.0519 32.8437 29.8877Z" fill="black"/>
<path d="M45.8177 35.8007H47.2957L43.0259 13.1379H35.4716C34.979 9.68925 31.8587 6.89746 28.2458 6.89746C24.6329 6.89746 21.5127 9.68925 20.8558 13.1379H13.7942L9.52441 35.8007H11.3309V43.0265H10.0171L12.4804 46.8036L14.7795 43.0265H13.63V35.8007H22.0054V43.0265H20.6916L23.1549 46.8036L25.6183 43.0265H24.4687V35.8007H32.6798V43.0265H31.3661L33.8294 46.8036L36.2927 43.0265H35.1432V35.8007H43.5186V43.0265H42.2048L44.6681 46.8036L47.1315 43.0265H45.9819V35.8007H45.8177ZM28.2458 9.3608C30.5449 9.3608 32.5156 11.003 33.1725 13.1379H23.4834C23.8118 11.003 25.7825 9.3608 28.2458 9.3608ZM15.7649 15.6013H41.0552L44.3397 33.5016H12.3162L15.7649 15.6013Z" fill="black"/>
<path d="M56.3283 46.6396H0.164062V48.9388H56.3283V46.6396Z" fill="black"/>
</g>
<defs>
<clipPath id="clip0">
<path d="M0 0H56V56H0V0Z" fill="white"/>
</clipPath>
</defs>
</svg>
