<svg width="56" height="56" viewBox="0 0 56 56" fill="none" xmlns="http://www.w3.org/2000/svg">
<g clip-path="url(#clip0)">
<path d="M1.16406 55V1H55.1641V55H1.16406Z" fill="white" stroke="black" stroke-width="2"/>
<path d="M38.2639 8.37529L34.651 6.07617V7.22573H22.9912V9.52485H34.651V10.8386L38.2639 8.37529Z" fill="black"/>
<path d="M38.2639 21.3489L34.651 19.0498V20.1994H22.9912V22.4985H34.651V23.8123L38.2639 21.3489Z" fill="black"/>
<path d="M38.2639 34.4868L34.651 32.0234V33.173H22.9912V35.6363H34.651V36.7859L38.2639 34.4868Z" fill="black"/>
<path d="M38.5921 47.4604L34.8149 44.9971V46.1466H23.3193V48.61H34.8149V49.9238L38.5921 47.4604Z" fill="black"/>
<path d="M40.5628 0H38.2637V56H40.5628V0Z" fill="black"/>
<path d="M23.3198 -0.164062H20.6923L20.3638 0.657052C19.7069 2.4635 19.7069 4.26996 20.3638 6.07641L21.3492 8.8682C21.6776 9.52509 21.6776 10.182 21.3492 10.8389L20.3638 13.3022C20.0354 14.1233 19.8712 14.7802 19.8712 15.6013C19.8712 15.6013 19.8712 15.6013 19.8712 15.7656C19.8712 15.7656 19.8712 15.7656 19.8712 15.9298C19.8712 16.9151 20.0354 17.9005 20.3638 18.7216L21.5134 21.8418C21.6776 22.4987 21.6776 23.1556 21.5134 23.8125L20.3638 26.7685C19.7069 28.5749 19.7069 30.3814 20.3638 32.1878L21.3492 34.9796C21.5134 35.6365 21.5134 36.2934 21.3492 36.7861L20.3638 39.2494C19.7069 41.0559 19.7069 43.0266 20.3638 44.6688L21.5134 47.789C21.6776 48.4459 21.6776 49.1028 21.5134 49.7597L20.3638 52.7157C19.8712 53.701 19.7069 54.8506 19.8712 56.0002H22.3345C22.1703 55.179 22.3345 54.3579 22.6629 53.5368L23.8125 50.5808C24.3052 49.4312 24.3052 48.1175 23.8125 46.9679L22.6629 43.8477C22.1703 42.6981 22.1703 41.3843 22.6629 40.0705L23.6483 37.6072C24.1409 36.4576 24.1409 35.1439 23.6483 33.9943L22.4987 31.2025C22.0061 30.0529 22.0061 28.7392 22.4987 27.5896L23.6483 24.6336C24.1409 23.484 24.1409 22.1702 23.6483 21.0207L22.4987 17.9005C22.1703 17.2436 22.1703 16.5867 22.1703 15.9298C22.1703 15.4371 22.3345 14.7802 22.4987 14.2876L23.4841 11.8242C23.9767 10.6746 23.9767 9.36086 23.4841 8.04708L22.4987 5.41952C22.0061 4.26995 22.0061 2.95617 22.4987 1.80661L23.3198 -0.164062Z" fill="black"/>
<path d="M18.721 0H16.0935L15.9293 0.656892C15.2724 2.46334 15.2724 4.26979 15.9293 6.07625L16.9146 8.70381C17.243 9.3607 17.243 10.0176 16.9146 10.6745L15.9293 13.3021C15.6008 13.9589 15.4366 14.7801 15.4366 15.6012C15.4366 15.6012 15.4366 15.6012 15.4366 15.7654C15.4366 15.7654 15.4366 15.7654 15.4366 15.9296C15.4366 16.915 15.6008 17.9003 15.9293 18.7214L17.0788 21.8416C17.243 22.4985 17.243 23.1554 17.0788 23.8123L15.9293 26.7683C15.2724 28.5748 15.2724 30.3812 15.9293 32.1877L16.9146 34.9795C17.0788 35.6364 17.0788 36.2933 16.9146 36.7859L15.9293 39.2493C15.2724 41.0557 15.2724 43.0264 15.9293 44.6686L17.0788 47.7889C17.243 48.4458 17.243 49.1026 17.0788 49.7595L15.9293 52.7155C15.4366 53.7009 15.2724 54.8504 15.4366 56H17.8999C17.7357 55.1789 17.8999 54.3578 18.2284 53.5367L19.3779 50.5806C19.8706 49.4311 19.8706 48.1173 19.3779 46.9677L18.0642 43.8475C17.5715 42.698 17.5715 41.3842 18.0642 40.0704L19.0495 37.607C19.5422 36.4575 19.5422 35.1437 19.0495 33.9941L18.0642 31.2023C17.5715 30.0528 17.5715 28.739 18.0642 27.5894L19.2137 24.6334C19.7064 23.4839 19.7064 22.1701 19.2137 21.0205L18.0642 17.7361C17.7357 17.0792 17.7357 16.4223 17.7357 15.7654C17.7357 15.2727 17.8999 14.6158 18.0642 14.1232L19.0495 11.6598C19.5422 10.5103 19.5422 9.19648 19.0495 7.8827L18.0642 5.25513C17.5715 4.10557 17.5715 2.79179 18.0642 1.64223L18.721 0Z" fill="black"/>
</g>
<defs>
<clipPath id="clip0">
<path d="M0 0H56V56H0V0Z" fill="white"/>
</clipPath>
</defs>
</svg>
