<svg width="56" height="56" viewBox="0 0 56 56" fill="none" xmlns="http://www.w3.org/2000/svg">
<path d="M1.16406 55V1H54.9998V55H1.16406Z" fill="white" stroke="black" stroke-width="2"/>
<path d="M19.7063 0H17.4072V56H19.7063V0Z" fill="black"/>
<path d="M33.6649 47.1323L30.052 44.6689V45.8185H14.7793V48.1176H30.052V49.4314L33.6649 47.1323Z" fill="black"/>
<path d="M33.0085 34.3226L29.3956 32.0234V33.173H14.2871V35.4721H29.3956V36.6217L33.0085 34.3226Z" fill="black"/>
<path d="M33.0085 21.677L29.3956 19.3779V20.5275H14.2871V22.8266H29.3956V24.1404L33.0085 21.677Z" fill="black"/>
<path d="M33.0085 9.03252L29.3956 6.7334V7.88296H14.2871V10.1821H29.3956V11.3316L33.0085 9.03252Z" fill="black"/>
<path d="M38.5921 0H36.293V56H38.5921V0Z" fill="black"/>
</svg>
