<svg width="56" height="56" viewBox="0 0 56 56" fill="none" xmlns="http://www.w3.org/2000/svg">
<g clip-path="url(#clip0)">
<path d="M1 55.3283V1.16406H55.1642V55.3283H1Z" fill="white" stroke="black" stroke-width="2"/>
<path d="M38.2635 20.5279L32.8441 15.1086L34.3221 13.6306L30.2166 9.525L28.7386 11.003L22.6623 4.92676L12.9732 14.7801L18.2283 20.0353L2.46289 35.8007L6.89691 40.2347L22.6623 24.4693L28.5743 30.3813L38.2635 20.5279ZM6.89691 36.786L5.91157 35.8007L19.8705 21.8417L20.8559 22.8271L6.89691 36.786ZM22.6623 8.37544L34.8148 20.5279L28.4101 26.9326L16.4218 14.7801L22.6623 8.37544Z" fill="black"/>
<path d="M43.8474 0.164062H39.085V56.3283H43.8474V0.164062Z" fill="black"/>
</g>
<defs>
<clipPath id="clip0">
<path d="M0 0H56V56H0V0Z" fill="white"/>
</clipPath>
</defs>
</svg>
