<svg width="56" height="56" viewBox="0 0 56 56" fill="none" xmlns="http://www.w3.org/2000/svg">
<g clip-path="url(#clip0)">
<path d="M1.16406 55.1641V1.16406H55.1641V55.1641H1.16406Z" fill="white" stroke="black" stroke-width="2"/>
<path d="M41.548 16.2586L38.4277 13.4668H37.4424V20.5284H40.0699V18.065L41.3837 19.2146H41.548L42.8617 18.065V20.5284H45.4893V13.4668H44.6682L41.548 16.2586Z" fill="black"/>
<path d="M48.9378 14.2877C49.7589 13.1381 49.9231 12.9739 49.9231 12.8097C50.0874 12.4812 50.2516 12.1528 50.4158 11.6601C50.4158 11.3317 50.4158 11.0032 50.2516 10.6748C50.0874 10.3463 49.9231 10.1821 49.5947 10.0179C49.2662 9.85368 48.9378 9.68945 48.6093 9.68945C47.9525 9.68945 47.4598 9.85368 47.1313 10.1821C46.8029 10.5106 46.6387 11.0032 46.6387 11.6601V11.8244H48.1167V11.6601C48.1167 11.4959 48.1167 11.3317 48.2809 11.3317C48.4451 11.3317 48.4451 11.1675 48.6093 11.1675C48.7736 11.1675 48.9378 11.1675 48.9378 11.3317C48.9378 11.4959 48.9378 11.6601 48.9378 11.8244C48.9378 11.9886 48.7736 12.1528 48.6093 12.317L46.6387 15.273V15.7657H50.58V14.2877H48.9378Z" fill="black"/>
<path d="M36.129 22.6631C32.1876 22.6631 27.9178 24.798 24.9618 28.2467V28.4109V28.2467C22.0058 24.798 17.736 22.6631 13.7946 22.6631C10.0175 22.6631 6.07617 24.798 6.07617 30.8742C6.07617 36.9505 10.0175 39.0854 13.7946 39.0854C17.736 39.0854 22.0058 36.9505 24.9618 33.5018V33.3376V33.5018C27.9178 36.9505 32.1876 39.0854 36.129 39.0854C39.9061 39.0854 43.8474 36.9505 43.8474 30.8742C43.8474 24.9622 39.7419 22.6631 36.129 22.6631ZM22.8269 31.0385C20.5278 33.9945 16.7507 36.1294 13.6304 36.1294C10.6744 36.1294 9.19641 34.4871 9.19641 31.0385C9.19641 27.5898 10.6744 25.9475 13.6304 25.9475C16.7507 25.9475 20.5278 27.9182 22.8269 31.0385ZM36.129 36.1294C33.0087 36.1294 29.2316 34.1587 26.9325 31.0385C29.2316 28.0824 33.0087 25.9475 36.129 25.9475C39.085 25.9475 40.563 27.754 40.563 31.0385C40.563 34.4871 39.085 36.1294 36.129 36.1294Z" fill="black"/>
</g>
<defs>
<clipPath id="clip0">
<path d="M0 0H56V56H0V0Z" fill="white"/>
</clipPath>
</defs>
</svg>
