<svg width="56" height="56" viewBox="0 0 56 56" fill="none" xmlns="http://www.w3.org/2000/svg">
<g clip-path="url(#clip0)">
<path d="M0.835938 54.9998V1.16406H55.1644V54.9998H0.835938Z" fill="white" stroke="black" stroke-width="2" stroke-miterlimit="10"/>
<path d="M29.396 12.4805H26.9326V43.3544H29.396V12.4805Z" fill="black"/>
<path d="M28.5656 16.1301L24.9658 12.5303L23.3401 14.156L26.9399 17.7558L28.5656 16.1301Z" fill="black"/>
<path d="M29.2987 17.6447L32.8984 14.0449L31.2727 12.4192L27.6729 16.019L29.2987 17.6447Z" fill="black"/>
<path d="M27.0226 37.8807L23.4229 41.4805L25.0486 43.1062L28.6483 39.5064L27.0226 37.8807Z" fill="black"/>
<path d="M27.7557 39.452L31.3555 43.0518L32.9812 41.4261L29.3814 37.8263L27.7557 39.452Z" fill="black"/>
<path d="M18.1969 16.098L16.4551 17.8398L38.286 39.6708L40.0278 37.9289L18.1969 16.098Z" fill="black"/>
<path d="M20.2003 19.2139H15.1094V21.513H20.2003V19.2139Z" fill="black"/>
<path d="M21.8213 19.8116L21.8213 14.7207L19.5222 14.7207L19.5222 19.8116L21.8213 19.8116Z" fill="black"/>
<path d="M34.5068 35.8583V40.9492H36.806V35.8583H34.5068Z" fill="black"/>
<path d="M36.247 36.292L41.3379 36.292L41.3379 33.9929L36.247 33.9929L36.247 36.292Z" fill="black"/>
<path d="M39.8649 17.8375L38.123 16.0957L16.2921 37.9266L18.0339 39.6685L39.8649 17.8375Z" fill="black"/>
<path d="M36.7393 19.6739V14.583H34.4401V19.6739H36.7393Z" fill="black"/>
<path d="M36.1542 21.4727L41.2451 21.4727L41.2451 19.1735L36.1542 19.1735L36.1542 21.4727Z" fill="black"/>
<path d="M20.2003 34.1582H15.1094V36.4573H20.2003V34.1582Z" fill="black"/>
<path d="M19.6602 35.7919L19.6602 40.8828L21.9593 40.8828L21.9593 35.7919L19.6602 35.7919Z" fill="black"/>
<path d="M43.6465 29.019V26.5557L12.7726 26.5557V29.019L43.6465 29.019Z" fill="black"/>
<path d="M39.9022 28.1935L43.502 24.5938L41.8762 22.968L38.2765 26.5678L39.9022 28.1935Z" fill="black"/>
<path d="M38.3231 28.9901L41.9229 32.5898L43.5486 30.9641L39.9488 27.3644L38.3231 28.9901Z" fill="black"/>
<path d="M18.0861 26.6428L14.4863 23.043L12.8606 24.6687L16.4604 28.2685L18.0861 26.6428Z" fill="black"/>
<path d="M16.507 27.3836L12.9072 30.9834L14.5329 32.6091L18.1327 29.0093L16.507 27.3836Z" fill="black"/>
</g>
<defs>
<clipPath id="clip0">
<path d="M0 0H56V56H0V0Z" fill="white"/>
</clipPath>
</defs>
</svg>
