<svg width="56" height="56" viewBox="0 0 56 56" fill="none" xmlns="http://www.w3.org/2000/svg">
<g clip-path="url(#clip0)">
<path d="M1.06656 1.0127L54.9023 1.0127L54.9023 55.1769L1.06656 55.1769L1.06656 1.0127Z" fill="white" stroke="black" stroke-width="2"/>
<path d="M32.6802 21.0207C32.6802 20.8565 32.5159 20.528 32.5159 20.528L28.0819 12.8096L23.6479 20.528C23.6479 20.528 23.4837 20.8565 23.4837 21.0207C23.1552 21.8418 22.991 22.8272 23.1552 23.8125C23.4837 25.7832 24.9617 27.5896 26.9324 27.9181C27.2608 28.0823 28.0819 28.0823 28.2462 28.0823C28.4104 28.0823 29.0673 28.0823 29.3957 27.9181C31.3664 27.4254 32.8444 25.7832 33.1728 23.8125C33.1728 22.8272 33.1728 21.8418 32.6802 21.0207ZM28.5746 26.1116C28.5746 26.1116 28.4104 26.1116 28.0819 26.1116C27.9177 26.1116 27.5893 26.1116 27.5893 26.1116C26.1113 25.9474 24.9617 24.4694 24.9617 22.9914C24.9617 22.6629 25.1259 22.1703 25.2901 21.8418L25.4544 21.5134L28.2462 16.7509L31.0379 21.5134C31.0379 21.5134 31.2022 21.6776 31.2022 21.8418C31.3664 22.1703 31.3664 22.6629 31.5306 22.9914C31.2022 24.4694 30.0526 25.7832 28.5746 26.1116Z" fill="black"/>
<path d="M55.9998 46.8037H0.164062V49.1028H55.9998V46.8037Z" fill="black"/>
<path d="M40.5629 22.6627L41.384 23.4838L28.082 36.7859L0.164062 7.06152V10.5102L28.082 40.2345L43.0262 25.2903L43.8473 26.1114L44.6685 21.8416L40.5629 22.6627Z" fill="black"/>
<path d="M40.5629 29.232L41.384 30.0531L28.082 43.3552L0.164062 13.6309V17.0795L28.082 46.8039L43.0262 31.8596L43.8473 32.6807L44.6685 28.4109L40.5629 29.232Z" fill="black"/>
</g>
<defs>
<clipPath id="clip0">
<path d="M0 0H56V56H0V0Z" fill="white"/>
</clipPath>
</defs>
</svg>
