<svg width="56" height="56" viewBox="0 0 56 56" fill="none" xmlns="http://www.w3.org/2000/svg">
<path d="M1 54.8358V1H55V54.8358H1Z" fill="white" stroke="black" stroke-width="2"/>
<path d="M33.1729 12.9734H35.472C35.472 13.3018 35.6362 13.466 35.8004 13.6303C35.9646 13.7945 36.2931 13.9587 36.6215 13.9587C36.95 13.9587 37.2784 13.7945 37.4426 13.6303C37.6069 13.466 37.7711 13.1376 37.7711 12.8091C37.7711 12.4807 37.6069 12.1523 37.6069 11.988C37.4426 11.8238 37.2784 11.6596 36.95 11.6596C36.4573 11.4954 36.2931 11.4954 35.9646 11.4954C35.6362 11.4954 35.3077 11.4954 35.1435 11.4954V11.1669L36.6215 8.21091H33.6655V6.24023H39.906V6.56868L38.0995 9.85314C39.4133 10.1816 40.0702 11.1669 40.0702 12.8091C40.0702 13.6303 39.7418 14.4514 39.0849 15.1083C38.428 15.7652 37.6069 16.0936 36.6215 16.0936C35.6362 16.0936 34.8151 15.7652 34.3224 15.2725C33.5013 14.7798 33.1729 13.9587 33.1729 12.9734Z" fill="black"/>
<path d="M45.1608 6.07617C46.1461 6.07617 47.1314 6.40462 47.7883 6.89729C48.4452 7.55418 48.7737 8.37529 48.7737 9.36063V12.8093C48.7737 13.7946 48.4452 14.6158 47.7883 15.2727C47.1314 15.9295 46.3103 16.0938 45.1608 16.0938C44.1754 16.0938 43.1901 15.7653 42.5332 15.2727C41.8763 14.6158 41.5479 13.7946 41.5479 12.8093V9.36063C41.5479 8.37529 41.8763 7.55418 42.5332 6.89729C43.1901 6.40462 44.0112 6.07617 45.1608 6.07617ZM45.1608 13.9589C45.4892 13.9589 45.8176 13.7946 46.1461 13.6304C46.3103 13.4662 46.4745 13.1378 46.4745 12.8093V9.52485C46.4745 9.19641 46.3103 8.86796 46.1461 8.70374C45.8176 8.37529 45.4892 8.21107 45.1608 8.21107C44.8323 8.21107 44.5039 8.37529 44.1754 8.53951C43.847 8.70374 43.847 9.03218 43.847 9.36063V12.6451C43.847 12.9735 44.0112 13.302 44.1754 13.4662C44.5039 13.7946 44.8323 13.9589 45.1608 13.9589Z" fill="black"/>
<path d="M32.5165 26.1112L26.9329 20.5276L24.4696 22.9909C23.1558 22.334 21.6778 21.8414 20.1998 21.5129V19.7065H21.6778V15.2725H14.2878V19.7065H15.7658V21.5129C8.86841 22.4983 3.61328 28.4103 3.61328 35.6361C3.61328 43.5188 10.018 49.9235 17.9007 49.9235C25.7834 49.9235 32.1881 43.5188 32.1881 35.6361C32.1881 33.0085 31.5312 30.5452 30.2174 28.4103L32.5165 26.1112ZM26.7687 43.683L25.2907 42.205L24.798 42.6977L26.276 44.3399C24.3054 46.1464 21.6778 47.4601 18.886 47.6244V45.4895H17.408V47.6244C14.452 47.4601 11.6602 46.1464 9.68953 44.1757L11.1675 42.6977L10.6749 42.205L9.19686 43.683C7.39041 41.7123 6.24085 39.0848 6.07662 36.1288H8.21152V34.4865H6.07662C6.40507 31.6947 7.55463 29.2314 9.36108 27.2607L10.8391 28.7387L11.3318 28.2461L9.85375 26.7681C11.6602 25.1258 13.9593 23.9763 16.5869 23.6478H17.408V25.4543H18.886V23.6478H19.3787C21.842 23.9763 24.1411 24.9616 25.9476 26.6038L24.6338 28.0818L25.1265 28.5745L26.4403 27.2607C28.2467 29.2314 29.5605 31.6947 29.7247 34.4865H27.9183V36.1288H29.8889C29.7247 39.0848 28.5752 41.7123 26.7687 43.683Z" fill="black"/>
<path d="M18.5576 26.9326V30.0529C21.6779 30.0529 24.1412 32.6804 24.1412 35.6364C24.1412 38.7567 21.6779 41.22 18.5576 41.22V44.3402C23.3201 44.3402 27.0972 40.3989 27.0972 35.6364C27.0972 30.874 23.3201 27.0968 18.5576 26.9326Z" fill="black"/>
<path d="M38.0997 20.6924H36.4575C36.2932 20.3639 36.129 20.1997 35.6364 20.1997C35.3079 20.1997 35.1437 20.3639 34.9795 20.5281C34.8152 20.6924 34.651 21.0208 34.651 21.3492C34.651 21.6777 34.8152 22.0061 34.9795 22.1704C35.1437 22.3346 35.3079 22.4988 35.6364 22.4988C35.8006 22.4988 35.9648 22.4988 36.129 22.3346C36.2932 22.1704 36.4575 22.0061 36.4575 21.8419H38.0997C38.0997 22.4988 37.7712 22.9915 37.2786 23.3199C36.7859 23.6484 36.2932 23.8126 35.6364 23.8126C34.9795 23.8126 34.3226 23.6484 33.8299 23.1557C33.3372 22.663 33.0088 22.1704 33.0088 21.3492C33.0088 20.8566 33.0088 20.5281 33.173 20.1997C33.3372 19.8712 33.5015 19.5428 33.8299 19.3786C34.1583 19.2143 34.3226 19.0501 34.651 18.8859C34.9795 18.7217 35.3079 18.7217 35.6364 18.7217C36.2932 18.7217 36.7859 18.8859 37.2786 19.2143C37.607 19.5428 37.9355 20.0355 38.0997 20.6924Z" fill="black"/>
<path d="M41.2195 18.7217C42.0406 18.7217 42.6975 19.0501 43.1902 19.5428C43.5186 20.0355 43.6829 20.8566 43.3544 21.6777H40.3984C40.3984 22.1704 40.8911 22.4988 41.548 22.4988C41.8764 22.4988 42.2049 22.4988 42.3691 22.3346C42.6975 22.3346 42.8618 22.1704 43.026 22.1704L43.1902 23.3199C42.5333 23.6484 41.8764 23.8126 41.2195 23.8126C40.3984 23.8126 39.7415 23.6484 39.2488 23.1557C38.7562 22.663 38.4277 22.0061 38.4277 21.3492C38.4277 20.8566 38.592 20.3639 38.7562 19.8712C39.0846 19.5428 39.4131 19.2143 39.7415 19.0501C40.3984 18.7217 40.7269 18.7217 41.2195 18.7217ZM40.3984 20.5281H42.0406C42.0406 20.3639 42.0406 20.1997 41.8764 20.0355C41.7122 19.8712 41.548 19.8712 41.3837 19.8712C41.2195 19.8712 41.0553 19.8712 40.8911 20.0355C40.5626 20.1997 40.3984 20.3639 40.3984 20.5281Z" fill="black"/>
<path d="M46.146 20.528H46.3102C46.4744 20.528 46.8029 20.528 46.9671 20.3637C47.1313 20.1995 47.2955 20.1995 47.2955 20.0353C47.2955 19.8711 47.4598 19.7069 47.4598 19.5426C47.4598 19.3784 47.4598 19.2142 47.4598 18.8857H49.102C49.102 19.3784 49.102 19.8711 48.9378 20.3637C48.7735 20.6922 48.4451 21.0206 48.1166 21.3491L49.4304 23.6482V23.8124H47.7882L46.8029 22.006C46.8029 22.006 46.6386 22.006 46.4744 22.006H46.3102V23.8124H44.668V19.05H46.3102V20.528H46.146Z" fill="black"/>
</svg>
