<svg width="56" height="56" viewBox="0 0 56 56" fill="none" xmlns="http://www.w3.org/2000/svg">
<path d="M1 54.9998V1.16406H54.8358V54.9998H1Z" fill="white" stroke="black" stroke-width="2"/>
<path d="M6.07693 36.293L2.2998 42.205H10.0183L6.07693 36.293Z" fill="black"/>
<path d="M14.9443 42.205L18.7214 36.293H11.0029L14.9443 42.205Z" fill="black"/>
<path d="M23.6484 36.293L19.707 42.205H27.4255L23.6484 36.293Z" fill="black"/>
<path d="M32.3515 42.205L36.1286 36.293H28.4102L32.3515 42.205Z" fill="black"/>
<path d="M41.0556 36.293L37.1143 42.205H44.997L41.0556 36.293Z" fill="black"/>
<path d="M49.7595 42.205L53.7009 36.293H45.9824L49.7595 42.205Z" fill="black"/>
<path d="M28.0817 28.261L42.8617 13.3167L43.5186 14.1378L44.5039 9.86804L40.3984 10.6891L41.2195 11.6745L28.0817 24.8123L5.58313 1H2.46289L28.0817 28.261Z" fill="black"/>
<path d="M32.6804 10.3457C32.6804 10.1815 32.5162 9.85308 32.5162 9.85308L28.0822 2.29883L23.6482 9.85308C23.6482 9.85308 23.4839 10.1815 23.4839 10.3457C22.9913 11.1669 22.827 12.1522 22.9913 12.9733C23.3197 14.944 24.7977 16.5862 26.7684 17.0789C27.0968 17.2431 27.918 17.2431 28.0822 17.2431C28.2464 17.2431 28.9033 17.2431 29.2317 17.0789C31.2024 16.5862 32.6804 14.944 33.0089 12.9733C33.1731 12.1522 33.0089 11.1669 32.6804 10.3457ZM28.5748 15.4367C28.5748 15.4367 28.4106 15.4367 28.0822 15.4367C27.918 15.4367 27.5895 15.4367 27.5895 15.4367C26.1115 15.2724 24.9619 13.7944 24.9619 12.3164C24.9619 11.988 25.1262 11.4953 25.2904 11.1669L25.4546 10.8384L28.2464 6.07595L31.0382 10.8384C31.0382 10.8384 31.2024 11.0026 31.2024 11.1669C31.0382 11.4953 31.2024 11.8238 31.2024 12.1522C31.2024 13.7944 30.0529 15.1082 28.5748 15.4367Z" fill="black"/>
<path d="M0.5 27.5H54.5" stroke="black" stroke-width="2"/>
<path d="M0.5 50H54.5" stroke="black" stroke-width="2"/>
</svg>
