<svg width="56" height="56" viewBox="0 0 56 56" fill="none" xmlns="http://www.w3.org/2000/svg">
<path d="M1.16406 54.8358V1H54.9998V54.8358H1.16406Z" fill="white" stroke="black" stroke-width="2"/>
<path d="M19.2137 16.4219L15.4365 22.4981H23.155L19.2137 16.4219Z" fill="black"/>
<path d="M28.082 49.5957L6.56875 19.0503H0.164062V16.7511H7.71831L28.082 45.6544L48.6098 16.5869H55.9998V18.886H49.9236L28.082 49.5957Z" fill="black"/>
<path d="M28.082 16.4219L24.1406 22.4981H31.8591L28.082 16.4219Z" fill="black"/>
<path d="M37.7714 16.4219L33.8301 22.4981H41.5485L37.7714 16.4219Z" fill="black"/>
<path d="M23.3191 23.8125L19.542 29.8887H27.2605L23.3191 23.8125Z" fill="black"/>
<path d="M33.0086 23.8125L29.2314 29.8887H36.9499L33.0086 23.8125Z" fill="black"/>
<path d="M28.082 31.5312L24.1406 37.4433H31.8591L28.082 31.5312Z" fill="black"/>
</svg>
