<svg width="26" height="32" viewBox="0 0 26 32" fill="none" xmlns="http://www.w3.org/2000/svg">
<path d="M0 2C0 0.895431 0.895431 0 2 0H19L22.5 3.5L26 7V30C26 31.1046 25.1046 32 24 32H2C0.89543 32 0 31.1046 0 30V2Z" fill="black"/>
<path d="M5.11523 23.6602V27H3.99023V18.4688H7.13672C8.07031 18.4688 8.80078 18.707 9.32812 19.1836C9.85938 19.6602 10.125 20.291 10.125 21.0762C10.125 21.9043 9.86523 22.543 9.3457 22.9922C8.83008 23.4375 8.08984 23.6602 7.125 23.6602H5.11523ZM5.11523 22.7402H7.13672C7.73828 22.7402 8.19922 22.5996 8.51953 22.3184C8.83984 22.0332 9 21.623 9 21.0879C9 20.5801 8.83984 20.1738 8.51953 19.8691C8.19922 19.5645 7.75977 19.4062 7.20117 19.3945H5.11523V22.7402ZM11.0449 23.7773C11.0449 22.8047 11.2754 22.0234 11.7363 21.4336C12.1973 20.8398 12.8008 20.543 13.5469 20.543C14.2891 20.543 14.877 20.7969 15.3105 21.3047V18H16.3945V27H15.3984L15.3457 26.3203C14.9121 26.8516 14.3086 27.1172 13.5352 27.1172C12.8008 27.1172 12.2012 26.8164 11.7363 26.2148C11.2754 25.6133 11.0449 24.8281 11.0449 23.8594V23.7773ZM12.1289 23.9004C12.1289 24.6191 12.2773 25.1816 12.5742 25.5879C12.8711 25.9941 13.2812 26.1973 13.8047 26.1973C14.4922 26.1973 14.9941 25.8887 15.3105 25.2715V22.3594C14.9863 21.7617 14.4883 21.4629 13.8164 21.4629C13.2852 21.4629 12.8711 21.668 12.5742 22.0781C12.2773 22.4883 12.1289 23.0957 12.1289 23.9004ZM18.6152 27V21.498H17.6133V20.6602H18.6152V20.0098C18.6152 19.3301 18.7969 18.8047 19.1602 18.4336C19.5234 18.0625 20.0371 17.877 20.7012 17.877C20.9512 17.877 21.1992 17.9102 21.4453 17.9766L21.3867 18.8555C21.2031 18.8203 21.0078 18.8027 20.8008 18.8027C20.4492 18.8027 20.1777 18.9062 19.9863 19.1133C19.7949 19.3164 19.6992 19.6094 19.6992 19.9922V20.6602H21.0527V21.498H19.6992V27H18.6152Z" fill="white"/>
<path d="M19 7V0L26 7H19Z" fill="white"/>
</svg>
