<svg width="56" height="56" viewBox="0 0 56 56" fill="none" xmlns="http://www.w3.org/2000/svg">
<g clip-path="url(#clip0)">
<path d="M1 55.3284V1H55V55.3284H1Z" fill="white" stroke="black" stroke-width="2"/>
<path d="M42.3694 28.7393C41.5483 28.0824 40.3987 27.5898 39.4134 27.5898H33.0087V22.9915C33.0087 20.8566 32.3518 19.2144 31.038 18.2291C29.0673 16.7511 26.2755 17.5722 26.1113 17.5722C25.6186 17.7364 25.2902 18.2291 25.2902 18.7217V24.1411C25.2902 25.7833 24.4691 27.2613 22.9911 28.4109C22.4984 28.7393 22.0057 29.0678 21.6773 29.232V28.2467H13.1377V48.7745H21.6773V48.1176C22.17 48.2819 22.8268 48.4461 23.3195 48.4461H36.7858C38.0996 48.4461 39.2491 48.1176 40.2345 47.4607C41.384 46.6396 42.0409 45.4901 42.3694 43.8478L44.1758 33.0091C44.34 31.5311 43.6832 29.7247 42.3694 28.7393ZM19.3782 46.4754H15.4368V30.71H19.3782V46.4754ZM41.8767 32.8449L40.0702 43.6836C40.0702 44.3405 39.7418 46.3112 36.7858 46.3112H23.3195C22.6626 46.3112 22.0057 45.9827 21.6773 45.6543V31.8596C22.3342 31.6953 23.3195 31.2027 24.3049 30.5458C26.4397 28.9036 27.7535 26.9329 27.7535 24.4695V19.7071C28.4104 19.7071 29.2315 19.7071 29.8884 20.1997C30.5453 20.6924 30.8738 21.6778 30.8738 23.1558V28.9036C30.8738 29.5605 31.3664 30.0531 32.0233 30.0531H39.4134C39.906 30.0531 40.5629 30.2173 41.0556 30.71C41.7125 31.0385 42.0409 31.8596 41.8767 32.8449Z" fill="black"/>
<path d="M53.5367 5.58349L50.9091 6.73305C50.2522 6.89727 49.5953 6.89727 48.9384 6.73305L46.4751 5.74771C45.8182 5.41927 44.9971 5.25504 44.176 5.25504C44.176 5.25504 44.176 5.25504 44.0117 5.25504C44.0117 5.25504 44.0117 5.25504 43.8475 5.25504C42.8622 5.25504 42.0411 5.41927 41.0557 5.74771L38.0997 6.89727C37.4428 7.0615 36.7859 7.0615 36.2933 6.89727L33.3372 5.74771C31.695 5.09082 29.7243 5.09082 28.0821 5.74771L25.4545 6.73305C24.7977 6.89727 24.305 6.89727 23.6481 6.73305L21.349 5.74771C19.7067 5.09082 17.7361 5.09082 16.0938 5.74771L12.9736 6.89727C12.3167 7.0615 11.6598 7.0615 11.1672 6.89727L8.21114 5.74771C6.40469 4.9266 4.59824 4.9266 2.79179 5.58349L0.328446 6.73305C0.164223 6.73305 0.164223 6.73305 0 6.73305V9.19639C0.328446 9.19639 0.821114 9.03217 1.14956 8.86795L3.77713 7.88261C4.92669 7.38994 6.24047 7.38994 7.39003 7.88261L10.346 9.03217C11.4956 9.52484 12.8094 9.52484 13.9589 9.03217L16.915 7.88261C18.0645 7.38994 19.3783 7.38994 20.5279 7.88261L22.9912 8.86795C24.1408 9.36062 25.4545 9.36062 26.4399 8.86795L29.0675 7.88261C30.217 7.38994 31.5308 7.38994 32.6804 7.88261L35.6364 9.03217C36.7859 9.52484 38.0997 9.52484 39.2493 9.03217L42.2053 7.88261C42.8622 7.55416 43.5191 7.55416 44.176 7.55416C44.6686 7.55416 45.1613 7.71839 45.8182 7.88261L48.2815 8.86795C49.4311 9.36062 50.7449 9.36062 51.8944 8.86795L54.522 7.88261C55.0147 7.71839 55.5073 7.55416 56.1642 7.55416V5.09082C55.0147 5.25504 54.1936 5.41927 53.5367 5.58349Z" fill="black"/>
<path d="M53.5367 11.6597L50.9091 12.645C50.2522 12.8092 49.5953 12.8092 48.9384 12.645L46.4751 11.6597C45.8182 11.3312 44.9971 11.167 44.176 11.167C44.176 11.167 44.176 11.167 44.0117 11.167C44.0117 11.167 44.0117 11.167 43.8475 11.167C42.8622 11.167 42.0411 11.3312 41.0557 11.6597L38.0997 12.8092C37.4428 12.9734 36.7859 12.9734 36.2933 12.8092L33.3372 11.6597C31.695 11.0028 29.7243 11.0028 28.0821 11.6597L25.4545 12.645C24.7977 12.8092 24.305 12.8092 23.6481 12.645L21.349 11.6597C19.7067 11.0028 17.7361 11.0028 16.0938 11.6597L12.9736 12.8092C12.3167 12.9734 11.6598 12.9734 11.1672 12.8092L8.21114 11.6597C6.56892 11.0028 4.59824 11.0028 2.95601 11.6597L0.328446 12.645C0.164223 12.645 0.164223 12.645 0 12.645V15.1083C0.328446 15.1083 0.821114 14.9441 1.14956 14.7799L3.77713 13.7946C4.92669 13.3019 6.24047 13.3019 7.39003 13.7946L10.346 14.9441C11.4956 15.4368 12.8094 15.4368 13.9589 14.9441L16.915 13.7946C18.0645 13.3019 19.3783 13.3019 20.5279 13.7946L22.827 14.7799C23.9765 15.2726 25.2903 15.2726 26.2757 14.7799L28.9032 13.7946C30.0528 13.3019 31.3666 13.3019 32.5161 13.7946L35.4721 14.9441C36.6217 15.4368 37.9355 15.4368 39.085 14.9441L42.0411 13.7946C42.698 13.4661 43.3548 13.4661 44.0117 13.4661C44.5044 13.4661 44.9971 13.6303 45.654 13.7946L48.1173 14.7799C49.2669 15.2726 50.5806 15.2726 51.7302 14.7799L54.3578 13.7946C54.8504 13.6303 55.3431 13.4661 56 13.4661V11.167C55.0147 11.167 54.1936 11.3312 53.5367 11.6597Z" fill="black"/>
</g>
<defs>
<clipPath id="clip0">
<path d="M0 0H56V56H0V0Z" fill="white"/>
</clipPath>
</defs>
</svg>
