<svg width="56" height="56" viewBox="0 0 56 56" fill="none" xmlns="http://www.w3.org/2000/svg">
<g clip-path="url(#clip0)">
<path d="M1 55.1642V1H55.3284V55.1642H1Z" fill="white" stroke="black" stroke-width="2"/>
<path d="M20.0352 26.4402H21.8416C21.8416 26.6044 21.8416 26.9329 22.0058 26.9329C22.1701 27.0971 22.3343 27.0971 22.6627 27.0971C22.9912 27.0971 23.1554 26.9329 23.3196 26.7686C23.4838 26.6044 23.4838 26.4402 23.4838 26.1117C23.4838 25.7833 23.4838 25.6191 23.3196 25.4548C23.1554 25.2906 22.9912 25.1264 22.8269 25.1264C22.6627 25.1264 22.4985 25.1264 22.1701 24.9622C22.0058 24.9622 21.6774 24.9622 21.5132 24.9622V24.6337L22.6627 22.3346H20.1994V20.6924H25.1261V21.3493L23.6481 23.9768C24.6334 24.3053 25.2903 24.9622 25.2903 26.276C25.2903 26.9329 25.1261 27.5897 24.6334 28.0824C24.1407 28.5751 23.4838 28.9035 22.6627 28.9035C21.8416 28.9035 21.1847 28.7393 20.692 28.2466C20.1994 27.754 20.0352 27.2613 20.0352 26.4402Z" fill="black"/>
<path d="M26.6045 25.9479V24.3057H30.5458V25.9479H26.6045Z" fill="black"/>
<path d="M34.3219 21.0205H36.4568L34.8146 23.8123C34.8146 23.8123 34.8146 23.8123 34.9788 23.8123C35.7999 23.8123 36.4568 23.9765 36.9495 24.4692C37.4421 24.9619 37.6064 25.6187 37.6064 26.4399C37.6064 27.261 37.2779 27.9179 36.7852 28.4105C36.2926 28.9032 35.4715 29.0674 34.6504 29.0674C33.8292 29.0674 33.0081 28.9032 32.5155 28.4105C32.0228 27.9179 31.6943 27.261 31.6943 26.4399C31.6943 25.9472 31.8586 25.2903 32.187 24.7976L34.3219 21.0205ZM34.6504 27.261C35.3072 27.261 35.6357 26.9325 35.6357 26.2756C35.6357 25.6187 35.3072 25.2903 34.6504 25.2903C33.9935 25.2903 33.665 25.6187 33.665 26.2756C33.665 26.9325 33.9935 27.261 34.6504 27.261Z" fill="black"/>
<path d="M24.962 35.4719L23.6482 34.4866V36.4573H21.8418V31.2021H22.3345L24.7978 33.337L27.2612 31.2021H27.918V36.4573H26.1116V34.4866L24.962 35.4719Z" fill="black"/>
<path d="M32.3517 35.4719L31.0379 34.4866V36.4573H29.2314V31.2021H29.7241L32.1875 33.337L34.6508 31.2021H35.1435V36.4573H33.337V34.4866L32.3517 35.4719Z" fill="black"/>
<path d="M44.6685 41.0561L40.8913 38.5928V39.7423H15.9295V38.5928L12.1523 41.0561L15.7652 43.5195V42.2057H40.8913V43.3552L44.6685 41.0561Z" fill="black"/>
<path d="M12.974 0H10.5107L10.3465 0.656892C9.68957 2.29912 9.68957 4.26979 10.3465 5.91202L11.3318 8.53959C11.496 9.19648 11.496 9.85337 11.3318 10.5103L10.3465 12.8094C10.018 13.6305 9.85379 14.2874 9.85379 15.1085C9.85379 15.1085 9.85379 15.1085 9.85379 15.2727C9.85379 15.2727 9.85379 15.2727 9.85379 15.437C9.85379 16.4223 10.018 17.2434 10.3465 18.2287L11.496 21.1848C11.6602 21.8416 11.6602 22.4985 11.496 22.9912L10.3465 25.9472C9.68957 27.5894 9.68957 29.5601 10.3465 31.2024L11.3318 33.8299C11.496 34.4868 11.496 35.1437 11.3318 35.8006L10.3465 38.2639C9.68957 39.9062 9.68957 41.8768 10.3465 43.6833L11.496 46.6393C11.6602 47.2962 11.6602 47.9531 11.496 48.4458L10.3465 51.4018C9.68957 52.8798 9.68957 54.522 10.1822 56.1642H12.6456L12.4814 55.8358C11.9887 54.6862 11.9887 53.3724 12.4814 52.2229L13.6309 49.2669C14.1236 48.1173 14.1236 46.8035 13.6309 45.654L12.4814 42.698C11.9887 41.5484 11.9887 40.2346 12.4814 39.085L13.4667 36.6217C13.9594 35.4721 13.9594 34.1584 13.4667 33.0088L12.4814 30.3812C11.9887 29.2317 11.9887 27.9179 12.4814 26.7683L13.6309 23.8123C14.1236 22.6628 14.1236 21.349 13.6309 20.1994L12.4814 17.2434C12.1529 16.5865 12.1529 15.9296 12.1529 15.2727C12.1529 14.7801 12.3171 14.2874 12.4814 13.6305L13.4667 11.1672C13.9594 10.0176 13.9594 8.70381 13.4667 7.55425L12.4814 5.09091C11.9887 3.94135 11.9887 2.62757 12.4814 1.47801L12.974 0Z" fill="black"/>
<path d="M47.1323 0H44.6689V56.1642H47.1323V0Z" fill="black"/>
</g>
<defs>
<clipPath id="clip0">
<path d="M0 0H56V56H0V0Z" fill="white"/>
</clipPath>
</defs>
</svg>
