<svg width="445" height="48" viewBox="0 0 445 48" fill="none" xmlns="http://www.w3.org/2000/svg">
<path d="M38.0625 8.6235C36.9924 7.5477 35.5656 6.71096 33.7821 6.23283C31.9986 5.75469 29.9773 5.51562 27.3615 5.51562H0.371094V44.9617H9.88312V33.3669H27.4804C30.6907 33.3669 33.4254 32.8888 35.3278 31.9325C37.3491 30.9763 38.8948 29.4223 39.7271 27.3903C40.6783 25.3582 41.1539 22.6089 41.1539 19.3815C41.1539 16.8713 40.9161 14.7197 40.3216 12.9267C39.9649 11.0142 39.1326 9.6993 38.0625 8.6235ZM31.2852 22.7285C30.9285 23.5652 30.334 24.2824 29.3828 24.641C28.4316 24.9996 27.2426 25.2387 25.6969 25.2387H9.88312V13.2853H25.6969C28.0749 13.2853 29.6206 13.7634 30.5718 14.7197C31.4041 15.676 31.8797 17.2299 31.8797 19.262C31.7608 20.6964 31.6419 21.8917 31.2852 22.7285Z" fill="white"/>
<path d="M57.3248 36.9533H56.0169V5.39648H46.5049V44.8425H62.7942L86.4554 13.2857H87.8822V44.8425H97.2753V5.39648H81.3427L57.3248 36.9533Z" fill="white"/>
<path d="M213.084 6.59182C211.062 5.75508 208.328 5.39648 204.88 5.39648H187.52C184.786 5.39648 182.408 5.63555 180.624 6.11369C178.841 6.59182 177.295 7.30902 176.225 8.38482C175.155 9.46062 174.322 10.895 173.728 12.688C173.252 14.481 172.896 16.7522 172.896 19.5014V31.4548C172.896 33.8455 173.133 35.8775 173.728 37.551C174.203 39.2245 175.155 40.6589 176.225 41.7347C177.414 42.8105 178.959 43.6472 180.743 44.1253C182.645 44.6035 184.904 44.8425 187.52 44.8425H204.88C207.614 44.8425 209.992 44.6035 211.776 44.1253C213.678 43.6472 215.105 42.93 216.175 41.8542C217.245 40.7784 218.078 39.4635 218.553 37.7901C219.029 36.1166 219.267 33.965 219.267 31.4548V19.5014C219.267 15.9154 218.791 13.0466 217.721 11.0146C216.651 8.86296 215.105 7.42855 213.084 6.59182ZM209.755 30.379C209.755 32.172 209.517 33.6064 209.16 34.4431C208.803 35.3994 208.09 35.9971 207.02 36.3557C205.95 36.7143 204.404 36.8338 202.383 36.8338H189.898C187.996 36.8338 186.45 36.5947 185.38 36.2361C184.31 35.8775 183.597 35.1603 183.24 34.2041C182.764 33.2478 182.526 31.9329 182.526 30.2595V20.2186C182.526 18.3061 182.764 16.8717 183.24 15.7959C183.715 14.8396 184.429 14.1224 185.499 13.6443C186.569 13.2857 188.115 13.0466 190.017 13.0466H202.264C204.285 13.0466 205.712 13.2857 206.782 13.6443C207.852 14.0029 208.566 14.7201 209.16 15.6764C209.636 16.6326 209.873 18.1866 209.873 20.0991V30.379H209.755Z" fill="white"/>
<path d="M304.399 5.39648V20.5772H280.025V5.39648H270.513V44.8425H280.025V28.3469H304.399V44.8425H313.911V5.39648H304.399Z" fill="white"/>
<path d="M262.784 8.6235C261.714 7.5477 260.287 6.71096 258.504 6.23283C256.72 5.75469 254.58 5.51562 252.083 5.51562H225.093V44.9617H234.605V33.3669H252.202C255.412 33.3669 258.147 32.8888 260.049 31.9325C262.071 30.9763 263.616 29.4223 264.449 27.3903C265.4 25.3582 265.876 22.6089 265.876 19.3815C265.876 16.8713 265.638 14.7197 265.043 12.9267C264.687 11.0142 263.854 9.6993 262.784 8.6235ZM256.007 22.7285C255.65 23.5652 255.056 24.2824 254.104 24.641C253.272 24.9996 251.964 25.2387 250.419 25.2387H234.605V13.2853H250.419C252.797 13.2853 254.342 13.7634 255.293 14.7197C256.126 15.676 256.601 17.2299 256.601 19.262C256.482 20.6964 256.364 21.8917 256.007 22.7285Z" fill="white"/>
<path d="M165.048 14.0029C164.097 11.9709 162.551 10.5365 160.411 9.69974C158.39 8.863 155.655 8.5044 152.207 8.5044H140.079V3.00586H130.567V8.5044H118.321C114.872 8.5044 112.138 8.863 110.116 9.69974C108.095 10.5365 106.549 11.9709 105.479 14.0029C104.528 16.035 103.934 18.9038 103.934 22.4898V27.8688C103.934 30.379 104.171 32.4111 104.647 34.2041C105.123 35.8776 105.955 37.312 107.025 38.2682C108.095 39.3441 109.522 40.0612 111.424 40.5394C113.327 41.0175 115.586 41.2566 118.321 41.2566H130.567V47.2333H140.079V41.2566H152.207C154.942 41.2566 157.201 41.0175 159.103 40.5394C161.006 40.0612 162.433 39.3441 163.503 38.2682C164.573 37.1924 165.405 35.8776 165.881 34.2041C166.356 32.5306 166.594 30.379 166.594 27.8688V22.4898C166.594 18.7843 166 16.035 165.048 14.0029ZM120.936 33.4869C118.915 33.4869 117.369 33.2478 116.299 32.8892C115.229 32.5306 114.516 31.8134 114.159 30.9767C113.802 30.0204 113.565 28.7056 113.565 26.793V23.3266C113.565 21.414 113.802 19.9796 114.278 18.9038C114.754 17.9476 115.586 17.2303 116.656 16.8717C117.726 16.5131 119.272 16.2741 121.174 16.2741H130.686V33.3674H120.936V33.4869ZM157.201 26.793C157.201 28.586 156.963 30.0204 156.606 30.9767C156.25 31.933 155.536 32.5306 154.466 32.8892C153.396 33.2478 151.85 33.4869 149.829 33.4869H140.079V16.2741H149.591C151.613 16.2741 153.039 16.5131 154.11 16.8717C155.18 17.2303 156.012 17.9476 156.488 18.9038C156.963 19.8601 157.201 21.414 157.201 23.3266V26.793Z" fill="white"/>
<path d="M334.481 35.2793H324.969V44.842H334.481V35.2793Z" fill="#D0681B"/>
<path d="M380.495 31.813C382.517 30.8567 384.062 29.3028 384.895 27.2707C385.846 25.2387 386.321 22.4894 386.321 19.262C386.321 16.7518 386.084 14.6002 385.489 12.8072C385.013 11.0142 384.181 9.6993 382.992 8.6235C381.922 7.5477 380.495 6.71096 378.712 6.23283C377.047 5.75469 374.907 5.51562 372.291 5.51562H345.301V44.9617H354.813V33.3669H369.319L376.928 44.9617H387.748L379.425 32.2911C379.901 32.0521 380.257 31.9325 380.495 31.813ZM355.051 13.2853H370.864C373.242 13.2853 374.788 13.7634 375.739 14.7197C376.572 15.676 377.047 17.2299 377.047 19.262C377.047 20.6964 376.809 21.8917 376.572 22.848C376.215 23.6847 375.62 24.4019 374.669 24.7605C373.718 25.1191 372.529 25.3582 370.983 25.3582H355.169V13.2853H355.051Z" fill="white"/>
<path d="M425.32 5.39648V30.379C425.32 32.172 425.082 33.6064 424.726 34.4431C424.369 35.3994 423.656 35.9971 422.586 36.3557C421.634 36.5947 420.445 36.8338 418.781 36.8338C417.116 36.8338 414.857 36.8338 414.738 36.8338H418.424C418.305 36.8338 418.067 36.8338 417.948 36.8338H414.738H408.317C406.415 36.8338 404.869 36.5947 403.799 36.2361C402.729 35.8775 402.016 35.1603 401.659 34.2041C401.183 33.2478 400.946 31.9329 400.946 30.2595V5.39648H391.434V31.3353C391.434 33.7259 391.671 35.758 392.266 37.4315C392.742 39.1049 393.693 40.5393 394.763 41.6151C395.952 42.6909 397.498 43.5277 399.281 44.0058C401.183 44.484 403.443 44.723 406.058 44.723H413.906H420.564C423.299 44.723 425.677 44.484 427.46 44.0058C429.363 43.5277 430.79 42.8105 431.86 41.7347C432.93 40.6589 433.762 39.344 434.238 37.6705C434.713 35.9971 434.951 33.8455 434.951 31.3353V5.39648H425.32Z" fill="white"/>
<path d="M443.394 0.735554C443.751 0.974621 444.107 1.21369 444.345 1.69182C444.583 2.05042 444.702 2.52856 444.702 2.88716C444.702 3.36529 444.583 3.72389 444.345 4.20202C444.107 4.56063 443.87 4.91923 443.394 5.15829C443.037 5.39736 442.562 5.51689 442.205 5.51689C441.729 5.51689 441.373 5.39736 441.016 5.15829C440.659 4.91923 440.302 4.68016 440.065 4.20202C439.827 3.84342 439.708 3.36529 439.708 2.88716C439.708 2.40902 439.827 2.05042 440.065 1.69182C440.302 1.33322 440.54 0.974621 441.016 0.735554C441.373 0.496487 441.848 0.376953 442.205 0.376953C442.681 0.496487 443.037 0.61602 443.394 0.735554ZM443.156 4.68016C443.513 4.44109 443.751 4.20203 443.87 3.96296C444.107 3.60436 444.107 3.24576 444.107 2.88716C444.107 2.52856 443.988 2.16996 443.87 1.81135C443.632 1.45275 443.394 1.21369 443.156 1.09415C442.799 0.855088 442.443 0.855088 442.086 0.855088C441.729 0.855088 441.373 0.974621 441.016 1.09415C440.659 1.33322 440.421 1.57229 440.303 1.81135C440.065 2.16996 440.065 2.52856 440.065 2.88716C440.065 3.24576 440.184 3.60436 440.303 3.96296C440.54 4.32156 440.778 4.56062 441.016 4.68016C441.373 4.91923 441.729 4.91923 442.086 4.91923C442.443 4.91923 442.918 4.91923 443.156 4.68016ZM443.275 4.08249V4.20202V4.32156H443.156C443.037 4.32156 443.037 4.32156 442.918 4.20202L442.205 3.12622H441.729V4.08249V4.20202L441.61 4.32156C441.61 4.32156 441.492 4.32156 441.492 4.20202L441.373 4.08249V1.33322C441.373 1.33322 441.373 1.21369 441.492 1.21369L441.61 1.09415H442.324C442.681 1.09415 442.918 1.21369 443.037 1.33322C443.275 1.57229 443.275 1.69182 443.275 2.05042C443.275 2.28949 443.275 2.40902 443.156 2.52856C443.037 2.64809 442.918 2.76762 442.681 2.88716L443.275 4.08249ZM441.61 2.88716H442.086C442.324 2.88716 442.443 2.88716 442.562 2.76762C442.681 2.64809 442.681 2.52856 442.681 2.28949C442.681 2.05042 442.681 1.93089 442.562 1.81135C442.443 1.69182 442.324 1.69182 442.086 1.69182H441.61V2.88716Z" fill="white"/>
</svg>
