<svg xmlns="http://www.w3.org/2000/svg" width="40" height="36" viewBox="0 0 40 36"><g><g><path fill="#5275e9" d="M17.844 2.4L34.37 18.926a8.127 8.127 0 0 1 0 11.496 8.127 8.127 0 0 1-11.496 0L4.911 12.46a5.083 5.083 0 0 1 0-7.185 5.083 5.083 0 0 1 7.185 0l15.09 15.089c.79.79.79 2.084 0 2.874-.791.79-2.085.79-2.875 0L10.66 9.585l-2.155 2.156 13.652 13.652a5.083 5.083 0 0 0 7.185 0 5.083 5.083 0 0 0 0-7.186L14.25 3.12a8.127 8.127 0 0 0-11.495 0 8.127 8.127 0 0 0 0 11.496l17.963 17.963a11.171 11.171 0 0 0 15.807 0 11.171 11.171 0 0 0 0-15.808L20 .244z"/></g></g></svg>