<svg xmlns="http://www.w3.org/2000/svg" width="60.9" height="44.65" viewBox="0 0 60.9 44.65">
  <g id="logo_black" transform="translate(0 0)">
    <path id="Path_1" data-name="Path 1" d="M54.886,14.949,38.908,7.1,22.649,14.949C20.9,43.472,38.908,48.238,38.908,48.238S56.638,43.472,54.886,14.949ZM38.908,46.205S22.649,41.93,24.191,16.211L38.908,9.132l14.367,7.078C54.886,41.93,38.908,46.205,38.908,46.205Z" transform="translate(-8.282 -3.588)"/>
    <g id="Group_2" data-name="Group 2" transform="translate(16.44 6.315)">
      <g id="Group_1" data-name="Group 1">
        <path id="Path_2" data-name="Path 2" d="M39.844,46.631h0A17.737,17.737,0,0,1,32.2,41.515c-3.364-3.714-7.218-10.863-6.447-23.547V17.9l14.086-6.8h.07L53.65,17.828v.07c.771,12.685-3.013,19.763-6.307,23.547a17.142,17.142,0,0,1-7.5,5.186ZM26.038,18.038c-.7,12.474,3.084,19.553,6.377,23.2a17.324,17.324,0,0,0,7.429,5.046,17.294,17.294,0,0,0,7.288-5.046c3.224-3.714,6.938-10.722,6.237-23.2L39.844,11.45Z" transform="translate(-25.658 -11.1)"/>
      </g>
    </g>
    <g id="Group_3" data-name="Group 3" transform="translate(17.331 7.296)">
      <path id="Path_3" data-name="Path 3" d="M39.594,13.481V29.46H28.311c-.35-.841-1.051-3.714-.631-10.092l11.914-5.887m.561-.981L27.119,18.947c-.7,8.55.771,11.073.771,11.073H40.154V12.5Z" transform="translate(-26.93 -12.5)"/>
    </g>
    <g id="Group_4" data-name="Group 4" transform="translate(30.696 25.307)">
      <path id="Path_4" data-name="Path 4" d="M57.213,38.831A20.115,20.115,0,0,1,50.836,49.9a22.414,22.414,0,0,1-4.2,2.873V38.831H57.213m.7-.631H46V53.688A20.505,20.505,0,0,0,57.914,38.2Z" transform="translate(-46 -38.2)"/>
    </g>
    <g id="Group_5" data-name="Group 5" transform="translate(21.865 27.41)">
      <path id="Path_5" data-name="Path 5" d="M40.408,44H37.6V41.2l-.7.42-.7-.42V44H33.4l.42.7-.42.771h2.8v2.8l.7-.42.7.42v-2.8h2.8l-.42-.771Z" transform="translate(-33.4 -41.2)"/>
    </g>
    <g id="Group_25" data-name="Group 25" transform="translate(0)">
      <g id="Group_7" data-name="Group 7" transform="translate(4.695 9.118)">
        <g id="Group_6" data-name="Group 6" transform="translate(0)">
          <path id="Path_6" data-name="Path 6" d="M8.9,22.6s2.032-4.836,0-6.027a2.265,2.265,0,0,1,1.542.771,2.378,2.378,0,0,1-.28-2.243S14.787,18.043,8.9,22.6Z" transform="translate(-8.9 -15.1)"/>
        </g>
      </g>
      <g id="Group_9" data-name="Group 9" transform="translate(16.189 40.489)">
        <g id="Group_8" data-name="Group 8">
          <path id="Path_7" data-name="Path 7" d="M32.729,63.253s-4.7-2.383-6.027-.491a2.248,2.248,0,0,1,.841-1.472,2.583,2.583,0,0,1-2.243.14C25.37,61.361,28.664,56.946,32.729,63.253Z" transform="translate(-25.3 -59.863)"/>
        </g>
      </g>
      <g id="Group_11" data-name="Group 11" transform="translate(0 24.231)">
        <g id="Group_10" data-name="Group 10">
          <path id="Path_8" data-name="Path 8" d="M15.866,42.226s-8.83-3.784-11-.21a4.609,4.609,0,0,1,1.4-2.8S4.092,40.684,2.2,39.7C2.27,39.773,7.736,31.363,15.866,42.226Z" transform="translate(-2.2 -36.664)"/>
        </g>
      </g>
      <g id="Group_16" data-name="Group 16" transform="translate(10.933 33.577)">
        <g id="Group_13" data-name="Group 13" transform="translate(0 0.9)">
          <g id="Group_12" data-name="Group 12">
            <path id="Path_9" data-name="Path 9" d="M24.037,56.061s-3.5-3.784-5.4-2.453A2.485,2.485,0,0,1,19.9,52.487a2.3,2.3,0,0,1-2.1-.631C17.87,51.926,22.355,48.912,24.037,56.061Z" transform="translate(-17.8 -51.284)"/>
          </g>
        </g>
        <g id="Group_15" data-name="Group 15" transform="translate(4.696)">
          <g id="Group_14" data-name="Group 14">
            <path id="Path_10" data-name="Path 10" d="M28,57.148s-2.593-4.485-.771-5.887a2.4,2.4,0,0,0-1.4.911,2.39,2.39,0,0,0,0-2.173S21.7,53.434,28,57.148Z" transform="translate(-24.501 -50)"/>
          </g>
        </g>
      </g>
      <g id="Group_18" data-name="Group 18" transform="translate(13.666 5.117)">
        <g id="Group_17" data-name="Group 17">
          <path id="Path_11" data-name="Path 11" d="M21.7,13.952s3.714-3.574,5.466-2.173A2.832,2.832,0,0,0,25.9,10.588a2.285,2.285,0,0,0,2.1-.491C28.147,10.1,23.8,6.944,21.7,13.952Z" transform="translate(-21.7 -9.39)"/>
        </g>
      </g>
      <g id="Group_20" data-name="Group 20" transform="translate(6.307)">
        <g id="Group_19" data-name="Group 19" transform="translate(0)">
          <path id="Path_12" data-name="Path 12" d="M13.3,3.078c-.631.841,0,.841,0,.841a2.219,2.219,0,0,1,1.962-.561c-.631.21-.07.911-.07.911,4.065,1.962,3.224,5.4,3.224,5.4-.771-2.8-2.383-2.733-2.383-2.733a4.075,4.075,0,0,1-.7,3.644c-.21-.7-1.261-.21-1.261-.21,1.612,2.383-2.873,7.288-2.873,7.288,2.523-.981,9.461-4.2,8.83-10.863C19.47.134,13.933,2.237,13.3,3.078ZM17.718,11a1,1,0,0,1-.14.42c-.07.14-.14.35-.21.491a2.459,2.459,0,0,1-.35.561,3.887,3.887,0,0,1-.42.561c-.28.42-.7.771-1.051,1.191-.35.35-.771.7-1.191,1.051-.42.28-.771.561-1.121.841a6.137,6.137,0,0,1-.841.491,3.641,3.641,0,0,1-.35.21s.42-.35.981-.911c.28-.28.631-.561.981-.911l.491-.491a.967.967,0,0,0,.21-.28c.14-.21.35-.491.561-.771s.35-.631.561-.911c.07-.14.14-.35.21-.491s.14-.35.21-.491a1.3,1.3,0,0,0,.14-.491c.07-.14.07-.28.14-.42a3.035,3.035,0,0,1,.07-.35V9.735a1.105,1.105,0,0,0,.07.28,2.3,2.3,0,0,1,0,.7c0,.14-.07.28-.07.491a1.3,1.3,0,0,1-.14.491,6.577,6.577,0,0,1-.42,1.051c-.14.21-.28.491-.42.7.14-.21.35-.35.491-.561a5.527,5.527,0,0,0,.841-1.051,1.466,1.466,0,0,0,.28-.42,1.532,1.532,0,0,1,.21-.35,2.947,2.947,0,0,1,.14-.35A.217.217,0,0,1,17.718,11ZM19.4,6.862a.421.421,0,0,0,.07.28v.7a.632.632,0,0,1-.07.35.41.41,0,0,1-.07.28V7.843c0-.14-.07-.28-.07-.42a1.783,1.783,0,0,0-.14-.491c-.07-.14-.07-.35-.14-.491,0-.07-.07-.14-.14-.28s-.07-.21-.14-.28a3.047,3.047,0,0,0-.28-.491,2.13,2.13,0,0,0-.35-.491l-.42-.42c-.28-.28-.561-.491-.771-.7a6.919,6.919,0,0,0-.841-.631,5.656,5.656,0,0,1,.911.42,3.294,3.294,0,0,1,.841.631l.42.42c.14.14.28.35.42.491a2.841,2.841,0,0,1,.35.631c.07.07.07.21.14.28,0,.07.07.21.07.28C19.329,6.442,19.329,6.652,19.4,6.862Z" transform="translate(-11.2 -2.089)"/>
        </g>
      </g>
      <g id="Group_22" data-name="Group 22" transform="translate(5.804 14.021)">
        <g id="Group_21" data-name="Group 21">
          <path id="Path_13" data-name="Path 13" d="M16.522,23.43a4.359,4.359,0,0,1,1.051-1.191s-2.1-.771-5.046,1.261c0,0-3.434,2.943-1.4,6.8s5.256,3.294,5.046,3.013c0,0-6.728-2.8-3.714-6.307,2.032-2.313,3.925.14,3.995.28,0,0,.981-.561.07-2.243,0,0,.841-.631,1.332-.21C17.783,24.832,17.5,23.71,16.522,23.43Zm-1.752.35h-.28a3.035,3.035,0,0,1-.35.07c-.14.07-.28.07-.35.14a.7.7,0,0,0-.35.28.845.845,0,0,0-.35.35c-.14.14-.21.28-.35.35l-.631.841a7.387,7.387,0,0,1-.491.771c-.28.491-.42.771-.42.771a4.726,4.726,0,0,1,.28-.841,4.287,4.287,0,0,1,.35-.841,6.4,6.4,0,0,1,.561-.911c.14-.14.21-.28.35-.42s.28-.21.42-.35.28-.14.42-.28c.14-.07.28-.07.42-.14h.35c.21.14.35.14.42.21h0Z" transform="translate(-10.482 -22.095)"/>
        </g>
      </g>
      <g id="Group_24" data-name="Group 24" transform="translate(4.202 29.047)">
        <g id="Group_23" data-name="Group 23">
          <path id="Path_14" data-name="Path 14" d="M11,50.939c-.42-.42.21-1.332.21-1.332,1.682.911,2.243-.07,2.243-.07a2.391,2.391,0,0,1-.28-3.995c3.434-3.084,6.307,3.644,6.307,3.644.28.14.771-3.084-3.084-5.046s-6.8,1.472-6.8,1.472c-2.032,2.943-1.261,5.116-1.261,5.116A4.359,4.359,0,0,1,9.53,49.678,2.038,2.038,0,0,0,11,50.939ZM9.951,48.206a.542.542,0,0,0-.07-.21c0-.07-.07-.14-.07-.28v-.35c.07-.14.07-.28.14-.42l.21-.42a1.858,1.858,0,0,1,.35-.42,1.858,1.858,0,0,1,.42-.35,10.253,10.253,0,0,1,.911-.631l.841-.42a4.725,4.725,0,0,1,.841-.28,4.7,4.7,0,0,0-.771.42c-.21.14-.491.28-.771.491a6.575,6.575,0,0,0-.841.631c-.14.14-.28.21-.35.35l-.35.35c-.14.14-.14.28-.28.35a1.184,1.184,0,0,0-.14.35.632.632,0,0,0-.07.35c-.07.07,0,.21,0,.28Q9.951,48.206,9.951,48.206Z" transform="translate(-8.195 -43.536)"/>
        </g>
      </g>
    </g>
    <g id="Group_36" data-name="Group 36" transform="translate(37.283)">
      <g id="Group_26" data-name="Group 26" transform="translate(15.933 9.118)">
        <path id="Path_15" data-name="Path 15" d="M81.124,22.6s-2.032-4.836,0-6.027a2.265,2.265,0,0,0-1.542.771,2.378,2.378,0,0,0,.28-2.243S75.237,18.043,81.124,22.6Z" transform="translate(-78.135 -15.1)"/>
      </g>
      <g id="Group_27" data-name="Group 27" transform="translate(0 40.489)">
        <path id="Path_16" data-name="Path 16" d="M55.4,63.253s4.7-2.383,6.027-.491a2.248,2.248,0,0,0-.841-1.472,2.583,2.583,0,0,0,2.243.14C62.759,61.361,59.465,56.946,55.4,63.253Z" transform="translate(-55.4 -59.863)"/>
      </g>
      <g id="Group_28" data-name="Group 28" transform="translate(9.952 24.231)">
        <path id="Path_17" data-name="Path 17" d="M69.6,42.226s8.83-3.784,11-.21a4.609,4.609,0,0,0-1.4-2.8s2.173,1.472,4.065.491C83.2,39.773,77.729,31.363,69.6,42.226Z" transform="translate(-69.6 -36.664)"/>
      </g>
      <g id="Group_31" data-name="Group 31" transform="translate(4.485 33.577)">
        <g id="Group_29" data-name="Group 29" transform="translate(1.962 0.9)">
          <path id="Path_18" data-name="Path 18" d="M64.6,56.061s3.5-3.784,5.4-2.453a2.485,2.485,0,0,0-1.261-1.121,2.3,2.3,0,0,0,2.1-.631C70.767,51.926,66.282,48.912,64.6,56.061Z" transform="translate(-64.6 -51.284)"/>
        </g>
        <g id="Group_30" data-name="Group 30">
          <path id="Path_19" data-name="Path 19" d="M61.8,57.148s2.593-4.485.771-5.887a2.4,2.4,0,0,1,1.4.911,2.39,2.39,0,0,1,0-2.173S68.107,53.434,61.8,57.148Z" transform="translate(-61.8 -50)"/>
        </g>
      </g>
      <g id="Group_32" data-name="Group 32" transform="translate(3.573 5.117)">
        <path id="Path_20" data-name="Path 20" d="M66.807,13.952s-3.714-3.574-5.466-2.173A2.832,2.832,0,0,1,62.6,10.588a2.285,2.285,0,0,1-2.1-.491C60.43,10.1,64.775,6.944,66.807,13.952Z" transform="translate(-60.499 -9.39)"/>
      </g>
      <g id="Group_33" data-name="Group 33" transform="translate(8.369)">
        <path id="Path_21" data-name="Path 21" d="M67.383,6.792c-.631,6.658,6.307,9.881,8.83,10.863,0,0-4.485-4.906-2.873-7.288,0,0-1.051-.561-1.261.21a3.985,3.985,0,0,1-.7-3.644s-1.542-.07-2.383,2.733c0,0-.841-3.434,3.224-5.4,0,0,.631-.7-.07-.911a2,2,0,0,1,1.962.561s.631-.07,0-.841C73.55,2.237,68.014.134,67.383,6.792ZM69.7,10.647a2.947,2.947,0,0,1,.14.35c0,.14.07.21.21.35a1.466,1.466,0,0,0,.28.42,5.527,5.527,0,0,0,.841,1.051c.14.21.35.35.491.561a6.163,6.163,0,0,1-.42-.7,6.577,6.577,0,0,1-.42-1.051c-.07-.14-.07-.35-.14-.491,0-.14-.07-.35-.07-.491v-.42c0,.14.07.21.07.35a1,1,0,0,0,.14.42c0,.14.14.28.14.491.07.14.14.35.21.491s.14.35.21.491a3.973,3.973,0,0,0,.561.911,7.341,7.341,0,0,0,.561.771c.07.07.14.21.21.28l.491.491c.35.35.7.631.981.911.561.561.981.911.981.911a3.641,3.641,0,0,1-.35-.21c-.21-.14-.491-.28-.841-.491a9.305,9.305,0,0,1-1.121-.841c-.42-.28-.771-.7-1.191-1.051a8.526,8.526,0,0,1-1.051-1.191,3.887,3.887,0,0,0-.42-.561,3.912,3.912,0,0,0-.35-.561c-.07-.14-.14-.35-.21-.491s-.07-.28-.14-.42C69.7,10.787,69.7,10.647,69.7,10.647ZM68.224,6.3c0-.07.07-.21.07-.28.07-.07.07-.21.14-.28a2.459,2.459,0,0,1,.35-.561c.14-.21.28-.35.42-.561l.42-.42a5.217,5.217,0,0,1,.841-.631,3.089,3.089,0,0,1,.911-.42s-.28.21-.771.561c-.21.21-.491.42-.771.7l-.42.42a1.257,1.257,0,0,0-.35.491,1.757,1.757,0,0,0-.28.491c-.07.07-.07.14-.14.28s-.07.21-.14.28a1.3,1.3,0,0,0-.14.491c-.07.14-.07.35-.14.491,0,.14-.07.28-.07.42V8.4a1.105,1.105,0,0,0-.07-.28.762.762,0,0,0-.07-.35v-.7a.53.53,0,0,1,.07-.28C68.154,6.652,68.154,6.442,68.224,6.3Z" transform="translate(-67.342 -2.089)"/>
      </g>
      <g id="Group_34" data-name="Group 34" transform="translate(10.512 14.021)">
        <path id="Path_22" data-name="Path 22" d="M70.4,24.832c.42-.42,1.332.21,1.332.21-.911,1.682.07,2.243.07,2.243A2.391,2.391,0,0,1,75.8,27c3.013,3.434-3.714,6.307-3.714,6.307-.14.28,3.084.841,5.046-3.013,2.032-3.854-1.4-6.8-1.4-6.8-2.943-2.032-5.046-1.261-5.046-1.261a4.359,4.359,0,0,1,1.051,1.191A1.874,1.874,0,0,0,70.4,24.832Zm2.733-1.051a.542.542,0,0,0,.21-.07c.07,0,.14-.07.28,0h.35c.14.07.28.07.42.14a1.466,1.466,0,0,1,.42.28,3.023,3.023,0,0,1,.771.771,3.974,3.974,0,0,1,.561.911,4.287,4.287,0,0,1,.35.841,4.726,4.726,0,0,1,.28.841,4.7,4.7,0,0,0-.42-.771c-.14-.21-.28-.491-.491-.771a6.575,6.575,0,0,0-.631-.841c-.14-.14-.21-.28-.35-.35l-.35-.35c-.14-.14-.28-.14-.35-.28a1.184,1.184,0,0,0-.35-.14.632.632,0,0,0-.35-.07c-.07-.07-.21,0-.28,0C73.273,23.781,73.133,23.781,73.133,23.781Z" transform="translate(-70.4 -22.095)"/>
      </g>
      <g id="Group_35" data-name="Group 35" transform="translate(7.86 29.117)">
        <path id="Path_23" data-name="Path 23" d="M76.766,49.778a4.359,4.359,0,0,1,1.191,1.051s.771-2.1-1.261-5.116c0,0-2.873-3.434-6.8-1.472s-3.364,5.186-3.084,5.046c0,0,2.873-6.728,6.307-3.644,2.313,2.032-.14,3.925-.28,3.995,0,0,.561.981,2.243.07,0,0,.631.841.21,1.332C75.365,50.969,76.486,50.759,76.766,49.778Zm-.35-1.822v-.28a3.035,3.035,0,0,1-.07-.35c-.07-.14-.07-.28-.14-.35a.7.7,0,0,0-.28-.35.844.844,0,0,0-.35-.35c-.14-.14-.28-.21-.35-.35l-.841-.631c-.28-.21-.561-.35-.771-.491-.491-.28-.771-.42-.771-.42a4.726,4.726,0,0,1,.841.28,2.368,2.368,0,0,1,.841.42,3.563,3.563,0,0,1,.911.631c.14.14.28.21.42.35s.21.28.35.42.14.28.21.42.07.28.14.42v.35c-.07.14-.07.21-.14.28v0Z" transform="translate(-66.615 -43.636)"/>
      </g>
    </g>
    <g id="Group_38" data-name="Group 38" transform="translate(32.377 13.323)">
      <g id="Group_37" data-name="Group 37">
        <path id="Path_24" data-name="Path 24" d="M57.3,26.917,56.319,23.9h-.21v-.14a.683.683,0,0,0,.42-.631,1.194,1.194,0,0,1-.491.28v-.14h-.21v.14h0c-.42,0-.631-.7-1.191-.7a9.048,9.048,0,0,0-1.472.35v-.841a.6.6,0,0,0,.491-.561.561.561,0,1,0-1.121,0,.6.6,0,0,0,.491.561v.911a6.816,6.816,0,0,0-1.4-.35c-.561,0-.771.7-1.191.7h-.07v-.14h-.14v.14a.758.758,0,0,1-.42-.28.613.613,0,0,0,.42.561v.21h-.28l-.981,3.013H48.4a1.98,1.98,0,0,0,1.822.771c1.472,0,1.822-.771,1.822-.771h-.42l-.981-3.013h-.28v-.14h.14c.7,0,.841-.42,1.191-.42s.771.42,1.261.561h.07v1.682l-.35.631v1.962h-.911v.35l-.7,1.191h4.065L54.217,28.6v-.35h-.771V26.286l-.35-.7V23.833h.07c.491-.07.911-.561,1.261-.561.42,0,.491.42,1.191.42h.07v.14h-.21L54.5,26.847h-.561a1.98,1.98,0,0,0,1.822.771c1.472,0,1.822-.771,1.822-.771H57.3Zm-7.078,0H49.171l.911-2.8h.14Zm.28-2.8.911,2.8h-.981v-2.8Zm5.326,2.8H54.777l.911-2.8h.14Zm.21,0v-2.8h.14l.911,2.8Zm0,0" transform="translate(-48.4 -21.1)"/>
      </g>
    </g>
    <g id="Group_40" data-name="Group 40" transform="translate(21.094 16.267)">
      <g id="Group_39" data-name="Group 39">
        <path id="Path_25" data-name="Path 25" d="M34.473,27.4h-.841v1.191c0,.21,0,.35.07.35a1.528,1.528,0,0,0,.42.07v.21H32.3v-.21c.21,0,.35,0,.42-.07a.245.245,0,0,0,.07-.14V26.141c0-.21,0-.35-.07-.42a1.528,1.528,0,0,0-.42-.07v-.21h1.752v.21a1.017,1.017,0,0,0-.42.07,3.208,3.208,0,0,0-.07,1.121v.21h.911a2.174,2.174,0,0,1,.631-1.261,2.151,2.151,0,0,1,1.542-.491,1.974,1.974,0,0,1,1.472.491,1.843,1.843,0,0,1,.561,1.4,1.94,1.94,0,0,1-2.1,2.1,2.045,2.045,0,0,1-1.542-.491A1.957,1.957,0,0,1,34.473,27.4Zm.841-.21a2.42,2.42,0,0,0,.35,1.261,1.06,1.06,0,0,0,.981.491.964.964,0,0,0,.911-.42,2.005,2.005,0,0,0,.28-1.191,3.551,3.551,0,0,0-.14-.911.727.727,0,0,0-.42-.561,1.259,1.259,0,0,0-.771-.21,1.041,1.041,0,0,0-.911.42A1.657,1.657,0,0,0,35.313,27.192Z" transform="translate(-32.3 -25.3)"/>
      </g>
    </g>
    <g id="Group_42" data-name="Group 42" transform="translate(33.289 28.181)">
      <g id="Group_41" data-name="Group 41">
        <path id="Path_26" data-name="Path 26" d="M53.975,45.874a6.286,6.286,0,0,0-.14,1.261h-.28V47a2.629,2.629,0,0,0-.07-.7.535.535,0,0,0-.35-.14,9.671,9.671,0,0,0-.981-.07h-.771a5.032,5.032,0,0,0-1.191.14l-.21.911H49.7a6.814,6.814,0,0,0,.07-1.261.6.6,0,0,0,.491-.42,4.236,4.236,0,0,0,.28-1.261,10.9,10.9,0,0,0,.07-1.4c0-.14,0-.21-.07-.21,0-.07-.21-.07-.42-.07V42.3h3.5v.21c-.28,0-.42,0-.42.07a4.4,4.4,0,0,0-.07,1.332V45.8c0,.07,0,.07.07.07h.771Zm-1.472-.14V42.58H51.032a3.218,3.218,0,0,1-.07.7,4.263,4.263,0,0,1-.561,2.453h1.752C52.223,45.8,52.363,45.734,52.5,45.734Z" transform="translate(-49.7 -42.3)"/>
      </g>
    </g>
  </g>
</svg>
