<svg width="14" height="19" viewBox="0 0 14 19" fill="none" xmlns="http://www.w3.org/2000/svg">
<path d="M6.64111 18.1556C10.8452 18.1556 13.7383 15.4017 13.7383 11.4466C13.7383 10.2967 13.438 9.01495 12.9839 8.12872C12.8154 7.80646 12.5298 7.61603 12.1855 7.61603C11.8926 7.61603 11.6216 7.76984 11.4385 8.03351C11.4092 8.08478 11.3726 8.12872 11.3359 8.17999C11.0503 4.01251 7.77637 0.921692 3.78467 0.921692C2.70801 0.921692 1.97559 1.28058 1.97559 2.04962C1.97559 2.32794 2.11475 2.62091 2.29785 2.86993C2.70068 3.4046 3.42578 4.33478 3.71143 5.67511C3.33057 5.38947 2.89844 5.22101 2.45898 5.22101C1.92432 5.22101 1.53613 5.60187 1.53613 6.15118C1.53613 6.36359 1.55811 6.81769 1.55811 7.13995C1.55811 8.63409 0.254395 10.0916 0.254395 12.5892C0.254395 15.8484 2.90576 18.1556 6.64111 18.1556ZM6.82422 16.2147C4.01904 16.2147 2.19531 14.7791 2.19531 12.5892C2.19531 10.6776 3.16943 9.68878 3.4624 7.93097C3.64551 8.26788 3.81396 8.64142 3.96777 9.06622C4.02637 9.21271 4.09961 9.33722 4.19482 9.43976C4.51709 9.7254 5.13232 9.65216 5.30078 9.0882C5.50586 8.45831 5.66699 7.76251 5.66699 6.89825C5.66699 5.47736 5.3374 4.1297 4.55371 2.87726C7.20508 3.2215 9.39502 5.86554 9.40234 8.93439C9.40234 9.82062 9.28516 10.6263 9.03613 11.4905C8.86768 12.0984 9.51221 12.5452 10.0322 12.179C10.6182 11.7689 11.27 11.1317 11.7754 10.5018C11.8193 10.7215 11.8413 10.9339 11.8413 11.117C11.8413 14.1492 9.81982 16.2147 6.82422 16.2147Z" fill="#131313"/>
</svg>
