<svg width="16" height="17" viewBox="0 0 16 17" fill="none" xmlns="http://www.w3.org/2000/svg">
<path d="M7.99268 16.6367C12.3506 16.6367 15.9102 13.0771 15.9102 8.71924C15.9102 4.36133 12.3506 0.801758 7.99268 0.801758C3.63477 0.801758 0.0825195 4.36133 0.0825195 8.71924C0.0825195 13.0771 3.64209 16.6367 7.99268 16.6367ZM7.99268 14.249C4.93848 14.249 2.47021 11.7734 2.47021 8.71924C2.47021 5.66504 4.93848 3.18945 7.99268 3.18945C11.0469 3.18945 13.5225 5.66504 13.5225 8.71924C13.5225 11.7734 11.0542 14.249 7.99268 14.249ZM6.8208 12.1543C7.34082 12.1543 7.67773 11.8174 7.67773 11.312V11.1216H8.95947C9.15723 11.1216 9.25977 11.0044 9.25977 10.8286C9.25977 10.6528 9.15723 10.5356 8.95947 10.5356H7.67773V9.86182H8.58594C9.94824 9.86182 10.8711 9.00488 10.8711 7.80371C10.8711 6.58057 9.99219 5.73096 8.68115 5.73096H6.8501C6.29346 5.73096 5.97852 6.06055 5.97852 6.64648V9.26123H5.42188C5.22412 9.26123 5.11426 9.37842 5.11426 9.56152C5.11426 9.74463 5.22412 9.85449 5.42188 9.85449H5.97852V10.5356H5.42188C5.22412 10.5356 5.12158 10.6528 5.12158 10.8286C5.12158 11.0044 5.23145 11.1216 5.42188 11.1216H5.97852V11.312C5.97852 11.8174 6.31543 12.1543 6.8208 12.1543ZM7.67773 8.56543V7.09326H8.30029C8.83496 7.09326 9.15723 7.37891 9.15723 7.82568C9.15723 8.27246 8.83496 8.57275 8.29297 8.57275L7.67773 8.56543Z" fill="#131313"/>
</svg>
