<svg width="18" height="15" viewBox="0 0 18 15" fill="none" xmlns="http://www.w3.org/2000/svg">
<path d="M5.06689 14.6992C5.52832 14.6992 5.79932 14.5234 6.11426 14.0474L10.1279 7.97559L13.812 2.4458C13.9731 2.19678 14.0757 1.9624 14.0757 1.70605C14.0757 1.14209 13.6289 0.724609 13.0356 0.724609C12.4863 0.724609 12.23 0.929688 11.915 1.40576L8.05518 7.26514L4.23926 12.978C4.08545 13.2124 3.98291 13.4175 3.98291 13.7397C3.98291 14.333 4.51758 14.6992 5.06689 14.6992ZM3.77783 8.25391C5.77002 8.25391 7.03711 6.82568 7.03711 4.47461C7.03711 2.10156 5.75537 0.753906 3.77783 0.753906C1.80762 0.753906 0.51123 2.10889 0.51123 4.48193C0.51123 6.84033 1.78564 8.25391 3.77783 8.25391ZM3.77783 6.45215C3.14795 6.45215 2.84033 5.80029 2.84033 4.48193C2.84033 3.18555 3.15527 2.54834 3.77783 2.54834C4.40039 2.54834 4.70801 3.18555 4.70801 4.48193C4.70801 5.80029 4.40039 6.45215 3.77783 6.45215ZM14.2222 14.6699C16.2217 14.6699 17.4888 13.249 17.4888 10.8979C17.4888 8.5249 16.1997 7.16992 14.2222 7.16992C12.252 7.16992 10.9629 8.5249 10.9629 10.9053C10.9629 13.2637 12.2373 14.6699 14.2222 14.6699ZM14.2222 12.8755C13.5996 12.8755 13.292 12.2236 13.292 10.9053C13.292 9.60889 13.5996 8.97168 14.2222 8.97168C14.8447 8.97168 15.1523 9.60156 15.1523 10.9053C15.1523 12.2236 14.8447 12.8755 14.2222 12.8755Z" fill="#131313"/>
</svg>
