<svg width="24" height="23" viewBox="0 0 24 23" fill="none" xmlns="http://www.w3.org/2000/svg">
<path d="M9.97266 18.2305C11.918 18.2305 13.7344 17.5977 15.2109 16.543L20.7656 22.0977C21.0234 22.3555 21.3633 22.4844 21.7148 22.4844C22.4766 22.4844 23.0273 21.8984 23.0273 21.1484C23.0273 20.7969 22.9102 20.4688 22.6523 20.2109L17.1328 14.6797C18.293 13.1562 18.9844 11.2695 18.9844 9.21875C18.9844 4.26172 14.9297 0.207031 9.97266 0.207031C5.00391 0.207031 0.960938 4.26172 0.960938 9.21875C0.960938 14.1758 5.00391 18.2305 9.97266 18.2305ZM9.97266 16.2852C6.09375 16.2852 2.90625 13.0859 2.90625 9.21875C2.90625 5.35156 6.09375 2.15234 9.97266 2.15234C13.8398 2.15234 17.0391 5.35156 17.0391 9.21875C17.0391 13.0859 13.8398 16.2852 9.97266 16.2852Z" fill="#8B8B8B"/>
</svg>
