<svg width="16" height="15" viewBox="0 0 16 15" fill="none" xmlns="http://www.w3.org/2000/svg">
<path d="M6.91602 12.6777C7.90479 12.6777 8.84229 12.4434 9.67725 12.0186L12.0796 14.4282C12.4385 14.7871 12.9219 14.9556 13.4199 14.9556C14.4746 14.9556 15.2656 14.1426 15.2656 13.1025C15.2656 12.6265 15.1045 12.1504 14.7383 11.7842L12.3652 9.41113C12.834 8.53955 13.105 7.54346 13.105 6.48877C13.105 3.09033 10.3145 0.299805 6.91602 0.299805C3.51758 0.299805 0.727051 3.09033 0.727051 6.48877C0.727051 9.87988 3.51758 12.6777 6.91602 12.6777ZM6.91602 10.0996C4.9165 10.0996 3.30518 8.48828 3.30518 6.48877C3.30518 4.48926 4.9165 2.87793 6.91602 2.87793C8.91553 2.87793 10.5269 4.48926 10.5269 6.48877C10.5269 8.48828 8.91553 10.0996 6.91602 10.0996Z" fill="#131313"/>
</svg>
