<svg width="56" height="56" viewBox="0 0 56 56" fill="none" xmlns="http://www.w3.org/2000/svg">
<path d="M39.7202 32.1514C39.5509 32.2 39.4058 32.2728 39.2364 32.3214C39.2364 32.3214 39.2123 32.3214 39.2123 32.3457C38.8978 32.4671 38.6075 32.5885 38.3173 32.71C38.2689 32.7343 38.2205 32.7585 38.1479 32.7828C38.027 32.8314 37.8819 32.9043 37.7609 32.9528C37.6884 33.0014 37.5916 33.0257 37.519 33.0742C37.3981 33.1228 37.2771 33.1957 37.1804 33.2442C37.0111 33.3414 36.8176 33.4385 36.6482 33.5114C36.5515 33.5599 36.4789 33.6085 36.3822 33.6571C36.2612 33.7299 36.1403 33.8028 36.0193 33.8514C35.9468 33.8999 35.85 33.9485 35.7774 33.9971C35.6323 34.0699 35.5114 34.1671 35.3662 34.2642C35.3178 34.3128 35.2453 34.3371 35.1969 34.3856C35.0034 34.5071 34.8341 34.6285 34.6406 34.7742C34.5922 34.8228 34.5196 34.8471 34.4712 34.8956C34.3261 34.9928 34.181 35.0899 34.06 35.2113C34.0116 35.2599 33.9391 35.2842 33.8907 35.3328C33.6972 35.4785 33.5279 35.6242 33.3344 35.7699C32.6087 36.377 31.9556 37.0084 31.3751 37.6884C31.5202 36.887 31.5928 36.0613 31.5928 35.2113C31.5928 31.3986 30.1172 27.8529 27.6016 24.9873C25.086 27.8529 23.6104 31.3743 23.6104 35.2113C23.6104 36.0856 23.683 36.9599 23.8523 37.8098C23.2476 37.1056 22.5461 36.4256 21.7963 35.7942C21.627 35.6485 21.4334 35.5028 21.2399 35.357C21.1916 35.3085 21.119 35.2599 21.0706 35.2356C20.9255 35.1385 20.8045 35.0171 20.6594 34.9199C20.611 34.8713 20.5385 34.8471 20.4901 34.7985C20.2966 34.6771 20.1272 34.5314 19.9337 34.4099C19.8854 34.3856 19.837 34.3371 19.7886 34.3128C19.6435 34.2156 19.4983 34.1428 19.3532 34.0457C19.2806 33.9971 19.1839 33.9485 19.1113 33.8999C18.9904 33.8271 18.8694 33.7542 18.7485 33.6814C18.6517 33.6328 18.5792 33.5842 18.4824 33.5357C18.3131 33.4385 18.1196 33.3414 17.9502 33.2442C17.8535 33.1957 17.7325 33.1471 17.6358 33.0742C17.539 33.0257 17.4423 32.9771 17.3697 32.9528C17.2488 32.9043 17.1278 32.8314 17.0069 32.7828C16.9343 32.7585 16.8617 32.71 16.7892 32.6857C16.4989 32.5643 16.2086 32.4428 15.8942 32.3214C15.7491 32.2728 15.5797 32.2 15.4346 32.1514C15.3862 32.1271 15.3378 32.1271 15.2895 32.1028C13.7172 31.5443 12.0724 31.1557 10.4033 30.9372C11.0322 34.4585 12.9432 37.8341 16.1603 40.5298C17.3697 41.5255 19.2806 42.4726 21.2157 43.2497H21.2399C21.4334 43.3226 21.6028 43.3954 21.7963 43.4683C23.296 43.9783 24.9408 44.294 26.6824 44.3668V49.491H28.5692V44.3668C30.5285 44.2697 32.3668 43.8568 34.0116 43.2254H34.0358C34.0842 43.2011 34.1568 43.1769 34.2052 43.1526C34.447 43.0554 34.6647 42.9583 34.8824 42.8611C36.5031 42.1569 38.027 41.3555 39.0429 40.5055C42.26 37.8098 44.171 34.4099 44.7999 30.9129C43.1067 31.1314 41.4376 31.52 39.8412 32.0786C39.7686 32.1271 39.7444 32.1271 39.7202 32.1514Z" fill="black"/>
<path d="M44.4612 18.4545C42.2842 16.2689 39.1154 15.4189 36.1402 16.1717C35.8016 14.4718 34.9791 12.9418 33.7697 11.7275C32.1248 10.0519 29.9237 9.15332 27.5773 9.15332H27.5532C25.231 9.15332 23.0298 10.0519 21.385 11.7033C20.1756 12.9175 19.3531 14.4718 19.0145 16.1474C16.0393 15.3946 12.8463 16.2689 10.6935 18.4302C7.6941 21.4659 7.30707 26.3229 9.79853 29.7714L9.82272 29.8199H12.3384L12.1448 29.6257C12.0965 29.5771 12.0481 29.5528 12.0239 29.5042C10.7419 28.2171 10.0162 26.4929 10.0162 24.6472C10.0162 22.8015 10.7177 21.0773 12.0239 19.7902C13.3301 18.5031 15.0233 17.7745 16.8617 17.7745C17.5632 17.7745 18.2404 17.8717 18.9177 18.0902C19.5225 18.2845 20.1272 18.5517 20.6593 18.9159L20.8286 19.0374L20.8045 18.8431C20.7077 18.2117 20.7319 17.556 20.8045 16.9246C21.0222 15.4432 21.6753 14.1075 22.7396 13.0632C23.9974 11.7518 25.6906 11.0476 27.5048 11.0233H27.6741C29.4883 11.0476 31.1815 11.7518 32.4393 13.0389C33.4794 14.0832 34.1567 15.4189 34.3744 16.9003C34.4712 17.5317 34.4712 18.1874 34.3744 18.8188L34.3502 19.0131L34.5195 18.8916C35.0517 18.5274 35.6322 18.2602 36.2611 18.066C36.9384 17.8474 37.6157 17.7502 38.3172 17.7502C40.1556 17.7502 41.873 18.4545 43.155 19.7659C44.437 21.0773 45.1626 22.7773 45.1626 24.6229C45.1626 26.4686 44.4612 28.1928 43.155 29.48C43.1066 29.5285 43.0582 29.5528 43.034 29.6014L42.8405 29.7957H45.3562L45.3803 29.7471C47.8476 26.3229 47.4606 21.4659 44.4612 18.4545Z" fill="black"/>
</svg>
