<svg width="48" height="22" viewBox="0 0 48 22" fill="none" xmlns="http://www.w3.org/2000/svg">
<path d="M37.2 0C34.32 0 31.6 1.0967 29.65 3.00608L24 7.90188L23.99 7.89206L20.96 10.5064L20.9799 10.526L15.59 15.2064C14.31 16.45 12.61 17.1355 10.8 17.1355C7.06003 17.1355 4.02 14.1686 4.02 10.5261C4.02 6.88358 7.06003 3.9167 10.8 3.9167C12.61 3.9167 14.31 4.60215 15.68 5.93376L17.9499 7.90188L20.9699 5.2875L18.4399 3.0942C16.3999 1.10652 13.6898 0.00982318 10.7999 0.00982318C4.84003 9.07589e-07 0 4.71965 0 10.5261C0 16.3325 4.84003 21.0522 10.8 21.0522C13.68 21.0522 16.39 19.9555 18.35 18.0559L24 13.1503L24.01 13.1601L27.03 10.5359L27.02 10.5261L32.4099 5.85545C33.69 4.60215 35.39 3.9167 37.2 3.9167C40.94 3.9167 43.98 6.88358 43.98 10.5261C43.98 14.1686 40.94 17.1355 37.2 17.1355C35.39 17.1355 33.69 16.45 32.32 15.1281L30.0501 13.16L27.03 15.7842L29.56 17.9775C31.6 19.9652 34.3101 21.0521 37.1901 21.0521C43.16 21.0522 48 16.3325 48 10.5261C48 4.71965 43.16 0 37.2 0Z" fill="black"/>
</svg>
