<svg width="56" height="56" viewBox="0 0 56 56" fill="none" xmlns="http://www.w3.org/2000/svg">
<path d="M38.2303 28.6294C30.5688 21.9832 35.038 13.4406 38.2303 10C35.9319 18.5594 38.2303 19.0629 45.8919 28.6294C52.0211 36.2825 43.338 43.3986 38.2303 46C41.4227 42.979 45.8919 35.2755 38.2303 28.6294Z" fill="black"/>
<path d="M25.626 28.6294C19.059 21.9832 22.8897 13.4406 25.626 10C23.6559 18.5594 25.626 19.0629 32.193 28.6294C37.4467 36.2825 30.004 43.3986 25.626 46C28.3623 42.979 32.1931 35.2755 25.626 28.6294Z" fill="black"/>
<path d="M12.9282 28.6294C5.81387 21.9832 9.96388 13.4406 12.9282 10C10.7939 18.5594 12.9282 19.0629 20.0425 28.6294C25.7339 36.2825 17.671 43.3986 12.9282 46C15.8925 42.979 20.0425 35.2755 12.9282 28.6294Z" fill="black"/>
</svg>
