<svg width="56" height="56" viewBox="0 0 56 56" fill="none" xmlns="http://www.w3.org/2000/svg">
<path d="M32.3891 26.6926C30.8292 23.8838 29.0942 21.4529 28.1988 20.2537C28.0789 20.0932 27.8991 19.9999 27.7093 20C27.5195 20 27.3397 20.0932 27.2199 20.2538C26.3245 21.4533 24.5895 23.8851 23.0295 26.6941C21.0193 30.3142 20 33.3073 20 35.5899C20 40.2273 23.4584 44 27.7093 44C31.9602 44 35.4185 40.2273 35.4185 35.5899C35.4186 33.3058 34.3994 30.3123 32.3891 26.6926ZM28.7672 40.9024C28.317 41.028 27.8498 41.0916 27.3781 41.0916C24.4979 41.0916 22.1548 38.717 22.1548 35.7982C22.1548 35.0936 22.3252 34.2703 22.6612 33.3513C22.718 33.1961 22.8797 33.1075 23.0391 33.145C23.1984 33.1825 23.3054 33.334 23.289 33.4988C23.2694 33.6959 23.2594 33.8884 23.2594 34.0708C23.2594 37.2471 25.6055 39.907 28.7168 40.2576C28.8716 40.2751 28.9924 40.4014 29.0047 40.5589C29.0171 40.7163 28.9174 40.8605 28.7672 40.9024Z" fill="black"/>
<rect x="4" y="10" width="48" height="2" fill="black"/>
</svg>
