<svg width="56" height="56" viewBox="0 0 56 56" fill="none" xmlns="http://www.w3.org/2000/svg">
<path d="M27.9999 14C29.8398 14 31.4291 12.786 32 11C30.9108 11.3103 29.5224 11.4975 27.9999 11.4975C26.4774 11.4975 25.0891 11.3103 24 11C24.5706 12.7858 26.1598 14 27.9999 14Z" fill="black"/>
<path d="M47.9502 15.3939C47.8679 15.1616 47.6967 14.9706 47.4736 14.8666L39.8475 11.3256C38.2253 10.7729 36.5727 10.3363 34.9039 10.0172C34.8452 10.0056 34.7867 10 34.729 10C34.3159 10 33.946 10.2868 33.854 10.7075C33.2446 13.4058 30.8699 15.426 27.9999 15.426C25.13 15.426 22.7551 13.406 22.1459 10.7075C22.0528 10.2868 21.6836 10 21.2707 10C21.2131 10 21.1546 10.0056 21.0959 10.0172C19.4273 10.3363 17.7746 10.7729 16.1499 11.3256L8.52644 14.8665C8.30203 14.9705 8.12959 15.1615 8.05122 15.3938C7.97015 15.6287 7.98477 15.8824 8.099 16.104L11.4097 22.6758C11.5647 22.9877 11.8799 23.1749 12.2134 23.1749C12.2995 23.1749 12.3868 23.1624 12.4729 23.1363L16.15 22.0401V44.0909C16.15 44.5916 16.5562 45 17.0554 45H38.9448C39.4427 45 39.8476 44.5914 39.8476 44.0909V22.0404L43.5273 23.1366C43.6134 23.1626 43.7005 23.1751 43.7865 23.1751C44.1193 23.1751 44.4333 22.988 44.5905 22.6761L47.9024 16.1043C48.0139 15.8825 48.0299 15.6289 47.9502 15.3939Z" fill="black"/>
</svg>
