<svg width="25" height="40" viewBox="0 0 25 40" fill="none" xmlns="http://www.w3.org/2000/svg">
<path d="M23.0344 6.67844L18.928 4.88704C17.1641 4.11536 15.6208 2.87516 14.4908 1.30424L13.9947 0.615234H11.0182L10.5497 1.27668C9.41976 2.8476 7.8764 4.0878 6.11255 4.85948L1.97855 6.67844C0.821026 7.17452 0.0769043 8.33205 0.0769043 9.59981V12.1078V12.1353C0.0769043 13.4307 0.765905 14.6157 1.81319 15.3599L3.13607 16.2969C5.28575 17.7851 6.19523 20.5411 5.34087 23.0215L1.84075 33.1361C1.75807 33.3841 1.70295 33.6322 1.70295 33.8802V37.1323C1.70295 38.2622 2.61243 39.1717 3.76995 39.1717H21.2706C22.4005 39.1717 23.31 38.2622 23.3376 37.1323V33.8802C23.3376 33.6322 23.2825 33.3566 23.1998 33.1361L19.6997 23.0215C18.8453 20.5411 19.7272 17.7851 21.9045 16.2969L23.2273 15.3599C24.2746 14.6157 24.9636 13.4307 24.9636 12.1353V12.1078V9.59981C24.9636 8.33205 24.1919 7.17452 23.0344 6.67844Z" fill="#060708"/>
</svg>
