<svg width="196" height="32" viewBox="0 0 196 32" fill="none" xmlns="http://www.w3.org/2000/svg">
<path d="M33.7391 0H7.36934H6.74783C6.30389 0 5.77117 0.179272 5.41602 0.448179C5.06087 0.806723 4.70572 1.16527 4.61693 1.70308L0.0887872 19.8992C0.0887872 19.9888 0 20.0784 0 20.2577C0 20.3473 0 20.437 0 20.6162C0 21.2437 0.266362 21.7815 0.62151 22.2297C1.06545 22.6779 1.59817 22.8571 2.21968 22.8571H10.7432H11.4535L11.276 23.5742L9.94416 29.042C9.94416 29.1317 9.85538 29.2213 9.85538 29.4006C9.85538 29.4902 9.85538 29.5798 9.85538 29.7591C9.85538 30.3866 10.1217 30.9244 10.4769 31.3725C10.9208 31.8207 11.4535 32 12.0751 32H38.4448H39.0664C39.5991 32 40.043 31.8207 40.3982 31.5518C40.7533 31.2829 41.0197 30.8347 41.1973 30.2969L41.9076 27.5182H36.8467H21.7529H15.7153H15.005L15.1826 26.8011L16.0705 23.3053L16.1593 22.8571H16.6032H28.6783H29.2998C29.8325 22.8571 30.2764 22.6779 30.6316 22.409C30.9867 22.1401 31.2531 21.6919 31.4307 21.1541L33.2064 14.1625L33.2952 13.7143H33.7391H39.9542H45.2815L45.6366 12.1905C45.6366 12.1008 45.7254 12.0112 45.7254 11.8319C45.7254 11.7423 45.7254 11.6527 45.7254 11.4734C45.7254 10.8459 45.459 10.3081 45.1039 9.85994C44.66 9.41177 44.1272 9.23249 43.5057 9.23249H34.9822H34.2719L34.4494 8.51541L35.7812 3.04762C35.7812 2.95798 35.87 2.86835 35.87 2.68908C35.87 2.59944 35.87 2.5098 35.87 2.33053C35.87 1.70308 35.6037 1.16527 35.2485 0.717087C34.8934 0.268908 34.3606 0 33.7391 0ZM29.2998 9.14286H17.2247H16.6032C16.0705 9.14286 15.6265 9.32213 15.2714 9.59104C14.9162 9.85994 14.6499 10.3081 14.4723 10.8459L12.6966 17.8375L12.6078 18.2857H12.1638H5.77117H5.06087L5.23844 17.5686L8.34599 4.92997L8.52357 4.48179H8.96751H30.0989H30.8092L30.6316 5.19888L29.7437 8.69468L29.6549 9.14286H29.2998ZM21.6641 13.6247H27.7904H28.5007L28.4119 14.3417L27.524 17.8375L27.4352 18.2857H26.9913H17.935H17.2247L17.4023 17.5686L18.2902 14.0728L18.3789 13.6247H18.8229H21.6641Z" fill="black"/>
<path d="M82.2169 9.32227H87.3666L77.9551 24.2018H72.4503L68.8101 9.32227H73.9597L76.1794 19.4511L82.2169 9.32227Z" fill="black"/>
<path d="M118.886 13.7144C119.152 12.2802 119.774 11.2046 120.662 10.4875C121.638 9.68081 122.792 9.32227 124.124 9.32227H133.624L132.914 13.087H124.657C123.947 13.087 123.503 13.4455 123.325 14.1626L123.059 15.5968L122.349 19.3615C122.171 20.0786 122.526 20.4371 123.236 20.4371H131.494C130.961 23.1262 130.073 24.2018 126.965 24.2018H124.035H121.017C119.774 24.2018 118.797 23.8433 118.176 23.0366C117.554 22.3195 117.376 21.2438 117.643 19.9889L117.732 19.72L118.531 15.5071L118.886 13.7144Z" fill="black"/>
<path d="M166.209 15.1487L164.434 24.2019H159.906L161.77 14.4316C161.859 14.1627 161.77 13.8938 161.593 13.7145C161.06 13.087 158.307 13.356 156.709 15.2383L155.022 24.2019H150.494L153.335 9.41197H157.597L157.331 10.8461C158.84 9.94979 161.326 9.14307 162.924 9.14307H163.191C163.99 9.14307 164.7 9.32234 165.233 9.59125C165.677 9.86015 166.032 10.2187 166.298 10.6669L166.565 11.0254C167.896 10.1291 171.093 9.14307 172.78 9.14307H173.046C173.845 9.14307 174.289 9.32234 174.733 9.59125C175.266 9.94979 175.621 10.3083 175.887 10.7565C176.242 11.4736 176.154 12.9974 175.887 14.4316L173.934 24.2019H169.406L171.27 14.4316C171.359 14.1627 171.27 13.8938 171.093 13.7145C170.649 12.9974 167.896 13.6249 166.209 15.1487Z" fill="black"/>
<path d="M117.199 13.0868C115.69 13.0868 110.629 12.9076 110.185 15.2381L108.498 24.112H103.97L106.811 9.32213H111.073L110.806 10.7563C113.648 9.14286 115.512 9.05322 117.998 9.05322L117.199 13.0868Z" fill="black"/>
<path d="M63.5715 9.05322H57.1788C54.604 9.05322 52.0292 11.2045 51.4965 13.8039L50.3422 19.6303C49.8095 22.2297 51.5852 24.381 54.1601 24.381H60.5527C63.1276 24.381 65.7024 22.2297 66.2351 19.6303L67.3894 13.8039C67.8333 11.2045 66.1463 9.05322 63.5715 9.05322ZM62.7724 13.8039L61.6182 19.7199C61.4406 20.437 60.5527 21.0644 59.7537 21.0644H56.2022C55.4919 21.0644 54.6928 20.437 54.7816 19.7199L55.9358 13.7143C56.1134 12.9972 57.09 12.3697 57.8003 12.3697H61.3518C62.2397 12.4594 62.95 12.9972 62.7724 13.8039Z" fill="black"/>
<path d="M102.815 10.2185C102.194 9.41177 101.217 9.05322 99.7965 9.05322H92.7823C91.3617 9.05322 90.2075 9.41177 89.3196 10.2185C88.343 11.0252 87.8102 12.1008 87.5439 13.4454L86.1233 20.1681C85.8569 21.423 86.0345 22.409 86.656 23.2157C87.2775 23.9328 88.1654 24.381 89.4972 24.381H91.8944H97.8432C100.329 24.381 101.572 22.7675 101.927 20.7059H92.3384H91.6281C91.3617 20.7059 91.0954 20.6162 91.0066 20.437C90.829 20.2577 90.829 20.0784 90.829 19.8095L91.0066 18.7339H99.4414H102.371C102.549 17.8375 102.726 16.9412 102.904 16.0448L103.348 13.6247C103.614 12.1008 103.437 11.0252 102.815 10.2185ZM98.7311 13.7143L98.4647 15.2381H91.7169L91.9832 13.7143C92.1608 12.9972 92.6047 12.6387 93.315 12.6387H97.8432C98.5535 12.549 98.9086 12.9076 98.7311 13.7143Z" fill="black"/>
<path d="M193.29 10.2185C192.668 9.41177 191.691 9.05322 190.271 9.05322H183.257C181.836 9.05322 180.682 9.41177 179.794 10.2185C178.817 11.0252 178.285 12.1008 178.018 13.4454L176.775 20.0784C176.509 21.3333 176.686 22.3193 177.308 23.126C177.929 23.8431 178.817 24.2913 180.149 24.2913H182.546H188.495C190.981 24.2913 192.224 22.6779 192.579 20.6162H182.901H182.191C181.925 20.6162 181.658 20.5266 181.57 20.3473C181.392 20.1681 181.392 19.9888 181.392 19.7199L181.57 18.6443H190.004H192.934C193.112 17.7479 193.29 16.8515 193.467 15.9552L193.911 13.535C194.177 12.1008 193.911 11.0252 193.29 10.2185ZM189.294 13.7143L189.028 15.2381H182.28L182.546 13.7143C182.724 12.9972 183.168 12.6387 183.878 12.6387H188.406C189.117 12.549 189.383 12.9076 189.294 13.7143Z" fill="black"/>
<path d="M146.499 9.05322H140.106C137.531 9.05322 134.956 11.2045 134.424 13.8039L133.269 19.6303C132.737 22.2297 134.512 24.381 137.087 24.381H143.48C146.055 24.381 148.63 22.2297 149.162 19.6303L150.317 13.8039C150.761 11.2045 149.074 9.05322 146.499 9.05322ZM145.7 13.8039L144.545 19.8095C144.368 20.5266 143.48 21.1541 142.681 21.1541H139.129C138.419 21.1541 137.62 20.5266 137.709 19.8095L138.863 13.8039C139.041 13.0868 140.017 12.4594 140.728 12.4594H144.279C145.078 12.4594 145.877 12.9972 145.7 13.8039Z" fill="black"/>
</svg>
