<svg width="56" height="56" viewBox="0 0 56 56" fill="none" xmlns="http://www.w3.org/2000/svg">
<path d="M28.1931 14.7226C30.0495 14.7226 31.5544 13.2177 31.5544 11.3613C31.5544 9.50491 30.0495 8 28.1931 8C26.3367 8 24.8318 9.50491 24.8318 11.3613C24.8318 13.2177 26.3367 14.7226 28.1931 14.7226Z" fill="black"/>
<path d="M35.4369 19.176C35.4369 19.176 35.625 15.4219 31.6637 15.4219H24.7948C20.9746 15.4219 21.0025 18.8887 21 19.176L21.0013 29.8295C21.0636 30.4041 21.6306 31.0589 22.3349 31.0589C23.0354 31.0589 23.5502 30.4245 23.6138 29.8486L24.8063 46.8154C24.894 47.6786 25.5042 48.0002 26.2543 48.0002C27.0031 48.0002 27.612 47.6786 27.6997 46.8154H28.7587C28.8503 47.6786 29.458 48.0002 30.2042 48.0002C30.9555 48.0002 31.5645 47.6786 31.6548 46.8154L32.8828 29.8384C32.8828 30.4143 33.4397 31.0627 34.144 31.0627C34.8457 31.0627 35.4064 30.4054 35.4687 29.8308L35.4369 19.176Z" fill="black"/>
</svg>
