<svg width="56" height="56" viewBox="0 0 56 56" fill="none" xmlns="http://www.w3.org/2000/svg">
<path d="M29.5627 30.603C29.4271 30.8766 29.2452 31.133 29.0172 31.3606C27.8403 32.5379 25.901 32.4882 24.7885 31.2116C23.5119 30.0991 23.4622 28.1598 24.6391 26.9825C24.8671 26.7549 25.1235 26.573 25.3971 26.437C26.0017 26.1366 26.5704 25.7696 27.0759 25.3259L21.8337 20.0837L27.0759 14.8415C27.52 15.3474 27.887 15.916 28.1874 16.521C28.323 16.7942 28.505 17.0507 28.7329 17.2786C29.9102 18.4559 31.8498 18.4059 32.9623 17.1286C34.2396 16.0161 34.2896 14.0761 33.1124 12.8988C32.8848 12.6712 32.6283 12.4893 32.3547 12.3533C31.7501 12.0529 31.1815 11.686 30.6756 11.2422L35.9178 6L41.1599 11.2422C41.6037 10.7363 41.9706 10.1676 42.2711 9.56305C42.407 9.28946 42.5886 9.03332 42.8166 8.80539C43.9939 7.62811 45.9332 7.67813 47.0456 8.95444C48.3223 10.0669 48.372 12.0062 47.1947 13.1835C46.9668 13.4111 46.7106 13.593 46.437 13.729C45.8325 14.0294 45.2638 14.3964 44.7579 14.8401L50.0001 20.0823L44.7579 25.3245C44.3141 24.8186 43.9472 24.25 43.6468 23.6454C43.5108 23.3718 43.3292 23.1157 43.1013 22.8877C41.924 21.7104 39.984 21.7605 38.8715 23.0378C37.5942 24.1503 37.5442 26.0899 38.7215 27.2672C38.9494 27.4951 39.2059 27.6771 39.4791 27.8127C40.084 28.1131 40.6527 28.4804 41.1583 28.9242L35.9161 34.1663L30.6739 28.9242C30.2301 29.4297 29.8632 29.9984 29.5627 30.603Z" fill="black"/>
<path d="M11.2422 30.6741C10.7363 30.2303 10.1676 29.8634 9.56305 29.563C9.28946 29.427 9.03332 29.2454 8.80539 29.0175C7.62811 27.8405 7.67813 25.9012 8.95444 24.7884C10.0669 23.5121 12.0062 23.4624 13.1835 24.6394C13.4111 24.8673 13.593 25.1238 13.729 25.397C14.0294 26.002 14.3964 26.5706 14.8401 27.0762L20.0823 21.834L23.1959 24.9475C23.0901 25.0382 22.9874 25.1332 22.8884 25.2322C21.8407 26.2802 21.2687 27.7308 21.3194 29.2122C21.368 30.6365 21.9911 31.9947 23.0354 32.9649C24.0056 34.0089 25.3638 34.632 26.7881 34.681C28.2696 34.7317 29.7201 34.1596 30.7681 33.1119C30.8672 33.0126 30.9622 32.9102 31.0525 32.8041L34.1663 35.918L28.9242 41.1602C29.4297 41.604 29.9984 41.9709 30.603 42.2713C30.8766 42.4069 31.133 42.5889 31.361 42.8168C32.5379 43.9938 32.4882 45.9331 31.2116 47.0456C30.0991 48.3222 28.1598 48.3719 26.9828 47.1949C26.7549 46.967 26.573 46.7105 26.4373 46.4369C26.1369 45.8324 25.77 45.2637 25.3262 44.7578L20.084 50L14.8418 44.7578C15.3474 44.314 15.916 43.9471 16.521 43.6467C16.7942 43.511 17.0507 43.3291 17.2786 43.1012C18.4559 41.9239 18.4059 39.9842 17.1286 38.8718C16.0161 37.5944 14.0761 37.5444 12.8988 38.7217C12.6712 38.9493 12.4893 39.2058 12.3533 39.4794C12.0529 40.0839 11.686 40.6526 11.2422 41.1585L6 35.9163L11.2422 30.6741Z" fill="black"/>
</svg>
