<svg width="20" height="20" viewBox="0 0 20 20" fill="none" xmlns="http://www.w3.org/2000/svg">
<circle cx="9.99972" cy="10.0002" r="7.89474" fill="black"/>
<circle cx="10" cy="10" r="9.5" stroke="black"/>
<path d="M8.1527 7.07C8.2727 7.29 8.40936 7.56333 8.5627 7.89C8.7227 8.21 8.88603 8.56 9.0527 8.94C9.22603 9.31333 9.39603 9.69667 9.5627 10.09C9.72936 10.4833 9.88603 10.8533 10.0327 11.2C10.1794 10.8533 10.336 10.4833 10.5027 10.09C10.6694 9.69667 10.836 9.31333 11.0027 8.94C11.176 8.56 11.3394 8.21 11.4927 7.89C11.6527 7.56333 11.7927 7.29 11.9127 7.07H13.3327C13.3994 7.53 13.4594 8.04667 13.5127 8.62C13.5727 9.18667 13.6227 9.78 13.6627 10.4C13.7094 11.0133 13.7494 11.63 13.7827 12.25C13.8227 12.87 13.856 13.4533 13.8827 14H12.3627C12.3427 13.3267 12.316 12.5933 12.2827 11.8C12.2494 11.0067 12.1994 10.2067 12.1327 9.4C12.0127 9.68 11.8794 9.99 11.7327 10.33C11.586 10.67 11.4394 11.01 11.2927 11.35C11.1527 11.69 11.016 12.0167 10.8827 12.33C10.7494 12.6367 10.636 12.9 10.5427 13.12H9.4527C9.35936 12.9 9.24603 12.6367 9.1127 12.33C8.97936 12.0167 8.83936 11.69 8.6927 11.35C8.5527 11.01 8.40936 10.67 8.2627 10.33C8.11603 9.99 7.9827 9.68 7.8627 9.4C7.79603 10.2067 7.74603 11.0067 7.7127 11.8C7.67936 12.5933 7.6527 13.3267 7.6327 14H6.1127C6.13936 13.4533 6.16936 12.87 6.2027 12.25C6.2427 11.63 6.2827 11.0133 6.3227 10.4C6.36936 9.78 6.41936 9.18667 6.4727 8.62C6.5327 8.04667 6.59603 7.53 6.6627 7.07H8.1527Z" fill="white"/>
</svg>
