<svg width="18" height="24" viewBox="0 0 18 24" fill="none" xmlns="http://www.w3.org/2000/svg">
<path d="M8.83535 0C3.96377 0 0 3.96377 0 8.83583C0 10.1067 0.260109 11.32 0.772712 12.4425C2.98179 17.2765 7.21722 22.3802 8.46299 23.829C8.55632 23.9374 8.6924 23.9998 8.83559 23.9998C8.97879 23.9998 9.11486 23.9374 9.20819 23.829C10.4535 22.3804 14.6889 17.277 16.8987 12.4425C17.4116 11.32 17.6714 10.1067 17.6714 8.83583C17.6709 3.96377 13.7072 0 8.83535 0ZM8.83535 13.4252C6.30475 13.4252 4.24574 11.3662 4.24574 8.83559C4.24574 6.30475 6.30475 4.24574 8.83535 4.24574C11.3659 4.24574 13.425 6.30475 13.425 8.83559C13.4252 11.3662 11.3662 13.4252 8.83535 13.4252Z" fill="black"/>
</svg>
