<svg width="26" height="25" viewBox="0 0 26 25" fill="none" xmlns="http://www.w3.org/2000/svg">
<path d="M13 24.668C19.6328 24.668 25.1172 19.1836 25.1172 12.5508C25.1172 5.90625 19.6211 0.421875 12.9883 0.421875C6.35547 0.421875 0.882812 5.90625 0.882812 12.5508C0.882812 19.1836 6.36719 24.668 13 24.668ZM19.7852 12.5391C19.7852 12.9023 19.6445 13.1953 19.3516 13.4766L14.9102 17.8477C14.6875 18.0469 14.4414 18.1641 14.1133 18.1641C13.5039 18.1641 13.0469 17.707 13.0469 17.0859C13.0469 16.7578 13.1875 16.4766 13.3867 16.2891L14.9688 14.7773L16.4453 13.582L13.7383 13.7109H7.36328C6.69531 13.7109 6.22656 13.207 6.22656 12.5391C6.23828 11.8594 6.69531 11.3672 7.36328 11.3672H13.7383L16.4336 11.4844L14.957 10.3008L13.3867 8.77734C13.1875 8.58984 13.0469 8.30859 13.0469 7.99219C13.0469 7.37109 13.5039 6.91406 14.1133 6.91406C14.4414 6.91406 14.6875 7.01953 14.9102 7.23047L19.3516 11.6016C19.6562 11.8945 19.7852 12.1875 19.7852 12.5391Z" fill="#FFD60A"/>
</svg>
