<svg width="26" height="25" viewBox="0 0 26 25" fill="none" xmlns="http://www.w3.org/2000/svg">
<path d="M13 24.668C19.6328 24.668 25.1172 19.1836 25.1172 12.5508C25.1172 5.90625 19.6211 0.421875 12.9883 0.421875C6.35547 0.421875 0.882812 5.90625 0.882812 12.5508C0.882812 19.1836 6.36719 24.668 13 24.668ZM6.22656 12.5391C6.22656 12.1875 6.35547 11.8945 6.66016 11.6016L11.1016 7.23047C11.3242 7.01953 11.5703 6.91406 11.8984 6.91406C12.5078 6.91406 12.9766 7.37109 12.9766 7.99219C12.9766 8.30859 12.8242 8.58984 12.625 8.77734L11.0547 10.3008L9.57812 11.4844L12.2734 11.3672H18.6484C19.3164 11.3672 19.7734 11.8594 19.7852 12.5391C19.7852 13.207 19.3164 13.7109 18.6484 13.7109H12.2734L9.56641 13.582L11.043 14.7773L12.625 16.2891C12.8242 16.4766 12.9766 16.7578 12.9766 17.0859C12.9766 17.707 12.5078 18.1641 11.8984 18.1641C11.5703 18.1641 11.3242 18.0469 11.1016 17.8477L6.66016 13.4766C6.36719 13.1953 6.22656 12.9023 6.22656 12.5391Z" fill="white"/>
</svg>
