<svg width="16" height="17" viewBox="0 0 16 17" fill="none" xmlns="http://www.w3.org/2000/svg">
<path d="M0.511719 14.4968C0.113281 14.8953 0.101562 15.575 0.511719 15.9851C0.910156 16.3953 1.58984 16.3835 2 15.9851L8 9.97339L14.0117 15.9851C14.4102 16.3835 15.0898 16.3953 15.4883 15.9851C15.9102 15.575 15.8984 14.8953 15.4883 14.4968L9.48828 8.48511L15.4883 2.48511C15.8984 2.08667 15.9102 1.39526 15.4883 0.996826C15.0898 0.58667 14.4102 0.598389 14.0117 0.996826L8 7.00854L2 0.996826C1.58984 0.598389 0.910156 0.58667 0.511719 0.996826C0.101562 1.39526 0.113281 2.08667 0.511719 2.48511L6.51172 8.48511L0.511719 14.4968Z" fill="#8B8B8B"/>
</svg>
